<?xml version="1.0" encoding="UTF-8" standalone="no"?>
<!-- This is a Stata 17.0 generated SVG file (http://www.stata.com) -->

<svg version="1.1" width="5.500in" height="4.000in" viewBox="0 0 3960 2880" xmlns="http://www.w3.org/2000/svg" xmlns:xlink="http://www.w3.org/1999/xlink">
	<desc>Stata Graph - Graph</desc>
	<rect x="0" y="0" width="3960" height="2880" style="fill:#EAF2F3;stroke:none"/>
	<rect x="0.00" y="0.00" width="3959.88" height="2880.00" style="fill:#FFFFFF"/>
	<rect x="2.88" y="2.88" width="3954.12" height="2874.24" style="fill:none;stroke:#FFFFFF;stroke-width:5.76"/>
	<rect x="390.80" y="100.86" width="3468.22" height="2388.33" style="fill:#FFFFFF"/>
	<rect x="393.68" y="103.74" width="3462.46" height="2382.57" style="fill:none;stroke:#FFFFFF;stroke-width:5.76"/>
	<line x1="390.80" y1="2425.82" x2="3859.02" y2="2425.82" style="stroke:#EAF2F3;stroke-width:8.64"/>
	<line x1="390.80" y1="1671.91" x2="3859.02" y2="1671.91" style="stroke:#EAF2F3;stroke-width:8.64"/>
	<line x1="390.80" y1="918.01" x2="3859.02" y2="918.01" style="stroke:#EAF2F3;stroke-width:8.64"/>
	<line x1="390.80" y1="164.22" x2="3859.02" y2="164.22" style="stroke:#EAF2F3;stroke-width:8.64"/>
	<line x1="1985.69" y1="2489.19" x2="1985.69" y2="2431.64" style="stroke:#C10534;stroke-width:8.64"/>
	<line x1="1985.69" y1="2402.81" x2="1985.69" y2="2345.26" style="stroke:#C10534;stroke-width:8.64"/>
	<line x1="1985.69" y1="2316.42" x2="1985.69" y2="2258.76" style="stroke:#C10534;stroke-width:8.64"/>
	<line x1="1985.69" y1="2230.04" x2="1985.69" y2="2172.38" style="stroke:#C10534;stroke-width:8.64"/>
	<line x1="1985.69" y1="2143.54" x2="1985.69" y2="2086.00" style="stroke:#C10534;stroke-width:8.64"/>
	<line x1="1985.69" y1="2057.16" x2="1985.69" y2="1999.61" style="stroke:#C10534;stroke-width:8.64"/>
	<line x1="1985.69" y1="1970.78" x2="1985.69" y2="1913.23" style="stroke:#C10534;stroke-width:8.64"/>
	<line x1="1985.69" y1="1884.40" x2="1985.69" y2="1826.85" style="stroke:#C10534;stroke-width:8.64"/>
	<line x1="1985.69" y1="1798.02" x2="1985.69" y2="1740.47" style="stroke:#C10534;stroke-width:8.64"/>
	<line x1="1985.69" y1="1711.64" x2="1985.69" y2="1654.09" style="stroke:#C10534;stroke-width:8.64"/>
	<line x1="1985.69" y1="1625.26" x2="1985.69" y2="1567.71" style="stroke:#C10534;stroke-width:8.64"/>
	<line x1="1985.69" y1="1538.88" x2="1985.69" y2="1481.33" style="stroke:#C10534;stroke-width:8.64"/>
	<line x1="1985.69" y1="1452.50" x2="1985.69" y2="1394.95" style="stroke:#C10534;stroke-width:8.64"/>
	<line x1="1985.69" y1="1366.12" x2="1985.69" y2="1308.45" style="stroke:#C10534;stroke-width:8.64"/>
	<line x1="1985.69" y1="1279.74" x2="1985.69" y2="1222.07" style="stroke:#C10534;stroke-width:8.64"/>
	<line x1="1985.69" y1="1193.23" x2="1985.69" y2="1135.69" style="stroke:#C10534;stroke-width:8.64"/>
	<line x1="1985.69" y1="1106.85" x2="1985.69" y2="1049.31" style="stroke:#C10534;stroke-width:8.64"/>
	<line x1="1985.69" y1="1020.47" x2="1985.69" y2="962.93" style="stroke:#C10534;stroke-width:8.64"/>
	<line x1="1985.69" y1="934.09" x2="1985.69" y2="876.55" style="stroke:#C10534;stroke-width:8.64"/>
	<line x1="1985.69" y1="847.71" x2="1985.69" y2="790.17" style="stroke:#C10534;stroke-width:8.64"/>
	<line x1="1985.69" y1="761.33" x2="1985.69" y2="703.79" style="stroke:#C10534;stroke-width:8.64"/>
	<line x1="1985.69" y1="674.95" x2="1985.69" y2="617.41" style="stroke:#C10534;stroke-width:8.64"/>
	<line x1="1985.69" y1="588.57" x2="1985.69" y2="531.03" style="stroke:#C10534;stroke-width:8.64"/>
	<line x1="1985.69" y1="502.19" x2="1985.69" y2="444.52" style="stroke:#C10534;stroke-width:8.64"/>
	<line x1="1985.69" y1="415.81" x2="1985.69" y2="358.14" style="stroke:#C10534;stroke-width:8.64"/>
	<line x1="1985.69" y1="329.43" x2="1985.69" y2="271.76" style="stroke:#C10534;stroke-width:8.64"/>
	<line x1="1985.69" y1="242.93" x2="1985.69" y2="185.38" style="stroke:#C10534;stroke-width:8.64"/>
	<line x1="1985.69" y1="156.55" x2="1985.69" y2="100.86" style="stroke:#C10534;stroke-width:8.64"/>
	<line x1="390.80" y1="918.01" x2="3859.02" y2="918.01" style="stroke:#C10534;stroke-width:8.64"/>
	<path d=" M454.04 1174.42 L732.60 1138.78 L1011.04 970.73 L1289.47 800.32 L1567.91 859.35 L1846.35 918.13 L2124.91 1001.42 L2403.35 1440.62 L2681.79 1743.07 L2960.22 1859.28 L3238.79 1759.28 L3517.22 1618.33 L3795.66 1253.38" stroke-linejoin="round" style="fill:none;stroke:#1A476F;stroke-width:8.64"/>
	<circle cx="454.04" cy="1174.42" r="26.35" style="fill:#1A476F"/>
	<circle cx="454.04" cy="1174.42" r="22.03" style="fill:none;stroke:#1A476F;stroke-width:8.64"/>
	<circle cx="732.60" cy="1138.78" r="26.35" style="fill:#1A476F"/>
	<circle cx="732.60" cy="1138.78" r="22.03" style="fill:none;stroke:#1A476F;stroke-width:8.64"/>
	<circle cx="1011.04" cy="970.73" r="26.35" style="fill:#1A476F"/>
	<circle cx="1011.04" cy="970.73" r="22.03" style="fill:none;stroke:#1A476F;stroke-width:8.64"/>
	<circle cx="1289.47" cy="800.32" r="26.35" style="fill:#1A476F"/>
	<circle cx="1289.47" cy="800.32" r="22.03" style="fill:none;stroke:#1A476F;stroke-width:8.64"/>
	<circle cx="1567.91" cy="859.35" r="26.35" style="fill:#1A476F"/>
	<circle cx="1567.91" cy="859.35" r="22.03" style="fill:none;stroke:#1A476F;stroke-width:8.64"/>
	<circle cx="1846.35" cy="918.13" r="26.35" style="fill:#1A476F"/>
	<circle cx="1846.35" cy="918.13" r="22.03" style="fill:none;stroke:#1A476F;stroke-width:8.64"/>
	<circle cx="2124.91" cy="1001.42" r="26.35" style="fill:#1A476F"/>
	<circle cx="2124.91" cy="1001.42" r="22.03" style="fill:none;stroke:#1A476F;stroke-width:8.64"/>
	<circle cx="2403.35" cy="1440.62" r="26.35" style="fill:#1A476F"/>
	<circle cx="2403.35" cy="1440.62" r="22.03" style="fill:none;stroke:#1A476F;stroke-width:8.64"/>
	<circle cx="2681.79" cy="1743.07" r="26.35" style="fill:#1A476F"/>
	<circle cx="2681.79" cy="1743.07" r="22.03" style="fill:none;stroke:#1A476F;stroke-width:8.64"/>
	<circle cx="2960.22" cy="1859.28" r="26.35" style="fill:#1A476F"/>
	<circle cx="2960.22" cy="1859.28" r="22.03" style="fill:none;stroke:#1A476F;stroke-width:8.64"/>
	<circle cx="3238.79" cy="1759.28" r="26.35" style="fill:#1A476F"/>
	<circle cx="3238.79" cy="1759.28" r="22.03" style="fill:none;stroke:#1A476F;stroke-width:8.64"/>
	<circle cx="3517.22" cy="1618.33" r="26.35" style="fill:#1A476F"/>
	<circle cx="3517.22" cy="1618.33" r="22.03" style="fill:none;stroke:#1A476F;stroke-width:8.64"/>
	<circle cx="3795.66" cy="1253.38" r="26.35" style="fill:#1A476F"/>
	<circle cx="3795.66" cy="1253.38" r="22.03" style="fill:none;stroke:#1A476F;stroke-width:8.64"/>
	<line x1="454.16" y1="801.31" x2="454.16" y2="1547.29" style="stroke:#000000;stroke-width:8.64"/>
	<line x1="432.14" y1="1547.29" x2="476.19" y2="1547.29" stroke-linecap="round" style="stroke:#000000;stroke-width:8.64"/>
	<line x1="432.14" y1="801.31" x2="476.19" y2="801.31" stroke-linecap="round" style="stroke:#000000;stroke-width:8.64"/>
	<line x1="732.60" y1="619.76" x2="732.60" y2="1657.68" style="stroke:#000000;stroke-width:8.64"/>
	<line x1="710.57" y1="1657.68" x2="754.63" y2="1657.68" stroke-linecap="round" style="stroke:#000000;stroke-width:8.64"/>
	<line x1="710.57" y1="619.76" x2="754.63" y2="619.76" stroke-linecap="round" style="stroke:#000000;stroke-width:8.64"/>
	<line x1="1011.04" y1="451.70" x2="1011.04" y2="1489.63" style="stroke:#000000;stroke-width:8.64"/>
	<line x1="989.01" y1="1489.63" x2="1033.07" y2="1489.63" stroke-linecap="round" style="stroke:#000000;stroke-width:8.64"/>
	<line x1="989.01" y1="451.70" x2="1033.07" y2="451.70" stroke-linecap="round" style="stroke:#000000;stroke-width:8.64"/>
	<line x1="1289.47" y1="281.29" x2="1289.47" y2="1319.22" style="stroke:#000000;stroke-width:8.64"/>
	<line x1="1267.45" y1="1319.22" x2="1311.50" y2="1319.22" stroke-linecap="round" style="stroke:#000000;stroke-width:8.64"/>
	<line x1="1267.45" y1="281.29" x2="1311.50" y2="281.29" stroke-linecap="round" style="stroke:#000000;stroke-width:8.64"/>
	<line x1="1568.04" y1="340.32" x2="1568.04" y2="1378.25" style="stroke:#000000;stroke-width:8.64"/>
	<line x1="1546.01" y1="1378.25" x2="1590.06" y2="1378.25" stroke-linecap="round" style="stroke:#000000;stroke-width:8.64"/>
	<line x1="1546.01" y1="340.32" x2="1590.06" y2="340.32" stroke-linecap="round" style="stroke:#000000;stroke-width:8.64"/>
	<line x1="1846.47" y1="918.01" x2="1846.47" y2="918.01" style="stroke:#000000;stroke-width:8.64"/>
	<line x1="1824.45" y1="918.01" x2="1868.50" y2="918.01" stroke-linecap="round" style="stroke:#000000;stroke-width:8.64"/>
	<line x1="1824.45" y1="918.01" x2="1868.50" y2="918.01" stroke-linecap="round" style="stroke:#000000;stroke-width:8.64"/>
	<line x1="2124.91" y1="482.39" x2="2124.91" y2="1520.32" style="stroke:#000000;stroke-width:8.64"/>
	<line x1="2102.88" y1="1520.32" x2="2146.94" y2="1520.32" stroke-linecap="round" style="stroke:#000000;stroke-width:8.64"/>
	<line x1="2102.88" y1="482.39" x2="2146.94" y2="482.39" stroke-linecap="round" style="stroke:#000000;stroke-width:8.64"/>
	<line x1="2403.35" y1="921.60" x2="2403.35" y2="1959.52" style="stroke:#000000;stroke-width:8.64"/>
	<line x1="2381.32" y1="1959.52" x2="2425.38" y2="1959.52" stroke-linecap="round" style="stroke:#000000;stroke-width:8.64"/>
	<line x1="2381.32" y1="921.60" x2="2425.38" y2="921.60" stroke-linecap="round" style="stroke:#000000;stroke-width:8.64"/>
	<line x1="2681.91" y1="1224.05" x2="2681.91" y2="2261.97" style="stroke:#000000;stroke-width:8.64"/>
	<line x1="2659.88" y1="2261.97" x2="2703.94" y2="2261.97" stroke-linecap="round" style="stroke:#000000;stroke-width:8.64"/>
	<line x1="2659.88" y1="1224.05" x2="2703.94" y2="1224.05" stroke-linecap="round" style="stroke:#000000;stroke-width:8.64"/>
	<line x1="2960.35" y1="1340.25" x2="2960.35" y2="2378.18" style="stroke:#000000;stroke-width:8.64"/>
	<line x1="2938.32" y1="2378.18" x2="2982.38" y2="2378.18" stroke-linecap="round" style="stroke:#000000;stroke-width:8.64"/>
	<line x1="2938.32" y1="1340.25" x2="2982.38" y2="1340.25" stroke-linecap="round" style="stroke:#000000;stroke-width:8.64"/>
	<line x1="3238.79" y1="1240.26" x2="3238.79" y2="2278.18" style="stroke:#000000;stroke-width:8.64"/>
	<line x1="3216.76" y1="2278.18" x2="3260.81" y2="2278.18" stroke-linecap="round" style="stroke:#000000;stroke-width:8.64"/>
	<line x1="3216.76" y1="1240.26" x2="3260.81" y2="1240.26" stroke-linecap="round" style="stroke:#000000;stroke-width:8.64"/>
	<line x1="3517.22" y1="1099.31" x2="3517.22" y2="2137.23" style="stroke:#000000;stroke-width:8.64"/>
	<line x1="3495.20" y1="2137.23" x2="3539.25" y2="2137.23" stroke-linecap="round" style="stroke:#000000;stroke-width:8.64"/>
	<line x1="3495.20" y1="1099.31" x2="3539.25" y2="1099.31" stroke-linecap="round" style="stroke:#000000;stroke-width:8.64"/>
	<line x1="3795.66" y1="864.17" x2="3795.66" y2="1642.34" style="stroke:#000000;stroke-width:8.64"/>
	<line x1="3773.63" y1="1642.34" x2="3817.69" y2="1642.34" stroke-linecap="round" style="stroke:#000000;stroke-width:8.64"/>
	<line x1="3773.63" y1="864.17" x2="3817.69" y2="864.17" stroke-linecap="round" style="stroke:#000000;stroke-width:8.64"/>
	<line x1="390.80" y1="2489.19" x2="390.80" y2="100.86" style="stroke:#000000;stroke-width:5.76"/>
	<line x1="390.80" y1="2425.82" x2="350.83" y2="2425.82" style="stroke:#000000;stroke-width:5.76"/>
	<text x="300.72" y="2425.82" style="font-family:'Helvetica';font-size:99.99px;fill:#000000" transform="rotate(-90 300.72,2425.82)" text-anchor="middle">-.1</text>
	<line x1="390.80" y1="1671.91" x2="350.83" y2="1671.91" style="stroke:#000000;stroke-width:5.76"/>
	<text x="300.72" y="1671.91" style="font-family:'Helvetica';font-size:99.99px;fill:#000000" transform="rotate(-90 300.72,1671.91)" text-anchor="middle">-.05</text>
	<line x1="390.80" y1="918.01" x2="350.83" y2="918.01" style="stroke:#000000;stroke-width:5.76"/>
	<text x="300.72" y="918.01" style="font-family:'Helvetica';font-size:99.99px;fill:#000000" transform="rotate(-90 300.72,918.01)" text-anchor="middle">0</text>
	<line x1="390.80" y1="164.22" x2="350.83" y2="164.22" style="stroke:#000000;stroke-width:5.76"/>
	<text x="300.72" y="164.22" style="font-family:'Helvetica';font-size:99.99px;fill:#000000" transform="rotate(-90 300.72,164.22)" text-anchor="middle">.05</text>
	<text x="190.71" y="1294.96" style="font-family:'Helvetica';font-size:99.99px;fill:#000000" transform="rotate(-90 190.71,1294.96)" text-anchor="middle">Coefficients of event study on US log employment</text>
	<line x1="390.80" y1="2489.19" x2="3859.02" y2="2489.19" style="stroke:#000000;stroke-width:5.76"/>
	<line x1="454.16" y1="2489.19" x2="454.16" y2="2529.16" style="stroke:#000000;stroke-width:5.76"/>
	<text x="454.16" y="2619.14" style="font-family:'Helvetica';font-size:99.99px;fill:#000000" text-anchor="middle">-6</text>
	<line x1="732.60" y1="2489.19" x2="732.60" y2="2529.16" style="stroke:#000000;stroke-width:5.76"/>
	<text x="732.60" y="2619.14" style="font-family:'Helvetica';font-size:99.99px;fill:#000000" text-anchor="middle">-5</text>
	<line x1="1011.04" y1="2489.19" x2="1011.04" y2="2529.16" style="stroke:#000000;stroke-width:5.76"/>
	<text x="1011.04" y="2619.14" style="font-family:'Helvetica';font-size:99.99px;fill:#000000" text-anchor="middle">-4</text>
	<line x1="1289.47" y1="2489.19" x2="1289.47" y2="2529.16" style="stroke:#000000;stroke-width:5.76"/>
	<text x="1289.47" y="2619.14" style="font-family:'Helvetica';font-size:99.99px;fill:#000000" text-anchor="middle">-3</text>
	<line x1="1568.04" y1="2489.19" x2="1568.04" y2="2529.16" style="stroke:#000000;stroke-width:5.76"/>
	<text x="1568.04" y="2619.14" style="font-family:'Helvetica';font-size:99.99px;fill:#000000" text-anchor="middle">-2</text>
	<line x1="1846.47" y1="2489.19" x2="1846.47" y2="2529.16" style="stroke:#000000;stroke-width:5.76"/>
	<text x="1846.47" y="2619.14" style="font-family:'Helvetica';font-size:99.99px;fill:#000000" text-anchor="middle">-1</text>
	<line x1="2124.91" y1="2489.19" x2="2124.91" y2="2529.16" style="stroke:#000000;stroke-width:5.76"/>
	<text x="2124.91" y="2619.14" style="font-family:'Helvetica';font-size:99.99px;fill:#000000" text-anchor="middle">0</text>
	<line x1="2403.35" y1="2489.19" x2="2403.35" y2="2529.16" style="stroke:#000000;stroke-width:5.76"/>
	<text x="2403.35" y="2619.14" style="font-family:'Helvetica';font-size:99.99px;fill:#000000" text-anchor="middle">1</text>
	<line x1="2681.91" y1="2489.19" x2="2681.91" y2="2529.16" style="stroke:#000000;stroke-width:5.76"/>
	<text x="2681.91" y="2619.14" style="font-family:'Helvetica';font-size:99.99px;fill:#000000" text-anchor="middle">2</text>
	<line x1="2960.35" y1="2489.19" x2="2960.35" y2="2529.16" style="stroke:#000000;stroke-width:5.76"/>
	<text x="2960.35" y="2619.14" style="font-family:'Helvetica';font-size:99.99px;fill:#000000" text-anchor="middle">3</text>
	<line x1="3238.79" y1="2489.19" x2="3238.79" y2="2529.16" style="stroke:#000000;stroke-width:5.76"/>
	<text x="3238.79" y="2619.14" style="font-family:'Helvetica';font-size:99.99px;fill:#000000" text-anchor="middle">4</text>
	<line x1="3517.22" y1="2489.19" x2="3517.22" y2="2529.16" style="stroke:#000000;stroke-width:5.76"/>
	<text x="3517.22" y="2619.14" style="font-family:'Helvetica';font-size:99.99px;fill:#000000" text-anchor="middle">5</text>
	<line x1="3795.66" y1="2489.19" x2="3795.66" y2="2529.16" style="stroke:#000000;stroke-width:5.76"/>
	<text x="3795.66" y="2619.14" style="font-family:'Helvetica';font-size:99.99px;fill:#000000" text-anchor="middle">6</text>
	<text x="2124.91" y="2729.16" style="font-family:'Helvetica';font-size:99.99px;fill:#000000" text-anchor="middle">Time to import tariff increase (months)</text>
</svg>
