<?xml version="1.0" encoding="UTF-8" standalone="no"?>
<!-- This is a Stata 17.0 generated SVG file (http://www.stata.com) -->

<svg version="1.1" width="5.500in" height="4.000in" viewBox="0 0 3960 2880" xmlns="http://www.w3.org/2000/svg" xmlns:xlink="http://www.w3.org/1999/xlink">
	<desc>Stata Graph - Graph</desc>
	<rect x="0" y="0" width="3960" height="2880" style="fill:#EAF2F3;stroke:none"/>
	<rect x="0.00" y="0.00" width="3959.88" height="2880.00" style="fill:#FFFFFF"/>
	<rect x="2.88" y="2.88" width="3954.12" height="2874.24" style="fill:none;stroke:#FFFFFF;stroke-width:5.76"/>
	<rect x="390.80" y="100.86" width="3468.22" height="2388.33" style="fill:#FFFFFF"/>
	<rect x="393.68" y="103.74" width="3462.46" height="2382.57" style="fill:none;stroke:#FFFFFF;stroke-width:5.76"/>
	<line x1="390.80" y1="2218.66" x2="3859.02" y2="2218.66" style="stroke:#EAF2F3;stroke-width:8.64"/>
	<line x1="390.80" y1="1705.08" x2="3859.02" y2="1705.08" style="stroke:#EAF2F3;stroke-width:8.64"/>
	<line x1="390.80" y1="1191.38" x2="3859.02" y2="1191.38" style="stroke:#EAF2F3;stroke-width:8.64"/>
	<line x1="390.80" y1="677.80" x2="3859.02" y2="677.80" style="stroke:#EAF2F3;stroke-width:8.64"/>
	<line x1="390.80" y1="164.22" x2="3859.02" y2="164.22" style="stroke:#EAF2F3;stroke-width:8.64"/>
	<line x1="1985.69" y1="2489.19" x2="1985.69" y2="2431.64" style="stroke:#C10534;stroke-width:8.64"/>
	<line x1="1985.69" y1="2402.81" x2="1985.69" y2="2345.26" style="stroke:#C10534;stroke-width:8.64"/>
	<line x1="1985.69" y1="2316.42" x2="1985.69" y2="2258.76" style="stroke:#C10534;stroke-width:8.64"/>
	<line x1="1985.69" y1="2230.04" x2="1985.69" y2="2172.38" style="stroke:#C10534;stroke-width:8.64"/>
	<line x1="1985.69" y1="2143.54" x2="1985.69" y2="2086.00" style="stroke:#C10534;stroke-width:8.64"/>
	<line x1="1985.69" y1="2057.16" x2="1985.69" y2="1999.61" style="stroke:#C10534;stroke-width:8.64"/>
	<line x1="1985.69" y1="1970.78" x2="1985.69" y2="1913.23" style="stroke:#C10534;stroke-width:8.64"/>
	<line x1="1985.69" y1="1884.40" x2="1985.69" y2="1826.85" style="stroke:#C10534;stroke-width:8.64"/>
	<line x1="1985.69" y1="1798.02" x2="1985.69" y2="1740.47" style="stroke:#C10534;stroke-width:8.64"/>
	<line x1="1985.69" y1="1711.64" x2="1985.69" y2="1654.09" style="stroke:#C10534;stroke-width:8.64"/>
	<line x1="1985.69" y1="1625.26" x2="1985.69" y2="1567.71" style="stroke:#C10534;stroke-width:8.64"/>
	<line x1="1985.69" y1="1538.88" x2="1985.69" y2="1481.33" style="stroke:#C10534;stroke-width:8.64"/>
	<line x1="1985.69" y1="1452.50" x2="1985.69" y2="1394.95" style="stroke:#C10534;stroke-width:8.64"/>
	<line x1="1985.69" y1="1366.12" x2="1985.69" y2="1308.45" style="stroke:#C10534;stroke-width:8.64"/>
	<line x1="1985.69" y1="1279.74" x2="1985.69" y2="1222.07" style="stroke:#C10534;stroke-width:8.64"/>
	<line x1="1985.69" y1="1193.23" x2="1985.69" y2="1135.69" style="stroke:#C10534;stroke-width:8.64"/>
	<line x1="1985.69" y1="1106.85" x2="1985.69" y2="1049.31" style="stroke:#C10534;stroke-width:8.64"/>
	<line x1="1985.69" y1="1020.47" x2="1985.69" y2="962.93" style="stroke:#C10534;stroke-width:8.64"/>
	<line x1="1985.69" y1="934.09" x2="1985.69" y2="876.55" style="stroke:#C10534;stroke-width:8.64"/>
	<line x1="1985.69" y1="847.71" x2="1985.69" y2="790.17" style="stroke:#C10534;stroke-width:8.64"/>
	<line x1="1985.69" y1="761.33" x2="1985.69" y2="703.79" style="stroke:#C10534;stroke-width:8.64"/>
	<line x1="1985.69" y1="674.95" x2="1985.69" y2="617.41" style="stroke:#C10534;stroke-width:8.64"/>
	<line x1="1985.69" y1="588.57" x2="1985.69" y2="531.03" style="stroke:#C10534;stroke-width:8.64"/>
	<line x1="1985.69" y1="502.19" x2="1985.69" y2="444.52" style="stroke:#C10534;stroke-width:8.64"/>
	<line x1="1985.69" y1="415.81" x2="1985.69" y2="358.14" style="stroke:#C10534;stroke-width:8.64"/>
	<line x1="1985.69" y1="329.43" x2="1985.69" y2="271.76" style="stroke:#C10534;stroke-width:8.64"/>
	<line x1="1985.69" y1="242.93" x2="1985.69" y2="185.38" style="stroke:#C10534;stroke-width:8.64"/>
	<line x1="1985.69" y1="156.55" x2="1985.69" y2="100.86" style="stroke:#C10534;stroke-width:8.64"/>
	<line x1="390.80" y1="1191.38" x2="3859.02" y2="1191.38" style="stroke:#C10534;stroke-width:8.64"/>
	<path d=" M454.04 1940.34 L732.60 1721.42 L1011.04 1377.75 L1289.47 933.97 L1567.91 973.82 L1846.35 1191.50 L2124.91 1399.28 L2403.35 1567.10 L2681.79 1691.84 L2960.22 1585.41 L3238.79 1521.68 L3517.22 1501.13 L3795.66 1336.42" stroke-linejoin="round" style="fill:none;stroke:#1A476F;stroke-width:8.64"/>
	<circle cx="454.04" cy="1940.34" r="26.35" style="fill:#1A476F"/>
	<circle cx="454.04" cy="1940.34" r="22.03" style="fill:none;stroke:#1A476F;stroke-width:8.64"/>
	<circle cx="732.60" cy="1721.42" r="26.35" style="fill:#1A476F"/>
	<circle cx="732.60" cy="1721.42" r="22.03" style="fill:none;stroke:#1A476F;stroke-width:8.64"/>
	<circle cx="1011.04" cy="1377.75" r="26.35" style="fill:#1A476F"/>
	<circle cx="1011.04" cy="1377.75" r="22.03" style="fill:none;stroke:#1A476F;stroke-width:8.64"/>
	<circle cx="1289.47" cy="933.97" r="26.35" style="fill:#1A476F"/>
	<circle cx="1289.47" cy="933.97" r="22.03" style="fill:none;stroke:#1A476F;stroke-width:8.64"/>
	<circle cx="1567.91" cy="973.82" r="26.35" style="fill:#1A476F"/>
	<circle cx="1567.91" cy="973.82" r="22.03" style="fill:none;stroke:#1A476F;stroke-width:8.64"/>
	<circle cx="1846.35" cy="1191.50" r="26.35" style="fill:#1A476F"/>
	<circle cx="1846.35" cy="1191.50" r="22.03" style="fill:none;stroke:#1A476F;stroke-width:8.64"/>
	<circle cx="2124.91" cy="1399.28" r="26.35" style="fill:#1A476F"/>
	<circle cx="2124.91" cy="1399.28" r="22.03" style="fill:none;stroke:#1A476F;stroke-width:8.64"/>
	<circle cx="2403.35" cy="1567.10" r="26.35" style="fill:#1A476F"/>
	<circle cx="2403.35" cy="1567.10" r="22.03" style="fill:none;stroke:#1A476F;stroke-width:8.64"/>
	<circle cx="2681.79" cy="1691.84" r="26.35" style="fill:#1A476F"/>
	<circle cx="2681.79" cy="1691.84" r="22.03" style="fill:none;stroke:#1A476F;stroke-width:8.64"/>
	<circle cx="2960.22" cy="1585.41" r="26.35" style="fill:#1A476F"/>
	<circle cx="2960.22" cy="1585.41" r="22.03" style="fill:none;stroke:#1A476F;stroke-width:8.64"/>
	<circle cx="3238.79" cy="1521.68" r="26.35" style="fill:#1A476F"/>
	<circle cx="3238.79" cy="1521.68" r="22.03" style="fill:none;stroke:#1A476F;stroke-width:8.64"/>
	<circle cx="3517.22" cy="1501.13" r="26.35" style="fill:#1A476F"/>
	<circle cx="3517.22" cy="1501.13" r="22.03" style="fill:none;stroke:#1A476F;stroke-width:8.64"/>
	<circle cx="3795.66" cy="1336.42" r="26.35" style="fill:#1A476F"/>
	<circle cx="3795.66" cy="1336.42" r="22.03" style="fill:none;stroke:#1A476F;stroke-width:8.64"/>
	<line x1="454.16" y1="1454.60" x2="454.16" y2="2425.82" style="stroke:#000000;stroke-width:8.64"/>
	<line x1="432.14" y1="2425.82" x2="476.19" y2="2425.82" stroke-linecap="round" style="stroke:#000000;stroke-width:8.64"/>
	<line x1="432.14" y1="1454.60" x2="476.19" y2="1454.60" stroke-linecap="round" style="stroke:#000000;stroke-width:8.64"/>
	<line x1="732.60" y1="1045.47" x2="732.60" y2="2397.11" style="stroke:#000000;stroke-width:8.64"/>
	<line x1="710.57" y1="2397.11" x2="754.63" y2="2397.11" stroke-linecap="round" style="stroke:#000000;stroke-width:8.64"/>
	<line x1="710.57" y1="1045.47" x2="754.63" y2="1045.47" stroke-linecap="round" style="stroke:#000000;stroke-width:8.64"/>
	<line x1="1011.04" y1="701.93" x2="1011.04" y2="2053.57" style="stroke:#000000;stroke-width:8.64"/>
	<line x1="989.01" y1="2053.57" x2="1033.07" y2="2053.57" stroke-linecap="round" style="stroke:#000000;stroke-width:8.64"/>
	<line x1="989.01" y1="701.93" x2="1033.07" y2="701.93" stroke-linecap="round" style="stroke:#000000;stroke-width:8.64"/>
	<line x1="1289.47" y1="258.15" x2="1289.47" y2="1609.79" style="stroke:#000000;stroke-width:8.64"/>
	<line x1="1267.45" y1="1609.79" x2="1311.50" y2="1609.79" stroke-linecap="round" style="stroke:#000000;stroke-width:8.64"/>
	<line x1="1267.45" y1="258.15" x2="1311.50" y2="258.15" stroke-linecap="round" style="stroke:#000000;stroke-width:8.64"/>
	<line x1="1568.04" y1="297.88" x2="1568.04" y2="1649.52" style="stroke:#000000;stroke-width:8.64"/>
	<line x1="1546.01" y1="1649.52" x2="1590.06" y2="1649.52" stroke-linecap="round" style="stroke:#000000;stroke-width:8.64"/>
	<line x1="1546.01" y1="297.88" x2="1590.06" y2="297.88" stroke-linecap="round" style="stroke:#000000;stroke-width:8.64"/>
	<line x1="1846.47" y1="1191.38" x2="1846.47" y2="1191.38" style="stroke:#000000;stroke-width:8.64"/>
	<line x1="1824.45" y1="1191.38" x2="1868.50" y2="1191.38" stroke-linecap="round" style="stroke:#000000;stroke-width:8.64"/>
	<line x1="1824.45" y1="1191.38" x2="1868.50" y2="1191.38" stroke-linecap="round" style="stroke:#000000;stroke-width:8.64"/>
	<line x1="2124.91" y1="723.47" x2="2124.91" y2="2075.10" style="stroke:#000000;stroke-width:8.64"/>
	<line x1="2102.88" y1="2075.10" x2="2146.94" y2="2075.10" stroke-linecap="round" style="stroke:#000000;stroke-width:8.64"/>
	<line x1="2102.88" y1="723.47" x2="2146.94" y2="723.47" stroke-linecap="round" style="stroke:#000000;stroke-width:8.64"/>
	<line x1="2403.35" y1="891.15" x2="2403.35" y2="2242.79" style="stroke:#000000;stroke-width:8.64"/>
	<line x1="2381.32" y1="2242.79" x2="2425.38" y2="2242.79" stroke-linecap="round" style="stroke:#000000;stroke-width:8.64"/>
	<line x1="2381.32" y1="891.15" x2="2425.38" y2="891.15" stroke-linecap="round" style="stroke:#000000;stroke-width:8.64"/>
	<line x1="2681.91" y1="1016.02" x2="2681.91" y2="2367.66" style="stroke:#000000;stroke-width:8.64"/>
	<line x1="2659.88" y1="2367.66" x2="2703.94" y2="2367.66" stroke-linecap="round" style="stroke:#000000;stroke-width:8.64"/>
	<line x1="2659.88" y1="1016.02" x2="2703.94" y2="1016.02" stroke-linecap="round" style="stroke:#000000;stroke-width:8.64"/>
	<line x1="2960.35" y1="909.59" x2="2960.35" y2="2261.11" style="stroke:#000000;stroke-width:8.64"/>
	<line x1="2938.32" y1="2261.11" x2="2982.38" y2="2261.11" stroke-linecap="round" style="stroke:#000000;stroke-width:8.64"/>
	<line x1="2938.32" y1="909.59" x2="2982.38" y2="909.59" stroke-linecap="round" style="stroke:#000000;stroke-width:8.64"/>
	<line x1="3238.79" y1="845.86" x2="3238.79" y2="2197.50" style="stroke:#000000;stroke-width:8.64"/>
	<line x1="3216.76" y1="2197.50" x2="3260.81" y2="2197.50" stroke-linecap="round" style="stroke:#000000;stroke-width:8.64"/>
	<line x1="3216.76" y1="845.86" x2="3260.81" y2="845.86" stroke-linecap="round" style="stroke:#000000;stroke-width:8.64"/>
	<line x1="3517.22" y1="825.19" x2="3517.22" y2="2176.83" style="stroke:#000000;stroke-width:8.64"/>
	<line x1="3495.20" y1="2176.83" x2="3539.25" y2="2176.83" stroke-linecap="round" style="stroke:#000000;stroke-width:8.64"/>
	<line x1="3495.20" y1="825.19" x2="3539.25" y2="825.19" stroke-linecap="round" style="stroke:#000000;stroke-width:8.64"/>
	<line x1="3795.66" y1="827.17" x2="3795.66" y2="1845.54" style="stroke:#000000;stroke-width:8.64"/>
	<line x1="3773.63" y1="1845.54" x2="3817.69" y2="1845.54" stroke-linecap="round" style="stroke:#000000;stroke-width:8.64"/>
	<line x1="3773.63" y1="827.17" x2="3817.69" y2="827.17" stroke-linecap="round" style="stroke:#000000;stroke-width:8.64"/>
	<line x1="390.80" y1="2489.19" x2="390.80" y2="100.86" style="stroke:#000000;stroke-width:5.76"/>
	<line x1="390.80" y1="2218.66" x2="350.83" y2="2218.66" style="stroke:#000000;stroke-width:5.76"/>
	<text x="300.72" y="2218.66" style="font-family:'Helvetica';font-size:99.99px;fill:#000000" transform="rotate(-90 300.72,2218.66)" text-anchor="middle">-.04</text>
	<line x1="390.80" y1="1705.08" x2="350.83" y2="1705.08" style="stroke:#000000;stroke-width:5.76"/>
	<text x="300.72" y="1705.08" style="font-family:'Helvetica';font-size:99.99px;fill:#000000" transform="rotate(-90 300.72,1705.08)" text-anchor="middle">-.02</text>
	<line x1="390.80" y1="1191.38" x2="350.83" y2="1191.38" style="stroke:#000000;stroke-width:5.76"/>
	<text x="300.72" y="1191.38" style="font-family:'Helvetica';font-size:99.99px;fill:#000000" transform="rotate(-90 300.72,1191.38)" text-anchor="middle">0</text>
	<line x1="390.80" y1="677.80" x2="350.83" y2="677.80" style="stroke:#000000;stroke-width:5.76"/>
	<text x="300.72" y="677.80" style="font-family:'Helvetica';font-size:99.99px;fill:#000000" transform="rotate(-90 300.72,677.80)" text-anchor="middle">.02</text>
	<line x1="390.80" y1="164.22" x2="350.83" y2="164.22" style="stroke:#000000;stroke-width:5.76"/>
	<text x="300.72" y="164.22" style="font-family:'Helvetica';font-size:99.99px;fill:#000000" transform="rotate(-90 300.72,164.22)" text-anchor="middle">.04</text>
	<text x="190.71" y="1294.96" style="font-family:'Helvetica';font-size:99.99px;fill:#000000" transform="rotate(-90 190.71,1294.96)" text-anchor="middle">Coefficients of event study on US log employment in manufacturing</text>
	<line x1="390.80" y1="2489.19" x2="3859.02" y2="2489.19" style="stroke:#000000;stroke-width:5.76"/>
	<line x1="454.16" y1="2489.19" x2="454.16" y2="2529.16" style="stroke:#000000;stroke-width:5.76"/>
	<text x="454.16" y="2619.14" style="font-family:'Helvetica';font-size:99.99px;fill:#000000" text-anchor="middle">-6</text>
	<line x1="732.60" y1="2489.19" x2="732.60" y2="2529.16" style="stroke:#000000;stroke-width:5.76"/>
	<text x="732.60" y="2619.14" style="font-family:'Helvetica';font-size:99.99px;fill:#000000" text-anchor="middle">-5</text>
	<line x1="1011.04" y1="2489.19" x2="1011.04" y2="2529.16" style="stroke:#000000;stroke-width:5.76"/>
	<text x="1011.04" y="2619.14" style="font-family:'Helvetica';font-size:99.99px;fill:#000000" text-anchor="middle">-4</text>
	<line x1="1289.47" y1="2489.19" x2="1289.47" y2="2529.16" style="stroke:#000000;stroke-width:5.76"/>
	<text x="1289.47" y="2619.14" style="font-family:'Helvetica';font-size:99.99px;fill:#000000" text-anchor="middle">-3</text>
	<line x1="1568.04" y1="2489.19" x2="1568.04" y2="2529.16" style="stroke:#000000;stroke-width:5.76"/>
	<text x="1568.04" y="2619.14" style="font-family:'Helvetica';font-size:99.99px;fill:#000000" text-anchor="middle">-2</text>
	<line x1="1846.47" y1="2489.19" x2="1846.47" y2="2529.16" style="stroke:#000000;stroke-width:5.76"/>
	<text x="1846.47" y="2619.14" style="font-family:'Helvetica';font-size:99.99px;fill:#000000" text-anchor="middle">-1</text>
	<line x1="2124.91" y1="2489.19" x2="2124.91" y2="2529.16" style="stroke:#000000;stroke-width:5.76"/>
	<text x="2124.91" y="2619.14" style="font-family:'Helvetica';font-size:99.99px;fill:#000000" text-anchor="middle">0</text>
	<line x1="2403.35" y1="2489.19" x2="2403.35" y2="2529.16" style="stroke:#000000;stroke-width:5.76"/>
	<text x="2403.35" y="2619.14" style="font-family:'Helvetica';font-size:99.99px;fill:#000000" text-anchor="middle">1</text>
	<line x1="2681.91" y1="2489.19" x2="2681.91" y2="2529.16" style="stroke:#000000;stroke-width:5.76"/>
	<text x="2681.91" y="2619.14" style="font-family:'Helvetica';font-size:99.99px;fill:#000000" text-anchor="middle">2</text>
	<line x1="2960.35" y1="2489.19" x2="2960.35" y2="2529.16" style="stroke:#000000;stroke-width:5.76"/>
	<text x="2960.35" y="2619.14" style="font-family:'Helvetica';font-size:99.99px;fill:#000000" text-anchor="middle">3</text>
	<line x1="3238.79" y1="2489.19" x2="3238.79" y2="2529.16" style="stroke:#000000;stroke-width:5.76"/>
	<text x="3238.79" y="2619.14" style="font-family:'Helvetica';font-size:99.99px;fill:#000000" text-anchor="middle">4</text>
	<line x1="3517.22" y1="2489.19" x2="3517.22" y2="2529.16" style="stroke:#000000;stroke-width:5.76"/>
	<text x="3517.22" y="2619.14" style="font-family:'Helvetica';font-size:99.99px;fill:#000000" text-anchor="middle">5</text>
	<line x1="3795.66" y1="2489.19" x2="3795.66" y2="2529.16" style="stroke:#000000;stroke-width:5.76"/>
	<text x="3795.66" y="2619.14" style="font-family:'Helvetica';font-size:99.99px;fill:#000000" text-anchor="middle">6</text>
	<text x="2124.91" y="2729.16" style="font-family:'Helvetica';font-size:99.99px;fill:#000000" text-anchor="middle">Time to import tariff increase (months)</text>
</svg>
