<?xml version="1.0" encoding="utf-8" standalone="no"?>
<!DOCTYPE svg PUBLIC "-//W3C//DTD SVG 1.1//EN"
  "http://www.w3.org/Graphics/SVG/1.1/DTD/svg11.dtd">
<svg height="392.115219pt" version="1.1" viewBox="0 0 751.75 392.115219" width="751.75pt" xmlns="http://www.w3.org/2000/svg" xmlns:xlink="http://www.w3.org/1999/xlink">
 <metadata>
  <rdf:RDF xmlns:cc="http://creativecommons.org/ns#" xmlns:dc="http://purl.org/dc/elements/1.1/" xmlns:rdf="http://www.w3.org/1999/02/22-rdf-syntax-ns#">
   <cc:Work>
    <dc:type rdf:resource="http://purl.org/dc/dcmitype/StillImage"/>
    <dc:date>2021-11-23T19:51:56.935071</dc:date>
    <dc:format>image/svg+xml</dc:format>
    <dc:creator>
     <cc:Agent>
      <dc:title>Matplotlib v3.4.3, https://matplotlib.org/</dc:title>
     </cc:Agent>
    </dc:creator>
   </cc:Work>
  </rdf:RDF>
 </metadata>
 <defs>
  <style type="text/css">*{stroke-linecap:butt;stroke-linejoin:round;}</style>
 </defs>
 <g id="figure_1">
  <g id="patch_1">
   <path d="M 0 392.115219 
L 751.75 392.115219 
L 751.75 -0 
L 0 -0 
z
" style="fill:none;"/>
  </g>
  <g id="axes_1">
   <g id="patch_2">
    <path d="M 41.075 314.942969 
L 710.675 314.942969 
L 710.675 43.142969 
L 41.075 43.142969 
z
" style="fill:#ffffff;"/>
   </g>
   <g id="line2d_1">
    <path clip-path="url(#p97490156a4)" d="M 41.075 302.588423 
L 710.675 302.588423 
" style="fill:none;stroke:#d3d3d3;stroke-dasharray:1.5,2.475;stroke-dashoffset:0;stroke-width:1.5;"/>
   </g>
   <g id="line2d_2">
    <path clip-path="url(#p97490156a4)" d="M 41.075 271.70206 
L 710.675 271.70206 
" style="fill:none;stroke:#d3d3d3;stroke-dasharray:1.5,2.475;stroke-dashoffset:0;stroke-width:1.5;"/>
   </g>
   <g id="line2d_3">
    <path clip-path="url(#p97490156a4)" d="M 41.075 240.815696 
L 710.675 240.815696 
" style="fill:none;stroke:#d3d3d3;stroke-dasharray:1.5,2.475;stroke-dashoffset:0;stroke-width:1.5;"/>
   </g>
   <g id="line2d_4">
    <path clip-path="url(#p97490156a4)" d="M 41.075 209.929332 
L 710.675 209.929332 
" style="fill:none;stroke:#d3d3d3;stroke-dasharray:1.5,2.475;stroke-dashoffset:0;stroke-width:1.5;"/>
   </g>
   <g id="line2d_5">
    <path clip-path="url(#p97490156a4)" d="M 41.075 179.042969 
L 710.675 179.042969 
" style="fill:none;stroke:#d3d3d3;stroke-dasharray:1.5,2.475;stroke-dashoffset:0;stroke-width:1.5;"/>
   </g>
   <g id="line2d_6">
    <path clip-path="url(#p97490156a4)" d="M 41.075 148.156605 
L 710.675 148.156605 
" style="fill:none;stroke:#d3d3d3;stroke-dasharray:1.5,2.475;stroke-dashoffset:0;stroke-width:1.5;"/>
   </g>
   <g id="line2d_7">
    <path clip-path="url(#p97490156a4)" d="M 41.075 117.270241 
L 710.675 117.270241 
" style="fill:none;stroke:#d3d3d3;stroke-dasharray:1.5,2.475;stroke-dashoffset:0;stroke-width:1.5;"/>
   </g>
   <g id="line2d_8">
    <path clip-path="url(#p97490156a4)" d="M 41.075 86.383878 
L 710.675 86.383878 
" style="fill:none;stroke:#d3d3d3;stroke-dasharray:1.5,2.475;stroke-dashoffset:0;stroke-width:1.5;"/>
   </g>
   <g id="line2d_9">
    <path clip-path="url(#p97490156a4)" d="M 41.075 55.497514 
L 710.675 55.497514 
" style="fill:none;stroke:#d3d3d3;stroke-dasharray:1.5,2.475;stroke-dashoffset:0;stroke-width:1.5;"/>
   </g>
   <g id="matplotlib.axis_1">
    <g id="xtick_1">
     <g id="line2d_10">
      <defs>
       <path d="M 0 0 
L 0 3.5 
" id="mc3dfaa230c" style="stroke:#000000;stroke-width:0.8;"/>
      </defs>
      <g>
       <use style="stroke:#000000;stroke-width:0.8;" x="69.955428" xlink:href="#mc3dfaa230c" y="314.942969"/>
      </g>
     </g>
     <g id="text_1">
      <!-- 0 -->
      <g transform="translate(66.774178 329.541406)scale(0.1 -0.1)">
       <defs>
        <path d="M 2034 4250 
Q 1547 4250 1301 3770 
Q 1056 3291 1056 2328 
Q 1056 1369 1301 889 
Q 1547 409 2034 409 
Q 2525 409 2770 889 
Q 3016 1369 3016 2328 
Q 3016 3291 2770 3770 
Q 2525 4250 2034 4250 
z
M 2034 4750 
Q 2819 4750 3233 4129 
Q 3647 3509 3647 2328 
Q 3647 1150 3233 529 
Q 2819 -91 2034 -91 
Q 1250 -91 836 529 
Q 422 1150 422 2328 
Q 422 3509 836 4129 
Q 1250 4750 2034 4750 
z
" id="DejaVuSans-30" transform="scale(0.015625)"/>
       </defs>
       <use xlink:href="#DejaVuSans-30"/>
      </g>
     </g>
    </g>
    <g id="xtick_2">
     <g id="line2d_11">
      <g>
       <use style="stroke:#000000;stroke-width:0.8;" x="156.31474" xlink:href="#mc3dfaa230c" y="314.942969"/>
      </g>
     </g>
     <g id="text_2">
      <!-- 1 -->
      <g transform="translate(153.13349 329.541406)scale(0.1 -0.1)">
       <defs>
        <path d="M 794 531 
L 1825 531 
L 1825 4091 
L 703 3866 
L 703 4441 
L 1819 4666 
L 2450 4666 
L 2450 531 
L 3481 531 
L 3481 0 
L 794 0 
L 794 531 
z
" id="DejaVuSans-31" transform="scale(0.015625)"/>
       </defs>
       <use xlink:href="#DejaVuSans-31"/>
      </g>
     </g>
    </g>
    <g id="xtick_3">
     <g id="line2d_12">
      <g>
       <use style="stroke:#000000;stroke-width:0.8;" x="242.674052" xlink:href="#mc3dfaa230c" y="314.942969"/>
      </g>
     </g>
     <g id="text_3">
      <!-- 2 -->
      <g transform="translate(239.492802 329.541406)scale(0.1 -0.1)">
       <defs>
        <path d="M 1228 531 
L 3431 531 
L 3431 0 
L 469 0 
L 469 531 
Q 828 903 1448 1529 
Q 2069 2156 2228 2338 
Q 2531 2678 2651 2914 
Q 2772 3150 2772 3378 
Q 2772 3750 2511 3984 
Q 2250 4219 1831 4219 
Q 1534 4219 1204 4116 
Q 875 4013 500 3803 
L 500 4441 
Q 881 4594 1212 4672 
Q 1544 4750 1819 4750 
Q 2544 4750 2975 4387 
Q 3406 4025 3406 3419 
Q 3406 3131 3298 2873 
Q 3191 2616 2906 2266 
Q 2828 2175 2409 1742 
Q 1991 1309 1228 531 
z
" id="DejaVuSans-32" transform="scale(0.015625)"/>
       </defs>
       <use xlink:href="#DejaVuSans-32"/>
      </g>
     </g>
    </g>
    <g id="xtick_4">
     <g id="line2d_13">
      <g>
       <use style="stroke:#000000;stroke-width:0.8;" x="329.033364" xlink:href="#mc3dfaa230c" y="314.942969"/>
      </g>
     </g>
     <g id="text_4">
      <!-- 3 -->
      <g transform="translate(325.852114 329.541406)scale(0.1 -0.1)">
       <defs>
        <path d="M 2597 2516 
Q 3050 2419 3304 2112 
Q 3559 1806 3559 1356 
Q 3559 666 3084 287 
Q 2609 -91 1734 -91 
Q 1441 -91 1130 -33 
Q 819 25 488 141 
L 488 750 
Q 750 597 1062 519 
Q 1375 441 1716 441 
Q 2309 441 2620 675 
Q 2931 909 2931 1356 
Q 2931 1769 2642 2001 
Q 2353 2234 1838 2234 
L 1294 2234 
L 1294 2753 
L 1863 2753 
Q 2328 2753 2575 2939 
Q 2822 3125 2822 3475 
Q 2822 3834 2567 4026 
Q 2313 4219 1838 4219 
Q 1578 4219 1281 4162 
Q 984 4106 628 3988 
L 628 4550 
Q 988 4650 1302 4700 
Q 1616 4750 1894 4750 
Q 2613 4750 3031 4423 
Q 3450 4097 3450 3541 
Q 3450 3153 3228 2886 
Q 3006 2619 2597 2516 
z
" id="DejaVuSans-33" transform="scale(0.015625)"/>
       </defs>
       <use xlink:href="#DejaVuSans-33"/>
      </g>
     </g>
    </g>
    <g id="xtick_5">
     <g id="line2d_14">
      <g>
       <use style="stroke:#000000;stroke-width:0.8;" x="415.392676" xlink:href="#mc3dfaa230c" y="314.942969"/>
      </g>
     </g>
     <g id="text_5">
      <!-- 4 -->
      <g transform="translate(412.211426 329.541406)scale(0.1 -0.1)">
       <defs>
        <path d="M 2419 4116 
L 825 1625 
L 2419 1625 
L 2419 4116 
z
M 2253 4666 
L 3047 4666 
L 3047 1625 
L 3713 1625 
L 3713 1100 
L 3047 1100 
L 3047 0 
L 2419 0 
L 2419 1100 
L 313 1100 
L 313 1709 
L 2253 4666 
z
" id="DejaVuSans-34" transform="scale(0.015625)"/>
       </defs>
       <use xlink:href="#DejaVuSans-34"/>
      </g>
     </g>
    </g>
    <g id="xtick_6">
     <g id="line2d_15">
      <g>
       <use style="stroke:#000000;stroke-width:0.8;" x="501.751988" xlink:href="#mc3dfaa230c" y="314.942969"/>
      </g>
     </g>
     <g id="text_6">
      <!-- 5 -->
      <g transform="translate(498.570738 329.541406)scale(0.1 -0.1)">
       <defs>
        <path d="M 691 4666 
L 3169 4666 
L 3169 4134 
L 1269 4134 
L 1269 2991 
Q 1406 3038 1543 3061 
Q 1681 3084 1819 3084 
Q 2600 3084 3056 2656 
Q 3513 2228 3513 1497 
Q 3513 744 3044 326 
Q 2575 -91 1722 -91 
Q 1428 -91 1123 -41 
Q 819 9 494 109 
L 494 744 
Q 775 591 1075 516 
Q 1375 441 1709 441 
Q 2250 441 2565 725 
Q 2881 1009 2881 1497 
Q 2881 1984 2565 2268 
Q 2250 2553 1709 2553 
Q 1456 2553 1204 2497 
Q 953 2441 691 2322 
L 691 4666 
z
" id="DejaVuSans-35" transform="scale(0.015625)"/>
       </defs>
       <use xlink:href="#DejaVuSans-35"/>
      </g>
     </g>
    </g>
    <g id="xtick_7">
     <g id="line2d_16">
      <g>
       <use style="stroke:#000000;stroke-width:0.8;" x="588.1113" xlink:href="#mc3dfaa230c" y="314.942969"/>
      </g>
     </g>
     <g id="text_7">
      <!-- 6 -->
      <g transform="translate(584.93005 329.541406)scale(0.1 -0.1)">
       <defs>
        <path d="M 2113 2584 
Q 1688 2584 1439 2293 
Q 1191 2003 1191 1497 
Q 1191 994 1439 701 
Q 1688 409 2113 409 
Q 2538 409 2786 701 
Q 3034 994 3034 1497 
Q 3034 2003 2786 2293 
Q 2538 2584 2113 2584 
z
M 3366 4563 
L 3366 3988 
Q 3128 4100 2886 4159 
Q 2644 4219 2406 4219 
Q 1781 4219 1451 3797 
Q 1122 3375 1075 2522 
Q 1259 2794 1537 2939 
Q 1816 3084 2150 3084 
Q 2853 3084 3261 2657 
Q 3669 2231 3669 1497 
Q 3669 778 3244 343 
Q 2819 -91 2113 -91 
Q 1303 -91 875 529 
Q 447 1150 447 2328 
Q 447 3434 972 4092 
Q 1497 4750 2381 4750 
Q 2619 4750 2861 4703 
Q 3103 4656 3366 4563 
z
" id="DejaVuSans-36" transform="scale(0.015625)"/>
       </defs>
       <use xlink:href="#DejaVuSans-36"/>
      </g>
     </g>
    </g>
    <g id="xtick_8">
     <g id="line2d_17">
      <g>
       <use style="stroke:#000000;stroke-width:0.8;" x="674.470612" xlink:href="#mc3dfaa230c" y="314.942969"/>
      </g>
     </g>
     <g id="text_8">
      <!-- 7 -->
      <g transform="translate(671.289362 329.541406)scale(0.1 -0.1)">
       <defs>
        <path d="M 525 4666 
L 3525 4666 
L 3525 4397 
L 1831 0 
L 1172 0 
L 2766 4134 
L 525 4134 
L 525 4666 
z
" id="DejaVuSans-37" transform="scale(0.015625)"/>
       </defs>
       <use xlink:href="#DejaVuSans-37"/>
      </g>
     </g>
    </g>
    <g id="text_9">
     <!-- US industry employment, 2017 (million) -->
     <g transform="translate(263.163281 343.219531)scale(0.1 -0.1)">
      <defs>
       <path d="M 588 4666 
L 1791 4666 
L 1791 1869 
Q 1791 1291 1980 1042 
Q 2169 794 2597 794 
Q 3028 794 3217 1042 
Q 3406 1291 3406 1869 
L 3406 4666 
L 4609 4666 
L 4609 1869 
Q 4609 878 4112 393 
Q 3616 -91 2597 -91 
Q 1581 -91 1084 393 
Q 588 878 588 1869 
L 588 4666 
z
" id="DejaVuSans-Bold-55" transform="scale(0.015625)"/>
       <path d="M 3834 4519 
L 3834 3531 
Q 3450 3703 3084 3790 
Q 2719 3878 2394 3878 
Q 1963 3878 1756 3759 
Q 1550 3641 1550 3391 
Q 1550 3203 1689 3098 
Q 1828 2994 2194 2919 
L 2706 2816 
Q 3484 2659 3812 2340 
Q 4141 2022 4141 1434 
Q 4141 663 3683 286 
Q 3225 -91 2284 -91 
Q 1841 -91 1394 -6 
Q 947 78 500 244 
L 500 1259 
Q 947 1022 1364 901 
Q 1781 781 2169 781 
Q 2563 781 2772 912 
Q 2981 1044 2981 1288 
Q 2981 1506 2839 1625 
Q 2697 1744 2272 1838 
L 1806 1941 
Q 1106 2091 782 2419 
Q 459 2747 459 3303 
Q 459 4000 909 4375 
Q 1359 4750 2203 4750 
Q 2588 4750 2994 4692 
Q 3400 4634 3834 4519 
z
" id="DejaVuSans-Bold-53" transform="scale(0.015625)"/>
       <path id="DejaVuSans-Bold-20" transform="scale(0.015625)"/>
       <path d="M 538 3500 
L 1656 3500 
L 1656 0 
L 538 0 
L 538 3500 
z
M 538 4863 
L 1656 4863 
L 1656 3950 
L 538 3950 
L 538 4863 
z
" id="DejaVuSans-Bold-69" transform="scale(0.015625)"/>
       <path d="M 4056 2131 
L 4056 0 
L 2931 0 
L 2931 347 
L 2931 1631 
Q 2931 2084 2911 2256 
Q 2891 2428 2841 2509 
Q 2775 2619 2662 2680 
Q 2550 2741 2406 2741 
Q 2056 2741 1856 2470 
Q 1656 2200 1656 1722 
L 1656 0 
L 538 0 
L 538 3500 
L 1656 3500 
L 1656 2988 
Q 1909 3294 2193 3439 
Q 2478 3584 2822 3584 
Q 3428 3584 3742 3212 
Q 4056 2841 4056 2131 
z
" id="DejaVuSans-Bold-6e" transform="scale(0.015625)"/>
       <path d="M 2919 2988 
L 2919 4863 
L 4044 4863 
L 4044 0 
L 2919 0 
L 2919 506 
Q 2688 197 2409 53 
Q 2131 -91 1766 -91 
Q 1119 -91 703 423 
Q 288 938 288 1747 
Q 288 2556 703 3070 
Q 1119 3584 1766 3584 
Q 2128 3584 2408 3439 
Q 2688 3294 2919 2988 
z
M 2181 722 
Q 2541 722 2730 984 
Q 2919 1247 2919 1747 
Q 2919 2247 2730 2509 
Q 2541 2772 2181 2772 
Q 1825 2772 1636 2509 
Q 1447 2247 1447 1747 
Q 1447 1247 1636 984 
Q 1825 722 2181 722 
z
" id="DejaVuSans-Bold-64" transform="scale(0.015625)"/>
       <path d="M 500 1363 
L 500 3500 
L 1625 3500 
L 1625 3150 
Q 1625 2866 1622 2436 
Q 1619 2006 1619 1863 
Q 1619 1441 1641 1255 
Q 1663 1069 1716 984 
Q 1784 875 1895 815 
Q 2006 756 2150 756 
Q 2500 756 2700 1025 
Q 2900 1294 2900 1772 
L 2900 3500 
L 4019 3500 
L 4019 0 
L 2900 0 
L 2900 506 
Q 2647 200 2364 54 
Q 2081 -91 1741 -91 
Q 1134 -91 817 281 
Q 500 653 500 1363 
z
" id="DejaVuSans-Bold-75" transform="scale(0.015625)"/>
       <path d="M 3272 3391 
L 3272 2541 
Q 2913 2691 2578 2766 
Q 2244 2841 1947 2841 
Q 1628 2841 1473 2761 
Q 1319 2681 1319 2516 
Q 1319 2381 1436 2309 
Q 1553 2238 1856 2203 
L 2053 2175 
Q 2913 2066 3209 1816 
Q 3506 1566 3506 1031 
Q 3506 472 3093 190 
Q 2681 -91 1863 -91 
Q 1516 -91 1145 -36 
Q 775 19 384 128 
L 384 978 
Q 719 816 1070 734 
Q 1422 653 1784 653 
Q 2113 653 2278 743 
Q 2444 834 2444 1013 
Q 2444 1163 2330 1236 
Q 2216 1309 1875 1350 
L 1678 1375 
Q 931 1469 631 1722 
Q 331 1975 331 2491 
Q 331 3047 712 3315 
Q 1094 3584 1881 3584 
Q 2191 3584 2531 3537 
Q 2872 3491 3272 3391 
z
" id="DejaVuSans-Bold-73" transform="scale(0.015625)"/>
       <path d="M 1759 4494 
L 1759 3500 
L 2913 3500 
L 2913 2700 
L 1759 2700 
L 1759 1216 
Q 1759 972 1856 886 
Q 1953 800 2241 800 
L 2816 800 
L 2816 0 
L 1856 0 
Q 1194 0 917 276 
Q 641 553 641 1216 
L 641 2700 
L 84 2700 
L 84 3500 
L 641 3500 
L 641 4494 
L 1759 4494 
z
" id="DejaVuSans-Bold-74" transform="scale(0.015625)"/>
       <path d="M 3138 2547 
Q 2991 2616 2845 2648 
Q 2700 2681 2553 2681 
Q 2122 2681 1889 2404 
Q 1656 2128 1656 1613 
L 1656 0 
L 538 0 
L 538 3500 
L 1656 3500 
L 1656 2925 
Q 1872 3269 2151 3426 
Q 2431 3584 2822 3584 
Q 2878 3584 2943 3579 
Q 3009 3575 3134 3559 
L 3138 2547 
z
" id="DejaVuSans-Bold-72" transform="scale(0.015625)"/>
       <path d="M 78 3500 
L 1197 3500 
L 2138 1125 
L 2938 3500 
L 4056 3500 
L 2584 -331 
Q 2363 -916 2067 -1148 
Q 1772 -1381 1288 -1381 
L 641 -1381 
L 641 -647 
L 991 -647 
Q 1275 -647 1404 -556 
Q 1534 -466 1606 -231 
L 1638 -134 
L 78 3500 
z
" id="DejaVuSans-Bold-79" transform="scale(0.015625)"/>
       <path d="M 4031 1759 
L 4031 1441 
L 1416 1441 
Q 1456 1047 1700 850 
Q 1944 653 2381 653 
Q 2734 653 3104 758 
Q 3475 863 3866 1075 
L 3866 213 
Q 3469 63 3072 -14 
Q 2675 -91 2278 -91 
Q 1328 -91 801 392 
Q 275 875 275 1747 
Q 275 2603 792 3093 
Q 1309 3584 2216 3584 
Q 3041 3584 3536 3087 
Q 4031 2591 4031 1759 
z
M 2881 2131 
Q 2881 2450 2695 2645 
Q 2509 2841 2209 2841 
Q 1884 2841 1681 2658 
Q 1478 2475 1428 2131 
L 2881 2131 
z
" id="DejaVuSans-Bold-65" transform="scale(0.015625)"/>
       <path d="M 3781 2919 
Q 3994 3244 4286 3414 
Q 4578 3584 4928 3584 
Q 5531 3584 5847 3212 
Q 6163 2841 6163 2131 
L 6163 0 
L 5038 0 
L 5038 1825 
Q 5041 1866 5042 1909 
Q 5044 1953 5044 2034 
Q 5044 2406 4934 2573 
Q 4825 2741 4581 2741 
Q 4263 2741 4089 2478 
Q 3916 2216 3909 1719 
L 3909 0 
L 2784 0 
L 2784 1825 
Q 2784 2406 2684 2573 
Q 2584 2741 2328 2741 
Q 2006 2741 1831 2477 
Q 1656 2213 1656 1722 
L 1656 0 
L 531 0 
L 531 3500 
L 1656 3500 
L 1656 2988 
Q 1863 3284 2130 3434 
Q 2397 3584 2719 3584 
Q 3081 3584 3359 3409 
Q 3638 3234 3781 2919 
z
" id="DejaVuSans-Bold-6d" transform="scale(0.015625)"/>
       <path d="M 1656 506 
L 1656 -1331 
L 538 -1331 
L 538 3500 
L 1656 3500 
L 1656 2988 
Q 1888 3294 2169 3439 
Q 2450 3584 2816 3584 
Q 3463 3584 3878 3070 
Q 4294 2556 4294 1747 
Q 4294 938 3878 423 
Q 3463 -91 2816 -91 
Q 2450 -91 2169 54 
Q 1888 200 1656 506 
z
M 2400 2772 
Q 2041 2772 1848 2508 
Q 1656 2244 1656 1747 
Q 1656 1250 1848 986 
Q 2041 722 2400 722 
Q 2759 722 2948 984 
Q 3138 1247 3138 1747 
Q 3138 2247 2948 2509 
Q 2759 2772 2400 2772 
z
" id="DejaVuSans-Bold-70" transform="scale(0.015625)"/>
       <path d="M 538 4863 
L 1656 4863 
L 1656 0 
L 538 0 
L 538 4863 
z
" id="DejaVuSans-Bold-6c" transform="scale(0.015625)"/>
       <path d="M 2203 2784 
Q 1831 2784 1636 2517 
Q 1441 2250 1441 1747 
Q 1441 1244 1636 976 
Q 1831 709 2203 709 
Q 2569 709 2762 976 
Q 2956 1244 2956 1747 
Q 2956 2250 2762 2517 
Q 2569 2784 2203 2784 
z
M 2203 3584 
Q 3106 3584 3614 3096 
Q 4122 2609 4122 1747 
Q 4122 884 3614 396 
Q 3106 -91 2203 -91 
Q 1297 -91 786 396 
Q 275 884 275 1747 
Q 275 2609 786 3096 
Q 1297 3584 2203 3584 
z
" id="DejaVuSans-Bold-6f" transform="scale(0.015625)"/>
       <path d="M 653 1209 
L 1778 1209 
L 1778 256 
L 1006 -909 
L 341 -909 
L 653 256 
L 653 1209 
z
" id="DejaVuSans-Bold-2c" transform="scale(0.015625)"/>
       <path d="M 1844 884 
L 3897 884 
L 3897 0 
L 506 0 
L 506 884 
L 2209 2388 
Q 2438 2594 2547 2791 
Q 2656 2988 2656 3200 
Q 2656 3528 2436 3728 
Q 2216 3928 1850 3928 
Q 1569 3928 1234 3808 
Q 900 3688 519 3450 
L 519 4475 
Q 925 4609 1322 4679 
Q 1719 4750 2100 4750 
Q 2938 4750 3402 4381 
Q 3866 4013 3866 3353 
Q 3866 2972 3669 2642 
Q 3472 2313 2841 1759 
L 1844 884 
z
" id="DejaVuSans-Bold-32" transform="scale(0.015625)"/>
       <path d="M 2944 2338 
Q 2944 3213 2780 3570 
Q 2616 3928 2228 3928 
Q 1841 3928 1675 3570 
Q 1509 3213 1509 2338 
Q 1509 1453 1675 1090 
Q 1841 728 2228 728 
Q 2613 728 2778 1090 
Q 2944 1453 2944 2338 
z
M 4147 2328 
Q 4147 1169 3647 539 
Q 3147 -91 2228 -91 
Q 1306 -91 806 539 
Q 306 1169 306 2328 
Q 306 3491 806 4120 
Q 1306 4750 2228 4750 
Q 3147 4750 3647 4120 
Q 4147 3491 4147 2328 
z
" id="DejaVuSans-Bold-30" transform="scale(0.015625)"/>
       <path d="M 750 831 
L 1813 831 
L 1813 3847 
L 722 3622 
L 722 4441 
L 1806 4666 
L 2950 4666 
L 2950 831 
L 4013 831 
L 4013 0 
L 750 0 
L 750 831 
z
" id="DejaVuSans-Bold-31" transform="scale(0.015625)"/>
       <path d="M 428 4666 
L 3944 4666 
L 3944 3988 
L 2125 0 
L 953 0 
L 2675 3781 
L 428 3781 
L 428 4666 
z
" id="DejaVuSans-Bold-37" transform="scale(0.015625)"/>
       <path d="M 2413 -844 
L 1484 -844 
Q 1006 -72 778 623 
Q 550 1319 550 2003 
Q 550 2688 779 3389 
Q 1009 4091 1484 4856 
L 2413 4856 
Q 2013 4116 1813 3408 
Q 1613 2700 1613 2009 
Q 1613 1319 1811 609 
Q 2009 -100 2413 -844 
z
" id="DejaVuSans-Bold-28" transform="scale(0.015625)"/>
       <path d="M 513 -844 
Q 913 -100 1113 609 
Q 1313 1319 1313 2009 
Q 1313 2700 1113 3408 
Q 913 4116 513 4856 
L 1441 4856 
Q 1916 4091 2145 3389 
Q 2375 2688 2375 2003 
Q 2375 1319 2147 623 
Q 1919 -72 1441 -844 
L 513 -844 
z
" id="DejaVuSans-Bold-29" transform="scale(0.015625)"/>
      </defs>
      <use xlink:href="#DejaVuSans-Bold-55"/>
      <use x="81.201172" xlink:href="#DejaVuSans-Bold-53"/>
      <use x="153.222656" xlink:href="#DejaVuSans-Bold-20"/>
      <use x="188.037109" xlink:href="#DejaVuSans-Bold-69"/>
      <use x="222.314453" xlink:href="#DejaVuSans-Bold-6e"/>
      <use x="293.505859" xlink:href="#DejaVuSans-Bold-64"/>
      <use x="365.087891" xlink:href="#DejaVuSans-Bold-75"/>
      <use x="436.279297" xlink:href="#DejaVuSans-Bold-73"/>
      <use x="495.800781" xlink:href="#DejaVuSans-Bold-74"/>
      <use x="543.603516" xlink:href="#DejaVuSans-Bold-72"/>
      <use x="592.919922" xlink:href="#DejaVuSans-Bold-79"/>
      <use x="658.105469" xlink:href="#DejaVuSans-Bold-20"/>
      <use x="692.919922" xlink:href="#DejaVuSans-Bold-65"/>
      <use x="760.742188" xlink:href="#DejaVuSans-Bold-6d"/>
      <use x="864.941406" xlink:href="#DejaVuSans-Bold-70"/>
      <use x="936.523438" xlink:href="#DejaVuSans-Bold-6c"/>
      <use x="970.800781" xlink:href="#DejaVuSans-Bold-6f"/>
      <use x="1039.501953" xlink:href="#DejaVuSans-Bold-79"/>
      <use x="1104.6875" xlink:href="#DejaVuSans-Bold-6d"/>
      <use x="1208.886719" xlink:href="#DejaVuSans-Bold-65"/>
      <use x="1276.708984" xlink:href="#DejaVuSans-Bold-6e"/>
      <use x="1347.900391" xlink:href="#DejaVuSans-Bold-74"/>
      <use x="1395.703125" xlink:href="#DejaVuSans-Bold-2c"/>
      <use x="1433.691406" xlink:href="#DejaVuSans-Bold-20"/>
      <use x="1468.505859" xlink:href="#DejaVuSans-Bold-32"/>
      <use x="1538.085938" xlink:href="#DejaVuSans-Bold-30"/>
      <use x="1607.666016" xlink:href="#DejaVuSans-Bold-31"/>
      <use x="1677.246094" xlink:href="#DejaVuSans-Bold-37"/>
      <use x="1746.826172" xlink:href="#DejaVuSans-Bold-20"/>
      <use x="1781.640625" xlink:href="#DejaVuSans-Bold-28"/>
      <use x="1827.34375" xlink:href="#DejaVuSans-Bold-6d"/>
      <use x="1931.542969" xlink:href="#DejaVuSans-Bold-69"/>
      <use x="1965.820312" xlink:href="#DejaVuSans-Bold-6c"/>
      <use x="2000.097656" xlink:href="#DejaVuSans-Bold-6c"/>
      <use x="2034.375" xlink:href="#DejaVuSans-Bold-69"/>
      <use x="2068.652344" xlink:href="#DejaVuSans-Bold-6f"/>
      <use x="2137.353516" xlink:href="#DejaVuSans-Bold-6e"/>
      <use x="2208.544922" xlink:href="#DejaVuSans-Bold-29"/>
     </g>
    </g>
   </g>
   <g id="matplotlib.axis_2">
    <g id="ytick_1">
     <g id="line2d_18">
      <defs>
       <path d="M 0 0 
L -3.5 0 
" id="ma3073cf0ff" style="stroke:#000000;stroke-width:0.8;"/>
      </defs>
      <g>
       <use style="stroke:#000000;stroke-width:0.8;" x="41.075" xlink:href="#ma3073cf0ff" y="302.588423"/>
      </g>
     </g>
     <g id="text_10">
      <!-- 0 -->
      <g transform="translate(27.7125 306.387642)scale(0.1 -0.1)">
       <use xlink:href="#DejaVuSans-30"/>
      </g>
     </g>
    </g>
    <g id="ytick_2">
     <g id="line2d_19">
      <g>
       <use style="stroke:#000000;stroke-width:0.8;" x="41.075" xlink:href="#ma3073cf0ff" y="271.70206"/>
      </g>
     </g>
     <g id="text_11">
      <!-- 5 -->
      <g transform="translate(27.7125 275.501278)scale(0.1 -0.1)">
       <use xlink:href="#DejaVuSans-35"/>
      </g>
     </g>
    </g>
    <g id="ytick_3">
     <g id="line2d_20">
      <g>
       <use style="stroke:#000000;stroke-width:0.8;" x="41.075" xlink:href="#ma3073cf0ff" y="240.815696"/>
      </g>
     </g>
     <g id="text_12">
      <!-- 10 -->
      <g transform="translate(21.35 244.614915)scale(0.1 -0.1)">
       <use xlink:href="#DejaVuSans-31"/>
       <use x="63.623047" xlink:href="#DejaVuSans-30"/>
      </g>
     </g>
    </g>
    <g id="ytick_4">
     <g id="line2d_21">
      <g>
       <use style="stroke:#000000;stroke-width:0.8;" x="41.075" xlink:href="#ma3073cf0ff" y="209.929332"/>
      </g>
     </g>
     <g id="text_13">
      <!-- 15 -->
      <g transform="translate(21.35 213.728551)scale(0.1 -0.1)">
       <use xlink:href="#DejaVuSans-31"/>
       <use x="63.623047" xlink:href="#DejaVuSans-35"/>
      </g>
     </g>
    </g>
    <g id="ytick_5">
     <g id="line2d_22">
      <g>
       <use style="stroke:#000000;stroke-width:0.8;" x="41.075" xlink:href="#ma3073cf0ff" y="179.042969"/>
      </g>
     </g>
     <g id="text_14">
      <!-- 20 -->
      <g transform="translate(21.35 182.842187)scale(0.1 -0.1)">
       <use xlink:href="#DejaVuSans-32"/>
       <use x="63.623047" xlink:href="#DejaVuSans-30"/>
      </g>
     </g>
    </g>
    <g id="ytick_6">
     <g id="line2d_23">
      <g>
       <use style="stroke:#000000;stroke-width:0.8;" x="41.075" xlink:href="#ma3073cf0ff" y="148.156605"/>
      </g>
     </g>
     <g id="text_15">
      <!-- 25 -->
      <g transform="translate(21.35 151.955824)scale(0.1 -0.1)">
       <use xlink:href="#DejaVuSans-32"/>
       <use x="63.623047" xlink:href="#DejaVuSans-35"/>
      </g>
     </g>
    </g>
    <g id="ytick_7">
     <g id="line2d_24">
      <g>
       <use style="stroke:#000000;stroke-width:0.8;" x="41.075" xlink:href="#ma3073cf0ff" y="117.270241"/>
      </g>
     </g>
     <g id="text_16">
      <!-- 30 -->
      <g transform="translate(21.35 121.06946)scale(0.1 -0.1)">
       <use xlink:href="#DejaVuSans-33"/>
       <use x="63.623047" xlink:href="#DejaVuSans-30"/>
      </g>
     </g>
    </g>
    <g id="ytick_8">
     <g id="line2d_25">
      <g>
       <use style="stroke:#000000;stroke-width:0.8;" x="41.075" xlink:href="#ma3073cf0ff" y="86.383878"/>
      </g>
     </g>
     <g id="text_17">
      <!-- 35 -->
      <g transform="translate(21.35 90.183097)scale(0.1 -0.1)">
       <use xlink:href="#DejaVuSans-33"/>
       <use x="63.623047" xlink:href="#DejaVuSans-35"/>
      </g>
     </g>
    </g>
    <g id="ytick_9">
     <g id="line2d_26">
      <g>
       <use style="stroke:#000000;stroke-width:0.8;" x="41.075" xlink:href="#ma3073cf0ff" y="55.497514"/>
      </g>
     </g>
     <g id="text_18">
      <!-- 40 -->
      <g transform="translate(21.35 59.296733)scale(0.1 -0.1)">
       <use xlink:href="#DejaVuSans-34"/>
       <use x="63.623047" xlink:href="#DejaVuSans-30"/>
      </g>
     </g>
    </g>
    <g id="text_19">
     <!-- Change in import tariffs during trade war (percentage point) -->
     <g transform="translate(15.192187 350.885938)rotate(-90)scale(0.1 -0.1)">
      <defs>
       <path d="M 4288 256 
Q 3956 84 3597 -3 
Q 3238 -91 2847 -91 
Q 1681 -91 1000 561 
Q 319 1213 319 2328 
Q 319 3447 1000 4098 
Q 1681 4750 2847 4750 
Q 3238 4750 3597 4662 
Q 3956 4575 4288 4403 
L 4288 3438 
Q 3953 3666 3628 3772 
Q 3303 3878 2944 3878 
Q 2300 3878 1931 3465 
Q 1563 3053 1563 2328 
Q 1563 1606 1931 1193 
Q 2300 781 2944 781 
Q 3303 781 3628 887 
Q 3953 994 4288 1222 
L 4288 256 
z
" id="DejaVuSans-Bold-43" transform="scale(0.015625)"/>
       <path d="M 4056 2131 
L 4056 0 
L 2931 0 
L 2931 347 
L 2931 1625 
Q 2931 2084 2911 2256 
Q 2891 2428 2841 2509 
Q 2775 2619 2662 2680 
Q 2550 2741 2406 2741 
Q 2056 2741 1856 2470 
Q 1656 2200 1656 1722 
L 1656 0 
L 538 0 
L 538 4863 
L 1656 4863 
L 1656 2988 
Q 1909 3294 2193 3439 
Q 2478 3584 2822 3584 
Q 3428 3584 3742 3212 
Q 4056 2841 4056 2131 
z
" id="DejaVuSans-Bold-68" transform="scale(0.015625)"/>
       <path d="M 2106 1575 
Q 1756 1575 1579 1456 
Q 1403 1338 1403 1106 
Q 1403 894 1545 773 
Q 1688 653 1941 653 
Q 2256 653 2472 879 
Q 2688 1106 2688 1447 
L 2688 1575 
L 2106 1575 
z
M 3816 1997 
L 3816 0 
L 2688 0 
L 2688 519 
Q 2463 200 2181 54 
Q 1900 -91 1497 -91 
Q 953 -91 614 226 
Q 275 544 275 1050 
Q 275 1666 698 1953 
Q 1122 2241 2028 2241 
L 2688 2241 
L 2688 2328 
Q 2688 2594 2478 2717 
Q 2269 2841 1825 2841 
Q 1466 2841 1156 2769 
Q 847 2697 581 2553 
L 581 3406 
Q 941 3494 1303 3539 
Q 1666 3584 2028 3584 
Q 2975 3584 3395 3211 
Q 3816 2838 3816 1997 
z
" id="DejaVuSans-Bold-61" transform="scale(0.015625)"/>
       <path d="M 2919 594 
Q 2688 288 2409 144 
Q 2131 0 1766 0 
Q 1125 0 706 504 
Q 288 1009 288 1791 
Q 288 2575 706 3076 
Q 1125 3578 1766 3578 
Q 2131 3578 2409 3434 
Q 2688 3291 2919 2981 
L 2919 3500 
L 4044 3500 
L 4044 353 
Q 4044 -491 3511 -936 
Q 2978 -1381 1966 -1381 
Q 1638 -1381 1331 -1331 
Q 1025 -1281 716 -1178 
L 716 -306 
Q 1009 -475 1290 -558 
Q 1572 -641 1856 -641 
Q 2406 -641 2662 -400 
Q 2919 -159 2919 353 
L 2919 594 
z
M 2181 2772 
Q 1834 2772 1640 2515 
Q 1447 2259 1447 1791 
Q 1447 1309 1634 1061 
Q 1822 813 2181 813 
Q 2531 813 2725 1069 
Q 2919 1325 2919 1791 
Q 2919 2259 2725 2515 
Q 2531 2772 2181 2772 
z
" id="DejaVuSans-Bold-67" transform="scale(0.015625)"/>
       <path d="M 2841 4863 
L 2841 4128 
L 2222 4128 
Q 1984 4128 1890 4042 
Q 1797 3956 1797 3744 
L 1797 3500 
L 2753 3500 
L 2753 2700 
L 1797 2700 
L 1797 0 
L 678 0 
L 678 2700 
L 122 2700 
L 122 3500 
L 678 3500 
L 678 3744 
Q 678 4316 997 4589 
Q 1316 4863 1984 4863 
L 2841 4863 
z
" id="DejaVuSans-Bold-66" transform="scale(0.015625)"/>
       <path d="M 225 3500 
L 1313 3500 
L 1900 1088 
L 2491 3500 
L 3425 3500 
L 4013 1113 
L 4603 3500 
L 5691 3500 
L 4769 0 
L 3547 0 
L 2956 2406 
L 2369 0 
L 1147 0 
L 225 3500 
z
" id="DejaVuSans-Bold-77" transform="scale(0.015625)"/>
       <path d="M 3366 3391 
L 3366 2478 
Q 3138 2634 2908 2709 
Q 2678 2784 2431 2784 
Q 1963 2784 1702 2511 
Q 1441 2238 1441 1747 
Q 1441 1256 1702 982 
Q 1963 709 2431 709 
Q 2694 709 2930 787 
Q 3166 866 3366 1019 
L 3366 103 
Q 3103 6 2833 -42 
Q 2563 -91 2291 -91 
Q 1344 -91 809 395 
Q 275 881 275 1747 
Q 275 2613 809 3098 
Q 1344 3584 2291 3584 
Q 2566 3584 2833 3536 
Q 3100 3488 3366 3391 
z
" id="DejaVuSans-Bold-63" transform="scale(0.015625)"/>
      </defs>
      <use xlink:href="#DejaVuSans-Bold-43"/>
      <use x="73.388672" xlink:href="#DejaVuSans-Bold-68"/>
      <use x="144.580078" xlink:href="#DejaVuSans-Bold-61"/>
      <use x="212.060547" xlink:href="#DejaVuSans-Bold-6e"/>
      <use x="283.251953" xlink:href="#DejaVuSans-Bold-67"/>
      <use x="354.833984" xlink:href="#DejaVuSans-Bold-65"/>
      <use x="422.65625" xlink:href="#DejaVuSans-Bold-20"/>
      <use x="457.470703" xlink:href="#DejaVuSans-Bold-69"/>
      <use x="491.748047" xlink:href="#DejaVuSans-Bold-6e"/>
      <use x="562.939453" xlink:href="#DejaVuSans-Bold-20"/>
      <use x="597.753906" xlink:href="#DejaVuSans-Bold-69"/>
      <use x="632.03125" xlink:href="#DejaVuSans-Bold-6d"/>
      <use x="736.230469" xlink:href="#DejaVuSans-Bold-70"/>
      <use x="807.8125" xlink:href="#DejaVuSans-Bold-6f"/>
      <use x="876.513672" xlink:href="#DejaVuSans-Bold-72"/>
      <use x="925.830078" xlink:href="#DejaVuSans-Bold-74"/>
      <use x="973.632812" xlink:href="#DejaVuSans-Bold-20"/>
      <use x="1008.447266" xlink:href="#DejaVuSans-Bold-74"/>
      <use x="1056.25" xlink:href="#DejaVuSans-Bold-61"/>
      <use x="1123.730469" xlink:href="#DejaVuSans-Bold-72"/>
      <use x="1173.046875" xlink:href="#DejaVuSans-Bold-69"/>
      <use x="1207.324219" xlink:href="#DejaVuSans-Bold-66"/>
      <use x="1250.830078" xlink:href="#DejaVuSans-Bold-66"/>
      <use x="1294.335938" xlink:href="#DejaVuSans-Bold-73"/>
      <use x="1353.857422" xlink:href="#DejaVuSans-Bold-20"/>
      <use x="1388.671875" xlink:href="#DejaVuSans-Bold-64"/>
      <use x="1460.253906" xlink:href="#DejaVuSans-Bold-75"/>
      <use x="1531.445312" xlink:href="#DejaVuSans-Bold-72"/>
      <use x="1580.761719" xlink:href="#DejaVuSans-Bold-69"/>
      <use x="1615.039062" xlink:href="#DejaVuSans-Bold-6e"/>
      <use x="1686.230469" xlink:href="#DejaVuSans-Bold-67"/>
      <use x="1757.8125" xlink:href="#DejaVuSans-Bold-20"/>
      <use x="1792.626953" xlink:href="#DejaVuSans-Bold-74"/>
      <use x="1840.429688" xlink:href="#DejaVuSans-Bold-72"/>
      <use x="1889.746094" xlink:href="#DejaVuSans-Bold-61"/>
      <use x="1957.226562" xlink:href="#DejaVuSans-Bold-64"/>
      <use x="2028.808594" xlink:href="#DejaVuSans-Bold-65"/>
      <use x="2096.630859" xlink:href="#DejaVuSans-Bold-20"/>
      <use x="2131.445312" xlink:href="#DejaVuSans-Bold-77"/>
      <use x="2223.828125" xlink:href="#DejaVuSans-Bold-61"/>
      <use x="2291.308594" xlink:href="#DejaVuSans-Bold-72"/>
      <use x="2340.625" xlink:href="#DejaVuSans-Bold-20"/>
      <use x="2375.439453" xlink:href="#DejaVuSans-Bold-28"/>
      <use x="2421.142578" xlink:href="#DejaVuSans-Bold-70"/>
      <use x="2492.724609" xlink:href="#DejaVuSans-Bold-65"/>
      <use x="2560.546875" xlink:href="#DejaVuSans-Bold-72"/>
      <use x="2609.863281" xlink:href="#DejaVuSans-Bold-63"/>
      <use x="2669.140625" xlink:href="#DejaVuSans-Bold-65"/>
      <use x="2736.962891" xlink:href="#DejaVuSans-Bold-6e"/>
      <use x="2808.154297" xlink:href="#DejaVuSans-Bold-74"/>
      <use x="2855.957031" xlink:href="#DejaVuSans-Bold-61"/>
      <use x="2923.4375" xlink:href="#DejaVuSans-Bold-67"/>
      <use x="2995.019531" xlink:href="#DejaVuSans-Bold-65"/>
      <use x="3062.841797" xlink:href="#DejaVuSans-Bold-20"/>
      <use x="3097.65625" xlink:href="#DejaVuSans-Bold-70"/>
      <use x="3169.238281" xlink:href="#DejaVuSans-Bold-6f"/>
      <use x="3237.939453" xlink:href="#DejaVuSans-Bold-69"/>
      <use x="3272.216797" xlink:href="#DejaVuSans-Bold-6e"/>
      <use x="3343.408203" xlink:href="#DejaVuSans-Bold-74"/>
      <use x="3391.210938" xlink:href="#DejaVuSans-Bold-29"/>
     </g>
    </g>
   </g>
   <g id="PathCollection_1">
    <path clip-path="url(#p97490156a4)" d="M 127.059055 164.178208 
L 132.783139 152.730039 
L 121.33497 152.730039 
z
" style="fill:#008000;stroke:#008000;"/>
    <path clip-path="url(#p97490156a4)" d="M 168.428101 188.760258 
L 175.944885 173.72669 
L 160.911318 173.72669 
z
" style="fill:#008000;stroke:#008000;"/>
    <path clip-path="url(#p97490156a4)" d="M 265.818434 197.479825 
L 276.419521 176.277651 
L 255.217347 176.277651 
z
" style="fill:#008000;stroke:#008000;"/>
    <path clip-path="url(#p97490156a4)" d="M 228.322861 219.070688 
L 237.855369 200.005674 
L 218.790354 200.005674 
z
" style="fill:#008000;stroke:#008000;"/>
    <path clip-path="url(#p97490156a4)" d="M 135.295056 181.293789 
L 141.418032 169.047838 
L 129.17208 169.047838 
z
" style="fill:#008000;stroke:#008000;"/>
    <path clip-path="url(#p97490156a4)" d="M 234.195726 217.962144 
L 243.903375 198.546846 
L 224.488077 198.546846 
z
" style="fill:#008000;stroke:#008000;"/>
    <path clip-path="url(#p97490156a4)" d="M 104.176083 214.360502 
L 108.607252 205.498163 
L 99.744913 205.498163 
z
" style="fill:#008000;stroke:#008000;"/>
    <path clip-path="url(#p97490156a4)" d="M 115.045093 195.07471 
L 120.131518 184.901858 
L 109.958667 184.901858 
z
" style="fill:#008000;stroke:#008000;"/>
    <path clip-path="url(#p97490156a4)" d="M 71.511364 210.874198 
L 72.456229 208.984467 
L 70.566498 208.984467 
z
" style="fill:#008000;stroke:#008000;"/>
    <path clip-path="url(#p97490156a4)" d="M 76.851133 150.145737 
L 78.840264 146.167473 
L 74.862001 146.167473 
z
" style="fill:#008000;stroke:#008000;"/>
    <path clip-path="url(#p97490156a4)" d="M 90.368869 191.381365 
L 93.791282 184.536541 
L 86.946457 184.536541 
z
" style="fill:#008000;stroke:#008000;"/>
    <path clip-path="url(#p97490156a4)" d="M 73.129737 303.938004 
L 74.479318 301.238843 
L 71.780157 301.238843 
z
" style="fill:#008000;stroke:#008000;"/>
    <path clip-path="url(#p97490156a4)" d="M 72.2449 209.682134 
L 73.391051 207.389832 
L 71.098749 207.389832 
z
" style="fill:#008000;stroke:#008000;"/>
    <path clip-path="url(#p97490156a4)" d="M 120.497561 307.973613 
L 125.88275 297.203234 
L 115.112371 297.203234 
z
" style="fill:#008000;stroke:#008000;"/>
    <path clip-path="url(#p97490156a4)" d="M 76.505609 154.411286 
L 78.444265 150.533973 
L 74.566953 150.533973 
z
" style="fill:#008000;stroke:#008000;"/>
    <path clip-path="url(#p97490156a4)" d="M 71.964664 303.66214 
L 73.03838 301.514707 
L 70.890947 301.514707 
z
" style="fill:#008000;stroke:#008000;"/>
    <path clip-path="url(#p97490156a4)" d="M 416.580548 316.691187 
L 430.683311 288.48566 
L 402.477785 288.48566 
z
" style="fill:#008000;stroke:#008000;"/>
    <path clip-path="url(#p97490156a4)" d="M 100.955139 306.805903 
L 105.172619 298.370943 
L 96.737659 298.370943 
z
" style="fill:#008000;stroke:#008000;"/>
    <path clip-path="url(#p97490156a4)" d="M 87.315377 305.744506 
L 90.47146 299.43234 
L 84.159294 299.43234 
z
" style="fill:#008000;stroke:#008000;"/>
   </g>
   <g id="PathCollection_2">
    <path clip-path="url(#p97490156a4)" d="M 132.419895 150.408224 
C 133.017032 150.408224 133.589791 150.170979 134.012031 149.74874 
C 134.43427 149.326501 134.671515 148.753741 134.671515 148.156605 
C 134.671515 147.559469 134.43427 146.986709 134.012031 146.56447 
C 133.589791 146.142231 133.017032 145.904986 132.419895 145.904986 
C 131.822759 145.904986 131.25 146.142231 130.82776 146.56447 
C 130.405521 146.986709 130.168276 147.559469 130.168276 148.156605 
C 130.168276 148.753741 130.405521 149.326501 130.82776 149.74874 
C 131.25 150.170979 131.822759 150.408224 132.419895 150.408224 
z
" style="fill:#ffa500;stroke:#ffa500;"/>
    <path clip-path="url(#p97490156a4)" d="M 133.568561 198.085246 
C 134.171162 198.085246 134.749164 197.84583 135.175268 197.419726 
C 135.601372 196.993622 135.840788 196.41562 135.840788 195.813018 
C 135.840788 195.210417 135.601372 194.632415 135.175268 194.206311 
C 134.749164 193.780207 134.171162 193.540791 133.568561 193.540791 
C 132.965959 193.540791 132.387957 193.780207 131.961853 194.206311 
C 131.53575 194.632415 131.296333 195.210417 131.296333 195.813018 
C 131.296333 196.41562 131.53575 196.993622 131.961853 197.419726 
C 132.387957 197.84583 132.965959 198.085246 133.568561 198.085246 
z
" style="fill:#ffa500;stroke:#ffa500;"/>
    <path clip-path="url(#p97490156a4)" d="M 147.794444 196.936159 
C 148.461029 196.936159 149.100402 196.671322 149.571749 196.199975 
C 150.043096 195.728628 150.307933 195.089254 150.307933 194.422669 
C 150.307933 193.756084 150.043096 193.116711 149.571749 192.645364 
C 149.100402 192.174017 148.461029 191.90918 147.794444 191.90918 
C 147.127859 191.90918 146.488485 192.174017 146.017138 192.645364 
C 145.545791 193.116711 145.280954 193.756084 145.280954 194.422669 
C 145.280954 195.089254 145.545791 195.728628 146.017138 196.199975 
C 146.488485 196.671322 147.127859 196.936159 147.794444 196.936159 
z
" style="fill:#ffa500;stroke:#ffa500;"/>
    <path clip-path="url(#p97490156a4)" d="M 248.853838 161.793627 
C 249.864393 161.793627 250.833695 161.392129 251.548266 160.677558 
C 252.262837 159.962987 252.664335 158.993685 252.664335 157.98313 
C 252.664335 156.972574 252.262837 156.003272 251.548266 155.288701 
C 250.833695 154.574131 249.864393 154.172633 248.853838 154.172633 
C 247.843282 154.172633 246.87398 154.574131 246.159409 155.288701 
C 245.444839 156.003272 245.043341 156.972574 245.043341 157.98313 
C 245.043341 158.993685 245.444839 159.962987 246.159409 160.677558 
C 246.87398 161.392129 247.843282 161.793627 248.853838 161.793627 
z
" style="fill:#ffa500;stroke:#ffa500;"/>
    <path clip-path="url(#p97490156a4)" d="M 219.991692 199.665978 
C 220.917147 199.665978 221.804822 199.298291 222.459217 198.643896 
C 223.113612 197.989501 223.481299 197.101826 223.481299 196.176371 
C 223.481299 195.250917 223.113612 194.363242 222.459217 193.708846 
C 221.804822 193.054451 220.917147 192.686764 219.991692 192.686764 
C 219.066238 192.686764 218.178563 193.054451 217.524167 193.708846 
C 216.869772 194.363242 216.502085 195.250917 216.502085 196.176371 
C 216.502085 197.101826 216.869772 197.989501 217.524167 198.643896 
C 218.178563 199.298291 219.066238 199.665978 219.991692 199.665978 
z
" style="fill:#ffa500;stroke:#ffa500;"/>
    <path clip-path="url(#p97490156a4)" d="M 599.474112 203.794252 
C 601.212704 203.794252 602.880322 203.103502 604.109692 201.874132 
C 605.339062 200.644762 606.029812 198.977145 606.029812 197.238553 
C 606.029812 195.499961 605.339062 193.832343 604.109692 192.602973 
C 602.880322 191.373603 601.212704 190.682853 599.474112 190.682853 
C 597.735521 190.682853 596.067903 191.373603 594.838533 192.602973 
C 593.609163 193.832343 592.918413 195.499961 592.918413 197.238553 
C 592.918413 198.977145 593.609163 200.644762 594.838533 201.874132 
C 596.067903 203.103502 597.735521 203.794252 599.474112 203.794252 
z
" style="fill:#ffa500;stroke:#ffa500;"/>
    <path clip-path="url(#p97490156a4)" d="M 106.826623 150.13715 
C 107.285398 150.13715 107.725446 149.954876 108.049849 149.630473 
C 108.374253 149.306069 108.556526 148.866022 108.556526 148.407246 
C 108.556526 147.94847 108.374253 147.508423 108.049849 147.184019 
C 107.725446 146.859616 107.285398 146.677342 106.826623 146.677342 
C 106.367847 146.677342 105.927799 146.859616 105.603396 147.184019 
C 105.278992 147.508423 105.096719 147.94847 105.096719 148.407246 
C 105.096719 148.866022 105.278992 149.306069 105.603396 149.630473 
C 105.927799 149.954876 106.367847 150.13715 106.826623 150.13715 
z
" style="fill:#ffa500;stroke:#ffa500;"/>
    <path clip-path="url(#p97490156a4)" d="M 392.953504 181.863013 
C 394.31137 181.863013 395.613804 181.323528 396.573961 180.363371 
C 397.534117 179.403215 398.073603 178.100781 398.073603 176.742914 
C 398.073603 175.385048 397.534117 174.082614 396.573961 173.122458 
C 395.613804 172.162301 394.31137 171.622815 392.953504 171.622815 
C 391.595638 171.622815 390.293204 172.162301 389.333047 173.122458 
C 388.372891 174.082614 387.833405 175.385048 387.833405 176.742914 
C 387.833405 178.100781 388.372891 179.403215 389.333047 180.363371 
C 390.293204 181.323528 391.595638 181.863013 392.953504 181.863013 
z
" style="fill:#ffa500;stroke:#ffa500;"/>
    <path clip-path="url(#p97490156a4)" d="M 295.688738 205.526351 
C 296.823892 205.526351 297.912706 205.075349 298.715381 204.272674 
C 299.518056 203.469999 299.969058 202.381185 299.969058 201.246031 
C 299.969058 200.110877 299.518056 199.022063 298.715381 198.219388 
C 297.912706 197.416713 296.823892 196.965711 295.688738 196.965711 
C 294.553584 196.965711 293.46477 197.416713 292.662095 198.219388 
C 291.85942 199.022063 291.408418 200.110877 291.408418 201.246031 
C 291.408418 202.381185 291.85942 203.469999 292.662095 204.272674 
C 293.46477 205.075349 294.553584 205.526351 295.688738 205.526351 
z
" style="fill:#ffa500;stroke:#ffa500;"/>
    <path clip-path="url(#p97490156a4)" d="M 329.927442 214.522811 
C 331.145646 214.522811 332.314121 214.038813 333.175522 213.177412 
C 334.036922 212.316011 334.52092 211.147537 334.52092 209.929332 
C 334.52092 208.711128 334.036922 207.542653 333.175522 206.681253 
C 332.314121 205.819852 331.145646 205.335854 329.927442 205.335854 
C 328.709237 205.335854 327.540763 205.819852 326.679362 206.681253 
C 325.817961 207.542653 325.333963 208.711128 325.333963 209.929332 
C 325.333963 211.147537 325.817961 212.316011 326.679362 213.177412 
C 327.540763 214.038813 328.709237 214.522811 329.927442 214.522811 
z
" style="fill:#ffa500;stroke:#ffa500;"/>
    <path clip-path="url(#p97490156a4)" d="M 82.581418 303.600728 
C 82.849885 303.600728 83.107391 303.494065 83.297226 303.304231 
C 83.48706 303.114396 83.593723 302.85689 83.593723 302.588423 
C 83.593723 302.319957 83.48706 302.06245 83.297226 301.872616 
C 83.107391 301.682782 82.849885 301.576119 82.581418 301.576119 
C 82.312952 301.576119 82.055445 301.682782 81.865611 301.872616 
C 81.675777 302.06245 81.569114 302.319957 81.569114 302.588423 
C 81.569114 302.85689 81.675777 303.114396 81.865611 303.304231 
C 82.055445 303.494065 82.312952 303.600728 82.581418 303.600728 
z
" style="fill:#ffa500;stroke:#ffa500;"/>
    <path clip-path="url(#p97490156a4)" d="M 99.806129 149.713129 
C 100.218923 149.713129 100.614867 149.549123 100.906757 149.257233 
C 101.198647 148.965343 101.362652 148.5694 101.362652 148.156605 
C 101.362652 147.74381 101.198647 147.347867 100.906757 147.055977 
C 100.614867 146.764087 100.218923 146.600082 99.806129 146.600082 
C 99.393334 146.600082 98.99739 146.764087 98.7055 147.055977 
C 98.41361 147.347867 98.249605 147.74381 98.249605 148.156605 
C 98.249605 148.5694 98.41361 148.965343 98.7055 149.257233 
C 98.99739 149.549123 99.393334 149.713129 99.806129 149.713129 
z
" style="fill:#ffa500;stroke:#ffa500;"/>
    <path clip-path="url(#p97490156a4)" d="M 124.928571 304.700714 
C 125.488757 304.700714 126.026074 304.47815 126.422186 304.082038 
C 126.818297 303.685927 127.040861 303.148609 127.040861 302.588423 
C 127.040861 302.028237 126.818297 301.49092 126.422186 301.094808 
C 126.026074 300.698697 125.488757 300.476133 124.928571 300.476133 
C 124.368385 300.476133 123.831067 300.698697 123.434956 301.094808 
C 123.038844 301.49092 122.81628 302.028237 122.81628 302.588423 
C 122.81628 303.148609 123.038844 303.685927 123.434956 304.082038 
C 123.831067 304.47815 124.368385 304.700714 124.928571 304.700714 
z
" style="fill:#ffa500;stroke:#ffa500;"/>
    <path clip-path="url(#p97490156a4)" d="M 101.739886 304.194572 
C 102.165842 304.194572 102.574409 304.025338 102.875605 303.724142 
C 103.176801 303.422946 103.346035 303.014379 103.346035 302.588423 
C 103.346035 302.162468 103.176801 301.753901 102.875605 301.452705 
C 102.574409 301.151508 102.165842 300.982274 101.739886 300.982274 
C 101.313931 300.982274 100.905364 301.151508 100.604168 301.452705 
C 100.302971 301.753901 100.133737 302.162468 100.133737 302.588423 
C 100.133737 303.014379 100.302971 303.422946 100.604168 303.724142 
C 100.905364 304.025338 101.313931 304.194572 101.739886 304.194572 
z
" style="fill:#ffa500;stroke:#ffa500;"/>
    <path clip-path="url(#p97490156a4)" d="M 123.659866 304.676197 
C 124.21355 304.676197 124.744631 304.456216 125.136145 304.064702 
C 125.527659 303.673189 125.74764 303.142107 125.74764 302.588423 
C 125.74764 302.034739 125.527659 301.503658 125.136145 301.112144 
C 124.744631 300.72063 124.21355 300.500649 123.659866 300.500649 
C 123.106182 300.500649 122.575101 300.72063 122.183587 301.112144 
C 121.792073 301.503658 121.572092 302.034739 121.572092 302.588423 
C 121.572092 303.142107 121.792073 303.673189 122.183587 304.064702 
C 122.575101 304.456216 123.106182 304.676197 123.659866 304.676197 
z
" style="fill:#ffa500;stroke:#ffa500;"/>
    <path clip-path="url(#p97490156a4)" d="M 135.751033 304.8993 
C 136.363885 304.8993 136.951718 304.655812 137.38507 304.22246 
C 137.818422 303.789108 138.06191 303.201275 138.06191 302.588423 
C 138.06191 301.975572 137.818422 301.387738 137.38507 300.954386 
C 136.951718 300.521035 136.363885 300.277546 135.751033 300.277546 
C 135.138181 300.277546 134.550348 300.521035 134.116996 300.954386 
C 133.683645 301.387738 133.440156 301.975572 133.440156 302.588423 
C 133.440156 303.201275 133.683645 303.789108 134.116996 304.22246 
C 134.550348 304.655812 135.138181 304.8993 135.751033 304.8993 
z
" style="fill:#ffa500;stroke:#ffa500;"/>
    <path clip-path="url(#p97490156a4)" d="M 81.64917 303.562639 
C 81.907535 303.562639 82.155353 303.45999 82.338044 303.277298 
C 82.520736 303.094606 82.623385 302.846788 82.623385 302.588423 
C 82.623385 302.330058 82.520736 302.08224 82.338044 301.899549 
C 82.155353 301.716857 81.907535 301.614208 81.64917 301.614208 
C 81.390805 301.614208 81.142987 301.716857 80.960295 301.899549 
C 80.777603 302.08224 80.674954 302.330058 80.674954 302.588423 
C 80.674954 302.846788 80.777603 303.094606 80.960295 303.277298 
C 81.142987 303.45999 81.390805 303.562639 81.64917 303.562639 
z
" style="fill:#ffa500;stroke:#ffa500;"/>
    <path clip-path="url(#p97490156a4)" d="M 169.815896 305.435343 
C 170.570907 305.435343 171.295098 305.135373 171.828972 304.601499 
C 172.362846 304.067625 172.662815 303.343435 172.662815 302.588423 
C 172.662815 301.833411 172.362846 301.109221 171.828972 300.575347 
C 171.295098 300.041473 170.570907 299.741504 169.815896 299.741504 
C 169.060884 299.741504 168.336694 300.041473 167.80282 300.575347 
C 167.268945 301.109221 166.968976 301.833411 166.968976 302.588423 
C 166.968976 303.343435 167.268945 304.067625 167.80282 304.601499 
C 168.336694 305.135373 169.060884 305.435343 169.815896 305.435343 
z
" style="fill:#ffa500;stroke:#ffa500;"/>
    <path clip-path="url(#p97490156a4)" d="M 82.704135 303.605635 
C 82.973903 303.605635 83.232658 303.498455 83.423412 303.307701 
C 83.614167 303.116946 83.721347 302.858191 83.721347 302.588423 
C 83.721347 302.318656 83.614167 302.0599 83.423412 301.869146 
C 83.232658 301.678391 82.973903 301.571211 82.704135 301.571211 
C 82.434367 301.571211 82.175612 301.678391 81.984857 301.869146 
C 81.794103 302.0599 81.686923 302.318656 81.686923 302.588423 
C 81.686923 302.858191 81.794103 303.116946 81.984857 303.307701 
C 82.175612 303.498455 82.434367 303.605635 82.704135 303.605635 
z
" style="fill:#ffa500;stroke:#ffa500;"/>
    <path clip-path="url(#p97490156a4)" d="M 74.435663 303.191439 
C 74.595584 303.191439 74.748978 303.127902 74.862059 303.01482 
C 74.975141 302.901738 75.038679 302.748345 75.038679 302.588423 
C 75.038679 302.428502 74.975141 302.275108 74.862059 302.162027 
C 74.748978 302.048945 74.595584 301.985407 74.435663 301.985407 
C 74.275741 301.985407 74.122348 302.048945 74.009266 302.162027 
C 73.896184 302.275108 73.832647 302.428502 73.832647 302.588423 
C 73.832647 302.748345 73.896184 302.901738 74.009266 303.01482 
C 74.122348 303.127902 74.275741 303.191439 74.435663 303.191439 
z
" style="fill:#ffa500;stroke:#ffa500;"/>
    <path clip-path="url(#p97490156a4)" d="M 83.185243 303.624651 
C 83.460054 303.624651 83.723646 303.515468 83.917966 303.321147 
C 84.112287 303.126826 84.221471 302.863234 84.221471 302.588423 
C 84.221471 302.313612 84.112287 302.05002 83.917966 301.8557 
C 83.723646 301.661379 83.460054 301.552195 83.185243 301.552195 
C 82.910432 301.552195 82.64684 301.661379 82.452519 301.8557 
C 82.258198 302.05002 82.149015 302.313612 82.149015 302.588423 
C 82.149015 302.863234 82.258198 303.126826 82.452519 303.321147 
C 82.64684 303.515468 82.910432 303.624651 83.185243 303.624651 
z
" style="fill:#ffa500;stroke:#ffa500;"/>
    <path clip-path="url(#p97490156a4)" d="M 81.436467 303.553738 
C 81.692471 303.553738 81.938025 303.452026 82.119047 303.271004 
C 82.30007 303.089981 82.401781 302.844428 82.401781 302.588423 
C 82.401781 302.332419 82.30007 302.086865 82.119047 301.905843 
C 81.938025 301.72482 81.692471 301.623108 81.436467 301.623108 
C 81.180462 301.623108 80.934908 301.72482 80.753886 301.905843 
C 80.572863 302.086865 80.471152 302.332419 80.471152 302.588423 
C 80.471152 302.844428 80.572863 303.089981 80.753886 303.271004 
C 80.934908 303.452026 81.180462 303.553738 81.436467 303.553738 
z
" style="fill:#ffa500;stroke:#ffa500;"/>
   </g>
   <g id="PathCollection_3">
    <path clip-path="url(#p97490156a4)" d="M 165.277455 297.988282 
L 161.293615 300.288353 
L 161.293615 304.888494 
L 165.277455 307.188565 
L 169.261294 304.888494 
L 169.261294 300.288353 
z
" style="fill:#000080;stroke:#000080;"/>
    <path clip-path="url(#p97490156a4)" d="M 150.987752 298.347077 
L 147.314639 300.46775 
L 147.314639 304.709096 
L 150.987752 306.829769 
L 154.660865 304.709096 
L 154.660865 300.46775 
z
" style="fill:#000080;stroke:#000080;"/>
    <path clip-path="url(#p97490156a4)" d="M 304.465867 295.373103 
L 298.217216 298.980763 
L 298.217216 306.196084 
L 304.465867 309.803744 
L 310.714518 306.196084 
L 310.714518 298.980763 
z
" style="fill:#000080;stroke:#000080;"/>
    <path clip-path="url(#p97490156a4)" d="M 171.50802 297.840321 
L 167.396043 300.214372 
L 167.396043 304.962474 
L 171.50802 307.336525 
L 175.619997 304.962474 
L 175.619997 300.214372 
z
" style="fill:#000080;stroke:#000080;"/>
    <path clip-path="url(#p97490156a4)" d="M 348.744013 294.721371 
L 341.930946 298.654897 
L 341.930946 306.521949 
L 348.744013 310.455475 
L 355.55708 306.521949 
L 355.55708 298.654897 
z
" style="fill:#000080;stroke:#000080;"/>
    <path clip-path="url(#p97490156a4)" d="M 524.748263 292.540384 
L 516.046406 297.564403 
L 516.046406 307.612443 
L 524.748263 312.636463 
L 533.450121 307.612443 
L 533.450121 297.564403 
z
" style="fill:#000080;stroke:#000080;"/>
    <path clip-path="url(#p97490156a4)" d="M 186.900013 297.493184 
L 182.487406 300.040804 
L 182.487406 305.136043 
L 186.900013 307.683663 
L 191.31262 305.136043 
L 191.31262 300.040804 
z
" style="fill:#000080;stroke:#000080;"/>
    <path clip-path="url(#p97490156a4)" d="M 224.341783 142.302251 
L 219.271764 145.229428 
L 219.271764 151.083782 
L 224.341783 154.010959 
L 229.411803 151.083782 
L 229.411803 145.229428 
z
" style="fill:#000080;stroke:#000080;"/>
    <path clip-path="url(#p97490156a4)" d="M 165.494994 297.983036 
L 161.506611 300.28573 
L 161.506611 304.891117 
L 165.494994 307.193811 
L 169.483376 304.891117 
L 169.483376 300.28573 
z
" style="fill:#000080;stroke:#000080;"/>
    <path clip-path="url(#p97490156a4)" d="M 106.950289 299.722628 
L 104.468437 301.155525 
L 104.468437 304.021321 
L 106.950289 305.454219 
L 109.432141 304.021321 
L 109.432141 301.155525 
z
" style="fill:#000080;stroke:#000080;"/>
    <path clip-path="url(#p97490156a4)" d="M 372.575124 220.822433 
L 365.476834 224.920632 
L 365.476834 233.117032 
L 372.575124 237.215232 
L 379.673415 233.117032 
L 379.673415 224.920632 
z
" style="fill:#000080;stroke:#000080;"/>
    <path clip-path="url(#p97490156a4)" d="M 134.482847 298.803591 
L 131.205086 300.696007 
L 131.205086 304.48084 
L 134.482847 306.373256 
L 137.760608 304.48084 
L 137.760608 300.696007 
z
" style="fill:#000080;stroke:#000080;"/>
    <path clip-path="url(#p97490156a4)" d="M 180.927489 204.965909 
L 176.629038 207.44762 
L 176.629038 212.411044 
L 180.927489 214.892756 
L 185.22594 212.411044 
L 185.22594 207.44762 
z
" style="fill:#000080;stroke:#000080;"/>
    <path clip-path="url(#p97490156a4)" d="M 155.559873 280.283027 
L 151.784557 282.462706 
L 151.784557 286.822066 
L 155.559873 289.001746 
L 159.335189 286.822066 
L 159.335189 282.462706 
z
" style="fill:#000080;stroke:#000080;"/>
    <path clip-path="url(#p97490156a4)" d="M 669.88001 291.04797 
L 659.885684 296.818197 
L 659.885684 308.35865 
L 669.88001 314.128876 
L 679.874335 308.35865 
L 679.874335 296.818197 
z
" style="fill:#000080;stroke:#000080;"/>
    <path clip-path="url(#p97490156a4)" d="M 210.155021 297.009532 
L 205.323559 299.798978 
L 205.323559 305.377869 
L 210.155021 308.167315 
L 214.986483 305.377869 
L 214.986483 299.798978 
z
" style="fill:#000080;stroke:#000080;"/>
    <path clip-path="url(#p97490156a4)" d="M 111.401334 299.555123 
L 108.77442 301.071773 
L 108.77442 304.105073 
L 111.401334 305.621723 
L 114.028249 304.105073 
L 114.028249 301.071773 
z
" style="fill:#000080;stroke:#000080;"/>
    <path clip-path="url(#p97490156a4)" d="M 157.860572 298.170871 
L 154.034859 300.379647 
L 154.034859 304.797199 
L 157.860572 307.005975 
L 161.686284 304.797199 
L 161.686284 300.379647 
z
" style="fill:#000080;stroke:#000080;"/>
    <path clip-path="url(#p97490156a4)" d="M 269.115373 295.939129 
L 263.356916 299.263776 
L 263.356916 305.91307 
L 269.115373 309.237717 
L 274.873831 305.91307 
L 274.873831 299.263776 
z
" style="fill:#000080;stroke:#000080;"/>
    <path clip-path="url(#p97490156a4)" d="M 85.033418 300.758865 
L 83.448974 301.673644 
L 83.448974 303.503202 
L 85.033418 304.417982 
L 86.617862 303.503202 
L 86.617862 301.673644 
z
" style="fill:#000080;stroke:#000080;"/>
    <path clip-path="url(#p97490156a4)" d="M 151.06323 298.345103 
L 147.388407 300.466763 
L 147.388407 304.710084 
L 151.06323 306.831744 
L 154.738054 304.710084 
L 154.738054 300.466763 
z
" style="fill:#000080;stroke:#000080;"/>
   </g>
   <g id="PathCollection_4">
    <path clip-path="url(#p97490156a4)" d="M 153.983038 299.623443 
L 153.317359 301.672194 
L 151.163174 301.672194 
L 152.905946 302.938392 
L 152.240267 304.987143 
L 153.983038 303.720945 
L 155.72581 304.987143 
L 155.060131 302.938392 
L 156.802903 301.672194 
L 154.648718 301.672194 
z
" style="fill:#dc143c;stroke:#dc143c;"/>
    <path clip-path="url(#p97490156a4)" d="M 127.437827 300.136097 
L 126.887245 301.830613 
L 125.105526 301.830613 
L 126.546967 302.877881 
L 125.996385 304.572397 
L 127.437827 303.525129 
L 128.879268 304.572397 
L 128.328686 302.877881 
L 129.770128 301.830613 
L 127.988408 301.830613 
z
" style="fill:#dc143c;stroke:#dc143c;"/>
    <path clip-path="url(#p97490156a4)" d="M 129.478325 300.09295 
L 128.918056 301.81728 
L 127.104989 301.81728 
L 128.571791 302.882974 
L 128.011522 304.607303 
L 129.478325 303.541609 
L 130.945127 304.607303 
L 130.384858 302.882974 
L 131.85166 301.81728 
L 130.038593 301.81728 
z
" style="fill:#dc143c;stroke:#dc143c;"/>
    <path clip-path="url(#p97490156a4)" d="M 131.446367 300.052031 
L 130.876911 301.804635 
L 129.034115 301.804635 
L 130.524969 302.887804 
L 129.955513 304.640408 
L 131.446367 303.557239 
L 132.937221 304.640408 
L 132.367765 302.887804 
L 133.858619 301.804635 
L 132.015822 301.804635 
z
" style="fill:#dc143c;stroke:#dc143c;"/>
    <path clip-path="url(#p97490156a4)" d="M 190.294884 299.040168 
L 189.498251 301.491952 
L 186.920292 301.491952 
L 189.005905 303.007238 
L 188.209272 305.459022 
L 190.294884 303.943736 
L 192.380496 305.459022 
L 191.583863 303.007238 
L 193.669475 301.491952 
L 191.091517 301.491952 
z
" style="fill:#dc143c;stroke:#dc143c;"/>
    <path clip-path="url(#p97490156a4)" d="M 170.979933 299.337369 
L 170.250026 301.583792 
L 167.887997 301.583792 
L 169.798918 302.972158 
L 169.069011 305.218581 
L 170.979933 303.830215 
L 172.890854 305.218581 
L 172.160947 302.972158 
L 174.071869 301.583792 
L 171.70984 301.583792 
z
" style="fill:#dc143c;stroke:#dc143c;"/>
    <path clip-path="url(#p97490156a4)" d="M 108.880851 300.570394 
L 108.427776 301.964818 
L 106.961591 301.964818 
L 108.147759 302.826619 
L 107.694683 304.221043 
L 108.880851 303.359242 
L 110.067019 304.221043 
L 109.613944 302.826619 
L 110.800112 301.964818 
L 109.333927 301.964818 
z
" style="fill:#dc143c;stroke:#dc143c;"/>
    <path clip-path="url(#p97490156a4)" d="M 456.860604 296.226138 
L 455.432182 300.622369 
L 450.809711 300.622369 
L 454.549369 303.339389 
L 453.120947 307.73562 
L 456.860604 305.0186 
L 460.600261 307.73562 
L 459.171839 303.339389 
L 462.911496 300.622369 
L 458.289026 300.622369 
z
" style="fill:#dc143c;stroke:#dc143c;"/>
    <path clip-path="url(#p97490156a4)" d="M 162.285018 299.480421 
L 161.587228 301.627998 
L 159.329133 301.627998 
L 161.15597 302.955273 
L 160.45818 305.10285 
L 162.285018 303.775574 
L 164.111856 305.10285 
L 163.414066 302.955273 
L 165.240904 301.627998 
L 162.982808 301.627998 
z
" style="fill:#dc143c;stroke:#dc143c;"/>
    <path clip-path="url(#p97490156a4)" d="M 95.593176 300.950661 
L 95.225475 302.082327 
L 94.035572 302.082327 
L 94.998224 302.781735 
L 94.630524 303.913401 
L 95.593176 303.213993 
L 96.555828 303.913401 
L 96.188128 302.781735 
L 97.15078 302.082327 
L 95.960876 302.082327 
z
" style="fill:#dc143c;stroke:#dc143c;"/>
    <path clip-path="url(#p97490156a4)" d="M 114.734717 300.423964 
L 114.248766 301.919569 
L 112.676194 301.919569 
L 113.948432 302.843903 
L 113.46248 304.339508 
L 114.734717 303.415173 
L 116.006955 304.339508 
L 115.521003 302.843903 
L 116.793241 301.919569 
L 115.220669 301.919569 
z
" style="fill:#dc143c;stroke:#dc143c;"/>
    <path clip-path="url(#p97490156a4)" d="M 433.436504 296.421739 
L 432.051997 300.682813 
L 427.571638 300.682813 
L 431.196325 303.316302 
L 429.811818 307.577376 
L 433.436504 304.943887 
L 437.06119 307.577376 
L 435.676683 303.316302 
L 439.30137 300.682813 
L 434.821011 300.682813 
z
" style="fill:#dc143c;stroke:#dc143c;"/>
    <path clip-path="url(#p97490156a4)" d="M 210.991411 298.747145 
L 210.12899 301.401403 
L 207.338138 301.401403 
L 209.595985 303.041825 
L 208.733564 305.696083 
L 210.991411 304.055661 
L 213.249258 305.696083 
L 212.386837 303.041825 
L 214.644684 301.401403 
L 211.853832 301.401403 
z
" style="fill:#dc143c;stroke:#dc143c;"/>
    <path clip-path="url(#p97490156a4)" d="M 346.114977 297.21327 
L 344.908179 300.92741 
L 341.002902 300.92741 
L 344.162338 303.222874 
L 342.955541 306.937014 
L 346.114977 304.641549 
L 349.274413 306.937014 
L 348.067615 303.222874 
L 351.227051 300.92741 
L 347.321774 300.92741 
z
" style="fill:#dc143c;stroke:#dc143c;"/>
    <path clip-path="url(#p97490156a4)" d="M 280.100278 297.899531 
L 279.047556 301.139476 
L 275.640877 301.139476 
L 278.396938 303.141872 
L 277.344216 306.381817 
L 280.100278 304.379421 
L 282.856339 306.381817 
L 281.803617 303.141872 
L 284.559679 301.139476 
L 281.152999 301.139476 
z
" style="fill:#dc143c;stroke:#dc143c;"/>
    <path clip-path="url(#p97490156a4)" d="M 188.296357 299.069755 
L 187.506366 301.501095 
L 184.949904 301.501095 
L 187.018126 303.003746 
L 186.228135 305.435086 
L 188.296357 303.932435 
L 190.364578 305.435086 
L 189.574588 303.003746 
L 191.642809 301.501095 
L 189.086347 301.501095 
z
" style="fill:#dc143c;stroke:#dc143c;"/>
    <path clip-path="url(#p97490156a4)" d="M 163.553291 299.459148 
L 162.850725 301.621424 
L 160.577173 301.621424 
L 162.416515 302.957784 
L 161.713949 305.12006 
L 163.553291 303.7837 
L 165.392633 305.12006 
L 164.690067 302.957784 
L 166.529409 301.621424 
L 164.255857 301.621424 
z
" style="fill:#dc143c;stroke:#dc143c;"/>
    <path clip-path="url(#p97490156a4)" d="M 205.653456 298.820539 
L 204.807513 301.424083 
L 202.069984 301.424083 
L 204.284691 303.033162 
L 203.438749 305.636706 
L 205.653456 304.027627 
L 207.868163 305.636706 
L 207.02222 303.033162 
L 209.236927 301.424083 
L 206.499398 301.424083 
z
" style="fill:#dc143c;stroke:#dc143c;"/>
    <path clip-path="url(#p97490156a4)" d="M 256.34689 298.172476 
L 255.355448 301.223821 
L 252.147075 301.223821 
L 254.742703 303.109655 
L 253.751261 306.160999 
L 256.34689 304.275165 
L 258.942518 306.160999 
L 257.951076 303.109655 
L 260.546705 301.223821 
L 257.338332 301.223821 
z
" style="fill:#dc143c;stroke:#dc143c;"/>
    <path clip-path="url(#p97490156a4)" d="M 169.735495 299.357455 
L 169.010097 301.589999 
L 166.662661 301.589999 
L 168.561777 302.969787 
L 167.836379 305.202332 
L 169.735495 303.822543 
L 171.634611 305.202332 
L 170.909213 302.969787 
L 172.808329 301.589999 
L 170.460893 301.589999 
z
" style="fill:#dc143c;stroke:#dc143c;"/>
    <path clip-path="url(#p97490156a4)" d="M 338.546706 297.287436 
L 337.35656 300.950328 
L 333.505167 300.950328 
L 336.621009 303.21412 
L 335.430863 306.877012 
L 338.546706 304.61322 
L 341.662548 306.877012 
L 340.472402 303.21412 
L 343.588244 300.950328 
L 339.736851 300.950328 
z
" style="fill:#dc143c;stroke:#dc143c;"/>
    <path clip-path="url(#p97490156a4)" d="M 234.521733 298.439062 
L 233.590143 301.3062 
L 230.575455 301.3062 
L 233.014389 303.078189 
L 232.082799 305.945327 
L 234.521733 304.173338 
L 236.960666 305.945327 
L 236.029077 303.078189 
L 238.46801 301.3062 
L 235.453322 301.3062 
z
" style="fill:#dc143c;stroke:#dc143c;"/>
    <path clip-path="url(#p97490156a4)" d="M 159.181351 299.533106 
L 158.495389 301.644278 
L 156.275571 301.644278 
L 158.071442 302.949055 
L 157.38548 305.060227 
L 159.181351 303.755451 
L 160.977222 305.060227 
L 160.29126 302.949055 
L 162.087131 301.644278 
L 159.867312 301.644278 
z
" style="fill:#dc143c;stroke:#dc143c;"/>
    <path clip-path="url(#p97490156a4)" d="M 90.578032 301.119556 
L 90.24825 302.134518 
L 89.181056 302.134518 
L 90.044434 302.7618 
L 89.714653 303.776762 
L 90.578032 303.149481 
L 91.44141 303.776762 
L 91.111629 302.7618 
L 91.975008 302.134518 
L 90.907813 302.134518 
z
" style="fill:#dc143c;stroke:#dc143c;"/>
    <path clip-path="url(#p97490156a4)" d="M 445.61429 296.319288 
L 444.206781 300.651154 
L 439.651987 300.651154 
L 443.336893 303.328394 
L 441.929384 307.660261 
L 445.61429 304.98302 
L 449.299195 307.660261 
L 447.891686 303.328394 
L 451.576592 300.651154 
L 447.021798 300.651154 
z
" style="fill:#dc143c;stroke:#dc143c;"/>
    <path clip-path="url(#p97490156a4)" d="M 484.01888 296.006629 
L 482.541175 300.554537 
L 477.759222 300.554537 
L 481.627904 303.365299 
L 480.150199 307.913207 
L 484.01888 305.102445 
L 487.887562 307.913207 
L 486.409857 303.365299 
L 490.278538 300.554537 
L 485.496585 300.554537 
z
" style="fill:#dc143c;stroke:#dc143c;"/>
    <path clip-path="url(#p97490156a4)" d="M 84.929442 301.336782 
L 84.648431 302.201645 
L 83.73906 302.201645 
L 84.474756 302.73616 
L 84.193745 303.601023 
L 84.929442 303.066508 
L 85.665138 303.601023 
L 85.384127 302.73616 
L 86.119824 302.201645 
L 85.210453 302.201645 
z
" style="fill:#dc143c;stroke:#dc143c;"/>
    <path clip-path="url(#p97490156a4)" d="M 120.182176 300.296087 
L 119.667515 301.880052 
L 118.002035 301.880052 
L 119.349436 302.858997 
L 118.834775 304.442963 
L 120.182176 303.464018 
L 121.529578 304.442963 
L 121.014916 302.858997 
L 122.362318 301.880052 
L 120.696838 301.880052 
z
" style="fill:#dc143c;stroke:#dc143c;"/>
    <path clip-path="url(#p97490156a4)" d="M 135.365871 299.972443 
L 134.778547 301.780041 
L 132.877926 301.780041 
L 134.41556 302.897198 
L 133.828236 304.704795 
L 135.365871 303.587639 
L 136.903505 304.704795 
L 136.316181 302.897198 
L 137.853815 301.780041 
L 135.953195 301.780041 
z
" style="fill:#dc143c;stroke:#dc143c;"/>
    <path clip-path="url(#p97490156a4)" d="M 212.909797 298.721108 
L 212.04153 301.393357 
L 209.231762 301.393357 
L 211.504912 303.044898 
L 210.636646 305.717147 
L 212.909797 304.065606 
L 215.182948 305.717147 
L 214.314681 303.044898 
L 216.587832 301.393357 
L 213.778063 301.393357 
z
" style="fill:#dc143c;stroke:#dc143c;"/>
    <path clip-path="url(#p97490156a4)" d="M 211.190728 298.744431 
L 210.327698 301.400564 
L 207.534875 301.400564 
L 209.794317 303.042145 
L 208.931287 305.698278 
L 211.190728 304.056698 
L 213.45017 305.698278 
L 212.58714 303.042145 
L 214.846582 301.400564 
L 212.053758 301.400564 
z
" style="fill:#dc143c;stroke:#dc143c;"/>
    <path clip-path="url(#p97490156a4)" d="M 301.153123 297.670264 
L 300.048928 301.068629 
L 296.475676 301.068628 
L 299.366498 303.168933 
L 298.262302 306.567298 
L 301.153123 304.466993 
L 304.043945 306.567298 
L 302.939749 303.168933 
L 305.830571 301.068628 
L 302.257319 301.068629 
z
" style="fill:#dc143c;stroke:#dc143c;"/>
    <path clip-path="url(#p97490156a4)" d="M 231.484994 298.477524 
L 230.56204 301.318086 
L 227.575296 301.318085 
L 229.991622 303.073649 
L 229.068668 305.914211 
L 231.484994 304.158647 
L 233.90132 305.914211 
L 232.978366 303.073649 
L 235.394692 301.318085 
L 232.407948 301.318086 
z
" style="fill:#dc143c;stroke:#dc143c;"/>
    <path clip-path="url(#p97490156a4)" d="M 680.238636 294.597875 
L 678.444647 300.119208 
L 672.639174 300.119208 
L 677.3359 303.531579 
L 675.54191 309.052912 
L 680.238636 305.640541 
L 684.935363 309.052912 
L 683.141373 303.531579 
L 687.838099 300.119208 
L 682.032626 300.119208 
z
" style="fill:#dc143c;stroke:#dc143c;"/>
    <path clip-path="url(#p97490156a4)" d="M 571.900793 295.341744 
L 570.273812 300.349076 
L 565.008791 300.349076 
L 569.268283 303.443778 
L 567.641302 308.45111 
L 571.900793 305.356409 
L 576.160285 308.45111 
L 574.533304 303.443778 
L 578.792795 300.349076 
L 573.527774 300.349076 
z
" style="fill:#dc143c;stroke:#dc143c;"/>
    <path clip-path="url(#p97490156a4)" d="M 92.919405 301.038414 
L 92.571406 302.109444 
L 91.445259 302.109444 
L 92.356331 302.771377 
L 92.008332 303.842407 
L 92.919405 303.180474 
L 93.830478 303.842407 
L 93.482479 302.771377 
L 94.393552 302.109444 
L 93.267404 302.109444 
z
" style="fill:#dc143c;stroke:#dc143c;"/>
    <path clip-path="url(#p97490156a4)" d="M 209.251271 298.770916 
L 208.394187 301.408749 
L 205.620605 301.408749 
L 207.86448 303.039019 
L 207.007396 305.676852 
L 209.251271 304.046581 
L 211.495146 305.676852 
L 210.638062 303.039019 
L 212.881936 301.408749 
L 210.108355 301.408749 
z
" style="fill:#dc143c;stroke:#dc143c;"/>
    <path clip-path="url(#p97490156a4)" d="M 105.929436 300.648408 
L 105.493875 301.988925 
L 104.084371 301.988925 
L 105.224684 302.817411 
L 104.789123 304.157929 
L 105.929436 303.329443 
L 107.069748 304.157929 
L 106.634188 302.817411 
L 107.7745 301.988925 
L 106.364996 301.988925 
z
" style="fill:#dc143c;stroke:#dc143c;"/>
    <path clip-path="url(#p97490156a4)" d="M 326.704685 297.405611 
L 325.541071 300.986846 
L 321.775538 300.986846 
L 324.821918 303.200171 
L 323.658305 306.781406 
L 326.704685 304.568081 
L 329.751065 306.781406 
L 328.587451 303.200171 
L 331.633832 300.986846 
L 327.868299 300.986846 
z
" style="fill:#dc143c;stroke:#dc143c;"/>
    <path clip-path="url(#p97490156a4)" d="M 182.13177 299.162627 
L 181.362631 301.529794 
L 178.873644 301.529794 
L 180.887277 302.992784 
L 180.118138 305.35995 
L 182.13177 303.896961 
L 184.145402 305.35995 
L 183.376263 302.992784 
L 185.389895 301.529794 
L 182.900909 301.529794 
z
" style="fill:#dc143c;stroke:#dc143c;"/>
    <path clip-path="url(#p97490156a4)" d="M 108.382386 300.583357 
L 107.93222 301.968824 
L 106.475454 301.968824 
L 107.654002 302.825089 
L 107.203837 304.210556 
L 108.382386 303.354291 
L 109.560934 304.210556 
L 109.110769 302.825089 
L 110.289317 301.968824 
L 108.832551 301.968824 
z
" style="fill:#dc143c;stroke:#dc143c;"/>
    <path clip-path="url(#p97490156a4)" d="M 389.868231 296.803113 
L 388.569348 300.800664 
L 384.366074 300.800664 
L 387.766594 303.271287 
L 386.467711 307.268838 
L 389.868231 304.798215 
L 393.268751 307.268838 
L 391.969868 303.271287 
L 395.370388 300.800664 
L 391.167114 300.800664 
z
" style="fill:#dc143c;stroke:#dc143c;"/>
    <path clip-path="url(#p97490156a4)" d="M 363.56258 204.38698 
L 362.318245 208.216651 
L 358.29149 208.216651 
L 361.549203 210.583518 
L 360.304867 214.41319 
L 363.56258 212.046323 
L 366.820293 214.41319 
L 365.575958 210.583518 
L 368.833671 208.216651 
L 364.806916 208.216651 
z
" style="fill:#dc143c;stroke:#dc143c;"/>
   </g>
   <g id="patch_3">
    <path d="M 41.075 314.942969 
L 41.075 43.142969 
" style="fill:none;stroke:#000000;stroke-linecap:square;stroke-linejoin:miter;stroke-width:0.8;"/>
   </g>
   <g id="patch_4">
    <path d="M 41.075 314.942969 
L 710.675 314.942969 
" style="fill:none;stroke:#000000;stroke-linecap:square;stroke-linejoin:miter;stroke-width:0.8;"/>
   </g>
   <g id="legend_1">
    <g id="patch_5">
     <path d="M 11.2 386.915219 
L 744.55 386.915219 
Q 746.55 386.915219 746.55 384.915219 
L 746.55 356.558969 
Q 746.55 354.558969 744.55 354.558969 
L 11.2 354.558969 
Q 9.2 354.558969 9.2 356.558969 
L 9.2 384.915219 
Q 9.2 386.915219 11.2 386.915219 
z
" style="fill:#4c4c4c;opacity:0.5;stroke:#4c4c4c;stroke-linejoin:miter;"/>
    </g>
    <g id="patch_6">
     <path d="M 9.2 384.915219 
L 742.55 384.915219 
Q 744.55 384.915219 744.55 382.915219 
L 744.55 354.558969 
Q 744.55 352.558969 742.55 352.558969 
L 9.2 352.558969 
Q 7.2 352.558969 7.2 354.558969 
L 7.2 382.915219 
Q 7.2 384.915219 9.2 384.915219 
z
" style="fill:#ffffff;stroke:#cccccc;stroke-linejoin:miter;"/>
    </g>
    <g id="PathCollection_5">
     <defs>
      <path d="M -0 5.99671 
L 5.99671 -5.99671 
L -5.99671 -5.99671 
z
" id="ma3ba883525" style="stroke:#008000;"/>
     </defs>
     <g>
      <use style="fill:#008000;stroke:#008000;" x="21.2" xlink:href="#ma3ba883525" y="361.532406"/>
     </g>
    </g>
    <g id="text_20">
     <!-- Agriculture, Forestry, Fishing and Hunting -->
     <g transform="translate(39.2 364.157406)scale(0.1 -0.1)">
      <defs>
       <path d="M 2188 4044 
L 1331 1722 
L 3047 1722 
L 2188 4044 
z
M 1831 4666 
L 2547 4666 
L 4325 0 
L 3669 0 
L 3244 1197 
L 1141 1197 
L 716 0 
L 50 0 
L 1831 4666 
z
" id="DejaVuSans-41" transform="scale(0.015625)"/>
       <path d="M 2906 1791 
Q 2906 2416 2648 2759 
Q 2391 3103 1925 3103 
Q 1463 3103 1205 2759 
Q 947 2416 947 1791 
Q 947 1169 1205 825 
Q 1463 481 1925 481 
Q 2391 481 2648 825 
Q 2906 1169 2906 1791 
z
M 3481 434 
Q 3481 -459 3084 -895 
Q 2688 -1331 1869 -1331 
Q 1566 -1331 1297 -1286 
Q 1028 -1241 775 -1147 
L 775 -588 
Q 1028 -725 1275 -790 
Q 1522 -856 1778 -856 
Q 2344 -856 2625 -561 
Q 2906 -266 2906 331 
L 2906 616 
Q 2728 306 2450 153 
Q 2172 0 1784 0 
Q 1141 0 747 490 
Q 353 981 353 1791 
Q 353 2603 747 3093 
Q 1141 3584 1784 3584 
Q 2172 3584 2450 3431 
Q 2728 3278 2906 2969 
L 2906 3500 
L 3481 3500 
L 3481 434 
z
" id="DejaVuSans-67" transform="scale(0.015625)"/>
       <path d="M 2631 2963 
Q 2534 3019 2420 3045 
Q 2306 3072 2169 3072 
Q 1681 3072 1420 2755 
Q 1159 2438 1159 1844 
L 1159 0 
L 581 0 
L 581 3500 
L 1159 3500 
L 1159 2956 
Q 1341 3275 1631 3429 
Q 1922 3584 2338 3584 
Q 2397 3584 2469 3576 
Q 2541 3569 2628 3553 
L 2631 2963 
z
" id="DejaVuSans-72" transform="scale(0.015625)"/>
       <path d="M 603 3500 
L 1178 3500 
L 1178 0 
L 603 0 
L 603 3500 
z
M 603 4863 
L 1178 4863 
L 1178 4134 
L 603 4134 
L 603 4863 
z
" id="DejaVuSans-69" transform="scale(0.015625)"/>
       <path d="M 3122 3366 
L 3122 2828 
Q 2878 2963 2633 3030 
Q 2388 3097 2138 3097 
Q 1578 3097 1268 2742 
Q 959 2388 959 1747 
Q 959 1106 1268 751 
Q 1578 397 2138 397 
Q 2388 397 2633 464 
Q 2878 531 3122 666 
L 3122 134 
Q 2881 22 2623 -34 
Q 2366 -91 2075 -91 
Q 1284 -91 818 406 
Q 353 903 353 1747 
Q 353 2603 823 3093 
Q 1294 3584 2113 3584 
Q 2378 3584 2631 3529 
Q 2884 3475 3122 3366 
z
" id="DejaVuSans-63" transform="scale(0.015625)"/>
       <path d="M 544 1381 
L 544 3500 
L 1119 3500 
L 1119 1403 
Q 1119 906 1312 657 
Q 1506 409 1894 409 
Q 2359 409 2629 706 
Q 2900 1003 2900 1516 
L 2900 3500 
L 3475 3500 
L 3475 0 
L 2900 0 
L 2900 538 
Q 2691 219 2414 64 
Q 2138 -91 1772 -91 
Q 1169 -91 856 284 
Q 544 659 544 1381 
z
M 1991 3584 
L 1991 3584 
z
" id="DejaVuSans-75" transform="scale(0.015625)"/>
       <path d="M 603 4863 
L 1178 4863 
L 1178 0 
L 603 0 
L 603 4863 
z
" id="DejaVuSans-6c" transform="scale(0.015625)"/>
       <path d="M 1172 4494 
L 1172 3500 
L 2356 3500 
L 2356 3053 
L 1172 3053 
L 1172 1153 
Q 1172 725 1289 603 
Q 1406 481 1766 481 
L 2356 481 
L 2356 0 
L 1766 0 
Q 1100 0 847 248 
Q 594 497 594 1153 
L 594 3053 
L 172 3053 
L 172 3500 
L 594 3500 
L 594 4494 
L 1172 4494 
z
" id="DejaVuSans-74" transform="scale(0.015625)"/>
       <path d="M 3597 1894 
L 3597 1613 
L 953 1613 
Q 991 1019 1311 708 
Q 1631 397 2203 397 
Q 2534 397 2845 478 
Q 3156 559 3463 722 
L 3463 178 
Q 3153 47 2828 -22 
Q 2503 -91 2169 -91 
Q 1331 -91 842 396 
Q 353 884 353 1716 
Q 353 2575 817 3079 
Q 1281 3584 2069 3584 
Q 2775 3584 3186 3129 
Q 3597 2675 3597 1894 
z
M 3022 2063 
Q 3016 2534 2758 2815 
Q 2500 3097 2075 3097 
Q 1594 3097 1305 2825 
Q 1016 2553 972 2059 
L 3022 2063 
z
" id="DejaVuSans-65" transform="scale(0.015625)"/>
       <path d="M 750 794 
L 1409 794 
L 1409 256 
L 897 -744 
L 494 -744 
L 750 256 
L 750 794 
z
" id="DejaVuSans-2c" transform="scale(0.015625)"/>
       <path id="DejaVuSans-20" transform="scale(0.015625)"/>
       <path d="M 628 4666 
L 3309 4666 
L 3309 4134 
L 1259 4134 
L 1259 2759 
L 3109 2759 
L 3109 2228 
L 1259 2228 
L 1259 0 
L 628 0 
L 628 4666 
z
" id="DejaVuSans-46" transform="scale(0.015625)"/>
       <path d="M 1959 3097 
Q 1497 3097 1228 2736 
Q 959 2375 959 1747 
Q 959 1119 1226 758 
Q 1494 397 1959 397 
Q 2419 397 2687 759 
Q 2956 1122 2956 1747 
Q 2956 2369 2687 2733 
Q 2419 3097 1959 3097 
z
M 1959 3584 
Q 2709 3584 3137 3096 
Q 3566 2609 3566 1747 
Q 3566 888 3137 398 
Q 2709 -91 1959 -91 
Q 1206 -91 779 398 
Q 353 888 353 1747 
Q 353 2609 779 3096 
Q 1206 3584 1959 3584 
z
" id="DejaVuSans-6f" transform="scale(0.015625)"/>
       <path d="M 2834 3397 
L 2834 2853 
Q 2591 2978 2328 3040 
Q 2066 3103 1784 3103 
Q 1356 3103 1142 2972 
Q 928 2841 928 2578 
Q 928 2378 1081 2264 
Q 1234 2150 1697 2047 
L 1894 2003 
Q 2506 1872 2764 1633 
Q 3022 1394 3022 966 
Q 3022 478 2636 193 
Q 2250 -91 1575 -91 
Q 1294 -91 989 -36 
Q 684 19 347 128 
L 347 722 
Q 666 556 975 473 
Q 1284 391 1588 391 
Q 1994 391 2212 530 
Q 2431 669 2431 922 
Q 2431 1156 2273 1281 
Q 2116 1406 1581 1522 
L 1381 1569 
Q 847 1681 609 1914 
Q 372 2147 372 2553 
Q 372 3047 722 3315 
Q 1072 3584 1716 3584 
Q 2034 3584 2315 3537 
Q 2597 3491 2834 3397 
z
" id="DejaVuSans-73" transform="scale(0.015625)"/>
       <path d="M 2059 -325 
Q 1816 -950 1584 -1140 
Q 1353 -1331 966 -1331 
L 506 -1331 
L 506 -850 
L 844 -850 
Q 1081 -850 1212 -737 
Q 1344 -625 1503 -206 
L 1606 56 
L 191 3500 
L 800 3500 
L 1894 763 
L 2988 3500 
L 3597 3500 
L 2059 -325 
z
" id="DejaVuSans-79" transform="scale(0.015625)"/>
       <path d="M 3513 2113 
L 3513 0 
L 2938 0 
L 2938 2094 
Q 2938 2591 2744 2837 
Q 2550 3084 2163 3084 
Q 1697 3084 1428 2787 
Q 1159 2491 1159 1978 
L 1159 0 
L 581 0 
L 581 4863 
L 1159 4863 
L 1159 2956 
Q 1366 3272 1645 3428 
Q 1925 3584 2291 3584 
Q 2894 3584 3203 3211 
Q 3513 2838 3513 2113 
z
" id="DejaVuSans-68" transform="scale(0.015625)"/>
       <path d="M 3513 2113 
L 3513 0 
L 2938 0 
L 2938 2094 
Q 2938 2591 2744 2837 
Q 2550 3084 2163 3084 
Q 1697 3084 1428 2787 
Q 1159 2491 1159 1978 
L 1159 0 
L 581 0 
L 581 3500 
L 1159 3500 
L 1159 2956 
Q 1366 3272 1645 3428 
Q 1925 3584 2291 3584 
Q 2894 3584 3203 3211 
Q 3513 2838 3513 2113 
z
" id="DejaVuSans-6e" transform="scale(0.015625)"/>
       <path d="M 2194 1759 
Q 1497 1759 1228 1600 
Q 959 1441 959 1056 
Q 959 750 1161 570 
Q 1363 391 1709 391 
Q 2188 391 2477 730 
Q 2766 1069 2766 1631 
L 2766 1759 
L 2194 1759 
z
M 3341 1997 
L 3341 0 
L 2766 0 
L 2766 531 
Q 2569 213 2275 61 
Q 1981 -91 1556 -91 
Q 1019 -91 701 211 
Q 384 513 384 1019 
Q 384 1609 779 1909 
Q 1175 2209 1959 2209 
L 2766 2209 
L 2766 2266 
Q 2766 2663 2505 2880 
Q 2244 3097 1772 3097 
Q 1472 3097 1187 3025 
Q 903 2953 641 2809 
L 641 3341 
Q 956 3463 1253 3523 
Q 1550 3584 1831 3584 
Q 2591 3584 2966 3190 
Q 3341 2797 3341 1997 
z
" id="DejaVuSans-61" transform="scale(0.015625)"/>
       <path d="M 2906 2969 
L 2906 4863 
L 3481 4863 
L 3481 0 
L 2906 0 
L 2906 525 
Q 2725 213 2448 61 
Q 2172 -91 1784 -91 
Q 1150 -91 751 415 
Q 353 922 353 1747 
Q 353 2572 751 3078 
Q 1150 3584 1784 3584 
Q 2172 3584 2448 3432 
Q 2725 3281 2906 2969 
z
M 947 1747 
Q 947 1113 1208 752 
Q 1469 391 1925 391 
Q 2381 391 2643 752 
Q 2906 1113 2906 1747 
Q 2906 2381 2643 2742 
Q 2381 3103 1925 3103 
Q 1469 3103 1208 2742 
Q 947 2381 947 1747 
z
" id="DejaVuSans-64" transform="scale(0.015625)"/>
       <path d="M 628 4666 
L 1259 4666 
L 1259 2753 
L 3553 2753 
L 3553 4666 
L 4184 4666 
L 4184 0 
L 3553 0 
L 3553 2222 
L 1259 2222 
L 1259 0 
L 628 0 
L 628 4666 
z
" id="DejaVuSans-48" transform="scale(0.015625)"/>
      </defs>
      <use xlink:href="#DejaVuSans-41"/>
      <use x="68.408203" xlink:href="#DejaVuSans-67"/>
      <use x="131.884766" xlink:href="#DejaVuSans-72"/>
      <use x="172.998047" xlink:href="#DejaVuSans-69"/>
      <use x="200.78125" xlink:href="#DejaVuSans-63"/>
      <use x="255.761719" xlink:href="#DejaVuSans-75"/>
      <use x="319.140625" xlink:href="#DejaVuSans-6c"/>
      <use x="346.923828" xlink:href="#DejaVuSans-74"/>
      <use x="386.132812" xlink:href="#DejaVuSans-75"/>
      <use x="449.511719" xlink:href="#DejaVuSans-72"/>
      <use x="488.375" xlink:href="#DejaVuSans-65"/>
      <use x="549.898438" xlink:href="#DejaVuSans-2c"/>
      <use x="581.685547" xlink:href="#DejaVuSans-20"/>
      <use x="613.472656" xlink:href="#DejaVuSans-46"/>
      <use x="667.367188" xlink:href="#DejaVuSans-6f"/>
      <use x="728.548828" xlink:href="#DejaVuSans-72"/>
      <use x="767.412109" xlink:href="#DejaVuSans-65"/>
      <use x="828.935547" xlink:href="#DejaVuSans-73"/>
      <use x="881.035156" xlink:href="#DejaVuSans-74"/>
      <use x="920.244141" xlink:href="#DejaVuSans-72"/>
      <use x="961.357422" xlink:href="#DejaVuSans-79"/>
      <use x="1020.537109" xlink:href="#DejaVuSans-2c"/>
      <use x="1052.324219" xlink:href="#DejaVuSans-20"/>
      <use x="1084.111328" xlink:href="#DejaVuSans-46"/>
      <use x="1134.380859" xlink:href="#DejaVuSans-69"/>
      <use x="1162.164062" xlink:href="#DejaVuSans-73"/>
      <use x="1214.263672" xlink:href="#DejaVuSans-68"/>
      <use x="1277.642578" xlink:href="#DejaVuSans-69"/>
      <use x="1305.425781" xlink:href="#DejaVuSans-6e"/>
      <use x="1368.804688" xlink:href="#DejaVuSans-67"/>
      <use x="1432.28125" xlink:href="#DejaVuSans-20"/>
      <use x="1464.068359" xlink:href="#DejaVuSans-61"/>
      <use x="1525.347656" xlink:href="#DejaVuSans-6e"/>
      <use x="1588.726562" xlink:href="#DejaVuSans-64"/>
      <use x="1652.203125" xlink:href="#DejaVuSans-20"/>
      <use x="1683.990234" xlink:href="#DejaVuSans-48"/>
      <use x="1759.185547" xlink:href="#DejaVuSans-75"/>
      <use x="1822.564453" xlink:href="#DejaVuSans-6e"/>
      <use x="1885.943359" xlink:href="#DejaVuSans-74"/>
      <use x="1925.152344" xlink:href="#DejaVuSans-69"/>
      <use x="1952.935547" xlink:href="#DejaVuSans-6e"/>
      <use x="2016.314453" xlink:href="#DejaVuSans-67"/>
     </g>
    </g>
    <g id="PathCollection_6">
     <defs>
      <path d="M 0 2.793089 
C 0.740736 2.793089 1.451233 2.498792 1.975012 1.975012 
C 2.498792 1.451233 2.793089 0.740736 2.793089 0 
C 2.793089 -0.740736 2.498792 -1.451233 1.975012 -1.975012 
C 1.451233 -2.498792 0.740736 -2.793089 0 -2.793089 
C -0.740736 -2.793089 -1.451233 -2.498792 -1.975012 -1.975012 
C -2.498792 -1.451233 -2.793089 -0.740736 -2.793089 0 
C -2.793089 0.740736 -2.498792 1.451233 -1.975012 1.975012 
C -1.451233 2.498792 -0.740736 2.793089 0 2.793089 
z
" id="mf7f11a7b64" style="stroke:#ffa500;"/>
     </defs>
     <g>
      <use style="fill:#ffa500;stroke:#ffa500;" x="21.2" xlink:href="#mf7f11a7b64" y="376.210531"/>
     </g>
    </g>
    <g id="text_21">
     <!-- Manufacturing: Food, Beverages, Textiles and Apparels -->
     <g transform="translate(39.2 378.835531)scale(0.1 -0.1)">
      <defs>
       <path d="M 628 4666 
L 1569 4666 
L 2759 1491 
L 3956 4666 
L 4897 4666 
L 4897 0 
L 4281 0 
L 4281 4097 
L 3078 897 
L 2444 897 
L 1241 4097 
L 1241 0 
L 628 0 
L 628 4666 
z
" id="DejaVuSans-4d" transform="scale(0.015625)"/>
       <path d="M 2375 4863 
L 2375 4384 
L 1825 4384 
Q 1516 4384 1395 4259 
Q 1275 4134 1275 3809 
L 1275 3500 
L 2222 3500 
L 2222 3053 
L 1275 3053 
L 1275 0 
L 697 0 
L 697 3053 
L 147 3053 
L 147 3500 
L 697 3500 
L 697 3744 
Q 697 4328 969 4595 
Q 1241 4863 1831 4863 
L 2375 4863 
z
" id="DejaVuSans-66" transform="scale(0.015625)"/>
       <path d="M 750 794 
L 1409 794 
L 1409 0 
L 750 0 
L 750 794 
z
M 750 3309 
L 1409 3309 
L 1409 2516 
L 750 2516 
L 750 3309 
z
" id="DejaVuSans-3a" transform="scale(0.015625)"/>
       <path d="M 1259 2228 
L 1259 519 
L 2272 519 
Q 2781 519 3026 730 
Q 3272 941 3272 1375 
Q 3272 1813 3026 2020 
Q 2781 2228 2272 2228 
L 1259 2228 
z
M 1259 4147 
L 1259 2741 
L 2194 2741 
Q 2656 2741 2882 2914 
Q 3109 3088 3109 3444 
Q 3109 3797 2882 3972 
Q 2656 4147 2194 4147 
L 1259 4147 
z
M 628 4666 
L 2241 4666 
Q 2963 4666 3353 4366 
Q 3744 4066 3744 3513 
Q 3744 3084 3544 2831 
Q 3344 2578 2956 2516 
Q 3422 2416 3680 2098 
Q 3938 1781 3938 1306 
Q 3938 681 3513 340 
Q 3088 0 2303 0 
L 628 0 
L 628 4666 
z
" id="DejaVuSans-42" transform="scale(0.015625)"/>
       <path d="M 191 3500 
L 800 3500 
L 1894 563 
L 2988 3500 
L 3597 3500 
L 2284 0 
L 1503 0 
L 191 3500 
z
" id="DejaVuSans-76" transform="scale(0.015625)"/>
       <path d="M -19 4666 
L 3928 4666 
L 3928 4134 
L 2272 4134 
L 2272 0 
L 1638 0 
L 1638 4134 
L -19 4134 
L -19 4666 
z
" id="DejaVuSans-54" transform="scale(0.015625)"/>
       <path d="M 3513 3500 
L 2247 1797 
L 3578 0 
L 2900 0 
L 1881 1375 
L 863 0 
L 184 0 
L 1544 1831 
L 300 3500 
L 978 3500 
L 1906 2253 
L 2834 3500 
L 3513 3500 
z
" id="DejaVuSans-78" transform="scale(0.015625)"/>
       <path d="M 1159 525 
L 1159 -1331 
L 581 -1331 
L 581 3500 
L 1159 3500 
L 1159 2969 
Q 1341 3281 1617 3432 
Q 1894 3584 2278 3584 
Q 2916 3584 3314 3078 
Q 3713 2572 3713 1747 
Q 3713 922 3314 415 
Q 2916 -91 2278 -91 
Q 1894 -91 1617 61 
Q 1341 213 1159 525 
z
M 3116 1747 
Q 3116 2381 2855 2742 
Q 2594 3103 2138 3103 
Q 1681 3103 1420 2742 
Q 1159 2381 1159 1747 
Q 1159 1113 1420 752 
Q 1681 391 2138 391 
Q 2594 391 2855 752 
Q 3116 1113 3116 1747 
z
" id="DejaVuSans-70" transform="scale(0.015625)"/>
      </defs>
      <use xlink:href="#DejaVuSans-4d"/>
      <use x="86.279297" xlink:href="#DejaVuSans-61"/>
      <use x="147.558594" xlink:href="#DejaVuSans-6e"/>
      <use x="210.9375" xlink:href="#DejaVuSans-75"/>
      <use x="274.316406" xlink:href="#DejaVuSans-66"/>
      <use x="309.521484" xlink:href="#DejaVuSans-61"/>
      <use x="370.800781" xlink:href="#DejaVuSans-63"/>
      <use x="425.78125" xlink:href="#DejaVuSans-74"/>
      <use x="464.990234" xlink:href="#DejaVuSans-75"/>
      <use x="528.369141" xlink:href="#DejaVuSans-72"/>
      <use x="569.482422" xlink:href="#DejaVuSans-69"/>
      <use x="597.265625" xlink:href="#DejaVuSans-6e"/>
      <use x="660.644531" xlink:href="#DejaVuSans-67"/>
      <use x="724.121094" xlink:href="#DejaVuSans-3a"/>
      <use x="757.8125" xlink:href="#DejaVuSans-20"/>
      <use x="789.599609" xlink:href="#DejaVuSans-46"/>
      <use x="843.494141" xlink:href="#DejaVuSans-6f"/>
      <use x="904.675781" xlink:href="#DejaVuSans-6f"/>
      <use x="965.857422" xlink:href="#DejaVuSans-64"/>
      <use x="1029.333984" xlink:href="#DejaVuSans-2c"/>
      <use x="1061.121094" xlink:href="#DejaVuSans-20"/>
      <use x="1092.908203" xlink:href="#DejaVuSans-42"/>
      <use x="1161.511719" xlink:href="#DejaVuSans-65"/>
      <use x="1223.035156" xlink:href="#DejaVuSans-76"/>
      <use x="1282.214844" xlink:href="#DejaVuSans-65"/>
      <use x="1343.738281" xlink:href="#DejaVuSans-72"/>
      <use x="1384.851562" xlink:href="#DejaVuSans-61"/>
      <use x="1446.130859" xlink:href="#DejaVuSans-67"/>
      <use x="1509.607422" xlink:href="#DejaVuSans-65"/>
      <use x="1571.130859" xlink:href="#DejaVuSans-73"/>
      <use x="1623.230469" xlink:href="#DejaVuSans-2c"/>
      <use x="1655.017578" xlink:href="#DejaVuSans-20"/>
      <use x="1686.804688" xlink:href="#DejaVuSans-54"/>
      <use x="1730.888672" xlink:href="#DejaVuSans-65"/>
      <use x="1790.662109" xlink:href="#DejaVuSans-78"/>
      <use x="1849.841797" xlink:href="#DejaVuSans-74"/>
      <use x="1889.050781" xlink:href="#DejaVuSans-69"/>
      <use x="1916.833984" xlink:href="#DejaVuSans-6c"/>
      <use x="1944.617188" xlink:href="#DejaVuSans-65"/>
      <use x="2006.140625" xlink:href="#DejaVuSans-73"/>
      <use x="2058.240234" xlink:href="#DejaVuSans-20"/>
      <use x="2090.027344" xlink:href="#DejaVuSans-61"/>
      <use x="2151.306641" xlink:href="#DejaVuSans-6e"/>
      <use x="2214.685547" xlink:href="#DejaVuSans-64"/>
      <use x="2278.162109" xlink:href="#DejaVuSans-20"/>
      <use x="2309.949219" xlink:href="#DejaVuSans-41"/>
      <use x="2378.357422" xlink:href="#DejaVuSans-70"/>
      <use x="2441.833984" xlink:href="#DejaVuSans-70"/>
      <use x="2505.310547" xlink:href="#DejaVuSans-61"/>
      <use x="2566.589844" xlink:href="#DejaVuSans-72"/>
      <use x="2605.453125" xlink:href="#DejaVuSans-65"/>
      <use x="2666.976562" xlink:href="#DejaVuSans-6c"/>
      <use x="2694.759766" xlink:href="#DejaVuSans-73"/>
     </g>
    </g>
    <g id="PathCollection_7">
     <defs>
      <path d="M 0 -4.957346 
L -4.293188 -2.478673 
L -4.293188 2.478673 
L -0 4.957346 
L 4.293188 2.478673 
L 4.293188 -2.478673 
z
" id="m7fe91480d6" style="stroke:#000080;"/>
     </defs>
     <g>
      <use style="fill:#000080;stroke:#000080;" x="343.8875" xlink:href="#m7fe91480d6" y="361.532406"/>
     </g>
    </g>
    <g id="text_22">
     <!-- Manufacturing: Wood products, Petroleum and Coal, Chemicals and Plastics -->
     <g transform="translate(361.8875 364.157406)scale(0.1 -0.1)">
      <defs>
       <path d="M 213 4666 
L 850 4666 
L 1831 722 
L 2809 4666 
L 3519 4666 
L 4500 722 
L 5478 4666 
L 6119 4666 
L 4947 0 
L 4153 0 
L 3169 4050 
L 2175 0 
L 1381 0 
L 213 4666 
z
" id="DejaVuSans-57" transform="scale(0.015625)"/>
       <path d="M 1259 4147 
L 1259 2394 
L 2053 2394 
Q 2494 2394 2734 2622 
Q 2975 2850 2975 3272 
Q 2975 3691 2734 3919 
Q 2494 4147 2053 4147 
L 1259 4147 
z
M 628 4666 
L 2053 4666 
Q 2838 4666 3239 4311 
Q 3641 3956 3641 3272 
Q 3641 2581 3239 2228 
Q 2838 1875 2053 1875 
L 1259 1875 
L 1259 0 
L 628 0 
L 628 4666 
z
" id="DejaVuSans-50" transform="scale(0.015625)"/>
       <path d="M 3328 2828 
Q 3544 3216 3844 3400 
Q 4144 3584 4550 3584 
Q 5097 3584 5394 3201 
Q 5691 2819 5691 2113 
L 5691 0 
L 5113 0 
L 5113 2094 
Q 5113 2597 4934 2840 
Q 4756 3084 4391 3084 
Q 3944 3084 3684 2787 
Q 3425 2491 3425 1978 
L 3425 0 
L 2847 0 
L 2847 2094 
Q 2847 2600 2669 2842 
Q 2491 3084 2119 3084 
Q 1678 3084 1418 2786 
Q 1159 2488 1159 1978 
L 1159 0 
L 581 0 
L 581 3500 
L 1159 3500 
L 1159 2956 
Q 1356 3278 1631 3431 
Q 1906 3584 2284 3584 
Q 2666 3584 2933 3390 
Q 3200 3197 3328 2828 
z
" id="DejaVuSans-6d" transform="scale(0.015625)"/>
       <path d="M 4122 4306 
L 4122 3641 
Q 3803 3938 3442 4084 
Q 3081 4231 2675 4231 
Q 1875 4231 1450 3742 
Q 1025 3253 1025 2328 
Q 1025 1406 1450 917 
Q 1875 428 2675 428 
Q 3081 428 3442 575 
Q 3803 722 4122 1019 
L 4122 359 
Q 3791 134 3420 21 
Q 3050 -91 2638 -91 
Q 1578 -91 968 557 
Q 359 1206 359 2328 
Q 359 3453 968 4101 
Q 1578 4750 2638 4750 
Q 3056 4750 3426 4639 
Q 3797 4528 4122 4306 
z
" id="DejaVuSans-43" transform="scale(0.015625)"/>
      </defs>
      <use xlink:href="#DejaVuSans-4d"/>
      <use x="86.279297" xlink:href="#DejaVuSans-61"/>
      <use x="147.558594" xlink:href="#DejaVuSans-6e"/>
      <use x="210.9375" xlink:href="#DejaVuSans-75"/>
      <use x="274.316406" xlink:href="#DejaVuSans-66"/>
      <use x="309.521484" xlink:href="#DejaVuSans-61"/>
      <use x="370.800781" xlink:href="#DejaVuSans-63"/>
      <use x="425.78125" xlink:href="#DejaVuSans-74"/>
      <use x="464.990234" xlink:href="#DejaVuSans-75"/>
      <use x="528.369141" xlink:href="#DejaVuSans-72"/>
      <use x="569.482422" xlink:href="#DejaVuSans-69"/>
      <use x="597.265625" xlink:href="#DejaVuSans-6e"/>
      <use x="660.644531" xlink:href="#DejaVuSans-67"/>
      <use x="724.121094" xlink:href="#DejaVuSans-3a"/>
      <use x="757.8125" xlink:href="#DejaVuSans-20"/>
      <use x="789.599609" xlink:href="#DejaVuSans-57"/>
      <use x="882.601562" xlink:href="#DejaVuSans-6f"/>
      <use x="943.783203" xlink:href="#DejaVuSans-6f"/>
      <use x="1004.964844" xlink:href="#DejaVuSans-64"/>
      <use x="1068.441406" xlink:href="#DejaVuSans-20"/>
      <use x="1100.228516" xlink:href="#DejaVuSans-70"/>
      <use x="1163.705078" xlink:href="#DejaVuSans-72"/>
      <use x="1202.568359" xlink:href="#DejaVuSans-6f"/>
      <use x="1263.75" xlink:href="#DejaVuSans-64"/>
      <use x="1327.226562" xlink:href="#DejaVuSans-75"/>
      <use x="1390.605469" xlink:href="#DejaVuSans-63"/>
      <use x="1445.585938" xlink:href="#DejaVuSans-74"/>
      <use x="1484.794922" xlink:href="#DejaVuSans-73"/>
      <use x="1536.894531" xlink:href="#DejaVuSans-2c"/>
      <use x="1568.681641" xlink:href="#DejaVuSans-20"/>
      <use x="1600.46875" xlink:href="#DejaVuSans-50"/>
      <use x="1657.146484" xlink:href="#DejaVuSans-65"/>
      <use x="1718.669922" xlink:href="#DejaVuSans-74"/>
      <use x="1757.878906" xlink:href="#DejaVuSans-72"/>
      <use x="1796.742188" xlink:href="#DejaVuSans-6f"/>
      <use x="1857.923828" xlink:href="#DejaVuSans-6c"/>
      <use x="1885.707031" xlink:href="#DejaVuSans-65"/>
      <use x="1947.230469" xlink:href="#DejaVuSans-75"/>
      <use x="2010.609375" xlink:href="#DejaVuSans-6d"/>
      <use x="2108.021484" xlink:href="#DejaVuSans-20"/>
      <use x="2139.808594" xlink:href="#DejaVuSans-61"/>
      <use x="2201.087891" xlink:href="#DejaVuSans-6e"/>
      <use x="2264.466797" xlink:href="#DejaVuSans-64"/>
      <use x="2327.943359" xlink:href="#DejaVuSans-20"/>
      <use x="2359.730469" xlink:href="#DejaVuSans-43"/>
      <use x="2429.554688" xlink:href="#DejaVuSans-6f"/>
      <use x="2490.736328" xlink:href="#DejaVuSans-61"/>
      <use x="2552.015625" xlink:href="#DejaVuSans-6c"/>
      <use x="2579.798828" xlink:href="#DejaVuSans-2c"/>
      <use x="2611.585938" xlink:href="#DejaVuSans-20"/>
      <use x="2643.373047" xlink:href="#DejaVuSans-43"/>
      <use x="2713.197266" xlink:href="#DejaVuSans-68"/>
      <use x="2776.576172" xlink:href="#DejaVuSans-65"/>
      <use x="2838.099609" xlink:href="#DejaVuSans-6d"/>
      <use x="2935.511719" xlink:href="#DejaVuSans-69"/>
      <use x="2963.294922" xlink:href="#DejaVuSans-63"/>
      <use x="3018.275391" xlink:href="#DejaVuSans-61"/>
      <use x="3079.554688" xlink:href="#DejaVuSans-6c"/>
      <use x="3107.337891" xlink:href="#DejaVuSans-73"/>
      <use x="3159.4375" xlink:href="#DejaVuSans-20"/>
      <use x="3191.224609" xlink:href="#DejaVuSans-61"/>
      <use x="3252.503906" xlink:href="#DejaVuSans-6e"/>
      <use x="3315.882812" xlink:href="#DejaVuSans-64"/>
      <use x="3379.359375" xlink:href="#DejaVuSans-20"/>
      <use x="3411.146484" xlink:href="#DejaVuSans-50"/>
      <use x="3471.449219" xlink:href="#DejaVuSans-6c"/>
      <use x="3499.232422" xlink:href="#DejaVuSans-61"/>
      <use x="3560.511719" xlink:href="#DejaVuSans-73"/>
      <use x="3612.611328" xlink:href="#DejaVuSans-74"/>
      <use x="3651.820312" xlink:href="#DejaVuSans-69"/>
      <use x="3679.603516" xlink:href="#DejaVuSans-63"/>
      <use x="3734.583984" xlink:href="#DejaVuSans-73"/>
     </g>
    </g>
    <g id="PathCollection_8">
     <defs>
      <path d="M 0 -3.43144 
L -0.770406 -1.060373 
L -3.263494 -1.060373 
L -1.246544 0.405027 
L -2.01695 2.776094 
L -0 1.310694 
L 2.01695 2.776094 
L 1.246544 0.405027 
L 3.263494 -1.060373 
L 0.770406 -1.060373 
z
" id="m94f4855d49" style="stroke:#dc143c;"/>
     </defs>
     <g>
      <use style="fill:#dc143c;stroke:#dc143c;" x="343.8875" xlink:href="#m94f4855d49" y="376.210531"/>
     </g>
    </g>
    <g id="text_23">
     <!-- Manufacturing: Metal, Machinery, Electronics, Transportation and Furniture -->
     <g transform="translate(361.8875 378.835531)scale(0.1 -0.1)">
      <defs>
       <path d="M 628 4666 
L 3578 4666 
L 3578 4134 
L 1259 4134 
L 1259 2753 
L 3481 2753 
L 3481 2222 
L 1259 2222 
L 1259 531 
L 3634 531 
L 3634 0 
L 628 0 
L 628 4666 
z
" id="DejaVuSans-45" transform="scale(0.015625)"/>
      </defs>
      <use xlink:href="#DejaVuSans-4d"/>
      <use x="86.279297" xlink:href="#DejaVuSans-61"/>
      <use x="147.558594" xlink:href="#DejaVuSans-6e"/>
      <use x="210.9375" xlink:href="#DejaVuSans-75"/>
      <use x="274.316406" xlink:href="#DejaVuSans-66"/>
      <use x="309.521484" xlink:href="#DejaVuSans-61"/>
      <use x="370.800781" xlink:href="#DejaVuSans-63"/>
      <use x="425.78125" xlink:href="#DejaVuSans-74"/>
      <use x="464.990234" xlink:href="#DejaVuSans-75"/>
      <use x="528.369141" xlink:href="#DejaVuSans-72"/>
      <use x="569.482422" xlink:href="#DejaVuSans-69"/>
      <use x="597.265625" xlink:href="#DejaVuSans-6e"/>
      <use x="660.644531" xlink:href="#DejaVuSans-67"/>
      <use x="724.121094" xlink:href="#DejaVuSans-3a"/>
      <use x="757.8125" xlink:href="#DejaVuSans-20"/>
      <use x="789.599609" xlink:href="#DejaVuSans-4d"/>
      <use x="875.878906" xlink:href="#DejaVuSans-65"/>
      <use x="937.402344" xlink:href="#DejaVuSans-74"/>
      <use x="976.611328" xlink:href="#DejaVuSans-61"/>
      <use x="1037.890625" xlink:href="#DejaVuSans-6c"/>
      <use x="1065.673828" xlink:href="#DejaVuSans-2c"/>
      <use x="1097.460938" xlink:href="#DejaVuSans-20"/>
      <use x="1129.248047" xlink:href="#DejaVuSans-4d"/>
      <use x="1215.527344" xlink:href="#DejaVuSans-61"/>
      <use x="1276.806641" xlink:href="#DejaVuSans-63"/>
      <use x="1331.787109" xlink:href="#DejaVuSans-68"/>
      <use x="1395.166016" xlink:href="#DejaVuSans-69"/>
      <use x="1422.949219" xlink:href="#DejaVuSans-6e"/>
      <use x="1486.328125" xlink:href="#DejaVuSans-65"/>
      <use x="1547.851562" xlink:href="#DejaVuSans-72"/>
      <use x="1588.964844" xlink:href="#DejaVuSans-79"/>
      <use x="1648.144531" xlink:href="#DejaVuSans-2c"/>
      <use x="1679.931641" xlink:href="#DejaVuSans-20"/>
      <use x="1711.71875" xlink:href="#DejaVuSans-45"/>
      <use x="1774.902344" xlink:href="#DejaVuSans-6c"/>
      <use x="1802.685547" xlink:href="#DejaVuSans-65"/>
      <use x="1864.208984" xlink:href="#DejaVuSans-63"/>
      <use x="1919.189453" xlink:href="#DejaVuSans-74"/>
      <use x="1958.398438" xlink:href="#DejaVuSans-72"/>
      <use x="1997.261719" xlink:href="#DejaVuSans-6f"/>
      <use x="2058.443359" xlink:href="#DejaVuSans-6e"/>
      <use x="2121.822266" xlink:href="#DejaVuSans-69"/>
      <use x="2149.605469" xlink:href="#DejaVuSans-63"/>
      <use x="2204.585938" xlink:href="#DejaVuSans-73"/>
      <use x="2256.685547" xlink:href="#DejaVuSans-2c"/>
      <use x="2288.472656" xlink:href="#DejaVuSans-20"/>
      <use x="2320.259766" xlink:href="#DejaVuSans-54"/>
      <use x="2366.59375" xlink:href="#DejaVuSans-72"/>
      <use x="2407.707031" xlink:href="#DejaVuSans-61"/>
      <use x="2468.986328" xlink:href="#DejaVuSans-6e"/>
      <use x="2532.365234" xlink:href="#DejaVuSans-73"/>
      <use x="2584.464844" xlink:href="#DejaVuSans-70"/>
      <use x="2647.941406" xlink:href="#DejaVuSans-6f"/>
      <use x="2709.123047" xlink:href="#DejaVuSans-72"/>
      <use x="2750.236328" xlink:href="#DejaVuSans-74"/>
      <use x="2789.445312" xlink:href="#DejaVuSans-61"/>
      <use x="2850.724609" xlink:href="#DejaVuSans-74"/>
      <use x="2889.933594" xlink:href="#DejaVuSans-69"/>
      <use x="2917.716797" xlink:href="#DejaVuSans-6f"/>
      <use x="2978.898438" xlink:href="#DejaVuSans-6e"/>
      <use x="3042.277344" xlink:href="#DejaVuSans-20"/>
      <use x="3074.064453" xlink:href="#DejaVuSans-61"/>
      <use x="3135.34375" xlink:href="#DejaVuSans-6e"/>
      <use x="3198.722656" xlink:href="#DejaVuSans-64"/>
      <use x="3262.199219" xlink:href="#DejaVuSans-20"/>
      <use x="3293.986328" xlink:href="#DejaVuSans-46"/>
      <use x="3346.005859" xlink:href="#DejaVuSans-75"/>
      <use x="3409.384766" xlink:href="#DejaVuSans-72"/>
      <use x="3448.748047" xlink:href="#DejaVuSans-6e"/>
      <use x="3512.126953" xlink:href="#DejaVuSans-69"/>
      <use x="3539.910156" xlink:href="#DejaVuSans-74"/>
      <use x="3579.119141" xlink:href="#DejaVuSans-75"/>
      <use x="3642.498047" xlink:href="#DejaVuSans-72"/>
      <use x="3681.361328" xlink:href="#DejaVuSans-65"/>
     </g>
    </g>
   </g>
  </g>
 </g>
 <defs>
  <clipPath id="p97490156a4">
   <rect height="271.8" width="669.6" x="41.075" y="43.142969"/>
  </clipPath>
 </defs>
</svg>
