<?xml version="1.0" encoding="utf-8" standalone="no"?>
<!DOCTYPE svg PUBLIC "-//W3C//DTD SVG 1.1//EN"
  "http://www.w3.org/Graphics/SVG/1.1/DTD/svg11.dtd">
<svg height="376.323812pt" version="1.1" viewBox="0 0 751.75 376.323812" width="751.75pt" xmlns="http://www.w3.org/2000/svg" xmlns:xlink="http://www.w3.org/1999/xlink">
 <metadata>
  <rdf:RDF xmlns:cc="http://creativecommons.org/ns#" xmlns:dc="http://purl.org/dc/elements/1.1/" xmlns:rdf="http://www.w3.org/1999/02/22-rdf-syntax-ns#">
   <cc:Work>
    <dc:type rdf:resource="http://purl.org/dc/dcmitype/StillImage"/>
    <dc:date>2021-12-17T22:49:10.756117</dc:date>
    <dc:format>image/svg+xml</dc:format>
    <dc:creator>
     <cc:Agent>
      <dc:title>Matplotlib v3.4.3, https://matplotlib.org/</dc:title>
     </cc:Agent>
    </dc:creator>
   </cc:Work>
  </rdf:RDF>
 </metadata>
 <defs>
  <style type="text/css">*{stroke-linecap:butt;stroke-linejoin:round;}</style>
 </defs>
 <g id="figure_1">
  <g id="patch_1">
   <path d="M 0 376.323812 
L 751.75 376.323812 
L 751.75 0 
L 0 0 
z
" style="fill:none;"/>
  </g>
  <g id="axes_1">
   <g id="patch_2">
    <path d="M 41.075 299.151562 
L 710.675 299.151562 
L 710.675 27.351562 
L 41.075 27.351562 
z
" style="fill:#ffffff;"/>
   </g>
   <g id="line2d_1">
    <path clip-path="url(#p5c8db81f2b)" d="M 41.075 286.797017 
L 710.675 286.797017 
" style="fill:none;stroke:#d3d3d3;stroke-dasharray:1.5,2.475;stroke-dashoffset:0;stroke-width:1.5;"/>
   </g>
   <g id="line2d_2">
    <path clip-path="url(#p5c8db81f2b)" d="M 41.075 255.910653 
L 710.675 255.910653 
" style="fill:none;stroke:#d3d3d3;stroke-dasharray:1.5,2.475;stroke-dashoffset:0;stroke-width:1.5;"/>
   </g>
   <g id="line2d_3">
    <path clip-path="url(#p5c8db81f2b)" d="M 41.075 225.02429 
L 710.675 225.02429 
" style="fill:none;stroke:#d3d3d3;stroke-dasharray:1.5,2.475;stroke-dashoffset:0;stroke-width:1.5;"/>
   </g>
   <g id="line2d_4">
    <path clip-path="url(#p5c8db81f2b)" d="M 41.075 194.137926 
L 710.675 194.137926 
" style="fill:none;stroke:#d3d3d3;stroke-dasharray:1.5,2.475;stroke-dashoffset:0;stroke-width:1.5;"/>
   </g>
   <g id="line2d_5">
    <path clip-path="url(#p5c8db81f2b)" d="M 41.075 163.251562 
L 710.675 163.251562 
" style="fill:none;stroke:#d3d3d3;stroke-dasharray:1.5,2.475;stroke-dashoffset:0;stroke-width:1.5;"/>
   </g>
   <g id="line2d_6">
    <path clip-path="url(#p5c8db81f2b)" d="M 41.075 132.365199 
L 710.675 132.365199 
" style="fill:none;stroke:#d3d3d3;stroke-dasharray:1.5,2.475;stroke-dashoffset:0;stroke-width:1.5;"/>
   </g>
   <g id="line2d_7">
    <path clip-path="url(#p5c8db81f2b)" d="M 41.075 101.478835 
L 710.675 101.478835 
" style="fill:none;stroke:#d3d3d3;stroke-dasharray:1.5,2.475;stroke-dashoffset:0;stroke-width:1.5;"/>
   </g>
   <g id="line2d_8">
    <path clip-path="url(#p5c8db81f2b)" d="M 41.075 70.592472 
L 710.675 70.592472 
" style="fill:none;stroke:#d3d3d3;stroke-dasharray:1.5,2.475;stroke-dashoffset:0;stroke-width:1.5;"/>
   </g>
   <g id="line2d_9">
    <path clip-path="url(#p5c8db81f2b)" d="M 41.075 39.706108 
L 710.675 39.706108 
" style="fill:none;stroke:#d3d3d3;stroke-dasharray:1.5,2.475;stroke-dashoffset:0;stroke-width:1.5;"/>
   </g>
   <g id="matplotlib.axis_1">
    <g id="xtick_1">
     <g id="line2d_10">
      <defs>
       <path d="M 0 0 
L 0 3.5 
" id="mf0a18ede75" style="stroke:#000000;stroke-width:0.8;"/>
      </defs>
      <g>
       <use style="stroke:#000000;stroke-width:0.8;" x="69.955428" xlink:href="#mf0a18ede75" y="299.151562"/>
      </g>
     </g>
     <g id="text_1">
      <!-- 0 -->
      <g transform="translate(66.774178 313.75)scale(0.1 -0.1)">
       <defs>
        <path d="M 2034 4250 
Q 1547 4250 1301 3770 
Q 1056 3291 1056 2328 
Q 1056 1369 1301 889 
Q 1547 409 2034 409 
Q 2525 409 2770 889 
Q 3016 1369 3016 2328 
Q 3016 3291 2770 3770 
Q 2525 4250 2034 4250 
z
M 2034 4750 
Q 2819 4750 3233 4129 
Q 3647 3509 3647 2328 
Q 3647 1150 3233 529 
Q 2819 -91 2034 -91 
Q 1250 -91 836 529 
Q 422 1150 422 2328 
Q 422 3509 836 4129 
Q 1250 4750 2034 4750 
z
" id="DejaVuSans-30" transform="scale(0.015625)"/>
       </defs>
       <use xlink:href="#DejaVuSans-30"/>
      </g>
     </g>
    </g>
    <g id="xtick_2">
     <g id="line2d_11">
      <g>
       <use style="stroke:#000000;stroke-width:0.8;" x="156.31474" xlink:href="#mf0a18ede75" y="299.151562"/>
      </g>
     </g>
     <g id="text_2">
      <!-- 1 -->
      <g transform="translate(153.13349 313.75)scale(0.1 -0.1)">
       <defs>
        <path d="M 794 531 
L 1825 531 
L 1825 4091 
L 703 3866 
L 703 4441 
L 1819 4666 
L 2450 4666 
L 2450 531 
L 3481 531 
L 3481 0 
L 794 0 
L 794 531 
z
" id="DejaVuSans-31" transform="scale(0.015625)"/>
       </defs>
       <use xlink:href="#DejaVuSans-31"/>
      </g>
     </g>
    </g>
    <g id="xtick_3">
     <g id="line2d_12">
      <g>
       <use style="stroke:#000000;stroke-width:0.8;" x="242.674052" xlink:href="#mf0a18ede75" y="299.151562"/>
      </g>
     </g>
     <g id="text_3">
      <!-- 2 -->
      <g transform="translate(239.492802 313.75)scale(0.1 -0.1)">
       <defs>
        <path d="M 1228 531 
L 3431 531 
L 3431 0 
L 469 0 
L 469 531 
Q 828 903 1448 1529 
Q 2069 2156 2228 2338 
Q 2531 2678 2651 2914 
Q 2772 3150 2772 3378 
Q 2772 3750 2511 3984 
Q 2250 4219 1831 4219 
Q 1534 4219 1204 4116 
Q 875 4013 500 3803 
L 500 4441 
Q 881 4594 1212 4672 
Q 1544 4750 1819 4750 
Q 2544 4750 2975 4387 
Q 3406 4025 3406 3419 
Q 3406 3131 3298 2873 
Q 3191 2616 2906 2266 
Q 2828 2175 2409 1742 
Q 1991 1309 1228 531 
z
" id="DejaVuSans-32" transform="scale(0.015625)"/>
       </defs>
       <use xlink:href="#DejaVuSans-32"/>
      </g>
     </g>
    </g>
    <g id="xtick_4">
     <g id="line2d_13">
      <g>
       <use style="stroke:#000000;stroke-width:0.8;" x="329.033364" xlink:href="#mf0a18ede75" y="299.151562"/>
      </g>
     </g>
     <g id="text_4">
      <!-- 3 -->
      <g transform="translate(325.852114 313.75)scale(0.1 -0.1)">
       <defs>
        <path d="M 2597 2516 
Q 3050 2419 3304 2112 
Q 3559 1806 3559 1356 
Q 3559 666 3084 287 
Q 2609 -91 1734 -91 
Q 1441 -91 1130 -33 
Q 819 25 488 141 
L 488 750 
Q 750 597 1062 519 
Q 1375 441 1716 441 
Q 2309 441 2620 675 
Q 2931 909 2931 1356 
Q 2931 1769 2642 2001 
Q 2353 2234 1838 2234 
L 1294 2234 
L 1294 2753 
L 1863 2753 
Q 2328 2753 2575 2939 
Q 2822 3125 2822 3475 
Q 2822 3834 2567 4026 
Q 2313 4219 1838 4219 
Q 1578 4219 1281 4162 
Q 984 4106 628 3988 
L 628 4550 
Q 988 4650 1302 4700 
Q 1616 4750 1894 4750 
Q 2613 4750 3031 4423 
Q 3450 4097 3450 3541 
Q 3450 3153 3228 2886 
Q 3006 2619 2597 2516 
z
" id="DejaVuSans-33" transform="scale(0.015625)"/>
       </defs>
       <use xlink:href="#DejaVuSans-33"/>
      </g>
     </g>
    </g>
    <g id="xtick_5">
     <g id="line2d_14">
      <g>
       <use style="stroke:#000000;stroke-width:0.8;" x="415.392676" xlink:href="#mf0a18ede75" y="299.151562"/>
      </g>
     </g>
     <g id="text_5">
      <!-- 4 -->
      <g transform="translate(412.211426 313.75)scale(0.1 -0.1)">
       <defs>
        <path d="M 2419 4116 
L 825 1625 
L 2419 1625 
L 2419 4116 
z
M 2253 4666 
L 3047 4666 
L 3047 1625 
L 3713 1625 
L 3713 1100 
L 3047 1100 
L 3047 0 
L 2419 0 
L 2419 1100 
L 313 1100 
L 313 1709 
L 2253 4666 
z
" id="DejaVuSans-34" transform="scale(0.015625)"/>
       </defs>
       <use xlink:href="#DejaVuSans-34"/>
      </g>
     </g>
    </g>
    <g id="xtick_6">
     <g id="line2d_15">
      <g>
       <use style="stroke:#000000;stroke-width:0.8;" x="501.751988" xlink:href="#mf0a18ede75" y="299.151562"/>
      </g>
     </g>
     <g id="text_6">
      <!-- 5 -->
      <g transform="translate(498.570738 313.75)scale(0.1 -0.1)">
       <defs>
        <path d="M 691 4666 
L 3169 4666 
L 3169 4134 
L 1269 4134 
L 1269 2991 
Q 1406 3038 1543 3061 
Q 1681 3084 1819 3084 
Q 2600 3084 3056 2656 
Q 3513 2228 3513 1497 
Q 3513 744 3044 326 
Q 2575 -91 1722 -91 
Q 1428 -91 1123 -41 
Q 819 9 494 109 
L 494 744 
Q 775 591 1075 516 
Q 1375 441 1709 441 
Q 2250 441 2565 725 
Q 2881 1009 2881 1497 
Q 2881 1984 2565 2268 
Q 2250 2553 1709 2553 
Q 1456 2553 1204 2497 
Q 953 2441 691 2322 
L 691 4666 
z
" id="DejaVuSans-35" transform="scale(0.015625)"/>
       </defs>
       <use xlink:href="#DejaVuSans-35"/>
      </g>
     </g>
    </g>
    <g id="xtick_7">
     <g id="line2d_16">
      <g>
       <use style="stroke:#000000;stroke-width:0.8;" x="588.1113" xlink:href="#mf0a18ede75" y="299.151562"/>
      </g>
     </g>
     <g id="text_7">
      <!-- 6 -->
      <g transform="translate(584.93005 313.75)scale(0.1 -0.1)">
       <defs>
        <path d="M 2113 2584 
Q 1688 2584 1439 2293 
Q 1191 2003 1191 1497 
Q 1191 994 1439 701 
Q 1688 409 2113 409 
Q 2538 409 2786 701 
Q 3034 994 3034 1497 
Q 3034 2003 2786 2293 
Q 2538 2584 2113 2584 
z
M 3366 4563 
L 3366 3988 
Q 3128 4100 2886 4159 
Q 2644 4219 2406 4219 
Q 1781 4219 1451 3797 
Q 1122 3375 1075 2522 
Q 1259 2794 1537 2939 
Q 1816 3084 2150 3084 
Q 2853 3084 3261 2657 
Q 3669 2231 3669 1497 
Q 3669 778 3244 343 
Q 2819 -91 2113 -91 
Q 1303 -91 875 529 
Q 447 1150 447 2328 
Q 447 3434 972 4092 
Q 1497 4750 2381 4750 
Q 2619 4750 2861 4703 
Q 3103 4656 3366 4563 
z
" id="DejaVuSans-36" transform="scale(0.015625)"/>
       </defs>
       <use xlink:href="#DejaVuSans-36"/>
      </g>
     </g>
    </g>
    <g id="xtick_8">
     <g id="line2d_17">
      <g>
       <use style="stroke:#000000;stroke-width:0.8;" x="674.470612" xlink:href="#mf0a18ede75" y="299.151562"/>
      </g>
     </g>
     <g id="text_8">
      <!-- 7 -->
      <g transform="translate(671.289362 313.75)scale(0.1 -0.1)">
       <defs>
        <path d="M 525 4666 
L 3525 4666 
L 3525 4397 
L 1831 0 
L 1172 0 
L 2766 4134 
L 525 4134 
L 525 4666 
z
" id="DejaVuSans-37" transform="scale(0.015625)"/>
       </defs>
       <use xlink:href="#DejaVuSans-37"/>
      </g>
     </g>
    </g>
    <g id="text_9">
     <!-- US industrial employment, 2017 (million) -->
     <g transform="translate(259.620313 327.428125)scale(0.1 -0.1)">
      <defs>
       <path d="M 588 4666 
L 1791 4666 
L 1791 1869 
Q 1791 1291 1980 1042 
Q 2169 794 2597 794 
Q 3028 794 3217 1042 
Q 3406 1291 3406 1869 
L 3406 4666 
L 4609 4666 
L 4609 1869 
Q 4609 878 4112 393 
Q 3616 -91 2597 -91 
Q 1581 -91 1084 393 
Q 588 878 588 1869 
L 588 4666 
z
" id="DejaVuSans-Bold-55" transform="scale(0.015625)"/>
       <path d="M 3834 4519 
L 3834 3531 
Q 3450 3703 3084 3790 
Q 2719 3878 2394 3878 
Q 1963 3878 1756 3759 
Q 1550 3641 1550 3391 
Q 1550 3203 1689 3098 
Q 1828 2994 2194 2919 
L 2706 2816 
Q 3484 2659 3812 2340 
Q 4141 2022 4141 1434 
Q 4141 663 3683 286 
Q 3225 -91 2284 -91 
Q 1841 -91 1394 -6 
Q 947 78 500 244 
L 500 1259 
Q 947 1022 1364 901 
Q 1781 781 2169 781 
Q 2563 781 2772 912 
Q 2981 1044 2981 1288 
Q 2981 1506 2839 1625 
Q 2697 1744 2272 1838 
L 1806 1941 
Q 1106 2091 782 2419 
Q 459 2747 459 3303 
Q 459 4000 909 4375 
Q 1359 4750 2203 4750 
Q 2588 4750 2994 4692 
Q 3400 4634 3834 4519 
z
" id="DejaVuSans-Bold-53" transform="scale(0.015625)"/>
       <path id="DejaVuSans-Bold-20" transform="scale(0.015625)"/>
       <path d="M 538 3500 
L 1656 3500 
L 1656 0 
L 538 0 
L 538 3500 
z
M 538 4863 
L 1656 4863 
L 1656 3950 
L 538 3950 
L 538 4863 
z
" id="DejaVuSans-Bold-69" transform="scale(0.015625)"/>
       <path d="M 4056 2131 
L 4056 0 
L 2931 0 
L 2931 347 
L 2931 1631 
Q 2931 2084 2911 2256 
Q 2891 2428 2841 2509 
Q 2775 2619 2662 2680 
Q 2550 2741 2406 2741 
Q 2056 2741 1856 2470 
Q 1656 2200 1656 1722 
L 1656 0 
L 538 0 
L 538 3500 
L 1656 3500 
L 1656 2988 
Q 1909 3294 2193 3439 
Q 2478 3584 2822 3584 
Q 3428 3584 3742 3212 
Q 4056 2841 4056 2131 
z
" id="DejaVuSans-Bold-6e" transform="scale(0.015625)"/>
       <path d="M 2919 2988 
L 2919 4863 
L 4044 4863 
L 4044 0 
L 2919 0 
L 2919 506 
Q 2688 197 2409 53 
Q 2131 -91 1766 -91 
Q 1119 -91 703 423 
Q 288 938 288 1747 
Q 288 2556 703 3070 
Q 1119 3584 1766 3584 
Q 2128 3584 2408 3439 
Q 2688 3294 2919 2988 
z
M 2181 722 
Q 2541 722 2730 984 
Q 2919 1247 2919 1747 
Q 2919 2247 2730 2509 
Q 2541 2772 2181 2772 
Q 1825 2772 1636 2509 
Q 1447 2247 1447 1747 
Q 1447 1247 1636 984 
Q 1825 722 2181 722 
z
" id="DejaVuSans-Bold-64" transform="scale(0.015625)"/>
       <path d="M 500 1363 
L 500 3500 
L 1625 3500 
L 1625 3150 
Q 1625 2866 1622 2436 
Q 1619 2006 1619 1863 
Q 1619 1441 1641 1255 
Q 1663 1069 1716 984 
Q 1784 875 1895 815 
Q 2006 756 2150 756 
Q 2500 756 2700 1025 
Q 2900 1294 2900 1772 
L 2900 3500 
L 4019 3500 
L 4019 0 
L 2900 0 
L 2900 506 
Q 2647 200 2364 54 
Q 2081 -91 1741 -91 
Q 1134 -91 817 281 
Q 500 653 500 1363 
z
" id="DejaVuSans-Bold-75" transform="scale(0.015625)"/>
       <path d="M 3272 3391 
L 3272 2541 
Q 2913 2691 2578 2766 
Q 2244 2841 1947 2841 
Q 1628 2841 1473 2761 
Q 1319 2681 1319 2516 
Q 1319 2381 1436 2309 
Q 1553 2238 1856 2203 
L 2053 2175 
Q 2913 2066 3209 1816 
Q 3506 1566 3506 1031 
Q 3506 472 3093 190 
Q 2681 -91 1863 -91 
Q 1516 -91 1145 -36 
Q 775 19 384 128 
L 384 978 
Q 719 816 1070 734 
Q 1422 653 1784 653 
Q 2113 653 2278 743 
Q 2444 834 2444 1013 
Q 2444 1163 2330 1236 
Q 2216 1309 1875 1350 
L 1678 1375 
Q 931 1469 631 1722 
Q 331 1975 331 2491 
Q 331 3047 712 3315 
Q 1094 3584 1881 3584 
Q 2191 3584 2531 3537 
Q 2872 3491 3272 3391 
z
" id="DejaVuSans-Bold-73" transform="scale(0.015625)"/>
       <path d="M 1759 4494 
L 1759 3500 
L 2913 3500 
L 2913 2700 
L 1759 2700 
L 1759 1216 
Q 1759 972 1856 886 
Q 1953 800 2241 800 
L 2816 800 
L 2816 0 
L 1856 0 
Q 1194 0 917 276 
Q 641 553 641 1216 
L 641 2700 
L 84 2700 
L 84 3500 
L 641 3500 
L 641 4494 
L 1759 4494 
z
" id="DejaVuSans-Bold-74" transform="scale(0.015625)"/>
       <path d="M 3138 2547 
Q 2991 2616 2845 2648 
Q 2700 2681 2553 2681 
Q 2122 2681 1889 2404 
Q 1656 2128 1656 1613 
L 1656 0 
L 538 0 
L 538 3500 
L 1656 3500 
L 1656 2925 
Q 1872 3269 2151 3426 
Q 2431 3584 2822 3584 
Q 2878 3584 2943 3579 
Q 3009 3575 3134 3559 
L 3138 2547 
z
" id="DejaVuSans-Bold-72" transform="scale(0.015625)"/>
       <path d="M 2106 1575 
Q 1756 1575 1579 1456 
Q 1403 1338 1403 1106 
Q 1403 894 1545 773 
Q 1688 653 1941 653 
Q 2256 653 2472 879 
Q 2688 1106 2688 1447 
L 2688 1575 
L 2106 1575 
z
M 3816 1997 
L 3816 0 
L 2688 0 
L 2688 519 
Q 2463 200 2181 54 
Q 1900 -91 1497 -91 
Q 953 -91 614 226 
Q 275 544 275 1050 
Q 275 1666 698 1953 
Q 1122 2241 2028 2241 
L 2688 2241 
L 2688 2328 
Q 2688 2594 2478 2717 
Q 2269 2841 1825 2841 
Q 1466 2841 1156 2769 
Q 847 2697 581 2553 
L 581 3406 
Q 941 3494 1303 3539 
Q 1666 3584 2028 3584 
Q 2975 3584 3395 3211 
Q 3816 2838 3816 1997 
z
" id="DejaVuSans-Bold-61" transform="scale(0.015625)"/>
       <path d="M 538 4863 
L 1656 4863 
L 1656 0 
L 538 0 
L 538 4863 
z
" id="DejaVuSans-Bold-6c" transform="scale(0.015625)"/>
       <path d="M 4031 1759 
L 4031 1441 
L 1416 1441 
Q 1456 1047 1700 850 
Q 1944 653 2381 653 
Q 2734 653 3104 758 
Q 3475 863 3866 1075 
L 3866 213 
Q 3469 63 3072 -14 
Q 2675 -91 2278 -91 
Q 1328 -91 801 392 
Q 275 875 275 1747 
Q 275 2603 792 3093 
Q 1309 3584 2216 3584 
Q 3041 3584 3536 3087 
Q 4031 2591 4031 1759 
z
M 2881 2131 
Q 2881 2450 2695 2645 
Q 2509 2841 2209 2841 
Q 1884 2841 1681 2658 
Q 1478 2475 1428 2131 
L 2881 2131 
z
" id="DejaVuSans-Bold-65" transform="scale(0.015625)"/>
       <path d="M 3781 2919 
Q 3994 3244 4286 3414 
Q 4578 3584 4928 3584 
Q 5531 3584 5847 3212 
Q 6163 2841 6163 2131 
L 6163 0 
L 5038 0 
L 5038 1825 
Q 5041 1866 5042 1909 
Q 5044 1953 5044 2034 
Q 5044 2406 4934 2573 
Q 4825 2741 4581 2741 
Q 4263 2741 4089 2478 
Q 3916 2216 3909 1719 
L 3909 0 
L 2784 0 
L 2784 1825 
Q 2784 2406 2684 2573 
Q 2584 2741 2328 2741 
Q 2006 2741 1831 2477 
Q 1656 2213 1656 1722 
L 1656 0 
L 531 0 
L 531 3500 
L 1656 3500 
L 1656 2988 
Q 1863 3284 2130 3434 
Q 2397 3584 2719 3584 
Q 3081 3584 3359 3409 
Q 3638 3234 3781 2919 
z
" id="DejaVuSans-Bold-6d" transform="scale(0.015625)"/>
       <path d="M 1656 506 
L 1656 -1331 
L 538 -1331 
L 538 3500 
L 1656 3500 
L 1656 2988 
Q 1888 3294 2169 3439 
Q 2450 3584 2816 3584 
Q 3463 3584 3878 3070 
Q 4294 2556 4294 1747 
Q 4294 938 3878 423 
Q 3463 -91 2816 -91 
Q 2450 -91 2169 54 
Q 1888 200 1656 506 
z
M 2400 2772 
Q 2041 2772 1848 2508 
Q 1656 2244 1656 1747 
Q 1656 1250 1848 986 
Q 2041 722 2400 722 
Q 2759 722 2948 984 
Q 3138 1247 3138 1747 
Q 3138 2247 2948 2509 
Q 2759 2772 2400 2772 
z
" id="DejaVuSans-Bold-70" transform="scale(0.015625)"/>
       <path d="M 2203 2784 
Q 1831 2784 1636 2517 
Q 1441 2250 1441 1747 
Q 1441 1244 1636 976 
Q 1831 709 2203 709 
Q 2569 709 2762 976 
Q 2956 1244 2956 1747 
Q 2956 2250 2762 2517 
Q 2569 2784 2203 2784 
z
M 2203 3584 
Q 3106 3584 3614 3096 
Q 4122 2609 4122 1747 
Q 4122 884 3614 396 
Q 3106 -91 2203 -91 
Q 1297 -91 786 396 
Q 275 884 275 1747 
Q 275 2609 786 3096 
Q 1297 3584 2203 3584 
z
" id="DejaVuSans-Bold-6f" transform="scale(0.015625)"/>
       <path d="M 78 3500 
L 1197 3500 
L 2138 1125 
L 2938 3500 
L 4056 3500 
L 2584 -331 
Q 2363 -916 2067 -1148 
Q 1772 -1381 1288 -1381 
L 641 -1381 
L 641 -647 
L 991 -647 
Q 1275 -647 1404 -556 
Q 1534 -466 1606 -231 
L 1638 -134 
L 78 3500 
z
" id="DejaVuSans-Bold-79" transform="scale(0.015625)"/>
       <path d="M 653 1209 
L 1778 1209 
L 1778 256 
L 1006 -909 
L 341 -909 
L 653 256 
L 653 1209 
z
" id="DejaVuSans-Bold-2c" transform="scale(0.015625)"/>
       <path d="M 1844 884 
L 3897 884 
L 3897 0 
L 506 0 
L 506 884 
L 2209 2388 
Q 2438 2594 2547 2791 
Q 2656 2988 2656 3200 
Q 2656 3528 2436 3728 
Q 2216 3928 1850 3928 
Q 1569 3928 1234 3808 
Q 900 3688 519 3450 
L 519 4475 
Q 925 4609 1322 4679 
Q 1719 4750 2100 4750 
Q 2938 4750 3402 4381 
Q 3866 4013 3866 3353 
Q 3866 2972 3669 2642 
Q 3472 2313 2841 1759 
L 1844 884 
z
" id="DejaVuSans-Bold-32" transform="scale(0.015625)"/>
       <path d="M 2944 2338 
Q 2944 3213 2780 3570 
Q 2616 3928 2228 3928 
Q 1841 3928 1675 3570 
Q 1509 3213 1509 2338 
Q 1509 1453 1675 1090 
Q 1841 728 2228 728 
Q 2613 728 2778 1090 
Q 2944 1453 2944 2338 
z
M 4147 2328 
Q 4147 1169 3647 539 
Q 3147 -91 2228 -91 
Q 1306 -91 806 539 
Q 306 1169 306 2328 
Q 306 3491 806 4120 
Q 1306 4750 2228 4750 
Q 3147 4750 3647 4120 
Q 4147 3491 4147 2328 
z
" id="DejaVuSans-Bold-30" transform="scale(0.015625)"/>
       <path d="M 750 831 
L 1813 831 
L 1813 3847 
L 722 3622 
L 722 4441 
L 1806 4666 
L 2950 4666 
L 2950 831 
L 4013 831 
L 4013 0 
L 750 0 
L 750 831 
z
" id="DejaVuSans-Bold-31" transform="scale(0.015625)"/>
       <path d="M 428 4666 
L 3944 4666 
L 3944 3988 
L 2125 0 
L 953 0 
L 2675 3781 
L 428 3781 
L 428 4666 
z
" id="DejaVuSans-Bold-37" transform="scale(0.015625)"/>
       <path d="M 2413 -844 
L 1484 -844 
Q 1006 -72 778 623 
Q 550 1319 550 2003 
Q 550 2688 779 3389 
Q 1009 4091 1484 4856 
L 2413 4856 
Q 2013 4116 1813 3408 
Q 1613 2700 1613 2009 
Q 1613 1319 1811 609 
Q 2009 -100 2413 -844 
z
" id="DejaVuSans-Bold-28" transform="scale(0.015625)"/>
       <path d="M 513 -844 
Q 913 -100 1113 609 
Q 1313 1319 1313 2009 
Q 1313 2700 1113 3408 
Q 913 4116 513 4856 
L 1441 4856 
Q 1916 4091 2145 3389 
Q 2375 2688 2375 2003 
Q 2375 1319 2147 623 
Q 1919 -72 1441 -844 
L 513 -844 
z
" id="DejaVuSans-Bold-29" transform="scale(0.015625)"/>
      </defs>
      <use xlink:href="#DejaVuSans-Bold-55"/>
      <use x="81.201172" xlink:href="#DejaVuSans-Bold-53"/>
      <use x="153.222656" xlink:href="#DejaVuSans-Bold-20"/>
      <use x="188.037109" xlink:href="#DejaVuSans-Bold-69"/>
      <use x="222.314453" xlink:href="#DejaVuSans-Bold-6e"/>
      <use x="293.505859" xlink:href="#DejaVuSans-Bold-64"/>
      <use x="365.087891" xlink:href="#DejaVuSans-Bold-75"/>
      <use x="436.279297" xlink:href="#DejaVuSans-Bold-73"/>
      <use x="495.800781" xlink:href="#DejaVuSans-Bold-74"/>
      <use x="543.603516" xlink:href="#DejaVuSans-Bold-72"/>
      <use x="592.919922" xlink:href="#DejaVuSans-Bold-69"/>
      <use x="627.197266" xlink:href="#DejaVuSans-Bold-61"/>
      <use x="694.677734" xlink:href="#DejaVuSans-Bold-6c"/>
      <use x="728.955078" xlink:href="#DejaVuSans-Bold-20"/>
      <use x="763.769531" xlink:href="#DejaVuSans-Bold-65"/>
      <use x="831.591797" xlink:href="#DejaVuSans-Bold-6d"/>
      <use x="935.791016" xlink:href="#DejaVuSans-Bold-70"/>
      <use x="1007.373047" xlink:href="#DejaVuSans-Bold-6c"/>
      <use x="1041.650391" xlink:href="#DejaVuSans-Bold-6f"/>
      <use x="1110.351562" xlink:href="#DejaVuSans-Bold-79"/>
      <use x="1175.537109" xlink:href="#DejaVuSans-Bold-6d"/>
      <use x="1279.736328" xlink:href="#DejaVuSans-Bold-65"/>
      <use x="1347.558594" xlink:href="#DejaVuSans-Bold-6e"/>
      <use x="1418.75" xlink:href="#DejaVuSans-Bold-74"/>
      <use x="1466.552734" xlink:href="#DejaVuSans-Bold-2c"/>
      <use x="1504.541016" xlink:href="#DejaVuSans-Bold-20"/>
      <use x="1539.355469" xlink:href="#DejaVuSans-Bold-32"/>
      <use x="1608.935547" xlink:href="#DejaVuSans-Bold-30"/>
      <use x="1678.515625" xlink:href="#DejaVuSans-Bold-31"/>
      <use x="1748.095703" xlink:href="#DejaVuSans-Bold-37"/>
      <use x="1817.675781" xlink:href="#DejaVuSans-Bold-20"/>
      <use x="1852.490234" xlink:href="#DejaVuSans-Bold-28"/>
      <use x="1898.193359" xlink:href="#DejaVuSans-Bold-6d"/>
      <use x="2002.392578" xlink:href="#DejaVuSans-Bold-69"/>
      <use x="2036.669922" xlink:href="#DejaVuSans-Bold-6c"/>
      <use x="2070.947266" xlink:href="#DejaVuSans-Bold-6c"/>
      <use x="2105.224609" xlink:href="#DejaVuSans-Bold-69"/>
      <use x="2139.501953" xlink:href="#DejaVuSans-Bold-6f"/>
      <use x="2208.203125" xlink:href="#DejaVuSans-Bold-6e"/>
      <use x="2279.394531" xlink:href="#DejaVuSans-Bold-29"/>
     </g>
    </g>
   </g>
   <g id="matplotlib.axis_2">
    <g id="ytick_1">
     <g id="line2d_18">
      <defs>
       <path d="M 0 0 
L -3.5 0 
" id="mb15e9d205f" style="stroke:#000000;stroke-width:0.8;"/>
      </defs>
      <g>
       <use style="stroke:#000000;stroke-width:0.8;" x="41.075" xlink:href="#mb15e9d205f" y="286.797017"/>
      </g>
     </g>
     <g id="text_10">
      <!-- 0 -->
      <g transform="translate(27.7125 290.596236)scale(0.1 -0.1)">
       <use xlink:href="#DejaVuSans-30"/>
      </g>
     </g>
    </g>
    <g id="ytick_2">
     <g id="line2d_19">
      <g>
       <use style="stroke:#000000;stroke-width:0.8;" x="41.075" xlink:href="#mb15e9d205f" y="255.910653"/>
      </g>
     </g>
     <g id="text_11">
      <!-- 5 -->
      <g transform="translate(27.7125 259.709872)scale(0.1 -0.1)">
       <use xlink:href="#DejaVuSans-35"/>
      </g>
     </g>
    </g>
    <g id="ytick_3">
     <g id="line2d_20">
      <g>
       <use style="stroke:#000000;stroke-width:0.8;" x="41.075" xlink:href="#mb15e9d205f" y="225.02429"/>
      </g>
     </g>
     <g id="text_12">
      <!-- 10 -->
      <g transform="translate(21.35 228.823509)scale(0.1 -0.1)">
       <use xlink:href="#DejaVuSans-31"/>
       <use x="63.623047" xlink:href="#DejaVuSans-30"/>
      </g>
     </g>
    </g>
    <g id="ytick_4">
     <g id="line2d_21">
      <g>
       <use style="stroke:#000000;stroke-width:0.8;" x="41.075" xlink:href="#mb15e9d205f" y="194.137926"/>
      </g>
     </g>
     <g id="text_13">
      <!-- 15 -->
      <g transform="translate(21.35 197.937145)scale(0.1 -0.1)">
       <use xlink:href="#DejaVuSans-31"/>
       <use x="63.623047" xlink:href="#DejaVuSans-35"/>
      </g>
     </g>
    </g>
    <g id="ytick_5">
     <g id="line2d_22">
      <g>
       <use style="stroke:#000000;stroke-width:0.8;" x="41.075" xlink:href="#mb15e9d205f" y="163.251562"/>
      </g>
     </g>
     <g id="text_14">
      <!-- 20 -->
      <g transform="translate(21.35 167.050781)scale(0.1 -0.1)">
       <use xlink:href="#DejaVuSans-32"/>
       <use x="63.623047" xlink:href="#DejaVuSans-30"/>
      </g>
     </g>
    </g>
    <g id="ytick_6">
     <g id="line2d_23">
      <g>
       <use style="stroke:#000000;stroke-width:0.8;" x="41.075" xlink:href="#mb15e9d205f" y="132.365199"/>
      </g>
     </g>
     <g id="text_15">
      <!-- 25 -->
      <g transform="translate(21.35 136.164418)scale(0.1 -0.1)">
       <use xlink:href="#DejaVuSans-32"/>
       <use x="63.623047" xlink:href="#DejaVuSans-35"/>
      </g>
     </g>
    </g>
    <g id="ytick_7">
     <g id="line2d_24">
      <g>
       <use style="stroke:#000000;stroke-width:0.8;" x="41.075" xlink:href="#mb15e9d205f" y="101.478835"/>
      </g>
     </g>
     <g id="text_16">
      <!-- 30 -->
      <g transform="translate(21.35 105.278054)scale(0.1 -0.1)">
       <use xlink:href="#DejaVuSans-33"/>
       <use x="63.623047" xlink:href="#DejaVuSans-30"/>
      </g>
     </g>
    </g>
    <g id="ytick_8">
     <g id="line2d_25">
      <g>
       <use style="stroke:#000000;stroke-width:0.8;" x="41.075" xlink:href="#mb15e9d205f" y="70.592472"/>
      </g>
     </g>
     <g id="text_17">
      <!-- 35 -->
      <g transform="translate(21.35 74.39169)scale(0.1 -0.1)">
       <use xlink:href="#DejaVuSans-33"/>
       <use x="63.623047" xlink:href="#DejaVuSans-35"/>
      </g>
     </g>
    </g>
    <g id="ytick_9">
     <g id="line2d_26">
      <g>
       <use style="stroke:#000000;stroke-width:0.8;" x="41.075" xlink:href="#mb15e9d205f" y="39.706108"/>
      </g>
     </g>
     <g id="text_18">
      <!-- 40 -->
      <g transform="translate(21.35 43.505327)scale(0.1 -0.1)">
       <use xlink:href="#DejaVuSans-34"/>
       <use x="63.623047" xlink:href="#DejaVuSans-30"/>
      </g>
     </g>
    </g>
    <g id="text_19">
     <!-- Change in import tariffs, 2017-2019 (percentage point) -->
     <g transform="translate(15.192187 319.303125)rotate(-90)scale(0.1 -0.1)">
      <defs>
       <path d="M 4288 256 
Q 3956 84 3597 -3 
Q 3238 -91 2847 -91 
Q 1681 -91 1000 561 
Q 319 1213 319 2328 
Q 319 3447 1000 4098 
Q 1681 4750 2847 4750 
Q 3238 4750 3597 4662 
Q 3956 4575 4288 4403 
L 4288 3438 
Q 3953 3666 3628 3772 
Q 3303 3878 2944 3878 
Q 2300 3878 1931 3465 
Q 1563 3053 1563 2328 
Q 1563 1606 1931 1193 
Q 2300 781 2944 781 
Q 3303 781 3628 887 
Q 3953 994 4288 1222 
L 4288 256 
z
" id="DejaVuSans-Bold-43" transform="scale(0.015625)"/>
       <path d="M 4056 2131 
L 4056 0 
L 2931 0 
L 2931 347 
L 2931 1625 
Q 2931 2084 2911 2256 
Q 2891 2428 2841 2509 
Q 2775 2619 2662 2680 
Q 2550 2741 2406 2741 
Q 2056 2741 1856 2470 
Q 1656 2200 1656 1722 
L 1656 0 
L 538 0 
L 538 4863 
L 1656 4863 
L 1656 2988 
Q 1909 3294 2193 3439 
Q 2478 3584 2822 3584 
Q 3428 3584 3742 3212 
Q 4056 2841 4056 2131 
z
" id="DejaVuSans-Bold-68" transform="scale(0.015625)"/>
       <path d="M 2919 594 
Q 2688 288 2409 144 
Q 2131 0 1766 0 
Q 1125 0 706 504 
Q 288 1009 288 1791 
Q 288 2575 706 3076 
Q 1125 3578 1766 3578 
Q 2131 3578 2409 3434 
Q 2688 3291 2919 2981 
L 2919 3500 
L 4044 3500 
L 4044 353 
Q 4044 -491 3511 -936 
Q 2978 -1381 1966 -1381 
Q 1638 -1381 1331 -1331 
Q 1025 -1281 716 -1178 
L 716 -306 
Q 1009 -475 1290 -558 
Q 1572 -641 1856 -641 
Q 2406 -641 2662 -400 
Q 2919 -159 2919 353 
L 2919 594 
z
M 2181 2772 
Q 1834 2772 1640 2515 
Q 1447 2259 1447 1791 
Q 1447 1309 1634 1061 
Q 1822 813 2181 813 
Q 2531 813 2725 1069 
Q 2919 1325 2919 1791 
Q 2919 2259 2725 2515 
Q 2531 2772 2181 2772 
z
" id="DejaVuSans-Bold-67" transform="scale(0.015625)"/>
       <path d="M 2841 4863 
L 2841 4128 
L 2222 4128 
Q 1984 4128 1890 4042 
Q 1797 3956 1797 3744 
L 1797 3500 
L 2753 3500 
L 2753 2700 
L 1797 2700 
L 1797 0 
L 678 0 
L 678 2700 
L 122 2700 
L 122 3500 
L 678 3500 
L 678 3744 
Q 678 4316 997 4589 
Q 1316 4863 1984 4863 
L 2841 4863 
z
" id="DejaVuSans-Bold-66" transform="scale(0.015625)"/>
       <path d="M 347 2297 
L 2309 2297 
L 2309 1388 
L 347 1388 
L 347 2297 
z
" id="DejaVuSans-Bold-2d" transform="scale(0.015625)"/>
       <path d="M 641 103 
L 641 966 
Q 928 831 1190 764 
Q 1453 697 1709 697 
Q 2247 697 2547 995 
Q 2847 1294 2900 1881 
Q 2688 1725 2447 1647 
Q 2206 1569 1925 1569 
Q 1209 1569 770 1986 
Q 331 2403 331 3084 
Q 331 3838 820 4291 
Q 1309 4744 2131 4744 
Q 3044 4744 3544 4128 
Q 4044 3513 4044 2388 
Q 4044 1231 3459 570 
Q 2875 -91 1856 -91 
Q 1528 -91 1228 -42 
Q 928 6 641 103 
z
M 2125 2350 
Q 2441 2350 2600 2554 
Q 2759 2759 2759 3169 
Q 2759 3575 2600 3781 
Q 2441 3988 2125 3988 
Q 1809 3988 1650 3781 
Q 1491 3575 1491 3169 
Q 1491 2759 1650 2554 
Q 1809 2350 2125 2350 
z
" id="DejaVuSans-Bold-39" transform="scale(0.015625)"/>
       <path d="M 3366 3391 
L 3366 2478 
Q 3138 2634 2908 2709 
Q 2678 2784 2431 2784 
Q 1963 2784 1702 2511 
Q 1441 2238 1441 1747 
Q 1441 1256 1702 982 
Q 1963 709 2431 709 
Q 2694 709 2930 787 
Q 3166 866 3366 1019 
L 3366 103 
Q 3103 6 2833 -42 
Q 2563 -91 2291 -91 
Q 1344 -91 809 395 
Q 275 881 275 1747 
Q 275 2613 809 3098 
Q 1344 3584 2291 3584 
Q 2566 3584 2833 3536 
Q 3100 3488 3366 3391 
z
" id="DejaVuSans-Bold-63" transform="scale(0.015625)"/>
      </defs>
      <use xlink:href="#DejaVuSans-Bold-43"/>
      <use x="73.388672" xlink:href="#DejaVuSans-Bold-68"/>
      <use x="144.580078" xlink:href="#DejaVuSans-Bold-61"/>
      <use x="212.060547" xlink:href="#DejaVuSans-Bold-6e"/>
      <use x="283.251953" xlink:href="#DejaVuSans-Bold-67"/>
      <use x="354.833984" xlink:href="#DejaVuSans-Bold-65"/>
      <use x="422.65625" xlink:href="#DejaVuSans-Bold-20"/>
      <use x="457.470703" xlink:href="#DejaVuSans-Bold-69"/>
      <use x="491.748047" xlink:href="#DejaVuSans-Bold-6e"/>
      <use x="562.939453" xlink:href="#DejaVuSans-Bold-20"/>
      <use x="597.753906" xlink:href="#DejaVuSans-Bold-69"/>
      <use x="632.03125" xlink:href="#DejaVuSans-Bold-6d"/>
      <use x="736.230469" xlink:href="#DejaVuSans-Bold-70"/>
      <use x="807.8125" xlink:href="#DejaVuSans-Bold-6f"/>
      <use x="876.513672" xlink:href="#DejaVuSans-Bold-72"/>
      <use x="925.830078" xlink:href="#DejaVuSans-Bold-74"/>
      <use x="973.632812" xlink:href="#DejaVuSans-Bold-20"/>
      <use x="1008.447266" xlink:href="#DejaVuSans-Bold-74"/>
      <use x="1056.25" xlink:href="#DejaVuSans-Bold-61"/>
      <use x="1123.730469" xlink:href="#DejaVuSans-Bold-72"/>
      <use x="1173.046875" xlink:href="#DejaVuSans-Bold-69"/>
      <use x="1207.324219" xlink:href="#DejaVuSans-Bold-66"/>
      <use x="1250.830078" xlink:href="#DejaVuSans-Bold-66"/>
      <use x="1294.335938" xlink:href="#DejaVuSans-Bold-73"/>
      <use x="1353.857422" xlink:href="#DejaVuSans-Bold-2c"/>
      <use x="1391.845703" xlink:href="#DejaVuSans-Bold-20"/>
      <use x="1426.660156" xlink:href="#DejaVuSans-Bold-32"/>
      <use x="1496.240234" xlink:href="#DejaVuSans-Bold-30"/>
      <use x="1565.820312" xlink:href="#DejaVuSans-Bold-31"/>
      <use x="1635.400391" xlink:href="#DejaVuSans-Bold-37"/>
      <use x="1704.980469" xlink:href="#DejaVuSans-Bold-2d"/>
      <use x="1746.484375" xlink:href="#DejaVuSans-Bold-32"/>
      <use x="1816.064453" xlink:href="#DejaVuSans-Bold-30"/>
      <use x="1885.644531" xlink:href="#DejaVuSans-Bold-31"/>
      <use x="1955.224609" xlink:href="#DejaVuSans-Bold-39"/>
      <use x="2024.804688" xlink:href="#DejaVuSans-Bold-20"/>
      <use x="2059.619141" xlink:href="#DejaVuSans-Bold-28"/>
      <use x="2105.322266" xlink:href="#DejaVuSans-Bold-70"/>
      <use x="2176.904297" xlink:href="#DejaVuSans-Bold-65"/>
      <use x="2244.726562" xlink:href="#DejaVuSans-Bold-72"/>
      <use x="2294.042969" xlink:href="#DejaVuSans-Bold-63"/>
      <use x="2353.320312" xlink:href="#DejaVuSans-Bold-65"/>
      <use x="2421.142578" xlink:href="#DejaVuSans-Bold-6e"/>
      <use x="2492.333984" xlink:href="#DejaVuSans-Bold-74"/>
      <use x="2540.136719" xlink:href="#DejaVuSans-Bold-61"/>
      <use x="2607.617188" xlink:href="#DejaVuSans-Bold-67"/>
      <use x="2679.199219" xlink:href="#DejaVuSans-Bold-65"/>
      <use x="2747.021484" xlink:href="#DejaVuSans-Bold-20"/>
      <use x="2781.835938" xlink:href="#DejaVuSans-Bold-70"/>
      <use x="2853.417969" xlink:href="#DejaVuSans-Bold-6f"/>
      <use x="2922.119141" xlink:href="#DejaVuSans-Bold-69"/>
      <use x="2956.396484" xlink:href="#DejaVuSans-Bold-6e"/>
      <use x="3027.587891" xlink:href="#DejaVuSans-Bold-74"/>
      <use x="3075.390625" xlink:href="#DejaVuSans-Bold-29"/>
     </g>
    </g>
   </g>
   <g id="PathCollection_1">
    <path clip-path="url(#p5c8db81f2b)" d="M 127.059055 148.386802 
L 132.783139 136.938633 
L 121.33497 136.938633 
z
" style="fill:#008000;stroke:#008000;"/>
    <path clip-path="url(#p5c8db81f2b)" d="M 168.428101 172.968852 
L 175.944885 157.935284 
L 160.911318 157.935284 
z
" style="fill:#008000;stroke:#008000;"/>
    <path clip-path="url(#p5c8db81f2b)" d="M 265.818434 181.688419 
L 276.419521 160.486244 
L 255.217347 160.486244 
z
" style="fill:#008000;stroke:#008000;"/>
    <path clip-path="url(#p5c8db81f2b)" d="M 228.322861 203.279282 
L 237.855369 184.214268 
L 218.790354 184.214268 
z
" style="fill:#008000;stroke:#008000;"/>
    <path clip-path="url(#p5c8db81f2b)" d="M 135.295056 157.895423 
L 141.418032 145.649472 
L 129.17208 145.649472 
z
" style="fill:#008000;stroke:#008000;"/>
    <path clip-path="url(#p5c8db81f2b)" d="M 234.195726 202.170737 
L 243.903375 182.75544 
L 224.488077 182.75544 
z
" style="fill:#008000;stroke:#008000;"/>
    <path clip-path="url(#p5c8db81f2b)" d="M 104.176083 198.569096 
L 108.607252 189.706757 
L 99.744913 189.706757 
z
" style="fill:#008000;stroke:#008000;"/>
    <path clip-path="url(#p5c8db81f2b)" d="M 115.045093 179.283304 
L 120.131518 169.110452 
L 109.958667 169.110452 
z
" style="fill:#008000;stroke:#008000;"/>
    <path clip-path="url(#p5c8db81f2b)" d="M 71.511364 137.52086 
L 72.456229 135.631129 
L 70.566498 135.631129 
z
" style="fill:#008000;stroke:#008000;"/>
    <path clip-path="url(#p5c8db81f2b)" d="M 76.851133 134.354331 
L 78.840264 130.376067 
L 74.862001 130.376067 
z
" style="fill:#008000;stroke:#008000;"/>
    <path clip-path="url(#p5c8db81f2b)" d="M 90.368869 176.728765 
L 93.791282 169.883941 
L 86.946457 169.883941 
z
" style="fill:#008000;stroke:#008000;"/>
    <path clip-path="url(#p5c8db81f2b)" d="M 73.129737 288.146598 
L 74.479318 285.447436 
L 71.780157 285.447436 
z
" style="fill:#008000;stroke:#008000;"/>
    <path clip-path="url(#p5c8db81f2b)" d="M 72.2449 153.20033 
L 73.391051 150.908028 
L 71.098749 150.908028 
z
" style="fill:#008000;stroke:#008000;"/>
    <path clip-path="url(#p5c8db81f2b)" d="M 120.497561 137.750388 
L 125.88275 126.980009 
L 115.112371 126.980009 
z
" style="fill:#008000;stroke:#008000;"/>
    <path clip-path="url(#p5c8db81f2b)" d="M 76.505609 138.660822 
L 78.444265 134.783509 
L 74.566953 134.783509 
z
" style="fill:#008000;stroke:#008000;"/>
    <path clip-path="url(#p5c8db81f2b)" d="M 71.964664 287.870734 
L 73.03838 285.7233 
L 70.890947 285.7233 
z
" style="fill:#008000;stroke:#008000;"/>
    <path clip-path="url(#p5c8db81f2b)" d="M 416.580548 300.89978 
L 430.683311 272.694254 
L 402.477785 272.694254 
z
" style="fill:#008000;stroke:#008000;"/>
    <path clip-path="url(#p5c8db81f2b)" d="M 100.955139 291.014497 
L 105.172619 282.579537 
L 96.737659 282.579537 
z
" style="fill:#008000;stroke:#008000;"/>
    <path clip-path="url(#p5c8db81f2b)" d="M 87.315377 289.9531 
L 90.47146 283.640934 
L 84.159294 283.640934 
z
" style="fill:#008000;stroke:#008000;"/>
   </g>
   <g id="PathCollection_2">
    <path clip-path="url(#p5c8db81f2b)" d="M 132.419895 134.705625 
C 133.017032 134.705625 133.589791 134.468381 134.012031 134.046141 
C 134.43427 133.623902 134.671515 133.051143 134.671515 132.454006 
C 134.671515 131.85687 134.43427 131.28411 134.012031 130.861871 
C 133.589791 130.439632 133.017032 130.202387 132.419895 130.202387 
C 131.822759 130.202387 131.25 130.439632 130.82776 130.861871 
C 130.405521 131.28411 130.168276 131.85687 130.168276 132.454006 
C 130.168276 133.051143 130.405521 133.623902 130.82776 134.046141 
C 131.25 134.468381 131.822759 134.705625 132.419895 134.705625 
z
" style="fill:#ffa500;stroke:#ffa500;"/>
    <path clip-path="url(#p5c8db81f2b)" d="M 133.568561 177.830017 
C 134.171162 177.830017 134.749164 177.590601 135.175268 177.164498 
C 135.601372 176.738394 135.840788 176.160392 135.840788 175.55779 
C 135.840788 174.955188 135.601372 174.377187 135.175268 173.951083 
C 134.749164 173.524979 134.171162 173.285563 133.568561 173.285563 
C 132.965959 173.285563 132.387957 173.524979 131.961853 173.951083 
C 131.53575 174.377187 131.296333 174.955188 131.296333 175.55779 
C 131.296333 176.160392 131.53575 176.738394 131.961853 177.164498 
C 132.387957 177.590601 132.965959 177.830017 133.568561 177.830017 
z
" style="fill:#ffa500;stroke:#ffa500;"/>
    <path clip-path="url(#p5c8db81f2b)" d="M 147.794444 181.126196 
C 148.461029 181.126196 149.100402 180.861359 149.571749 180.390012 
C 150.043096 179.918665 150.307933 179.279292 150.307933 178.612707 
C 150.307933 177.946122 150.043096 177.306748 149.571749 176.835401 
C 149.100402 176.364054 148.461029 176.099217 147.794444 176.099217 
C 147.127859 176.099217 146.488485 176.364054 146.017138 176.835401 
C 145.545791 177.306748 145.280954 177.946122 145.280954 178.612707 
C 145.280954 179.279292 145.545791 179.918665 146.017138 180.390012 
C 146.488485 180.861359 147.127859 181.126196 147.794444 181.126196 
z
" style="fill:#ffa500;stroke:#ffa500;"/>
    <path clip-path="url(#p5c8db81f2b)" d="M 248.853838 145.953153 
C 249.864393 145.953153 250.833695 145.551655 251.548266 144.837084 
C 252.262837 144.122513 252.664335 143.153211 252.664335 142.142656 
C 252.664335 141.1321 252.262837 140.162798 251.548266 139.448227 
C 250.833695 138.733657 249.864393 138.332159 248.853838 138.332159 
C 247.843282 138.332159 246.87398 138.733657 246.159409 139.448227 
C 245.444839 140.162798 245.043341 141.1321 245.043341 142.142656 
C 245.043341 143.153211 245.444839 144.122513 246.159409 144.837084 
C 246.87398 145.551655 247.843282 145.953153 248.853838 145.953153 
z
" style="fill:#ffa500;stroke:#ffa500;"/>
    <path clip-path="url(#p5c8db81f2b)" d="M 219.991692 186.114861 
C 220.917147 186.114861 221.804822 185.747174 222.459217 185.092778 
C 223.113612 184.438383 223.481299 183.550708 223.481299 182.625254 
C 223.481299 181.699799 223.113612 180.812124 222.459217 180.157729 
C 221.804822 179.503334 220.917147 179.135647 219.991692 179.135647 
C 219.066238 179.135647 218.178563 179.503334 217.524167 180.157729 
C 216.869772 180.812124 216.502085 181.699799 216.502085 182.625254 
C 216.502085 183.550708 216.869772 184.438383 217.524167 185.092778 
C 218.178563 185.747174 219.066238 186.114861 219.991692 186.114861 
z
" style="fill:#ffa500;stroke:#ffa500;"/>
    <path clip-path="url(#p5c8db81f2b)" d="M 599.474112 187.31034 
C 601.212704 187.31034 602.880322 186.61959 604.109692 185.39022 
C 605.339062 184.16085 606.029812 182.493232 606.029812 180.75464 
C 606.029812 179.016048 605.339062 177.348431 604.109692 176.119061 
C 602.880322 174.88969 601.212704 174.198941 599.474112 174.198941 
C 597.735521 174.198941 596.067903 174.88969 594.838533 176.119061 
C 593.609163 177.348431 592.918413 179.016048 592.918413 180.75464 
C 592.918413 182.493232 593.609163 184.16085 594.838533 185.39022 
C 596.067903 186.61959 597.735521 187.31034 599.474112 187.31034 
z
" style="fill:#ffa500;stroke:#ffa500;"/>
    <path clip-path="url(#p5c8db81f2b)" d="M 106.826623 134.345744 
C 107.285398 134.345744 107.725446 134.16347 108.049849 133.839066 
C 108.374253 133.514663 108.556526 133.074616 108.556526 132.61584 
C 108.556526 132.157064 108.374253 131.717016 108.049849 131.392613 
C 107.725446 131.068209 107.285398 130.885936 106.826623 130.885936 
C 106.367847 130.885936 105.927799 131.068209 105.603396 131.392613 
C 105.278992 131.717016 105.096719 132.157064 105.096719 132.61584 
C 105.096719 133.074616 105.278992 133.514663 105.603396 133.839066 
C 105.927799 134.16347 106.367847 134.345744 106.826623 134.345744 
z
" style="fill:#ffa500;stroke:#ffa500;"/>
    <path clip-path="url(#p5c8db81f2b)" d="M 392.953504 166.071607 
C 394.31137 166.071607 395.613804 165.532121 396.573961 164.571965 
C 397.534117 163.611809 398.073603 162.309374 398.073603 160.951508 
C 398.073603 159.593642 397.534117 158.291208 396.573961 157.331051 
C 395.613804 156.370895 394.31137 155.831409 392.953504 155.831409 
C 391.595638 155.831409 390.293204 156.370895 389.333047 157.331051 
C 388.372891 158.291208 387.833405 159.593642 387.833405 160.951508 
C 387.833405 162.309374 388.372891 163.611809 389.333047 164.571965 
C 390.293204 165.532121 391.595638 166.071607 392.953504 166.071607 
z
" style="fill:#ffa500;stroke:#ffa500;"/>
    <path clip-path="url(#p5c8db81f2b)" d="M 295.688738 188.983878 
C 296.823892 188.983878 297.912706 188.532877 298.715381 187.730201 
C 299.518056 186.927526 299.969058 185.838712 299.969058 184.703558 
C 299.969058 183.568404 299.518056 182.47959 298.715381 181.676915 
C 297.912706 180.87424 296.823892 180.423239 295.688738 180.423239 
C 294.553584 180.423239 293.46477 180.87424 292.662095 181.676915 
C 291.85942 182.47959 291.408418 183.568404 291.408418 184.703558 
C 291.408418 185.838712 291.85942 186.927526 292.662095 187.730201 
C 293.46477 188.532877 294.553584 188.983878 295.688738 188.983878 
z
" style="fill:#ffa500;stroke:#ffa500;"/>
    <path clip-path="url(#p5c8db81f2b)" d="M 329.927442 159.79681 
C 331.145646 159.79681 332.314121 159.312812 333.175522 158.451411 
C 334.036922 157.590011 334.52092 156.421536 334.52092 155.203332 
C 334.52092 153.985127 334.036922 152.816653 333.175522 151.955252 
C 332.314121 151.093851 331.145646 150.609853 329.927442 150.609853 
C 328.709237 150.609853 327.540763 151.093851 326.679362 151.955252 
C 325.817961 152.816653 325.333963 153.985127 325.333963 155.203332 
C 325.333963 156.421536 325.817961 157.590011 326.679362 158.451411 
C 327.540763 159.312812 328.709237 159.79681 329.927442 159.79681 
z
" style="fill:#ffa500;stroke:#ffa500;"/>
    <path clip-path="url(#p5c8db81f2b)" d="M 82.581418 134.74862 
C 82.849885 134.74862 83.107391 134.641957 83.297226 134.452123 
C 83.48706 134.262288 83.593723 134.004781 83.593723 133.736315 
C 83.593723 133.467849 83.48706 133.210342 83.297226 133.020508 
C 83.107391 132.830674 82.849885 132.724011 82.581418 132.724011 
C 82.312952 132.724011 82.055445 132.830674 81.865611 133.020508 
C 81.675777 133.210342 81.569114 133.467849 81.569114 133.736315 
C 81.569114 134.004781 81.675777 134.262288 81.865611 134.452123 
C 82.055445 134.641957 82.312952 134.74862 82.581418 134.74862 
z
" style="fill:#ffa500;stroke:#ffa500;"/>
    <path clip-path="url(#p5c8db81f2b)" d="M 99.806129 134.03088 
C 100.218923 134.03088 100.614867 133.866875 100.906757 133.574985 
C 101.198647 133.283095 101.362652 132.887152 101.362652 132.474357 
C 101.362652 132.061562 101.198647 131.665619 100.906757 131.373728 
C 100.614867 131.081838 100.218923 130.917833 99.806129 130.917833 
C 99.393334 130.917833 98.99739 131.081838 98.7055 131.373728 
C 98.41361 131.665619 98.249605 132.061562 98.249605 132.474357 
C 98.249605 132.887152 98.41361 133.283095 98.7055 133.574985 
C 98.99739 133.866875 99.393334 134.03088 99.806129 134.03088 
z
" style="fill:#ffa500;stroke:#ffa500;"/>
    <path clip-path="url(#p5c8db81f2b)" d="M 124.928571 138.501288 
C 125.488757 138.501288 126.026074 138.278724 126.422186 137.882612 
C 126.818297 137.486501 127.040861 136.949183 127.040861 136.388997 
C 127.040861 135.828811 126.818297 135.291494 126.422186 134.895382 
C 126.026074 134.499271 125.488757 134.276707 124.928571 134.276707 
C 124.368385 134.276707 123.831067 134.499271 123.434956 134.895382 
C 123.038844 135.291494 122.81628 135.828811 122.81628 136.388997 
C 122.81628 136.949183 123.038844 137.486501 123.434956 137.882612 
C 123.831067 138.278724 124.368385 138.501288 124.928571 138.501288 
z
" style="fill:#ffa500;stroke:#ffa500;"/>
    <path clip-path="url(#p5c8db81f2b)" d="M 101.739886 134.62965 
C 102.165842 134.62965 102.574409 134.460416 102.875605 134.15922 
C 103.176801 133.858024 103.346035 133.449457 103.346035 133.023501 
C 103.346035 132.597545 103.176801 132.188978 102.875605 131.887782 
C 102.574409 131.586586 102.165842 131.417352 101.739886 131.417352 
C 101.313931 131.417352 100.905364 131.586586 100.604168 131.887782 
C 100.302971 132.188978 100.133737 132.597545 100.133737 133.023501 
C 100.133737 133.449457 100.302971 133.858024 100.604168 134.15922 
C 100.905364 134.460416 101.313931 134.62965 101.739886 134.62965 
z
" style="fill:#ffa500;stroke:#ffa500;"/>
    <path clip-path="url(#p5c8db81f2b)" d="M 123.659866 210.315511 
C 124.21355 210.315511 124.744631 210.09553 125.136145 209.704016 
C 125.527659 209.312502 125.74764 208.781421 125.74764 208.227737 
C 125.74764 207.674053 125.527659 207.142972 125.136145 206.751458 
C 124.744631 206.359944 124.21355 206.139963 123.659866 206.139963 
C 123.106182 206.139963 122.575101 206.359944 122.183587 206.751458 
C 121.792073 207.142972 121.572092 207.674053 121.572092 208.227737 
C 121.572092 208.781421 121.792073 209.312502 122.183587 209.704016 
C 122.575101 210.09553 123.106182 210.315511 123.659866 210.315511 
z
" style="fill:#ffa500;stroke:#ffa500;"/>
    <path clip-path="url(#p5c8db81f2b)" d="M 135.751033 185.09214 
C 136.363885 185.09214 136.951718 184.848652 137.38507 184.4153 
C 137.818422 183.981949 138.06191 183.394115 138.06191 182.781263 
C 138.06191 182.168412 137.818422 181.580578 137.38507 181.147227 
C 136.951718 180.713875 136.363885 180.470386 135.751033 180.470386 
C 135.138181 180.470386 134.550348 180.713875 134.116996 181.147227 
C 133.683645 181.580578 133.440156 182.168412 133.440156 182.781263 
C 133.440156 183.394115 133.683645 183.981949 134.116996 184.4153 
C 134.550348 184.848652 135.138181 185.09214 135.751033 185.09214 
z
" style="fill:#ffa500;stroke:#ffa500;"/>
    <path clip-path="url(#p5c8db81f2b)" d="M 81.64917 230.393998 
C 81.907535 230.393998 82.155353 230.291348 82.338044 230.108657 
C 82.520736 229.925965 82.623385 229.678147 82.623385 229.419782 
C 82.623385 229.161417 82.520736 228.913599 82.338044 228.730908 
C 82.155353 228.548216 81.907535 228.445566 81.64917 228.445566 
C 81.390805 228.445566 81.142987 228.548216 80.960295 228.730908 
C 80.777603 228.913599 80.674954 229.161417 80.674954 229.419782 
C 80.674954 229.678147 80.777603 229.925965 80.960295 230.108657 
C 81.142987 230.291348 81.390805 230.393998 81.64917 230.393998 
z
" style="fill:#ffa500;stroke:#ffa500;"/>
    <path clip-path="url(#p5c8db81f2b)" d="M 169.815896 197.195994 
C 170.570907 197.195994 171.295098 196.896025 171.828972 196.362151 
C 172.362846 195.828277 172.662815 195.104086 172.662815 194.349074 
C 172.662815 193.594063 172.362846 192.869872 171.828972 192.335998 
C 171.295098 191.802124 170.570907 191.502155 169.815896 191.502155 
C 169.060884 191.502155 168.336694 191.802124 167.80282 192.335998 
C 167.268945 192.869872 166.968976 193.594063 166.968976 194.349074 
C 166.968976 195.104086 167.268945 195.828277 167.80282 196.362151 
C 168.336694 196.896025 169.060884 197.195994 169.815896 197.195994 
z
" style="fill:#ffa500;stroke:#ffa500;"/>
    <path clip-path="url(#p5c8db81f2b)" d="M 82.704135 173.824861 
C 82.973903 173.824861 83.232658 173.717681 83.423412 173.526926 
C 83.614167 173.336172 83.721347 173.077417 83.721347 172.807649 
C 83.721347 172.537881 83.614167 172.279126 83.423412 172.088371 
C 83.232658 171.897617 82.973903 171.790437 82.704135 171.790437 
C 82.434367 171.790437 82.175612 171.897617 81.984857 172.088371 
C 81.794103 172.279126 81.686923 172.537881 81.686923 172.807649 
C 81.686923 173.077417 81.794103 173.336172 81.984857 173.526926 
C 82.175612 173.717681 82.434367 173.824861 82.704135 173.824861 
z
" style="fill:#ffa500;stroke:#ffa500;"/>
    <path clip-path="url(#p5c8db81f2b)" d="M 74.435663 133.226787 
C 74.595584 133.226787 74.748978 133.16325 74.862059 133.050168 
C 74.975141 132.937086 75.038679 132.783693 75.038679 132.623771 
C 75.038679 132.46385 74.975141 132.310456 74.862059 132.197375 
C 74.748978 132.084293 74.595584 132.020755 74.435663 132.020755 
C 74.275741 132.020755 74.122348 132.084293 74.009266 132.197375 
C 73.896184 132.310456 73.832647 132.46385 73.832647 132.623771 
C 73.832647 132.783693 73.896184 132.937086 74.009266 133.050168 
C 74.122348 133.16325 74.275741 133.226787 74.435663 133.226787 
z
" style="fill:#ffa500;stroke:#ffa500;"/>
    <path clip-path="url(#p5c8db81f2b)" d="M 83.185243 222.44405 
C 83.460054 222.44405 83.723646 222.334867 83.917966 222.140546 
C 84.112287 221.946226 84.221471 221.682633 84.221471 221.407822 
C 84.221471 221.133012 84.112287 220.869419 83.917966 220.675099 
C 83.723646 220.480778 83.460054 220.371595 83.185243 220.371595 
C 82.910432 220.371595 82.64684 220.480778 82.452519 220.675099 
C 82.258198 220.869419 82.149015 221.133012 82.149015 221.407822 
C 82.149015 221.682633 82.258198 221.946226 82.452519 222.140546 
C 82.64684 222.334867 82.910432 222.44405 83.185243 222.44405 
z
" style="fill:#ffa500;stroke:#ffa500;"/>
    <path clip-path="url(#p5c8db81f2b)" d="M 81.436467 141.147814 
C 81.692471 141.147814 81.938025 141.046103 82.119047 140.86508 
C 82.30007 140.684058 82.401781 140.438504 82.401781 140.1825 
C 82.401781 139.926495 82.30007 139.680941 82.119047 139.499919 
C 81.938025 139.318896 81.692471 139.217185 81.436467 139.217185 
C 81.180462 139.217185 80.934908 139.318896 80.753886 139.499919 
C 80.572863 139.680941 80.471152 139.926495 80.471152 140.1825 
C 80.471152 140.438504 80.572863 140.684058 80.753886 140.86508 
C 80.934908 141.046103 81.180462 141.147814 81.436467 141.147814 
z
" style="fill:#ffa500;stroke:#ffa500;"/>
   </g>
   <g id="PathCollection_3">
    <path clip-path="url(#p5c8db81f2b)" d="M 165.277455 127.765058 
L 161.293615 130.065128 
L 161.293615 134.665269 
L 165.277455 136.96534 
L 169.261294 134.665269 
L 169.261294 130.065128 
z
" style="fill:#000080;stroke:#000080;"/>
    <path clip-path="url(#p5c8db81f2b)" d="M 150.987752 128.123853 
L 147.314639 130.244526 
L 147.314639 134.485872 
L 150.987752 136.606545 
L 154.660865 134.485872 
L 154.660865 130.244526 
z
" style="fill:#000080;stroke:#000080;"/>
    <path clip-path="url(#p5c8db81f2b)" d="M 304.465867 140.173641 
L 298.217216 143.781302 
L 298.217216 150.996622 
L 304.465867 154.604282 
L 310.714518 150.996622 
L 310.714518 143.781302 
z
" style="fill:#000080;stroke:#000080;"/>
    <path clip-path="url(#p5c8db81f2b)" d="M 171.50802 127.64675 
L 167.396043 130.020801 
L 167.396043 134.768903 
L 171.50802 137.142954 
L 175.619997 134.768903 
L 175.619997 130.020801 
z
" style="fill:#000080;stroke:#000080;"/>
    <path clip-path="url(#p5c8db81f2b)" d="M 348.744013 136.638776 
L 341.930946 140.572302 
L 341.930946 148.439354 
L 348.744013 152.372881 
L 355.55708 148.439354 
L 355.55708 140.572302 
z
" style="fill:#000080;stroke:#000080;"/>
    <path clip-path="url(#p5c8db81f2b)" d="M 524.748263 191.751293 
L 516.046406 196.775313 
L 516.046406 206.823352 
L 524.748263 211.847372 
L 533.450121 206.823352 
L 533.450121 196.775313 
z
" style="fill:#000080;stroke:#000080;"/>
    <path clip-path="url(#p5c8db81f2b)" d="M 186.900013 127.56838 
L 182.487406 130.116 
L 182.487406 135.211239 
L 186.900013 137.758859 
L 191.31262 135.211239 
L 191.31262 130.116 
z
" style="fill:#000080;stroke:#000080;"/>
    <path clip-path="url(#p5c8db81f2b)" d="M 224.341783 160.19679 
L 219.271764 163.123967 
L 219.271764 168.978321 
L 224.341783 171.905499 
L 229.411803 168.978321 
L 229.411803 163.123967 
z
" style="fill:#000080;stroke:#000080;"/>
    <path clip-path="url(#p5c8db81f2b)" d="M 165.494994 128.534369 
L 161.506611 130.837063 
L 161.506611 135.44245 
L 165.494994 137.745144 
L 169.483376 135.44245 
L 169.483376 130.837063 
z
" style="fill:#000080;stroke:#000080;"/>
    <path clip-path="url(#p5c8db81f2b)" d="M 106.950289 129.657066 
L 104.468437 131.089964 
L 104.468437 133.95576 
L 106.950289 135.388658 
L 109.432141 133.95576 
L 109.432141 131.089964 
z
" style="fill:#000080;stroke:#000080;"/>
    <path clip-path="url(#p5c8db81f2b)" d="M 372.575124 278.044752 
L 365.476834 282.142952 
L 365.476834 290.339351 
L 372.575124 294.437551 
L 379.673415 290.339351 
L 379.673415 282.142952 
z
" style="fill:#000080;stroke:#000080;"/>
    <path clip-path="url(#p5c8db81f2b)" d="M 134.482847 128.917026 
L 131.205086 130.809442 
L 131.205086 134.594275 
L 134.482847 136.486691 
L 137.760608 134.594275 
L 137.760608 130.809442 
z
" style="fill:#000080;stroke:#000080;"/>
    <path clip-path="url(#p5c8db81f2b)" d="M 180.927489 131.562912 
L 176.629038 134.044623 
L 176.629038 139.008047 
L 180.927489 141.489759 
L 185.22594 139.008047 
L 185.22594 134.044623 
z
" style="fill:#000080;stroke:#000080;"/>
    <path clip-path="url(#p5c8db81f2b)" d="M 155.559873 165.999504 
L 151.784557 168.179184 
L 151.784557 172.538543 
L 155.559873 174.718223 
L 159.335189 172.538543 
L 159.335189 168.179184 
z
" style="fill:#000080;stroke:#000080;"/>
    <path clip-path="url(#p5c8db81f2b)" d="M 669.88001 159.057298 
L 659.885684 164.827525 
L 659.885684 176.367978 
L 669.88001 182.138205 
L 679.874335 176.367978 
L 679.874335 164.827525 
z
" style="fill:#000080;stroke:#000080;"/>
    <path clip-path="url(#p5c8db81f2b)" d="M 210.155021 130.504866 
L 205.323559 133.294312 
L 205.323559 138.873203 
L 210.155021 141.662649 
L 214.986483 138.873203 
L 214.986483 133.294312 
z
" style="fill:#000080;stroke:#000080;"/>
    <path clip-path="url(#p5c8db81f2b)" d="M 111.401334 176.688078 
L 108.77442 178.204728 
L 108.77442 181.238028 
L 111.401334 182.754678 
L 114.028249 181.238028 
L 114.028249 178.204728 
z
" style="fill:#000080;stroke:#000080;"/>
    <path clip-path="url(#p5c8db81f2b)" d="M 157.860572 141.360963 
L 154.034859 143.569739 
L 154.034859 147.987291 
L 157.860572 150.196067 
L 161.686284 147.987291 
L 161.686284 143.569739 
z
" style="fill:#000080;stroke:#000080;"/>
    <path clip-path="url(#p5c8db81f2b)" d="M 269.115373 125.715905 
L 263.356916 129.040552 
L 263.356916 135.689846 
L 269.115373 139.014493 
L 274.873831 135.689846 
L 274.873831 129.040552 
z
" style="fill:#000080;stroke:#000080;"/>
    <path clip-path="url(#p5c8db81f2b)" d="M 85.033418 130.535641 
L 83.448974 131.45042 
L 83.448974 133.279978 
L 85.033418 134.194757 
L 86.617862 133.279978 
L 86.617862 131.45042 
z
" style="fill:#000080;stroke:#000080;"/>
    <path clip-path="url(#p5c8db81f2b)" d="M 151.06323 143.92105 
L 147.388407 146.04271 
L 147.388407 150.286031 
L 151.06323 152.407691 
L 154.738054 150.286031 
L 154.738054 146.04271 
z
" style="fill:#000080;stroke:#000080;"/>
   </g>
   <g id="PathCollection_4">
    <path clip-path="url(#p5c8db81f2b)" d="M 153.983038 59.021764 
L 153.317359 61.070516 
L 151.163174 61.070516 
L 152.905946 62.336713 
L 152.240267 64.385465 
L 153.983038 63.119267 
L 155.72581 64.385465 
L 155.060131 62.336713 
L 156.802903 61.070516 
L 154.648718 61.070516 
z
" style="fill:#dc143c;stroke:#dc143c;"/>
    <path clip-path="url(#p5c8db81f2b)" d="M 127.437827 86.662413 
L 126.887245 88.356929 
L 125.105526 88.356929 
L 126.546967 89.404197 
L 125.996385 91.098713 
L 127.437827 90.051444 
L 128.879268 91.098713 
L 128.328686 89.404197 
L 129.770128 88.356929 
L 127.988408 88.356929 
z
" style="fill:#dc143c;stroke:#dc143c;"/>
    <path clip-path="url(#p5c8db81f2b)" d="M 129.478325 134.609644 
L 128.918056 136.333973 
L 127.104989 136.333973 
L 128.571791 137.399667 
L 128.011522 139.123997 
L 129.478325 138.058302 
L 130.945127 139.123997 
L 130.384858 137.399667 
L 131.85166 136.333973 
L 130.038593 136.333973 
z
" style="fill:#dc143c;stroke:#dc143c;"/>
    <path clip-path="url(#p5c8db81f2b)" d="M 131.446367 149.565937 
L 130.876911 151.318541 
L 129.034115 151.318541 
L 130.524969 152.401709 
L 129.955513 154.154313 
L 131.446367 153.071144 
L 132.937221 154.154313 
L 132.367765 152.401709 
L 133.858619 151.318541 
L 132.015822 151.318541 
z
" style="fill:#dc143c;stroke:#dc143c;"/>
    <path clip-path="url(#p5c8db81f2b)" d="M 190.294884 131.876792 
L 189.498251 134.328576 
L 186.920292 134.328576 
L 189.005905 135.843862 
L 188.209272 138.295646 
L 190.294884 136.78036 
L 192.380496 138.295646 
L 191.583863 135.843862 
L 193.669475 134.328576 
L 191.091517 134.328576 
z
" style="fill:#dc143c;stroke:#dc143c;"/>
    <path clip-path="url(#p5c8db81f2b)" d="M 170.979933 126.469029 
L 170.250026 128.715452 
L 167.887997 128.715452 
L 169.798918 130.103818 
L 169.069011 132.350242 
L 170.979933 130.961876 
L 172.890854 132.350242 
L 172.160947 130.103818 
L 174.071869 128.715452 
L 171.70984 128.715452 
z
" style="fill:#dc143c;stroke:#dc143c;"/>
    <path clip-path="url(#p5c8db81f2b)" d="M 108.880851 174.727705 
L 108.427776 176.12213 
L 106.961591 176.12213 
L 108.147759 176.983931 
L 107.694683 178.378355 
L 108.880851 177.516554 
L 110.067019 178.378355 
L 109.613944 176.983931 
L 110.800112 176.12213 
L 109.333927 176.12213 
z
" style="fill:#dc143c;stroke:#dc143c;"/>
    <path clip-path="url(#p5c8db81f2b)" d="M 456.860604 132.784492 
L 455.432182 137.180723 
L 450.809711 137.180723 
L 454.549369 139.897743 
L 453.120947 144.293973 
L 456.860604 141.576953 
L 460.600261 144.293973 
L 459.171839 139.897743 
L 462.911496 137.180723 
L 458.289026 137.180723 
z
" style="fill:#dc143c;stroke:#dc143c;"/>
    <path clip-path="url(#p5c8db81f2b)" d="M 162.285018 157.345941 
L 161.587228 159.493518 
L 159.329133 159.493518 
L 161.15597 160.820793 
L 160.45818 162.96837 
L 162.285018 161.641094 
L 164.111856 162.96837 
L 163.414066 160.820793 
L 165.240904 159.493518 
L 162.982808 159.493518 
z
" style="fill:#dc143c;stroke:#dc143c;"/>
    <path clip-path="url(#p5c8db81f2b)" d="M 95.593176 153.143652 
L 95.225475 154.275317 
L 94.035572 154.275317 
L 94.998224 154.974725 
L 94.630524 156.106391 
L 95.593176 155.406983 
L 96.555828 156.106391 
L 96.188128 154.974725 
L 97.15078 154.275317 
L 95.960876 154.275317 
z
" style="fill:#dc143c;stroke:#dc143c;"/>
    <path clip-path="url(#p5c8db81f2b)" d="M 114.734717 138.292407 
L 114.248766 139.788011 
L 112.676194 139.788011 
L 113.948432 140.712346 
L 113.46248 142.20795 
L 114.734717 141.283616 
L 116.006955 142.20795 
L 115.521003 140.712346 
L 116.793241 139.788011 
L 115.220669 139.788011 
z
" style="fill:#dc143c;stroke:#dc143c;"/>
    <path clip-path="url(#p5c8db81f2b)" d="M 433.436504 138.999456 
L 432.051997 143.26053 
L 427.571638 143.26053 
L 431.196325 145.894019 
L 429.811818 150.155093 
L 433.436504 147.521604 
L 437.06119 150.155093 
L 435.676683 145.894019 
L 439.30137 143.26053 
L 434.821011 143.26053 
z
" style="fill:#dc143c;stroke:#dc143c;"/>
    <path clip-path="url(#p5c8db81f2b)" d="M 210.991411 282.955738 
L 210.12899 285.609997 
L 207.338138 285.609997 
L 209.595985 287.250418 
L 208.733564 289.904677 
L 210.991411 288.264255 
L 213.249258 289.904677 
L 212.386837 287.250418 
L 214.644684 285.609997 
L 211.853832 285.609997 
z
" style="fill:#dc143c;stroke:#dc143c;"/>
    <path clip-path="url(#p5c8db81f2b)" d="M 346.114977 141.871821 
L 344.908179 145.585961 
L 341.002902 145.585961 
L 344.162338 147.881426 
L 342.955541 151.595565 
L 346.114977 149.300101 
L 349.274413 151.595565 
L 348.067615 147.881426 
L 351.227051 145.585961 
L 347.321774 145.585961 
z
" style="fill:#dc143c;stroke:#dc143c;"/>
    <path clip-path="url(#p5c8db81f2b)" d="M 280.100278 132.272699 
L 279.047556 135.512643 
L 275.640877 135.512643 
L 278.396938 137.515039 
L 277.344216 140.754984 
L 280.100278 138.752588 
L 282.856339 140.754984 
L 281.803617 137.515039 
L 284.559679 135.512643 
L 281.152999 135.512643 
z
" style="fill:#dc143c;stroke:#dc143c;"/>
    <path clip-path="url(#p5c8db81f2b)" d="M 188.296357 135.163834 
L 187.506366 137.595174 
L 184.949904 137.595174 
L 187.018126 139.097825 
L 186.228135 141.529165 
L 188.296357 140.026514 
L 190.364578 141.529165 
L 189.574588 139.097825 
L 191.642809 137.595174 
L 189.086347 137.595174 
z
" style="fill:#dc143c;stroke:#dc143c;"/>
    <path clip-path="url(#p5c8db81f2b)" d="M 163.553291 146.803922 
L 162.850725 148.966198 
L 160.577173 148.966198 
L 162.416515 150.302558 
L 161.713949 152.464835 
L 163.553291 151.128474 
L 165.392633 152.464835 
L 164.690067 150.302558 
L 166.529409 148.966198 
L 164.255857 148.966198 
z
" style="fill:#dc143c;stroke:#dc143c;"/>
    <path clip-path="url(#p5c8db81f2b)" d="M 205.653456 144.559179 
L 204.807513 147.162724 
L 202.069984 147.162724 
L 204.284691 148.771802 
L 203.438749 151.375347 
L 205.653456 149.766268 
L 207.868163 151.375347 
L 207.02222 148.771802 
L 209.236927 147.162724 
L 206.499398 147.162724 
z
" style="fill:#dc143c;stroke:#dc143c;"/>
    <path clip-path="url(#p5c8db81f2b)" d="M 256.34689 128.651027 
L 255.355448 131.702372 
L 252.147075 131.702372 
L 254.742703 133.588206 
L 253.751261 136.639551 
L 256.34689 134.753716 
L 258.942518 136.639551 
L 257.951076 133.588206 
L 260.546705 131.702372 
L 257.338332 131.702372 
z
" style="fill:#dc143c;stroke:#dc143c;"/>
    <path clip-path="url(#p5c8db81f2b)" d="M 169.735495 129.13423 
L 169.010097 131.366775 
L 166.662661 131.366775 
L 168.561777 132.746563 
L 167.836379 134.979107 
L 169.735495 133.599319 
L 171.634611 134.979107 
L 170.909213 132.746563 
L 172.808329 131.366775 
L 170.460893 131.366775 
z
" style="fill:#dc143c;stroke:#dc143c;"/>
    <path clip-path="url(#p5c8db81f2b)" d="M 338.546706 137.052808 
L 337.35656 140.7157 
L 333.505167 140.7157 
L 336.621009 142.979492 
L 335.430863 146.642385 
L 338.546706 144.378593 
L 341.662548 146.642385 
L 340.472402 142.979492 
L 343.588244 140.7157 
L 339.736851 140.7157 
z
" style="fill:#dc143c;stroke:#dc143c;"/>
    <path clip-path="url(#p5c8db81f2b)" d="M 234.521733 209.398351 
L 233.590143 212.265489 
L 230.575455 212.265489 
L 233.014389 214.037478 
L 232.082799 216.904617 
L 234.521733 215.132627 
L 236.960666 216.904617 
L 236.029077 214.037478 
L 238.46801 212.265489 
L 235.453322 212.265489 
z
" style="fill:#dc143c;stroke:#dc143c;"/>
    <path clip-path="url(#p5c8db81f2b)" d="M 159.181351 206.904383 
L 158.495389 209.015555 
L 156.275571 209.015555 
L 158.071442 210.320332 
L 157.38548 212.431504 
L 159.181351 211.126728 
L 160.977222 212.431504 
L 160.29126 210.320332 
L 162.087131 209.015555 
L 159.867312 209.015555 
z
" style="fill:#dc143c;stroke:#dc143c;"/>
    <path clip-path="url(#p5c8db81f2b)" d="M 90.578032 188.398979 
L 90.24825 189.413941 
L 89.181056 189.413941 
L 90.044434 190.041222 
L 89.714653 191.056185 
L 90.578032 190.428903 
L 91.44141 191.056185 
L 91.111629 190.041222 
L 91.975008 189.413941 
L 90.907813 189.413941 
z
" style="fill:#dc143c;stroke:#dc143c;"/>
    <path clip-path="url(#p5c8db81f2b)" d="M 445.61429 115.642574 
L 444.206781 119.97444 
L 439.651987 119.97444 
L 443.336893 122.65168 
L 441.929384 126.983546 
L 445.61429 124.306306 
L 449.299195 126.983546 
L 447.891686 122.65168 
L 451.576592 119.97444 
L 447.021798 119.97444 
z
" style="fill:#dc143c;stroke:#dc143c;"/>
    <path clip-path="url(#p5c8db81f2b)" d="M 484.01888 138.437747 
L 482.541175 142.985655 
L 477.759222 142.985655 
L 481.627904 145.796416 
L 480.150199 150.344324 
L 484.01888 147.533562 
L 487.887562 150.344324 
L 486.409857 145.796416 
L 490.278538 142.985655 
L 485.496585 142.985655 
z
" style="fill:#dc143c;stroke:#dc143c;"/>
    <path clip-path="url(#p5c8db81f2b)" d="M 84.929442 191.225914 
L 84.648431 192.090777 
L 83.73906 192.090777 
L 84.474756 192.625292 
L 84.193745 193.490155 
L 84.929442 192.95564 
L 85.665138 193.490155 
L 85.384127 192.625292 
L 86.119824 192.090777 
L 85.210453 192.090777 
z
" style="fill:#dc143c;stroke:#dc143c;"/>
    <path clip-path="url(#p5c8db81f2b)" d="M 120.182176 155.294054 
L 119.667515 156.87802 
L 118.002035 156.87802 
L 119.349436 157.856964 
L 118.834775 159.44093 
L 120.182176 158.461985 
L 121.529578 159.44093 
L 121.014916 157.856964 
L 122.362318 156.87802 
L 120.696838 156.87802 
z
" style="fill:#dc143c;stroke:#dc143c;"/>
    <path clip-path="url(#p5c8db81f2b)" d="M 135.365871 175.77895 
L 134.778547 177.586548 
L 132.877926 177.586548 
L 134.41556 178.703705 
L 133.828236 180.511302 
L 135.365871 179.394145 
L 136.903505 180.511302 
L 136.316181 178.703705 
L 137.853815 177.586548 
L 135.953195 177.586548 
z
" style="fill:#dc143c;stroke:#dc143c;"/>
    <path clip-path="url(#p5c8db81f2b)" d="M 212.909797 127.265288 
L 212.04153 129.937537 
L 209.231762 129.937537 
L 211.504912 131.589077 
L 210.636646 134.261326 
L 212.909797 132.609786 
L 215.182948 134.261326 
L 214.314681 131.589077 
L 216.587832 129.937537 
L 213.778063 129.937537 
z
" style="fill:#dc143c;stroke:#dc143c;"/>
    <path clip-path="url(#p5c8db81f2b)" d="M 211.190728 131.86078 
L 210.327698 134.516913 
L 207.534875 134.516913 
L 209.794317 136.158493 
L 208.931287 138.814626 
L 211.190728 137.173046 
L 213.45017 138.814626 
L 212.58714 136.158493 
L 214.846582 134.516913 
L 212.053758 134.516913 
z
" style="fill:#dc143c;stroke:#dc143c;"/>
    <path clip-path="url(#p5c8db81f2b)" d="M 301.153123 127.44704 
L 300.048928 130.845404 
L 296.475676 130.845404 
L 299.366498 132.945709 
L 298.262302 136.344073 
L 301.153123 134.243769 
L 304.043945 136.344073 
L 302.939749 132.945709 
L 305.830571 130.845404 
L 302.257319 130.845404 
z
" style="fill:#dc143c;stroke:#dc143c;"/>
    <path clip-path="url(#p5c8db81f2b)" d="M 231.484994 128.254299 
L 230.56204 131.094861 
L 227.575296 131.094861 
L 229.991622 132.850425 
L 229.068668 135.690986 
L 231.484994 133.935423 
L 233.90132 135.690986 
L 232.978366 132.850425 
L 235.394692 131.094861 
L 232.407948 131.094861 
z
" style="fill:#dc143c;stroke:#dc143c;"/>
    <path clip-path="url(#p5c8db81f2b)" d="M 680.238636 128.824129 
L 678.444647 134.345462 
L 672.639174 134.345462 
L 677.3359 137.757833 
L 675.54191 143.279166 
L 680.238636 139.866794 
L 684.935363 143.279166 
L 683.141373 137.757833 
L 687.838099 134.345462 
L 682.032626 134.345462 
z
" style="fill:#dc143c;stroke:#dc143c;"/>
    <path clip-path="url(#p5c8db81f2b)" d="M 571.900793 126.073233 
L 570.273812 131.080566 
L 565.008791 131.080566 
L 569.268283 134.175268 
L 567.641302 139.1826 
L 571.900793 136.087898 
L 576.160285 139.1826 
L 574.533304 134.175268 
L 578.792795 131.080566 
L 573.527774 131.080566 
z
" style="fill:#dc143c;stroke:#dc143c;"/>
    <path clip-path="url(#p5c8db81f2b)" d="M 92.919405 130.815189 
L 92.571406 131.88622 
L 91.445259 131.88622 
L 92.356331 132.548153 
L 92.008332 133.619183 
L 92.919405 132.95725 
L 93.830478 133.619183 
L 93.482479 132.548153 
L 94.393552 131.88622 
L 93.267404 131.88622 
z
" style="fill:#dc143c;stroke:#dc143c;"/>
    <path clip-path="url(#p5c8db81f2b)" d="M 209.251271 133.499178 
L 208.394187 136.137011 
L 205.620605 136.137011 
L 207.86448 137.767282 
L 207.007396 140.405115 
L 209.251271 138.774844 
L 211.495146 140.405115 
L 210.638062 137.767282 
L 212.881936 136.137011 
L 210.108355 136.137011 
z
" style="fill:#dc143c;stroke:#dc143c;"/>
    <path clip-path="url(#p5c8db81f2b)" d="M 105.929436 157.719169 
L 105.493875 159.059687 
L 104.084371 159.059687 
L 105.224684 159.888172 
L 104.789123 161.22869 
L 105.929436 160.400205 
L 107.069748 161.22869 
L 106.634188 159.888172 
L 107.7745 159.059687 
L 106.364996 159.059687 
z
" style="fill:#dc143c;stroke:#dc143c;"/>
    <path clip-path="url(#p5c8db81f2b)" d="M 326.704685 134.937783 
L 325.541071 138.519018 
L 321.775538 138.519018 
L 324.821918 140.732343 
L 323.658305 144.313577 
L 326.704685 142.100253 
L 329.751065 144.313577 
L 328.587451 140.732343 
L 331.633832 138.519018 
L 327.868299 138.519018 
z
" style="fill:#dc143c;stroke:#dc143c;"/>
    <path clip-path="url(#p5c8db81f2b)" d="M 182.13177 129.43021 
L 181.362631 131.797377 
L 178.873644 131.797377 
L 180.887277 133.260366 
L 180.118138 135.627533 
L 182.13177 134.164544 
L 184.145402 135.627533 
L 183.376263 133.260366 
L 185.389895 131.797377 
L 182.900909 131.797377 
z
" style="fill:#dc143c;stroke:#dc143c;"/>
    <path clip-path="url(#p5c8db81f2b)" d="M 108.382386 161.351212 
L 107.93222 162.736679 
L 106.475454 162.736679 
L 107.654002 163.592945 
L 107.203837 164.978412 
L 108.382386 164.122146 
L 109.560934 164.978412 
L 109.110769 163.592945 
L 110.289317 162.736679 
L 108.832551 162.736679 
z
" style="fill:#dc143c;stroke:#dc143c;"/>
    <path clip-path="url(#p5c8db81f2b)" d="M 389.868231 257.310871 
L 388.569348 261.308422 
L 384.366074 261.308422 
L 387.766594 263.779044 
L 386.467711 267.776596 
L 389.868231 265.305973 
L 393.268751 267.776596 
L 391.969868 263.779044 
L 395.370388 261.308422 
L 391.167114 261.308422 
z
" style="fill:#dc143c;stroke:#dc143c;"/>
    <path clip-path="url(#p5c8db81f2b)" d="M 363.56258 222.740404 
L 362.318245 226.570076 
L 358.29149 226.570076 
L 361.549203 228.936943 
L 360.304867 232.766615 
L 363.56258 230.399747 
L 366.820293 232.766615 
L 365.575958 228.936943 
L 368.833671 226.570076 
L 364.806916 226.570076 
z
" style="fill:#dc143c;stroke:#dc143c;"/>
   </g>
   <g id="patch_3">
    <path d="M 41.075 299.151562 
L 41.075 27.351562 
" style="fill:none;stroke:#000000;stroke-linecap:square;stroke-linejoin:miter;stroke-width:0.8;"/>
   </g>
   <g id="patch_4">
    <path d="M 41.075 299.151562 
L 710.675 299.151562 
" style="fill:none;stroke:#000000;stroke-linecap:square;stroke-linejoin:miter;stroke-width:0.8;"/>
   </g>
   <g id="legend_1">
    <g id="patch_5">
     <path d="M 11.2 371.123812 
L 744.55 371.123812 
Q 746.55 371.123812 746.55 369.123812 
L 746.55 340.767562 
Q 746.55 338.767562 744.55 338.767562 
L 11.2 338.767562 
Q 9.2 338.767562 9.2 340.767562 
L 9.2 369.123812 
Q 9.2 371.123812 11.2 371.123812 
z
" style="fill:#4c4c4c;opacity:0.5;stroke:#4c4c4c;stroke-linejoin:miter;"/>
    </g>
    <g id="patch_6">
     <path d="M 9.2 369.123812 
L 742.55 369.123812 
Q 744.55 369.123812 744.55 367.123812 
L 744.55 338.767562 
Q 744.55 336.767562 742.55 336.767562 
L 9.2 336.767562 
Q 7.2 336.767562 7.2 338.767562 
L 7.2 367.123812 
Q 7.2 369.123812 9.2 369.123812 
z
" style="fill:#ffffff;stroke:#cccccc;stroke-linejoin:miter;"/>
    </g>
    <g id="PathCollection_5">
     <defs>
      <path d="M -0 5.99671 
L 5.99671 -5.99671 
L -5.99671 -5.99671 
z
" id="m5a4c35f0ee" style="stroke:#008000;"/>
     </defs>
     <g>
      <use style="fill:#008000;stroke:#008000;" x="21.2" xlink:href="#m5a4c35f0ee" y="345.741"/>
     </g>
    </g>
    <g id="text_20">
     <!-- Agriculture, Forestry, Fishing and Hunting -->
     <g transform="translate(39.2 348.366)scale(0.1 -0.1)">
      <defs>
       <path d="M 2188 4044 
L 1331 1722 
L 3047 1722 
L 2188 4044 
z
M 1831 4666 
L 2547 4666 
L 4325 0 
L 3669 0 
L 3244 1197 
L 1141 1197 
L 716 0 
L 50 0 
L 1831 4666 
z
" id="DejaVuSans-41" transform="scale(0.015625)"/>
       <path d="M 2906 1791 
Q 2906 2416 2648 2759 
Q 2391 3103 1925 3103 
Q 1463 3103 1205 2759 
Q 947 2416 947 1791 
Q 947 1169 1205 825 
Q 1463 481 1925 481 
Q 2391 481 2648 825 
Q 2906 1169 2906 1791 
z
M 3481 434 
Q 3481 -459 3084 -895 
Q 2688 -1331 1869 -1331 
Q 1566 -1331 1297 -1286 
Q 1028 -1241 775 -1147 
L 775 -588 
Q 1028 -725 1275 -790 
Q 1522 -856 1778 -856 
Q 2344 -856 2625 -561 
Q 2906 -266 2906 331 
L 2906 616 
Q 2728 306 2450 153 
Q 2172 0 1784 0 
Q 1141 0 747 490 
Q 353 981 353 1791 
Q 353 2603 747 3093 
Q 1141 3584 1784 3584 
Q 2172 3584 2450 3431 
Q 2728 3278 2906 2969 
L 2906 3500 
L 3481 3500 
L 3481 434 
z
" id="DejaVuSans-67" transform="scale(0.015625)"/>
       <path d="M 2631 2963 
Q 2534 3019 2420 3045 
Q 2306 3072 2169 3072 
Q 1681 3072 1420 2755 
Q 1159 2438 1159 1844 
L 1159 0 
L 581 0 
L 581 3500 
L 1159 3500 
L 1159 2956 
Q 1341 3275 1631 3429 
Q 1922 3584 2338 3584 
Q 2397 3584 2469 3576 
Q 2541 3569 2628 3553 
L 2631 2963 
z
" id="DejaVuSans-72" transform="scale(0.015625)"/>
       <path d="M 603 3500 
L 1178 3500 
L 1178 0 
L 603 0 
L 603 3500 
z
M 603 4863 
L 1178 4863 
L 1178 4134 
L 603 4134 
L 603 4863 
z
" id="DejaVuSans-69" transform="scale(0.015625)"/>
       <path d="M 3122 3366 
L 3122 2828 
Q 2878 2963 2633 3030 
Q 2388 3097 2138 3097 
Q 1578 3097 1268 2742 
Q 959 2388 959 1747 
Q 959 1106 1268 751 
Q 1578 397 2138 397 
Q 2388 397 2633 464 
Q 2878 531 3122 666 
L 3122 134 
Q 2881 22 2623 -34 
Q 2366 -91 2075 -91 
Q 1284 -91 818 406 
Q 353 903 353 1747 
Q 353 2603 823 3093 
Q 1294 3584 2113 3584 
Q 2378 3584 2631 3529 
Q 2884 3475 3122 3366 
z
" id="DejaVuSans-63" transform="scale(0.015625)"/>
       <path d="M 544 1381 
L 544 3500 
L 1119 3500 
L 1119 1403 
Q 1119 906 1312 657 
Q 1506 409 1894 409 
Q 2359 409 2629 706 
Q 2900 1003 2900 1516 
L 2900 3500 
L 3475 3500 
L 3475 0 
L 2900 0 
L 2900 538 
Q 2691 219 2414 64 
Q 2138 -91 1772 -91 
Q 1169 -91 856 284 
Q 544 659 544 1381 
z
M 1991 3584 
L 1991 3584 
z
" id="DejaVuSans-75" transform="scale(0.015625)"/>
       <path d="M 603 4863 
L 1178 4863 
L 1178 0 
L 603 0 
L 603 4863 
z
" id="DejaVuSans-6c" transform="scale(0.015625)"/>
       <path d="M 1172 4494 
L 1172 3500 
L 2356 3500 
L 2356 3053 
L 1172 3053 
L 1172 1153 
Q 1172 725 1289 603 
Q 1406 481 1766 481 
L 2356 481 
L 2356 0 
L 1766 0 
Q 1100 0 847 248 
Q 594 497 594 1153 
L 594 3053 
L 172 3053 
L 172 3500 
L 594 3500 
L 594 4494 
L 1172 4494 
z
" id="DejaVuSans-74" transform="scale(0.015625)"/>
       <path d="M 3597 1894 
L 3597 1613 
L 953 1613 
Q 991 1019 1311 708 
Q 1631 397 2203 397 
Q 2534 397 2845 478 
Q 3156 559 3463 722 
L 3463 178 
Q 3153 47 2828 -22 
Q 2503 -91 2169 -91 
Q 1331 -91 842 396 
Q 353 884 353 1716 
Q 353 2575 817 3079 
Q 1281 3584 2069 3584 
Q 2775 3584 3186 3129 
Q 3597 2675 3597 1894 
z
M 3022 2063 
Q 3016 2534 2758 2815 
Q 2500 3097 2075 3097 
Q 1594 3097 1305 2825 
Q 1016 2553 972 2059 
L 3022 2063 
z
" id="DejaVuSans-65" transform="scale(0.015625)"/>
       <path d="M 750 794 
L 1409 794 
L 1409 256 
L 897 -744 
L 494 -744 
L 750 256 
L 750 794 
z
" id="DejaVuSans-2c" transform="scale(0.015625)"/>
       <path id="DejaVuSans-20" transform="scale(0.015625)"/>
       <path d="M 628 4666 
L 3309 4666 
L 3309 4134 
L 1259 4134 
L 1259 2759 
L 3109 2759 
L 3109 2228 
L 1259 2228 
L 1259 0 
L 628 0 
L 628 4666 
z
" id="DejaVuSans-46" transform="scale(0.015625)"/>
       <path d="M 1959 3097 
Q 1497 3097 1228 2736 
Q 959 2375 959 1747 
Q 959 1119 1226 758 
Q 1494 397 1959 397 
Q 2419 397 2687 759 
Q 2956 1122 2956 1747 
Q 2956 2369 2687 2733 
Q 2419 3097 1959 3097 
z
M 1959 3584 
Q 2709 3584 3137 3096 
Q 3566 2609 3566 1747 
Q 3566 888 3137 398 
Q 2709 -91 1959 -91 
Q 1206 -91 779 398 
Q 353 888 353 1747 
Q 353 2609 779 3096 
Q 1206 3584 1959 3584 
z
" id="DejaVuSans-6f" transform="scale(0.015625)"/>
       <path d="M 2834 3397 
L 2834 2853 
Q 2591 2978 2328 3040 
Q 2066 3103 1784 3103 
Q 1356 3103 1142 2972 
Q 928 2841 928 2578 
Q 928 2378 1081 2264 
Q 1234 2150 1697 2047 
L 1894 2003 
Q 2506 1872 2764 1633 
Q 3022 1394 3022 966 
Q 3022 478 2636 193 
Q 2250 -91 1575 -91 
Q 1294 -91 989 -36 
Q 684 19 347 128 
L 347 722 
Q 666 556 975 473 
Q 1284 391 1588 391 
Q 1994 391 2212 530 
Q 2431 669 2431 922 
Q 2431 1156 2273 1281 
Q 2116 1406 1581 1522 
L 1381 1569 
Q 847 1681 609 1914 
Q 372 2147 372 2553 
Q 372 3047 722 3315 
Q 1072 3584 1716 3584 
Q 2034 3584 2315 3537 
Q 2597 3491 2834 3397 
z
" id="DejaVuSans-73" transform="scale(0.015625)"/>
       <path d="M 2059 -325 
Q 1816 -950 1584 -1140 
Q 1353 -1331 966 -1331 
L 506 -1331 
L 506 -850 
L 844 -850 
Q 1081 -850 1212 -737 
Q 1344 -625 1503 -206 
L 1606 56 
L 191 3500 
L 800 3500 
L 1894 763 
L 2988 3500 
L 3597 3500 
L 2059 -325 
z
" id="DejaVuSans-79" transform="scale(0.015625)"/>
       <path d="M 3513 2113 
L 3513 0 
L 2938 0 
L 2938 2094 
Q 2938 2591 2744 2837 
Q 2550 3084 2163 3084 
Q 1697 3084 1428 2787 
Q 1159 2491 1159 1978 
L 1159 0 
L 581 0 
L 581 4863 
L 1159 4863 
L 1159 2956 
Q 1366 3272 1645 3428 
Q 1925 3584 2291 3584 
Q 2894 3584 3203 3211 
Q 3513 2838 3513 2113 
z
" id="DejaVuSans-68" transform="scale(0.015625)"/>
       <path d="M 3513 2113 
L 3513 0 
L 2938 0 
L 2938 2094 
Q 2938 2591 2744 2837 
Q 2550 3084 2163 3084 
Q 1697 3084 1428 2787 
Q 1159 2491 1159 1978 
L 1159 0 
L 581 0 
L 581 3500 
L 1159 3500 
L 1159 2956 
Q 1366 3272 1645 3428 
Q 1925 3584 2291 3584 
Q 2894 3584 3203 3211 
Q 3513 2838 3513 2113 
z
" id="DejaVuSans-6e" transform="scale(0.015625)"/>
       <path d="M 2194 1759 
Q 1497 1759 1228 1600 
Q 959 1441 959 1056 
Q 959 750 1161 570 
Q 1363 391 1709 391 
Q 2188 391 2477 730 
Q 2766 1069 2766 1631 
L 2766 1759 
L 2194 1759 
z
M 3341 1997 
L 3341 0 
L 2766 0 
L 2766 531 
Q 2569 213 2275 61 
Q 1981 -91 1556 -91 
Q 1019 -91 701 211 
Q 384 513 384 1019 
Q 384 1609 779 1909 
Q 1175 2209 1959 2209 
L 2766 2209 
L 2766 2266 
Q 2766 2663 2505 2880 
Q 2244 3097 1772 3097 
Q 1472 3097 1187 3025 
Q 903 2953 641 2809 
L 641 3341 
Q 956 3463 1253 3523 
Q 1550 3584 1831 3584 
Q 2591 3584 2966 3190 
Q 3341 2797 3341 1997 
z
" id="DejaVuSans-61" transform="scale(0.015625)"/>
       <path d="M 2906 2969 
L 2906 4863 
L 3481 4863 
L 3481 0 
L 2906 0 
L 2906 525 
Q 2725 213 2448 61 
Q 2172 -91 1784 -91 
Q 1150 -91 751 415 
Q 353 922 353 1747 
Q 353 2572 751 3078 
Q 1150 3584 1784 3584 
Q 2172 3584 2448 3432 
Q 2725 3281 2906 2969 
z
M 947 1747 
Q 947 1113 1208 752 
Q 1469 391 1925 391 
Q 2381 391 2643 752 
Q 2906 1113 2906 1747 
Q 2906 2381 2643 2742 
Q 2381 3103 1925 3103 
Q 1469 3103 1208 2742 
Q 947 2381 947 1747 
z
" id="DejaVuSans-64" transform="scale(0.015625)"/>
       <path d="M 628 4666 
L 1259 4666 
L 1259 2753 
L 3553 2753 
L 3553 4666 
L 4184 4666 
L 4184 0 
L 3553 0 
L 3553 2222 
L 1259 2222 
L 1259 0 
L 628 0 
L 628 4666 
z
" id="DejaVuSans-48" transform="scale(0.015625)"/>
      </defs>
      <use xlink:href="#DejaVuSans-41"/>
      <use x="68.408203" xlink:href="#DejaVuSans-67"/>
      <use x="131.884766" xlink:href="#DejaVuSans-72"/>
      <use x="172.998047" xlink:href="#DejaVuSans-69"/>
      <use x="200.78125" xlink:href="#DejaVuSans-63"/>
      <use x="255.761719" xlink:href="#DejaVuSans-75"/>
      <use x="319.140625" xlink:href="#DejaVuSans-6c"/>
      <use x="346.923828" xlink:href="#DejaVuSans-74"/>
      <use x="386.132812" xlink:href="#DejaVuSans-75"/>
      <use x="449.511719" xlink:href="#DejaVuSans-72"/>
      <use x="488.375" xlink:href="#DejaVuSans-65"/>
      <use x="549.898438" xlink:href="#DejaVuSans-2c"/>
      <use x="581.685547" xlink:href="#DejaVuSans-20"/>
      <use x="613.472656" xlink:href="#DejaVuSans-46"/>
      <use x="667.367188" xlink:href="#DejaVuSans-6f"/>
      <use x="728.548828" xlink:href="#DejaVuSans-72"/>
      <use x="767.412109" xlink:href="#DejaVuSans-65"/>
      <use x="828.935547" xlink:href="#DejaVuSans-73"/>
      <use x="881.035156" xlink:href="#DejaVuSans-74"/>
      <use x="920.244141" xlink:href="#DejaVuSans-72"/>
      <use x="961.357422" xlink:href="#DejaVuSans-79"/>
      <use x="1020.537109" xlink:href="#DejaVuSans-2c"/>
      <use x="1052.324219" xlink:href="#DejaVuSans-20"/>
      <use x="1084.111328" xlink:href="#DejaVuSans-46"/>
      <use x="1134.380859" xlink:href="#DejaVuSans-69"/>
      <use x="1162.164062" xlink:href="#DejaVuSans-73"/>
      <use x="1214.263672" xlink:href="#DejaVuSans-68"/>
      <use x="1277.642578" xlink:href="#DejaVuSans-69"/>
      <use x="1305.425781" xlink:href="#DejaVuSans-6e"/>
      <use x="1368.804688" xlink:href="#DejaVuSans-67"/>
      <use x="1432.28125" xlink:href="#DejaVuSans-20"/>
      <use x="1464.068359" xlink:href="#DejaVuSans-61"/>
      <use x="1525.347656" xlink:href="#DejaVuSans-6e"/>
      <use x="1588.726562" xlink:href="#DejaVuSans-64"/>
      <use x="1652.203125" xlink:href="#DejaVuSans-20"/>
      <use x="1683.990234" xlink:href="#DejaVuSans-48"/>
      <use x="1759.185547" xlink:href="#DejaVuSans-75"/>
      <use x="1822.564453" xlink:href="#DejaVuSans-6e"/>
      <use x="1885.943359" xlink:href="#DejaVuSans-74"/>
      <use x="1925.152344" xlink:href="#DejaVuSans-69"/>
      <use x="1952.935547" xlink:href="#DejaVuSans-6e"/>
      <use x="2016.314453" xlink:href="#DejaVuSans-67"/>
     </g>
    </g>
    <g id="PathCollection_6">
     <defs>
      <path d="M 0 2.793089 
C 0.740736 2.793089 1.451233 2.498792 1.975012 1.975012 
C 2.498792 1.451233 2.793089 0.740736 2.793089 0 
C 2.793089 -0.740736 2.498792 -1.451233 1.975012 -1.975012 
C 1.451233 -2.498792 0.740736 -2.793089 0 -2.793089 
C -0.740736 -2.793089 -1.451233 -2.498792 -1.975012 -1.975012 
C -2.498792 -1.451233 -2.793089 -0.740736 -2.793089 0 
C -2.793089 0.740736 -2.498792 1.451233 -1.975012 1.975012 
C -1.451233 2.498792 -0.740736 2.793089 0 2.793089 
z
" id="m9bf74398df" style="stroke:#ffa500;"/>
     </defs>
     <g>
      <use style="fill:#ffa500;stroke:#ffa500;" x="21.2" xlink:href="#m9bf74398df" y="360.419125"/>
     </g>
    </g>
    <g id="text_21">
     <!-- Manufacturing: Food, Beverages, Textiles and Apparels -->
     <g transform="translate(39.2 363.044125)scale(0.1 -0.1)">
      <defs>
       <path d="M 628 4666 
L 1569 4666 
L 2759 1491 
L 3956 4666 
L 4897 4666 
L 4897 0 
L 4281 0 
L 4281 4097 
L 3078 897 
L 2444 897 
L 1241 4097 
L 1241 0 
L 628 0 
L 628 4666 
z
" id="DejaVuSans-4d" transform="scale(0.015625)"/>
       <path d="M 2375 4863 
L 2375 4384 
L 1825 4384 
Q 1516 4384 1395 4259 
Q 1275 4134 1275 3809 
L 1275 3500 
L 2222 3500 
L 2222 3053 
L 1275 3053 
L 1275 0 
L 697 0 
L 697 3053 
L 147 3053 
L 147 3500 
L 697 3500 
L 697 3744 
Q 697 4328 969 4595 
Q 1241 4863 1831 4863 
L 2375 4863 
z
" id="DejaVuSans-66" transform="scale(0.015625)"/>
       <path d="M 750 794 
L 1409 794 
L 1409 0 
L 750 0 
L 750 794 
z
M 750 3309 
L 1409 3309 
L 1409 2516 
L 750 2516 
L 750 3309 
z
" id="DejaVuSans-3a" transform="scale(0.015625)"/>
       <path d="M 1259 2228 
L 1259 519 
L 2272 519 
Q 2781 519 3026 730 
Q 3272 941 3272 1375 
Q 3272 1813 3026 2020 
Q 2781 2228 2272 2228 
L 1259 2228 
z
M 1259 4147 
L 1259 2741 
L 2194 2741 
Q 2656 2741 2882 2914 
Q 3109 3088 3109 3444 
Q 3109 3797 2882 3972 
Q 2656 4147 2194 4147 
L 1259 4147 
z
M 628 4666 
L 2241 4666 
Q 2963 4666 3353 4366 
Q 3744 4066 3744 3513 
Q 3744 3084 3544 2831 
Q 3344 2578 2956 2516 
Q 3422 2416 3680 2098 
Q 3938 1781 3938 1306 
Q 3938 681 3513 340 
Q 3088 0 2303 0 
L 628 0 
L 628 4666 
z
" id="DejaVuSans-42" transform="scale(0.015625)"/>
       <path d="M 191 3500 
L 800 3500 
L 1894 563 
L 2988 3500 
L 3597 3500 
L 2284 0 
L 1503 0 
L 191 3500 
z
" id="DejaVuSans-76" transform="scale(0.015625)"/>
       <path d="M -19 4666 
L 3928 4666 
L 3928 4134 
L 2272 4134 
L 2272 0 
L 1638 0 
L 1638 4134 
L -19 4134 
L -19 4666 
z
" id="DejaVuSans-54" transform="scale(0.015625)"/>
       <path d="M 3513 3500 
L 2247 1797 
L 3578 0 
L 2900 0 
L 1881 1375 
L 863 0 
L 184 0 
L 1544 1831 
L 300 3500 
L 978 3500 
L 1906 2253 
L 2834 3500 
L 3513 3500 
z
" id="DejaVuSans-78" transform="scale(0.015625)"/>
       <path d="M 1159 525 
L 1159 -1331 
L 581 -1331 
L 581 3500 
L 1159 3500 
L 1159 2969 
Q 1341 3281 1617 3432 
Q 1894 3584 2278 3584 
Q 2916 3584 3314 3078 
Q 3713 2572 3713 1747 
Q 3713 922 3314 415 
Q 2916 -91 2278 -91 
Q 1894 -91 1617 61 
Q 1341 213 1159 525 
z
M 3116 1747 
Q 3116 2381 2855 2742 
Q 2594 3103 2138 3103 
Q 1681 3103 1420 2742 
Q 1159 2381 1159 1747 
Q 1159 1113 1420 752 
Q 1681 391 2138 391 
Q 2594 391 2855 752 
Q 3116 1113 3116 1747 
z
" id="DejaVuSans-70" transform="scale(0.015625)"/>
      </defs>
      <use xlink:href="#DejaVuSans-4d"/>
      <use x="86.279297" xlink:href="#DejaVuSans-61"/>
      <use x="147.558594" xlink:href="#DejaVuSans-6e"/>
      <use x="210.9375" xlink:href="#DejaVuSans-75"/>
      <use x="274.316406" xlink:href="#DejaVuSans-66"/>
      <use x="309.521484" xlink:href="#DejaVuSans-61"/>
      <use x="370.800781" xlink:href="#DejaVuSans-63"/>
      <use x="425.78125" xlink:href="#DejaVuSans-74"/>
      <use x="464.990234" xlink:href="#DejaVuSans-75"/>
      <use x="528.369141" xlink:href="#DejaVuSans-72"/>
      <use x="569.482422" xlink:href="#DejaVuSans-69"/>
      <use x="597.265625" xlink:href="#DejaVuSans-6e"/>
      <use x="660.644531" xlink:href="#DejaVuSans-67"/>
      <use x="724.121094" xlink:href="#DejaVuSans-3a"/>
      <use x="757.8125" xlink:href="#DejaVuSans-20"/>
      <use x="789.599609" xlink:href="#DejaVuSans-46"/>
      <use x="843.494141" xlink:href="#DejaVuSans-6f"/>
      <use x="904.675781" xlink:href="#DejaVuSans-6f"/>
      <use x="965.857422" xlink:href="#DejaVuSans-64"/>
      <use x="1029.333984" xlink:href="#DejaVuSans-2c"/>
      <use x="1061.121094" xlink:href="#DejaVuSans-20"/>
      <use x="1092.908203" xlink:href="#DejaVuSans-42"/>
      <use x="1161.511719" xlink:href="#DejaVuSans-65"/>
      <use x="1223.035156" xlink:href="#DejaVuSans-76"/>
      <use x="1282.214844" xlink:href="#DejaVuSans-65"/>
      <use x="1343.738281" xlink:href="#DejaVuSans-72"/>
      <use x="1384.851562" xlink:href="#DejaVuSans-61"/>
      <use x="1446.130859" xlink:href="#DejaVuSans-67"/>
      <use x="1509.607422" xlink:href="#DejaVuSans-65"/>
      <use x="1571.130859" xlink:href="#DejaVuSans-73"/>
      <use x="1623.230469" xlink:href="#DejaVuSans-2c"/>
      <use x="1655.017578" xlink:href="#DejaVuSans-20"/>
      <use x="1686.804688" xlink:href="#DejaVuSans-54"/>
      <use x="1730.888672" xlink:href="#DejaVuSans-65"/>
      <use x="1790.662109" xlink:href="#DejaVuSans-78"/>
      <use x="1849.841797" xlink:href="#DejaVuSans-74"/>
      <use x="1889.050781" xlink:href="#DejaVuSans-69"/>
      <use x="1916.833984" xlink:href="#DejaVuSans-6c"/>
      <use x="1944.617188" xlink:href="#DejaVuSans-65"/>
      <use x="2006.140625" xlink:href="#DejaVuSans-73"/>
      <use x="2058.240234" xlink:href="#DejaVuSans-20"/>
      <use x="2090.027344" xlink:href="#DejaVuSans-61"/>
      <use x="2151.306641" xlink:href="#DejaVuSans-6e"/>
      <use x="2214.685547" xlink:href="#DejaVuSans-64"/>
      <use x="2278.162109" xlink:href="#DejaVuSans-20"/>
      <use x="2309.949219" xlink:href="#DejaVuSans-41"/>
      <use x="2378.357422" xlink:href="#DejaVuSans-70"/>
      <use x="2441.833984" xlink:href="#DejaVuSans-70"/>
      <use x="2505.310547" xlink:href="#DejaVuSans-61"/>
      <use x="2566.589844" xlink:href="#DejaVuSans-72"/>
      <use x="2605.453125" xlink:href="#DejaVuSans-65"/>
      <use x="2666.976562" xlink:href="#DejaVuSans-6c"/>
      <use x="2694.759766" xlink:href="#DejaVuSans-73"/>
     </g>
    </g>
    <g id="PathCollection_7">
     <defs>
      <path d="M 0 -4.957346 
L -4.293188 -2.478673 
L -4.293188 2.478673 
L -0 4.957346 
L 4.293188 2.478673 
L 4.293188 -2.478673 
z
" id="m960ee6e258" style="stroke:#000080;"/>
     </defs>
     <g>
      <use style="fill:#000080;stroke:#000080;" x="343.8875" xlink:href="#m960ee6e258" y="345.741"/>
     </g>
    </g>
    <g id="text_22">
     <!-- Manufacturing: Wood products, Petroleum and Coal, Chemicals and Plastics -->
     <g transform="translate(361.8875 348.366)scale(0.1 -0.1)">
      <defs>
       <path d="M 213 4666 
L 850 4666 
L 1831 722 
L 2809 4666 
L 3519 4666 
L 4500 722 
L 5478 4666 
L 6119 4666 
L 4947 0 
L 4153 0 
L 3169 4050 
L 2175 0 
L 1381 0 
L 213 4666 
z
" id="DejaVuSans-57" transform="scale(0.015625)"/>
       <path d="M 1259 4147 
L 1259 2394 
L 2053 2394 
Q 2494 2394 2734 2622 
Q 2975 2850 2975 3272 
Q 2975 3691 2734 3919 
Q 2494 4147 2053 4147 
L 1259 4147 
z
M 628 4666 
L 2053 4666 
Q 2838 4666 3239 4311 
Q 3641 3956 3641 3272 
Q 3641 2581 3239 2228 
Q 2838 1875 2053 1875 
L 1259 1875 
L 1259 0 
L 628 0 
L 628 4666 
z
" id="DejaVuSans-50" transform="scale(0.015625)"/>
       <path d="M 3328 2828 
Q 3544 3216 3844 3400 
Q 4144 3584 4550 3584 
Q 5097 3584 5394 3201 
Q 5691 2819 5691 2113 
L 5691 0 
L 5113 0 
L 5113 2094 
Q 5113 2597 4934 2840 
Q 4756 3084 4391 3084 
Q 3944 3084 3684 2787 
Q 3425 2491 3425 1978 
L 3425 0 
L 2847 0 
L 2847 2094 
Q 2847 2600 2669 2842 
Q 2491 3084 2119 3084 
Q 1678 3084 1418 2786 
Q 1159 2488 1159 1978 
L 1159 0 
L 581 0 
L 581 3500 
L 1159 3500 
L 1159 2956 
Q 1356 3278 1631 3431 
Q 1906 3584 2284 3584 
Q 2666 3584 2933 3390 
Q 3200 3197 3328 2828 
z
" id="DejaVuSans-6d" transform="scale(0.015625)"/>
       <path d="M 4122 4306 
L 4122 3641 
Q 3803 3938 3442 4084 
Q 3081 4231 2675 4231 
Q 1875 4231 1450 3742 
Q 1025 3253 1025 2328 
Q 1025 1406 1450 917 
Q 1875 428 2675 428 
Q 3081 428 3442 575 
Q 3803 722 4122 1019 
L 4122 359 
Q 3791 134 3420 21 
Q 3050 -91 2638 -91 
Q 1578 -91 968 557 
Q 359 1206 359 2328 
Q 359 3453 968 4101 
Q 1578 4750 2638 4750 
Q 3056 4750 3426 4639 
Q 3797 4528 4122 4306 
z
" id="DejaVuSans-43" transform="scale(0.015625)"/>
      </defs>
      <use xlink:href="#DejaVuSans-4d"/>
      <use x="86.279297" xlink:href="#DejaVuSans-61"/>
      <use x="147.558594" xlink:href="#DejaVuSans-6e"/>
      <use x="210.9375" xlink:href="#DejaVuSans-75"/>
      <use x="274.316406" xlink:href="#DejaVuSans-66"/>
      <use x="309.521484" xlink:href="#DejaVuSans-61"/>
      <use x="370.800781" xlink:href="#DejaVuSans-63"/>
      <use x="425.78125" xlink:href="#DejaVuSans-74"/>
      <use x="464.990234" xlink:href="#DejaVuSans-75"/>
      <use x="528.369141" xlink:href="#DejaVuSans-72"/>
      <use x="569.482422" xlink:href="#DejaVuSans-69"/>
      <use x="597.265625" xlink:href="#DejaVuSans-6e"/>
      <use x="660.644531" xlink:href="#DejaVuSans-67"/>
      <use x="724.121094" xlink:href="#DejaVuSans-3a"/>
      <use x="757.8125" xlink:href="#DejaVuSans-20"/>
      <use x="789.599609" xlink:href="#DejaVuSans-57"/>
      <use x="882.601562" xlink:href="#DejaVuSans-6f"/>
      <use x="943.783203" xlink:href="#DejaVuSans-6f"/>
      <use x="1004.964844" xlink:href="#DejaVuSans-64"/>
      <use x="1068.441406" xlink:href="#DejaVuSans-20"/>
      <use x="1100.228516" xlink:href="#DejaVuSans-70"/>
      <use x="1163.705078" xlink:href="#DejaVuSans-72"/>
      <use x="1202.568359" xlink:href="#DejaVuSans-6f"/>
      <use x="1263.75" xlink:href="#DejaVuSans-64"/>
      <use x="1327.226562" xlink:href="#DejaVuSans-75"/>
      <use x="1390.605469" xlink:href="#DejaVuSans-63"/>
      <use x="1445.585938" xlink:href="#DejaVuSans-74"/>
      <use x="1484.794922" xlink:href="#DejaVuSans-73"/>
      <use x="1536.894531" xlink:href="#DejaVuSans-2c"/>
      <use x="1568.681641" xlink:href="#DejaVuSans-20"/>
      <use x="1600.46875" xlink:href="#DejaVuSans-50"/>
      <use x="1657.146484" xlink:href="#DejaVuSans-65"/>
      <use x="1718.669922" xlink:href="#DejaVuSans-74"/>
      <use x="1757.878906" xlink:href="#DejaVuSans-72"/>
      <use x="1796.742188" xlink:href="#DejaVuSans-6f"/>
      <use x="1857.923828" xlink:href="#DejaVuSans-6c"/>
      <use x="1885.707031" xlink:href="#DejaVuSans-65"/>
      <use x="1947.230469" xlink:href="#DejaVuSans-75"/>
      <use x="2010.609375" xlink:href="#DejaVuSans-6d"/>
      <use x="2108.021484" xlink:href="#DejaVuSans-20"/>
      <use x="2139.808594" xlink:href="#DejaVuSans-61"/>
      <use x="2201.087891" xlink:href="#DejaVuSans-6e"/>
      <use x="2264.466797" xlink:href="#DejaVuSans-64"/>
      <use x="2327.943359" xlink:href="#DejaVuSans-20"/>
      <use x="2359.730469" xlink:href="#DejaVuSans-43"/>
      <use x="2429.554688" xlink:href="#DejaVuSans-6f"/>
      <use x="2490.736328" xlink:href="#DejaVuSans-61"/>
      <use x="2552.015625" xlink:href="#DejaVuSans-6c"/>
      <use x="2579.798828" xlink:href="#DejaVuSans-2c"/>
      <use x="2611.585938" xlink:href="#DejaVuSans-20"/>
      <use x="2643.373047" xlink:href="#DejaVuSans-43"/>
      <use x="2713.197266" xlink:href="#DejaVuSans-68"/>
      <use x="2776.576172" xlink:href="#DejaVuSans-65"/>
      <use x="2838.099609" xlink:href="#DejaVuSans-6d"/>
      <use x="2935.511719" xlink:href="#DejaVuSans-69"/>
      <use x="2963.294922" xlink:href="#DejaVuSans-63"/>
      <use x="3018.275391" xlink:href="#DejaVuSans-61"/>
      <use x="3079.554688" xlink:href="#DejaVuSans-6c"/>
      <use x="3107.337891" xlink:href="#DejaVuSans-73"/>
      <use x="3159.4375" xlink:href="#DejaVuSans-20"/>
      <use x="3191.224609" xlink:href="#DejaVuSans-61"/>
      <use x="3252.503906" xlink:href="#DejaVuSans-6e"/>
      <use x="3315.882812" xlink:href="#DejaVuSans-64"/>
      <use x="3379.359375" xlink:href="#DejaVuSans-20"/>
      <use x="3411.146484" xlink:href="#DejaVuSans-50"/>
      <use x="3471.449219" xlink:href="#DejaVuSans-6c"/>
      <use x="3499.232422" xlink:href="#DejaVuSans-61"/>
      <use x="3560.511719" xlink:href="#DejaVuSans-73"/>
      <use x="3612.611328" xlink:href="#DejaVuSans-74"/>
      <use x="3651.820312" xlink:href="#DejaVuSans-69"/>
      <use x="3679.603516" xlink:href="#DejaVuSans-63"/>
      <use x="3734.583984" xlink:href="#DejaVuSans-73"/>
     </g>
    </g>
    <g id="PathCollection_8">
     <defs>
      <path d="M 0 -3.43144 
L -0.770406 -1.060373 
L -3.263494 -1.060373 
L -1.246544 0.405027 
L -2.01695 2.776094 
L -0 1.310694 
L 2.01695 2.776094 
L 1.246544 0.405027 
L 3.263494 -1.060373 
L 0.770406 -1.060373 
z
" id="mc1b7c15c72" style="stroke:#dc143c;"/>
     </defs>
     <g>
      <use style="fill:#dc143c;stroke:#dc143c;" x="343.8875" xlink:href="#mc1b7c15c72" y="360.419125"/>
     </g>
    </g>
    <g id="text_23">
     <!-- Manufacturing: Metal, Machinery, Electronics, Transportation and Furniture -->
     <g transform="translate(361.8875 363.044125)scale(0.1 -0.1)">
      <defs>
       <path d="M 628 4666 
L 3578 4666 
L 3578 4134 
L 1259 4134 
L 1259 2753 
L 3481 2753 
L 3481 2222 
L 1259 2222 
L 1259 531 
L 3634 531 
L 3634 0 
L 628 0 
L 628 4666 
z
" id="DejaVuSans-45" transform="scale(0.015625)"/>
      </defs>
      <use xlink:href="#DejaVuSans-4d"/>
      <use x="86.279297" xlink:href="#DejaVuSans-61"/>
      <use x="147.558594" xlink:href="#DejaVuSans-6e"/>
      <use x="210.9375" xlink:href="#DejaVuSans-75"/>
      <use x="274.316406" xlink:href="#DejaVuSans-66"/>
      <use x="309.521484" xlink:href="#DejaVuSans-61"/>
      <use x="370.800781" xlink:href="#DejaVuSans-63"/>
      <use x="425.78125" xlink:href="#DejaVuSans-74"/>
      <use x="464.990234" xlink:href="#DejaVuSans-75"/>
      <use x="528.369141" xlink:href="#DejaVuSans-72"/>
      <use x="569.482422" xlink:href="#DejaVuSans-69"/>
      <use x="597.265625" xlink:href="#DejaVuSans-6e"/>
      <use x="660.644531" xlink:href="#DejaVuSans-67"/>
      <use x="724.121094" xlink:href="#DejaVuSans-3a"/>
      <use x="757.8125" xlink:href="#DejaVuSans-20"/>
      <use x="789.599609" xlink:href="#DejaVuSans-4d"/>
      <use x="875.878906" xlink:href="#DejaVuSans-65"/>
      <use x="937.402344" xlink:href="#DejaVuSans-74"/>
      <use x="976.611328" xlink:href="#DejaVuSans-61"/>
      <use x="1037.890625" xlink:href="#DejaVuSans-6c"/>
      <use x="1065.673828" xlink:href="#DejaVuSans-2c"/>
      <use x="1097.460938" xlink:href="#DejaVuSans-20"/>
      <use x="1129.248047" xlink:href="#DejaVuSans-4d"/>
      <use x="1215.527344" xlink:href="#DejaVuSans-61"/>
      <use x="1276.806641" xlink:href="#DejaVuSans-63"/>
      <use x="1331.787109" xlink:href="#DejaVuSans-68"/>
      <use x="1395.166016" xlink:href="#DejaVuSans-69"/>
      <use x="1422.949219" xlink:href="#DejaVuSans-6e"/>
      <use x="1486.328125" xlink:href="#DejaVuSans-65"/>
      <use x="1547.851562" xlink:href="#DejaVuSans-72"/>
      <use x="1588.964844" xlink:href="#DejaVuSans-79"/>
      <use x="1648.144531" xlink:href="#DejaVuSans-2c"/>
      <use x="1679.931641" xlink:href="#DejaVuSans-20"/>
      <use x="1711.71875" xlink:href="#DejaVuSans-45"/>
      <use x="1774.902344" xlink:href="#DejaVuSans-6c"/>
      <use x="1802.685547" xlink:href="#DejaVuSans-65"/>
      <use x="1864.208984" xlink:href="#DejaVuSans-63"/>
      <use x="1919.189453" xlink:href="#DejaVuSans-74"/>
      <use x="1958.398438" xlink:href="#DejaVuSans-72"/>
      <use x="1997.261719" xlink:href="#DejaVuSans-6f"/>
      <use x="2058.443359" xlink:href="#DejaVuSans-6e"/>
      <use x="2121.822266" xlink:href="#DejaVuSans-69"/>
      <use x="2149.605469" xlink:href="#DejaVuSans-63"/>
      <use x="2204.585938" xlink:href="#DejaVuSans-73"/>
      <use x="2256.685547" xlink:href="#DejaVuSans-2c"/>
      <use x="2288.472656" xlink:href="#DejaVuSans-20"/>
      <use x="2320.259766" xlink:href="#DejaVuSans-54"/>
      <use x="2366.59375" xlink:href="#DejaVuSans-72"/>
      <use x="2407.707031" xlink:href="#DejaVuSans-61"/>
      <use x="2468.986328" xlink:href="#DejaVuSans-6e"/>
      <use x="2532.365234" xlink:href="#DejaVuSans-73"/>
      <use x="2584.464844" xlink:href="#DejaVuSans-70"/>
      <use x="2647.941406" xlink:href="#DejaVuSans-6f"/>
      <use x="2709.123047" xlink:href="#DejaVuSans-72"/>
      <use x="2750.236328" xlink:href="#DejaVuSans-74"/>
      <use x="2789.445312" xlink:href="#DejaVuSans-61"/>
      <use x="2850.724609" xlink:href="#DejaVuSans-74"/>
      <use x="2889.933594" xlink:href="#DejaVuSans-69"/>
      <use x="2917.716797" xlink:href="#DejaVuSans-6f"/>
      <use x="2978.898438" xlink:href="#DejaVuSans-6e"/>
      <use x="3042.277344" xlink:href="#DejaVuSans-20"/>
      <use x="3074.064453" xlink:href="#DejaVuSans-61"/>
      <use x="3135.34375" xlink:href="#DejaVuSans-6e"/>
      <use x="3198.722656" xlink:href="#DejaVuSans-64"/>
      <use x="3262.199219" xlink:href="#DejaVuSans-20"/>
      <use x="3293.986328" xlink:href="#DejaVuSans-46"/>
      <use x="3346.005859" xlink:href="#DejaVuSans-75"/>
      <use x="3409.384766" xlink:href="#DejaVuSans-72"/>
      <use x="3448.748047" xlink:href="#DejaVuSans-6e"/>
      <use x="3512.126953" xlink:href="#DejaVuSans-69"/>
      <use x="3539.910156" xlink:href="#DejaVuSans-74"/>
      <use x="3579.119141" xlink:href="#DejaVuSans-75"/>
      <use x="3642.498047" xlink:href="#DejaVuSans-72"/>
      <use x="3681.361328" xlink:href="#DejaVuSans-65"/>
     </g>
    </g>
   </g>
  </g>
 </g>
 <defs>
  <clipPath id="p5c8db81f2b">
   <rect height="271.8" width="669.6" x="41.075" y="27.351562"/>
  </clipPath>
 </defs>
</svg>
