<?xml version="1.0" encoding="utf-8" standalone="no"?>
<!DOCTYPE svg PUBLIC "-//W3C//DTD SVG 1.1//EN"
  "http://www.w3.org/Graphics/SVG/1.1/DTD/svg11.dtd">
<svg height="581.516719pt" version="1.1" viewBox="0 0 723.765625 581.516719" width="723.765625pt" xmlns="http://www.w3.org/2000/svg" xmlns:xlink="http://www.w3.org/1999/xlink">
 <metadata>
  <rdf:RDF xmlns:cc="http://creativecommons.org/ns#" xmlns:dc="http://purl.org/dc/elements/1.1/" xmlns:rdf="http://www.w3.org/1999/02/22-rdf-syntax-ns#">
   <cc:Work>
    <dc:type rdf:resource="http://purl.org/dc/dcmitype/StillImage"/>
    <dc:date>2021-11-24T15:27:21.026181</dc:date>
    <dc:format>image/svg+xml</dc:format>
    <dc:creator>
     <cc:Agent>
      <dc:title>Matplotlib v3.4.3, https://matplotlib.org/</dc:title>
     </cc:Agent>
    </dc:creator>
   </cc:Work>
  </rdf:RDF>
 </metadata>
 <defs>
  <style type="text/css">*{stroke-linecap:butt;stroke-linejoin:round;}</style>
 </defs>
 <g id="figure_1">
  <g id="patch_1">
   <path d="M 0 581.516719 
L 723.765625 581.516719 
L 723.765625 0 
L 0 0 
z
" style="fill:none;"/>
  </g>
  <g id="axes_1">
   <g id="patch_2">
    <path d="M 46.965625 261.129503 
L 716.565625 261.129503 
L 716.565625 14.038594 
L 46.965625 14.038594 
z
" style="fill:#ffffff;"/>
   </g>
   <g id="PolyCollection_1">
    <defs>
     <path d="M 77.401989 -372.276326 
L 77.401989 -500.755749 
L 93.299668 -495.832599 
L 108.684519 -482.47443 
L 124.582198 -490.61454 
L 140.479878 -455.401631 
L 154.839072 -461.072517 
L 170.736752 -474.579648 
L 186.121603 -492.349495 
L 202.019282 -494.413667 
L 217.404133 -499.779791 
L 233.301812 -508.927101 
L 249.199492 -507.373473 
L 264.584343 -518.608278 
L 280.482022 -518.491502 
L 295.866873 -503.396672 
L 311.764553 -508.511158 
L 327.662232 -480.815823 
L 342.021426 -478.005804 
L 357.919106 -477.816113 
L 373.303957 -501.037761 
L 389.201636 -503.745164 
L 404.586487 -513.981914 
L 420.484167 -517.220633 
L 436.381846 -526.041185 
L 451.766697 -534.866534 
L 467.664377 -511.242585 
L 483.049228 -509.061133 
L 498.946907 -490.750588 
L 514.844586 -456.70351 
L 529.203781 -448.822601 
L 545.10146 -462.98075 
L 560.486311 -481.426483 
L 576.383991 -480.464901 
L 591.768842 -490.785784 
L 607.666521 -489.561368 
L 623.5642 -485.366576 
L 638.949052 -485.115124 
L 654.846731 -470.280905 
L 670.231582 -458.701183 
L 686.129261 -457.000934 
L 686.129261 -349.847482 
L 686.129261 -349.847482 
L 670.231582 -357.035035 
L 654.846731 -361.991587 
L 638.949052 -356.85031 
L 623.5642 -355.803338 
L 607.666521 -359.135155 
L 591.768842 -356.213114 
L 576.383991 -358.136559 
L 560.486311 -357.737107 
L 545.10146 -352.853568 
L 529.203781 -363.943444 
L 514.844586 -353.676443 
L 498.946907 -349.644681 
L 483.049228 -358.316657 
L 467.664377 -356.011394 
L 451.766697 -358.227852 
L 436.381846 -360.4699 
L 420.484167 -358.596288 
L 404.586487 -362.194819 
L 389.201636 -365.0931 
L 373.303957 -363.207057 
L 357.919106 -363.667525 
L 342.021426 -372.494596 
L 327.662232 -360.51116 
L 311.764553 -361.19615 
L 295.866873 -376.517517 
L 280.482022 -373.54633 
L 264.584343 -373.772122 
L 249.199492 -365.25884 
L 233.301812 -364.968432 
L 217.404133 -361.379858 
L 202.019282 -360.408575 
L 186.121603 -361.074949 
L 170.736752 -360.77207 
L 154.839072 -360.416701 
L 140.479878 -360.497545 
L 124.582198 -361.385869 
L 108.684519 -368.342642 
L 93.299668 -369.986947 
L 77.401989 -372.276326 
z
" id="mbd938f29eb" style="stroke:#d8bfd8;"/>
    </defs>
    <g clip-path="url(#p22f7d5c910)">
     <use style="fill:#d8bfd8;stroke:#d8bfd8;" x="0" xlink:href="#mbd938f29eb" y="581.516719"/>
    </g>
   </g>
   <g id="patch_3">
    <path clip-path="url(#p22f7d5c910)" d="M 217.404133 88.88406 
Q 217.404133 152.141422 217.404133 215.398784 
" style="fill:none;stroke:#000000;stroke-linecap:round;"/>
    <path clip-path="url(#p22f7d5c910)" d="M 215.404133 92.88406 
L 217.404133 88.88406 
L 219.404133 92.88406 
L 215.404133 92.88406 
z
" style="stroke:#000000;stroke-linecap:round;"/>
    <path clip-path="url(#p22f7d5c910)" d="M 219.404133 211.398784 
L 217.404133 215.398784 
L 215.404133 211.398784 
L 219.404133 211.398784 
z
" style="stroke:#000000;stroke-linecap:round;"/>
   </g>
   <g id="patch_4">
    <path clip-path="url(#p22f7d5c910)" d="M 591.768842 107.554772 
Q 591.768842 165.517547 591.768842 223.480323 
" style="fill:none;stroke:#000000;stroke-linecap:round;"/>
    <path clip-path="url(#p22f7d5c910)" d="M 589.768842 111.554772 
L 591.768842 107.554772 
L 593.768842 111.554772 
L 589.768842 111.554772 
z
" style="stroke:#000000;stroke-linecap:round;"/>
    <path clip-path="url(#p22f7d5c910)" d="M 593.768842 219.480323 
L 591.768842 223.480323 
L 589.768842 219.480323 
L 593.768842 219.480323 
z
" style="stroke:#000000;stroke-linecap:round;"/>
   </g>
   <g id="matplotlib.axis_1">
    <g id="xtick_1">
     <g id="line2d_1">
      <defs>
       <path d="M 0 0 
L 0 3.5 
" id="mce998c62dd" style="stroke:#000000;stroke-width:0.8;"/>
      </defs>
      <g>
       <use style="stroke:#000000;stroke-width:0.8;" x="124.582198" xlink:href="#mce998c62dd" y="261.129503"/>
      </g>
     </g>
     <g id="text_1">
      <!-- 2017-01 -->
      <g transform="translate(103.690792 275.72794)scale(0.1 -0.1)">
       <defs>
        <path d="M 1228 531 
L 3431 531 
L 3431 0 
L 469 0 
L 469 531 
Q 828 903 1448 1529 
Q 2069 2156 2228 2338 
Q 2531 2678 2651 2914 
Q 2772 3150 2772 3378 
Q 2772 3750 2511 3984 
Q 2250 4219 1831 4219 
Q 1534 4219 1204 4116 
Q 875 4013 500 3803 
L 500 4441 
Q 881 4594 1212 4672 
Q 1544 4750 1819 4750 
Q 2544 4750 2975 4387 
Q 3406 4025 3406 3419 
Q 3406 3131 3298 2873 
Q 3191 2616 2906 2266 
Q 2828 2175 2409 1742 
Q 1991 1309 1228 531 
z
" id="DejaVuSans-32" transform="scale(0.015625)"/>
        <path d="M 2034 4250 
Q 1547 4250 1301 3770 
Q 1056 3291 1056 2328 
Q 1056 1369 1301 889 
Q 1547 409 2034 409 
Q 2525 409 2770 889 
Q 3016 1369 3016 2328 
Q 3016 3291 2770 3770 
Q 2525 4250 2034 4250 
z
M 2034 4750 
Q 2819 4750 3233 4129 
Q 3647 3509 3647 2328 
Q 3647 1150 3233 529 
Q 2819 -91 2034 -91 
Q 1250 -91 836 529 
Q 422 1150 422 2328 
Q 422 3509 836 4129 
Q 1250 4750 2034 4750 
z
" id="DejaVuSans-30" transform="scale(0.015625)"/>
        <path d="M 794 531 
L 1825 531 
L 1825 4091 
L 703 3866 
L 703 4441 
L 1819 4666 
L 2450 4666 
L 2450 531 
L 3481 531 
L 3481 0 
L 794 0 
L 794 531 
z
" id="DejaVuSans-31" transform="scale(0.015625)"/>
        <path d="M 525 4666 
L 3525 4666 
L 3525 4397 
L 1831 0 
L 1172 0 
L 2766 4134 
L 525 4134 
L 525 4666 
z
" id="DejaVuSans-37" transform="scale(0.015625)"/>
        <path d="M 313 2009 
L 1997 2009 
L 1997 1497 
L 313 1497 
L 313 2009 
z
" id="DejaVuSans-2d" transform="scale(0.015625)"/>
       </defs>
       <use xlink:href="#DejaVuSans-32"/>
       <use x="63.623047" xlink:href="#DejaVuSans-30"/>
       <use x="127.246094" xlink:href="#DejaVuSans-31"/>
       <use x="190.869141" xlink:href="#DejaVuSans-37"/>
       <use x="254.492188" xlink:href="#DejaVuSans-2d"/>
       <use x="290.576172" xlink:href="#DejaVuSans-30"/>
       <use x="354.199219" xlink:href="#DejaVuSans-31"/>
      </g>
     </g>
    </g>
    <g id="xtick_2">
     <g id="line2d_2">
      <g>
       <use style="stroke:#000000;stroke-width:0.8;" x="217.404133" xlink:href="#mce998c62dd" y="261.129503"/>
      </g>
     </g>
     <g id="text_2">
      <!-- 2017-07 -->
      <g transform="translate(196.512727 275.72794)scale(0.1 -0.1)">
       <use xlink:href="#DejaVuSans-32"/>
       <use x="63.623047" xlink:href="#DejaVuSans-30"/>
       <use x="127.246094" xlink:href="#DejaVuSans-31"/>
       <use x="190.869141" xlink:href="#DejaVuSans-37"/>
       <use x="254.492188" xlink:href="#DejaVuSans-2d"/>
       <use x="290.576172" xlink:href="#DejaVuSans-30"/>
       <use x="354.199219" xlink:href="#DejaVuSans-37"/>
      </g>
     </g>
    </g>
    <g id="xtick_3">
     <g id="line2d_3">
      <g>
       <use style="stroke:#000000;stroke-width:0.8;" x="311.764553" xlink:href="#mce998c62dd" y="261.129503"/>
      </g>
     </g>
     <g id="text_3">
      <!-- 2018-01 -->
      <g transform="translate(290.873147 275.72794)scale(0.1 -0.1)">
       <defs>
        <path d="M 2034 2216 
Q 1584 2216 1326 1975 
Q 1069 1734 1069 1313 
Q 1069 891 1326 650 
Q 1584 409 2034 409 
Q 2484 409 2743 651 
Q 3003 894 3003 1313 
Q 3003 1734 2745 1975 
Q 2488 2216 2034 2216 
z
M 1403 2484 
Q 997 2584 770 2862 
Q 544 3141 544 3541 
Q 544 4100 942 4425 
Q 1341 4750 2034 4750 
Q 2731 4750 3128 4425 
Q 3525 4100 3525 3541 
Q 3525 3141 3298 2862 
Q 3072 2584 2669 2484 
Q 3125 2378 3379 2068 
Q 3634 1759 3634 1313 
Q 3634 634 3220 271 
Q 2806 -91 2034 -91 
Q 1263 -91 848 271 
Q 434 634 434 1313 
Q 434 1759 690 2068 
Q 947 2378 1403 2484 
z
M 1172 3481 
Q 1172 3119 1398 2916 
Q 1625 2713 2034 2713 
Q 2441 2713 2670 2916 
Q 2900 3119 2900 3481 
Q 2900 3844 2670 4047 
Q 2441 4250 2034 4250 
Q 1625 4250 1398 4047 
Q 1172 3844 1172 3481 
z
" id="DejaVuSans-38" transform="scale(0.015625)"/>
       </defs>
       <use xlink:href="#DejaVuSans-32"/>
       <use x="63.623047" xlink:href="#DejaVuSans-30"/>
       <use x="127.246094" xlink:href="#DejaVuSans-31"/>
       <use x="190.869141" xlink:href="#DejaVuSans-38"/>
       <use x="254.492188" xlink:href="#DejaVuSans-2d"/>
       <use x="290.576172" xlink:href="#DejaVuSans-30"/>
       <use x="354.199219" xlink:href="#DejaVuSans-31"/>
      </g>
     </g>
    </g>
    <g id="xtick_4">
     <g id="line2d_4">
      <g>
       <use style="stroke:#000000;stroke-width:0.8;" x="404.586487" xlink:href="#mce998c62dd" y="261.129503"/>
      </g>
     </g>
     <g id="text_4">
      <!-- 2018-07 -->
      <g transform="translate(383.695081 275.72794)scale(0.1 -0.1)">
       <use xlink:href="#DejaVuSans-32"/>
       <use x="63.623047" xlink:href="#DejaVuSans-30"/>
       <use x="127.246094" xlink:href="#DejaVuSans-31"/>
       <use x="190.869141" xlink:href="#DejaVuSans-38"/>
       <use x="254.492188" xlink:href="#DejaVuSans-2d"/>
       <use x="290.576172" xlink:href="#DejaVuSans-30"/>
       <use x="354.199219" xlink:href="#DejaVuSans-37"/>
      </g>
     </g>
    </g>
    <g id="xtick_5">
     <g id="line2d_5">
      <g>
       <use style="stroke:#000000;stroke-width:0.8;" x="498.946907" xlink:href="#mce998c62dd" y="261.129503"/>
      </g>
     </g>
     <g id="text_5">
      <!-- 2019-01 -->
      <g transform="translate(478.055501 275.72794)scale(0.1 -0.1)">
       <defs>
        <path d="M 703 97 
L 703 672 
Q 941 559 1184 500 
Q 1428 441 1663 441 
Q 2288 441 2617 861 
Q 2947 1281 2994 2138 
Q 2813 1869 2534 1725 
Q 2256 1581 1919 1581 
Q 1219 1581 811 2004 
Q 403 2428 403 3163 
Q 403 3881 828 4315 
Q 1253 4750 1959 4750 
Q 2769 4750 3195 4129 
Q 3622 3509 3622 2328 
Q 3622 1225 3098 567 
Q 2575 -91 1691 -91 
Q 1453 -91 1209 -44 
Q 966 3 703 97 
z
M 1959 2075 
Q 2384 2075 2632 2365 
Q 2881 2656 2881 3163 
Q 2881 3666 2632 3958 
Q 2384 4250 1959 4250 
Q 1534 4250 1286 3958 
Q 1038 3666 1038 3163 
Q 1038 2656 1286 2365 
Q 1534 2075 1959 2075 
z
" id="DejaVuSans-39" transform="scale(0.015625)"/>
       </defs>
       <use xlink:href="#DejaVuSans-32"/>
       <use x="63.623047" xlink:href="#DejaVuSans-30"/>
       <use x="127.246094" xlink:href="#DejaVuSans-31"/>
       <use x="190.869141" xlink:href="#DejaVuSans-39"/>
       <use x="254.492188" xlink:href="#DejaVuSans-2d"/>
       <use x="290.576172" xlink:href="#DejaVuSans-30"/>
       <use x="354.199219" xlink:href="#DejaVuSans-31"/>
      </g>
     </g>
    </g>
    <g id="xtick_6">
     <g id="line2d_6">
      <g>
       <use style="stroke:#000000;stroke-width:0.8;" x="591.768842" xlink:href="#mce998c62dd" y="261.129503"/>
      </g>
     </g>
     <g id="text_6">
      <!-- 2019-07 -->
      <g transform="translate(570.877435 275.72794)scale(0.1 -0.1)">
       <use xlink:href="#DejaVuSans-32"/>
       <use x="63.623047" xlink:href="#DejaVuSans-30"/>
       <use x="127.246094" xlink:href="#DejaVuSans-31"/>
       <use x="190.869141" xlink:href="#DejaVuSans-39"/>
       <use x="254.492188" xlink:href="#DejaVuSans-2d"/>
       <use x="290.576172" xlink:href="#DejaVuSans-30"/>
       <use x="354.199219" xlink:href="#DejaVuSans-37"/>
      </g>
     </g>
    </g>
    <g id="xtick_7">
     <g id="line2d_7">
      <g>
       <use style="stroke:#000000;stroke-width:0.8;" x="686.129261" xlink:href="#mce998c62dd" y="261.129503"/>
      </g>
     </g>
     <g id="text_7">
      <!-- 2020-01 -->
      <g transform="translate(665.237855 275.72794)scale(0.1 -0.1)">
       <use xlink:href="#DejaVuSans-32"/>
       <use x="63.623047" xlink:href="#DejaVuSans-30"/>
       <use x="127.246094" xlink:href="#DejaVuSans-32"/>
       <use x="190.869141" xlink:href="#DejaVuSans-30"/>
       <use x="254.492188" xlink:href="#DejaVuSans-2d"/>
       <use x="290.576172" xlink:href="#DejaVuSans-30"/>
       <use x="354.199219" xlink:href="#DejaVuSans-31"/>
      </g>
     </g>
    </g>
    <g id="xtick_8">
     <g id="line2d_8">
      <defs>
       <path d="M 0 0 
L 0 2 
" id="m5153cb907c" style="stroke:#000000;stroke-width:0.6;"/>
      </defs>
      <g>
       <use style="stroke:#000000;stroke-width:0.6;" x="62.017138" xlink:href="#m5153cb907c" y="261.129503"/>
      </g>
     </g>
    </g>
    <g id="xtick_9">
     <g id="line2d_9">
      <g>
       <use style="stroke:#000000;stroke-width:0.6;" x="77.401989" xlink:href="#m5153cb907c" y="261.129503"/>
      </g>
     </g>
    </g>
    <g id="xtick_10">
     <g id="line2d_10">
      <g>
       <use style="stroke:#000000;stroke-width:0.6;" x="93.299668" xlink:href="#m5153cb907c" y="261.129503"/>
      </g>
     </g>
    </g>
    <g id="xtick_11">
     <g id="line2d_11">
      <g>
       <use style="stroke:#000000;stroke-width:0.6;" x="108.684519" xlink:href="#m5153cb907c" y="261.129503"/>
      </g>
     </g>
    </g>
    <g id="xtick_12">
     <g id="line2d_12">
      <g>
       <use style="stroke:#000000;stroke-width:0.6;" x="140.479878" xlink:href="#m5153cb907c" y="261.129503"/>
      </g>
     </g>
    </g>
    <g id="xtick_13">
     <g id="line2d_13">
      <g>
       <use style="stroke:#000000;stroke-width:0.6;" x="154.839072" xlink:href="#m5153cb907c" y="261.129503"/>
      </g>
     </g>
    </g>
    <g id="xtick_14">
     <g id="line2d_14">
      <g>
       <use style="stroke:#000000;stroke-width:0.6;" x="170.736752" xlink:href="#m5153cb907c" y="261.129503"/>
      </g>
     </g>
    </g>
    <g id="xtick_15">
     <g id="line2d_15">
      <g>
       <use style="stroke:#000000;stroke-width:0.6;" x="186.121603" xlink:href="#m5153cb907c" y="261.129503"/>
      </g>
     </g>
    </g>
    <g id="xtick_16">
     <g id="line2d_16">
      <g>
       <use style="stroke:#000000;stroke-width:0.6;" x="202.019282" xlink:href="#m5153cb907c" y="261.129503"/>
      </g>
     </g>
    </g>
    <g id="xtick_17">
     <g id="line2d_17">
      <g>
       <use style="stroke:#000000;stroke-width:0.6;" x="233.301812" xlink:href="#m5153cb907c" y="261.129503"/>
      </g>
     </g>
    </g>
    <g id="xtick_18">
     <g id="line2d_18">
      <g>
       <use style="stroke:#000000;stroke-width:0.6;" x="249.199492" xlink:href="#m5153cb907c" y="261.129503"/>
      </g>
     </g>
    </g>
    <g id="xtick_19">
     <g id="line2d_19">
      <g>
       <use style="stroke:#000000;stroke-width:0.6;" x="264.584343" xlink:href="#m5153cb907c" y="261.129503"/>
      </g>
     </g>
    </g>
    <g id="xtick_20">
     <g id="line2d_20">
      <g>
       <use style="stroke:#000000;stroke-width:0.6;" x="280.482022" xlink:href="#m5153cb907c" y="261.129503"/>
      </g>
     </g>
    </g>
    <g id="xtick_21">
     <g id="line2d_21">
      <g>
       <use style="stroke:#000000;stroke-width:0.6;" x="295.866873" xlink:href="#m5153cb907c" y="261.129503"/>
      </g>
     </g>
    </g>
    <g id="xtick_22">
     <g id="line2d_22">
      <g>
       <use style="stroke:#000000;stroke-width:0.6;" x="327.662232" xlink:href="#m5153cb907c" y="261.129503"/>
      </g>
     </g>
    </g>
    <g id="xtick_23">
     <g id="line2d_23">
      <g>
       <use style="stroke:#000000;stroke-width:0.6;" x="342.021426" xlink:href="#m5153cb907c" y="261.129503"/>
      </g>
     </g>
    </g>
    <g id="xtick_24">
     <g id="line2d_24">
      <g>
       <use style="stroke:#000000;stroke-width:0.6;" x="357.919106" xlink:href="#m5153cb907c" y="261.129503"/>
      </g>
     </g>
    </g>
    <g id="xtick_25">
     <g id="line2d_25">
      <g>
       <use style="stroke:#000000;stroke-width:0.6;" x="373.303957" xlink:href="#m5153cb907c" y="261.129503"/>
      </g>
     </g>
    </g>
    <g id="xtick_26">
     <g id="line2d_26">
      <g>
       <use style="stroke:#000000;stroke-width:0.6;" x="389.201636" xlink:href="#m5153cb907c" y="261.129503"/>
      </g>
     </g>
    </g>
    <g id="xtick_27">
     <g id="line2d_27">
      <g>
       <use style="stroke:#000000;stroke-width:0.6;" x="420.484167" xlink:href="#m5153cb907c" y="261.129503"/>
      </g>
     </g>
    </g>
    <g id="xtick_28">
     <g id="line2d_28">
      <g>
       <use style="stroke:#000000;stroke-width:0.6;" x="436.381846" xlink:href="#m5153cb907c" y="261.129503"/>
      </g>
     </g>
    </g>
    <g id="xtick_29">
     <g id="line2d_29">
      <g>
       <use style="stroke:#000000;stroke-width:0.6;" x="451.766697" xlink:href="#m5153cb907c" y="261.129503"/>
      </g>
     </g>
    </g>
    <g id="xtick_30">
     <g id="line2d_30">
      <g>
       <use style="stroke:#000000;stroke-width:0.6;" x="467.664377" xlink:href="#m5153cb907c" y="261.129503"/>
      </g>
     </g>
    </g>
    <g id="xtick_31">
     <g id="line2d_31">
      <g>
       <use style="stroke:#000000;stroke-width:0.6;" x="483.049228" xlink:href="#m5153cb907c" y="261.129503"/>
      </g>
     </g>
    </g>
    <g id="xtick_32">
     <g id="line2d_32">
      <g>
       <use style="stroke:#000000;stroke-width:0.6;" x="514.844586" xlink:href="#m5153cb907c" y="261.129503"/>
      </g>
     </g>
    </g>
    <g id="xtick_33">
     <g id="line2d_33">
      <g>
       <use style="stroke:#000000;stroke-width:0.6;" x="529.203781" xlink:href="#m5153cb907c" y="261.129503"/>
      </g>
     </g>
    </g>
    <g id="xtick_34">
     <g id="line2d_34">
      <g>
       <use style="stroke:#000000;stroke-width:0.6;" x="545.10146" xlink:href="#m5153cb907c" y="261.129503"/>
      </g>
     </g>
    </g>
    <g id="xtick_35">
     <g id="line2d_35">
      <g>
       <use style="stroke:#000000;stroke-width:0.6;" x="560.486311" xlink:href="#m5153cb907c" y="261.129503"/>
      </g>
     </g>
    </g>
    <g id="xtick_36">
     <g id="line2d_36">
      <g>
       <use style="stroke:#000000;stroke-width:0.6;" x="576.383991" xlink:href="#m5153cb907c" y="261.129503"/>
      </g>
     </g>
    </g>
    <g id="xtick_37">
     <g id="line2d_37">
      <g>
       <use style="stroke:#000000;stroke-width:0.6;" x="607.666521" xlink:href="#m5153cb907c" y="261.129503"/>
      </g>
     </g>
    </g>
    <g id="xtick_38">
     <g id="line2d_38">
      <g>
       <use style="stroke:#000000;stroke-width:0.6;" x="623.5642" xlink:href="#m5153cb907c" y="261.129503"/>
      </g>
     </g>
    </g>
    <g id="xtick_39">
     <g id="line2d_39">
      <g>
       <use style="stroke:#000000;stroke-width:0.6;" x="638.949052" xlink:href="#m5153cb907c" y="261.129503"/>
      </g>
     </g>
    </g>
    <g id="xtick_40">
     <g id="line2d_40">
      <g>
       <use style="stroke:#000000;stroke-width:0.6;" x="654.846731" xlink:href="#m5153cb907c" y="261.129503"/>
      </g>
     </g>
    </g>
    <g id="xtick_41">
     <g id="line2d_41">
      <g>
       <use style="stroke:#000000;stroke-width:0.6;" x="670.231582" xlink:href="#m5153cb907c" y="261.129503"/>
      </g>
     </g>
    </g>
    <g id="xtick_42">
     <g id="line2d_42">
      <g>
       <use style="stroke:#000000;stroke-width:0.6;" x="702.026941" xlink:href="#m5153cb907c" y="261.129503"/>
      </g>
     </g>
    </g>
   </g>
   <g id="matplotlib.axis_2">
    <g id="ytick_1">
     <g id="line2d_43">
      <defs>
       <path d="M 0 0 
L -3.5 0 
" id="meb0316d3cd" style="stroke:#000000;stroke-width:0.8;"/>
      </defs>
      <g>
       <use style="stroke:#000000;stroke-width:0.8;" x="46.965625" xlink:href="#meb0316d3cd" y="261.129503"/>
      </g>
     </g>
     <g id="text_8">
      <!-- 0 -->
      <g transform="translate(33.603125 264.928722)scale(0.1 -0.1)">
       <use xlink:href="#DejaVuSans-30"/>
      </g>
     </g>
    </g>
    <g id="ytick_2">
     <g id="line2d_44">
      <g>
       <use style="stroke:#000000;stroke-width:0.8;" x="46.965625" xlink:href="#meb0316d3cd" y="219.947685"/>
      </g>
     </g>
     <g id="text_9">
      <!-- 10 -->
      <g transform="translate(27.240625 223.746903)scale(0.1 -0.1)">
       <use xlink:href="#DejaVuSans-31"/>
       <use x="63.623047" xlink:href="#DejaVuSans-30"/>
      </g>
     </g>
    </g>
    <g id="ytick_3">
     <g id="line2d_45">
      <g>
       <use style="stroke:#000000;stroke-width:0.8;" x="46.965625" xlink:href="#meb0316d3cd" y="178.765866"/>
      </g>
     </g>
     <g id="text_10">
      <!-- 20 -->
      <g transform="translate(27.240625 182.565085)scale(0.1 -0.1)">
       <use xlink:href="#DejaVuSans-32"/>
       <use x="63.623047" xlink:href="#DejaVuSans-30"/>
      </g>
     </g>
    </g>
    <g id="ytick_4">
     <g id="line2d_46">
      <g>
       <use style="stroke:#000000;stroke-width:0.8;" x="46.965625" xlink:href="#meb0316d3cd" y="137.584048"/>
      </g>
     </g>
     <g id="text_11">
      <!-- 30 -->
      <g transform="translate(27.240625 141.383267)scale(0.1 -0.1)">
       <defs>
        <path d="M 2597 2516 
Q 3050 2419 3304 2112 
Q 3559 1806 3559 1356 
Q 3559 666 3084 287 
Q 2609 -91 1734 -91 
Q 1441 -91 1130 -33 
Q 819 25 488 141 
L 488 750 
Q 750 597 1062 519 
Q 1375 441 1716 441 
Q 2309 441 2620 675 
Q 2931 909 2931 1356 
Q 2931 1769 2642 2001 
Q 2353 2234 1838 2234 
L 1294 2234 
L 1294 2753 
L 1863 2753 
Q 2328 2753 2575 2939 
Q 2822 3125 2822 3475 
Q 2822 3834 2567 4026 
Q 2313 4219 1838 4219 
Q 1578 4219 1281 4162 
Q 984 4106 628 3988 
L 628 4550 
Q 988 4650 1302 4700 
Q 1616 4750 1894 4750 
Q 2613 4750 3031 4423 
Q 3450 4097 3450 3541 
Q 3450 3153 3228 2886 
Q 3006 2619 2597 2516 
z
" id="DejaVuSans-33" transform="scale(0.015625)"/>
       </defs>
       <use xlink:href="#DejaVuSans-33"/>
       <use x="63.623047" xlink:href="#DejaVuSans-30"/>
      </g>
     </g>
    </g>
    <g id="ytick_5">
     <g id="line2d_47">
      <g>
       <use style="stroke:#000000;stroke-width:0.8;" x="46.965625" xlink:href="#meb0316d3cd" y="96.40223"/>
      </g>
     </g>
     <g id="text_12">
      <!-- 40 -->
      <g transform="translate(27.240625 100.201449)scale(0.1 -0.1)">
       <defs>
        <path d="M 2419 4116 
L 825 1625 
L 2419 1625 
L 2419 4116 
z
M 2253 4666 
L 3047 4666 
L 3047 1625 
L 3713 1625 
L 3713 1100 
L 3047 1100 
L 3047 0 
L 2419 0 
L 2419 1100 
L 313 1100 
L 313 1709 
L 2253 4666 
z
" id="DejaVuSans-34" transform="scale(0.015625)"/>
       </defs>
       <use xlink:href="#DejaVuSans-34"/>
       <use x="63.623047" xlink:href="#DejaVuSans-30"/>
      </g>
     </g>
    </g>
    <g id="ytick_6">
     <g id="line2d_48">
      <g>
       <use style="stroke:#000000;stroke-width:0.8;" x="46.965625" xlink:href="#meb0316d3cd" y="55.220412"/>
      </g>
     </g>
     <g id="text_13">
      <!-- 50 -->
      <g transform="translate(27.240625 59.019631)scale(0.1 -0.1)">
       <defs>
        <path d="M 691 4666 
L 3169 4666 
L 3169 4134 
L 1269 4134 
L 1269 2991 
Q 1406 3038 1543 3061 
Q 1681 3084 1819 3084 
Q 2600 3084 3056 2656 
Q 3513 2228 3513 1497 
Q 3513 744 3044 326 
Q 2575 -91 1722 -91 
Q 1428 -91 1123 -41 
Q 819 9 494 109 
L 494 744 
Q 775 591 1075 516 
Q 1375 441 1709 441 
Q 2250 441 2565 725 
Q 2881 1009 2881 1497 
Q 2881 1984 2565 2268 
Q 2250 2553 1709 2553 
Q 1456 2553 1204 2497 
Q 953 2441 691 2322 
L 691 4666 
z
" id="DejaVuSans-35" transform="scale(0.015625)"/>
       </defs>
       <use xlink:href="#DejaVuSans-35"/>
       <use x="63.623047" xlink:href="#DejaVuSans-30"/>
      </g>
     </g>
    </g>
    <g id="ytick_7">
     <g id="line2d_49">
      <g>
       <use style="stroke:#000000;stroke-width:0.8;" x="46.965625" xlink:href="#meb0316d3cd" y="14.038594"/>
      </g>
     </g>
     <g id="text_14">
      <!-- 60 -->
      <g transform="translate(27.240625 17.837812)scale(0.1 -0.1)">
       <defs>
        <path d="M 2113 2584 
Q 1688 2584 1439 2293 
Q 1191 2003 1191 1497 
Q 1191 994 1439 701 
Q 1688 409 2113 409 
Q 2538 409 2786 701 
Q 3034 994 3034 1497 
Q 3034 2003 2786 2293 
Q 2538 2584 2113 2584 
z
M 3366 4563 
L 3366 3988 
Q 3128 4100 2886 4159 
Q 2644 4219 2406 4219 
Q 1781 4219 1451 3797 
Q 1122 3375 1075 2522 
Q 1259 2794 1537 2939 
Q 1816 3084 2150 3084 
Q 2853 3084 3261 2657 
Q 3669 2231 3669 1497 
Q 3669 778 3244 343 
Q 2819 -91 2113 -91 
Q 1303 -91 875 529 
Q 447 1150 447 2328 
Q 447 3434 972 4092 
Q 1497 4750 2381 4750 
Q 2619 4750 2861 4703 
Q 3103 4656 3366 4563 
z
" id="DejaVuSans-36" transform="scale(0.015625)"/>
       </defs>
       <use xlink:href="#DejaVuSans-36"/>
       <use x="63.623047" xlink:href="#DejaVuSans-30"/>
      </g>
     </g>
    </g>
    <g id="text_15">
     <!-- Billion US Dollars -->
     <g transform="translate(21.160938 180.22233)rotate(-90)scale(0.1 -0.1)">
      <defs>
       <path d="M 1259 2228 
L 1259 519 
L 2272 519 
Q 2781 519 3026 730 
Q 3272 941 3272 1375 
Q 3272 1813 3026 2020 
Q 2781 2228 2272 2228 
L 1259 2228 
z
M 1259 4147 
L 1259 2741 
L 2194 2741 
Q 2656 2741 2882 2914 
Q 3109 3088 3109 3444 
Q 3109 3797 2882 3972 
Q 2656 4147 2194 4147 
L 1259 4147 
z
M 628 4666 
L 2241 4666 
Q 2963 4666 3353 4366 
Q 3744 4066 3744 3513 
Q 3744 3084 3544 2831 
Q 3344 2578 2956 2516 
Q 3422 2416 3680 2098 
Q 3938 1781 3938 1306 
Q 3938 681 3513 340 
Q 3088 0 2303 0 
L 628 0 
L 628 4666 
z
" id="DejaVuSans-42" transform="scale(0.015625)"/>
       <path d="M 603 3500 
L 1178 3500 
L 1178 0 
L 603 0 
L 603 3500 
z
M 603 4863 
L 1178 4863 
L 1178 4134 
L 603 4134 
L 603 4863 
z
" id="DejaVuSans-69" transform="scale(0.015625)"/>
       <path d="M 603 4863 
L 1178 4863 
L 1178 0 
L 603 0 
L 603 4863 
z
" id="DejaVuSans-6c" transform="scale(0.015625)"/>
       <path d="M 1959 3097 
Q 1497 3097 1228 2736 
Q 959 2375 959 1747 
Q 959 1119 1226 758 
Q 1494 397 1959 397 
Q 2419 397 2687 759 
Q 2956 1122 2956 1747 
Q 2956 2369 2687 2733 
Q 2419 3097 1959 3097 
z
M 1959 3584 
Q 2709 3584 3137 3096 
Q 3566 2609 3566 1747 
Q 3566 888 3137 398 
Q 2709 -91 1959 -91 
Q 1206 -91 779 398 
Q 353 888 353 1747 
Q 353 2609 779 3096 
Q 1206 3584 1959 3584 
z
" id="DejaVuSans-6f" transform="scale(0.015625)"/>
       <path d="M 3513 2113 
L 3513 0 
L 2938 0 
L 2938 2094 
Q 2938 2591 2744 2837 
Q 2550 3084 2163 3084 
Q 1697 3084 1428 2787 
Q 1159 2491 1159 1978 
L 1159 0 
L 581 0 
L 581 3500 
L 1159 3500 
L 1159 2956 
Q 1366 3272 1645 3428 
Q 1925 3584 2291 3584 
Q 2894 3584 3203 3211 
Q 3513 2838 3513 2113 
z
" id="DejaVuSans-6e" transform="scale(0.015625)"/>
       <path id="DejaVuSans-20" transform="scale(0.015625)"/>
       <path d="M 556 4666 
L 1191 4666 
L 1191 1831 
Q 1191 1081 1462 751 
Q 1734 422 2344 422 
Q 2950 422 3222 751 
Q 3494 1081 3494 1831 
L 3494 4666 
L 4128 4666 
L 4128 1753 
Q 4128 841 3676 375 
Q 3225 -91 2344 -91 
Q 1459 -91 1007 375 
Q 556 841 556 1753 
L 556 4666 
z
" id="DejaVuSans-55" transform="scale(0.015625)"/>
       <path d="M 3425 4513 
L 3425 3897 
Q 3066 4069 2747 4153 
Q 2428 4238 2131 4238 
Q 1616 4238 1336 4038 
Q 1056 3838 1056 3469 
Q 1056 3159 1242 3001 
Q 1428 2844 1947 2747 
L 2328 2669 
Q 3034 2534 3370 2195 
Q 3706 1856 3706 1288 
Q 3706 609 3251 259 
Q 2797 -91 1919 -91 
Q 1588 -91 1214 -16 
Q 841 59 441 206 
L 441 856 
Q 825 641 1194 531 
Q 1563 422 1919 422 
Q 2459 422 2753 634 
Q 3047 847 3047 1241 
Q 3047 1584 2836 1778 
Q 2625 1972 2144 2069 
L 1759 2144 
Q 1053 2284 737 2584 
Q 422 2884 422 3419 
Q 422 4038 858 4394 
Q 1294 4750 2059 4750 
Q 2388 4750 2728 4690 
Q 3069 4631 3425 4513 
z
" id="DejaVuSans-53" transform="scale(0.015625)"/>
       <path d="M 1259 4147 
L 1259 519 
L 2022 519 
Q 2988 519 3436 956 
Q 3884 1394 3884 2338 
Q 3884 3275 3436 3711 
Q 2988 4147 2022 4147 
L 1259 4147 
z
M 628 4666 
L 1925 4666 
Q 3281 4666 3915 4102 
Q 4550 3538 4550 2338 
Q 4550 1131 3912 565 
Q 3275 0 1925 0 
L 628 0 
L 628 4666 
z
" id="DejaVuSans-44" transform="scale(0.015625)"/>
       <path d="M 2194 1759 
Q 1497 1759 1228 1600 
Q 959 1441 959 1056 
Q 959 750 1161 570 
Q 1363 391 1709 391 
Q 2188 391 2477 730 
Q 2766 1069 2766 1631 
L 2766 1759 
L 2194 1759 
z
M 3341 1997 
L 3341 0 
L 2766 0 
L 2766 531 
Q 2569 213 2275 61 
Q 1981 -91 1556 -91 
Q 1019 -91 701 211 
Q 384 513 384 1019 
Q 384 1609 779 1909 
Q 1175 2209 1959 2209 
L 2766 2209 
L 2766 2266 
Q 2766 2663 2505 2880 
Q 2244 3097 1772 3097 
Q 1472 3097 1187 3025 
Q 903 2953 641 2809 
L 641 3341 
Q 956 3463 1253 3523 
Q 1550 3584 1831 3584 
Q 2591 3584 2966 3190 
Q 3341 2797 3341 1997 
z
" id="DejaVuSans-61" transform="scale(0.015625)"/>
       <path d="M 2631 2963 
Q 2534 3019 2420 3045 
Q 2306 3072 2169 3072 
Q 1681 3072 1420 2755 
Q 1159 2438 1159 1844 
L 1159 0 
L 581 0 
L 581 3500 
L 1159 3500 
L 1159 2956 
Q 1341 3275 1631 3429 
Q 1922 3584 2338 3584 
Q 2397 3584 2469 3576 
Q 2541 3569 2628 3553 
L 2631 2963 
z
" id="DejaVuSans-72" transform="scale(0.015625)"/>
       <path d="M 2834 3397 
L 2834 2853 
Q 2591 2978 2328 3040 
Q 2066 3103 1784 3103 
Q 1356 3103 1142 2972 
Q 928 2841 928 2578 
Q 928 2378 1081 2264 
Q 1234 2150 1697 2047 
L 1894 2003 
Q 2506 1872 2764 1633 
Q 3022 1394 3022 966 
Q 3022 478 2636 193 
Q 2250 -91 1575 -91 
Q 1294 -91 989 -36 
Q 684 19 347 128 
L 347 722 
Q 666 556 975 473 
Q 1284 391 1588 391 
Q 1994 391 2212 530 
Q 2431 669 2431 922 
Q 2431 1156 2273 1281 
Q 2116 1406 1581 1522 
L 1381 1569 
Q 847 1681 609 1914 
Q 372 2147 372 2553 
Q 372 3047 722 3315 
Q 1072 3584 1716 3584 
Q 2034 3584 2315 3537 
Q 2597 3491 2834 3397 
z
" id="DejaVuSans-73" transform="scale(0.015625)"/>
      </defs>
      <use xlink:href="#DejaVuSans-42"/>
      <use x="68.603516" xlink:href="#DejaVuSans-69"/>
      <use x="96.386719" xlink:href="#DejaVuSans-6c"/>
      <use x="124.169922" xlink:href="#DejaVuSans-6c"/>
      <use x="151.953125" xlink:href="#DejaVuSans-69"/>
      <use x="179.736328" xlink:href="#DejaVuSans-6f"/>
      <use x="240.917969" xlink:href="#DejaVuSans-6e"/>
      <use x="304.296875" xlink:href="#DejaVuSans-20"/>
      <use x="336.083984" xlink:href="#DejaVuSans-55"/>
      <use x="409.277344" xlink:href="#DejaVuSans-53"/>
      <use x="472.753906" xlink:href="#DejaVuSans-20"/>
      <use x="504.541016" xlink:href="#DejaVuSans-44"/>
      <use x="581.542969" xlink:href="#DejaVuSans-6f"/>
      <use x="642.724609" xlink:href="#DejaVuSans-6c"/>
      <use x="670.507812" xlink:href="#DejaVuSans-6c"/>
      <use x="698.291016" xlink:href="#DejaVuSans-61"/>
      <use x="759.570312" xlink:href="#DejaVuSans-72"/>
      <use x="800.683594" xlink:href="#DejaVuSans-73"/>
     </g>
    </g>
   </g>
   <g id="line2d_50">
    <path clip-path="url(#p22f7d5c910)" d="M 77.401989 80.76097 
L 93.299668 85.684119 
L 108.684519 99.042289 
L 124.582198 90.902178 
L 140.479878 126.115087 
L 154.839072 120.444202 
L 170.736752 106.937071 
L 186.121603 89.167224 
L 202.019282 87.103052 
L 217.404133 81.736928 
L 233.301812 72.589618 
L 249.199492 74.143246 
L 264.584343 62.908441 
L 280.482022 63.025217 
L 295.866873 78.120047 
L 311.764553 73.005561 
L 327.662232 100.700896 
L 342.021426 103.510915 
L 357.919106 103.700605 
L 373.303957 80.478958 
L 389.201636 77.771555 
L 404.586487 67.534805 
L 420.484167 64.296085 
L 436.381846 55.475534 
L 451.766697 46.650185 
L 467.664377 70.274133 
L 483.049228 72.455586 
L 498.946907 90.766131 
L 514.844586 124.813209 
L 529.203781 132.694118 
L 545.10146 118.535969 
L 560.486311 100.090236 
L 576.383991 101.051818 
L 591.768842 90.730935 
L 607.666521 91.955351 
L 623.5642 96.150143 
L 638.949052 96.401594 
L 654.846731 111.235814 
L 670.231582 122.815536 
L 686.129261 124.515784 
" style="fill:none;stroke:#dc143c;stroke-linecap:square;stroke-width:3;"/>
   </g>
   <g id="line2d_51">
    <path clip-path="url(#p22f7d5c910)" d="M 77.401989 209.240393 
L 93.299668 211.529772 
L 108.684519 213.174077 
L 124.582198 220.13085 
L 140.479878 221.019174 
L 154.839072 221.100017 
L 170.736752 220.744648 
L 186.121603 220.44177 
L 202.019282 221.108143 
L 217.404133 220.13686 
L 233.301812 216.548287 
L 249.199492 216.257879 
L 264.584343 207.744597 
L 280.482022 207.970388 
L 295.866873 204.999202 
L 311.764553 220.320568 
L 327.662232 221.005558 
L 342.021426 209.022122 
L 357.919106 217.849194 
L 373.303957 218.309662 
L 389.201636 216.423619 
L 404.586487 219.3219 
L 420.484167 222.92043 
L 436.381846 221.046819 
L 451.766697 223.288867 
L 467.664377 225.505325 
L 483.049228 223.200061 
L 498.946907 231.872037 
L 514.844586 227.840275 
L 529.203781 217.573275 
L 545.10146 228.663151 
L 560.486311 223.779612 
L 576.383991 223.38016 
L 591.768842 225.303605 
L 607.666521 222.381564 
L 623.5642 225.713381 
L 638.949052 224.666409 
L 654.846731 219.525132 
L 670.231582 224.481684 
L 686.129261 231.669237 
" style="fill:none;stroke:#000080;stroke-linecap:square;stroke-width:3;"/>
   </g>
   <g id="line2d_52">
    <path clip-path="url(#p22f7d5c910)" d="M 124.582198 87.766026 
L 140.479878 87.766026 
L 154.839072 87.766026 
L 170.736752 87.766026 
L 186.121603 87.766026 
L 202.019282 87.766026 
L 217.404133 87.766026 
L 233.301812 87.766026 
L 249.199492 87.766026 
L 264.584343 87.766026 
L 280.482022 87.766026 
L 295.866873 87.766026 
" style="fill:none;stroke:#dc143c;stroke-dasharray:7.4,3.2;stroke-dashoffset:0;stroke-width:2;"/>
   </g>
   <g id="line2d_53">
    <path clip-path="url(#p22f7d5c910)" d="M 124.582198 216.516818 
L 140.479878 216.516818 
L 154.839072 216.516818 
L 170.736752 216.516818 
L 186.121603 216.516818 
L 202.019282 216.516818 
L 217.404133 216.516818 
L 233.301812 216.516818 
L 249.199492 216.516818 
L 264.584343 216.516818 
L 280.482022 216.516818 
L 295.866873 216.516818 
" style="fill:none;stroke:#000080;stroke-dasharray:7.4,3.2;stroke-dashoffset:0;stroke-width:2;"/>
   </g>
   <g id="line2d_54">
    <path clip-path="url(#p22f7d5c910)" d="M 498.946907 106.436738 
L 514.844586 106.436738 
L 529.203781 106.436738 
L 545.10146 106.436738 
L 560.486311 106.436738 
L 576.383991 106.436738 
L 591.768842 106.436738 
L 607.666521 106.436738 
L 623.5642 106.436738 
L 638.949052 106.436738 
L 654.846731 106.436738 
L 670.231582 106.436738 
" style="fill:none;stroke:#dc143c;stroke-dasharray:7.4,3.2;stroke-dashoffset:0;stroke-width:2;"/>
   </g>
   <g id="line2d_55">
    <path clip-path="url(#p22f7d5c910)" d="M 498.946907 224.598357 
L 514.844586 224.598357 
L 529.203781 224.598357 
L 545.10146 224.598357 
L 560.486311 224.598357 
L 576.383991 224.598357 
L 591.768842 224.598357 
L 607.666521 224.598357 
L 623.5642 224.598357 
L 638.949052 224.598357 
L 654.846731 224.598357 
L 670.231582 224.598357 
" style="fill:none;stroke:#000080;stroke-dasharray:7.4,3.2;stroke-dashoffset:0;stroke-width:2;"/>
   </g>
   <g id="line2d_56">
    <path clip-path="url(#p22f7d5c910)" d="M 404.586487 261.129503 
L 404.586487 14.038594 
" style="fill:none;stroke:#000000;stroke-dasharray:2,3.3;stroke-dashoffset:0;stroke-width:2;"/>
   </g>
   <g id="patch_5">
    <path d="M 46.965625 261.129503 
L 46.965625 14.038594 
" style="fill:none;stroke:#000000;stroke-linecap:square;stroke-linejoin:miter;stroke-width:0.8;"/>
   </g>
   <g id="patch_6">
    <path d="M 46.965625 261.129503 
L 716.565625 261.129503 
" style="fill:none;stroke:#000000;stroke-linecap:square;stroke-linejoin:miter;stroke-width:0.8;"/>
   </g>
   <g id="text_16">
    <!-- 2017 balance: -->
    <g transform="translate(217.404133 148.096926)scale(0.09 -0.09)">
     <defs>
      <path d="M 3116 1747 
Q 3116 2381 2855 2742 
Q 2594 3103 2138 3103 
Q 1681 3103 1420 2742 
Q 1159 2381 1159 1747 
Q 1159 1113 1420 752 
Q 1681 391 2138 391 
Q 2594 391 2855 752 
Q 3116 1113 3116 1747 
z
M 1159 2969 
Q 1341 3281 1617 3432 
Q 1894 3584 2278 3584 
Q 2916 3584 3314 3078 
Q 3713 2572 3713 1747 
Q 3713 922 3314 415 
Q 2916 -91 2278 -91 
Q 1894 -91 1617 61 
Q 1341 213 1159 525 
L 1159 0 
L 581 0 
L 581 4863 
L 1159 4863 
L 1159 2969 
z
" id="DejaVuSans-62" transform="scale(0.015625)"/>
      <path d="M 3122 3366 
L 3122 2828 
Q 2878 2963 2633 3030 
Q 2388 3097 2138 3097 
Q 1578 3097 1268 2742 
Q 959 2388 959 1747 
Q 959 1106 1268 751 
Q 1578 397 2138 397 
Q 2388 397 2633 464 
Q 2878 531 3122 666 
L 3122 134 
Q 2881 22 2623 -34 
Q 2366 -91 2075 -91 
Q 1284 -91 818 406 
Q 353 903 353 1747 
Q 353 2603 823 3093 
Q 1294 3584 2113 3584 
Q 2378 3584 2631 3529 
Q 2884 3475 3122 3366 
z
" id="DejaVuSans-63" transform="scale(0.015625)"/>
      <path d="M 3597 1894 
L 3597 1613 
L 953 1613 
Q 991 1019 1311 708 
Q 1631 397 2203 397 
Q 2534 397 2845 478 
Q 3156 559 3463 722 
L 3463 178 
Q 3153 47 2828 -22 
Q 2503 -91 2169 -91 
Q 1331 -91 842 396 
Q 353 884 353 1716 
Q 353 2575 817 3079 
Q 1281 3584 2069 3584 
Q 2775 3584 3186 3129 
Q 3597 2675 3597 1894 
z
M 3022 2063 
Q 3016 2534 2758 2815 
Q 2500 3097 2075 3097 
Q 1594 3097 1305 2825 
Q 1016 2553 972 2059 
L 3022 2063 
z
" id="DejaVuSans-65" transform="scale(0.015625)"/>
      <path d="M 750 794 
L 1409 794 
L 1409 0 
L 750 0 
L 750 794 
z
M 750 3309 
L 1409 3309 
L 1409 2516 
L 750 2516 
L 750 3309 
z
" id="DejaVuSans-3a" transform="scale(0.015625)"/>
     </defs>
     <use xlink:href="#DejaVuSans-32"/>
     <use x="63.623047" xlink:href="#DejaVuSans-30"/>
     <use x="127.246094" xlink:href="#DejaVuSans-31"/>
     <use x="190.869141" xlink:href="#DejaVuSans-37"/>
     <use x="254.492188" xlink:href="#DejaVuSans-20"/>
     <use x="286.279297" xlink:href="#DejaVuSans-62"/>
     <use x="349.755859" xlink:href="#DejaVuSans-61"/>
     <use x="411.035156" xlink:href="#DejaVuSans-6c"/>
     <use x="438.818359" xlink:href="#DejaVuSans-61"/>
     <use x="500.097656" xlink:href="#DejaVuSans-6e"/>
     <use x="563.476562" xlink:href="#DejaVuSans-63"/>
     <use x="618.457031" xlink:href="#DejaVuSans-65"/>
     <use x="679.980469" xlink:href="#DejaVuSans-3a"/>
    </g>
    <!--  -375.17 -->
    <g transform="translate(217.404133 158.174957)scale(0.09 -0.09)">
     <defs>
      <path d="M 684 794 
L 1344 794 
L 1344 0 
L 684 0 
L 684 794 
z
" id="DejaVuSans-2e" transform="scale(0.015625)"/>
     </defs>
     <use xlink:href="#DejaVuSans-20"/>
     <use x="31.787109" xlink:href="#DejaVuSans-2d"/>
     <use x="67.871094" xlink:href="#DejaVuSans-33"/>
     <use x="131.494141" xlink:href="#DejaVuSans-37"/>
     <use x="195.117188" xlink:href="#DejaVuSans-35"/>
     <use x="258.740234" xlink:href="#DejaVuSans-2e"/>
     <use x="290.527344" xlink:href="#DejaVuSans-31"/>
     <use x="354.150391" xlink:href="#DejaVuSans-37"/>
    </g>
   </g>
   <g id="text_17">
    <!-- 2019 balance: -->
    <g transform="translate(591.768842 160.451472)scale(0.09 -0.09)">
     <use xlink:href="#DejaVuSans-32"/>
     <use x="63.623047" xlink:href="#DejaVuSans-30"/>
     <use x="127.246094" xlink:href="#DejaVuSans-31"/>
     <use x="190.869141" xlink:href="#DejaVuSans-39"/>
     <use x="254.492188" xlink:href="#DejaVuSans-20"/>
     <use x="286.279297" xlink:href="#DejaVuSans-62"/>
     <use x="349.755859" xlink:href="#DejaVuSans-61"/>
     <use x="411.035156" xlink:href="#DejaVuSans-6c"/>
     <use x="438.818359" xlink:href="#DejaVuSans-61"/>
     <use x="500.097656" xlink:href="#DejaVuSans-6e"/>
     <use x="563.476562" xlink:href="#DejaVuSans-63"/>
     <use x="618.457031" xlink:href="#DejaVuSans-65"/>
     <use x="679.980469" xlink:href="#DejaVuSans-3a"/>
    </g>
    <!--  -344.31 -->
    <g transform="translate(591.768842 170.529503)scale(0.09 -0.09)">
     <use xlink:href="#DejaVuSans-20"/>
     <use x="31.787109" xlink:href="#DejaVuSans-2d"/>
     <use x="67.871094" xlink:href="#DejaVuSans-33"/>
     <use x="131.494141" xlink:href="#DejaVuSans-34"/>
     <use x="195.117188" xlink:href="#DejaVuSans-34"/>
     <use x="258.740234" xlink:href="#DejaVuSans-2e"/>
     <use x="290.527344" xlink:href="#DejaVuSans-33"/>
     <use x="354.150391" xlink:href="#DejaVuSans-31"/>
    </g>
   </g>
   <g id="text_18">
    <!-- US-CN trade war -->
    <g transform="translate(329.730394 14.038594)scale(0.09 -0.09)">
     <defs>
      <path d="M 4122 4306 
L 4122 3641 
Q 3803 3938 3442 4084 
Q 3081 4231 2675 4231 
Q 1875 4231 1450 3742 
Q 1025 3253 1025 2328 
Q 1025 1406 1450 917 
Q 1875 428 2675 428 
Q 3081 428 3442 575 
Q 3803 722 4122 1019 
L 4122 359 
Q 3791 134 3420 21 
Q 3050 -91 2638 -91 
Q 1578 -91 968 557 
Q 359 1206 359 2328 
Q 359 3453 968 4101 
Q 1578 4750 2638 4750 
Q 3056 4750 3426 4639 
Q 3797 4528 4122 4306 
z
" id="DejaVuSans-43" transform="scale(0.015625)"/>
      <path d="M 628 4666 
L 1478 4666 
L 3547 763 
L 3547 4666 
L 4159 4666 
L 4159 0 
L 3309 0 
L 1241 3903 
L 1241 0 
L 628 0 
L 628 4666 
z
" id="DejaVuSans-4e" transform="scale(0.015625)"/>
      <path d="M 1172 4494 
L 1172 3500 
L 2356 3500 
L 2356 3053 
L 1172 3053 
L 1172 1153 
Q 1172 725 1289 603 
Q 1406 481 1766 481 
L 2356 481 
L 2356 0 
L 1766 0 
Q 1100 0 847 248 
Q 594 497 594 1153 
L 594 3053 
L 172 3053 
L 172 3500 
L 594 3500 
L 594 4494 
L 1172 4494 
z
" id="DejaVuSans-74" transform="scale(0.015625)"/>
      <path d="M 2906 2969 
L 2906 4863 
L 3481 4863 
L 3481 0 
L 2906 0 
L 2906 525 
Q 2725 213 2448 61 
Q 2172 -91 1784 -91 
Q 1150 -91 751 415 
Q 353 922 353 1747 
Q 353 2572 751 3078 
Q 1150 3584 1784 3584 
Q 2172 3584 2448 3432 
Q 2725 3281 2906 2969 
z
M 947 1747 
Q 947 1113 1208 752 
Q 1469 391 1925 391 
Q 2381 391 2643 752 
Q 2906 1113 2906 1747 
Q 2906 2381 2643 2742 
Q 2381 3103 1925 3103 
Q 1469 3103 1208 2742 
Q 947 2381 947 1747 
z
" id="DejaVuSans-64" transform="scale(0.015625)"/>
      <path d="M 269 3500 
L 844 3500 
L 1563 769 
L 2278 3500 
L 2956 3500 
L 3675 769 
L 4391 3500 
L 4966 3500 
L 4050 0 
L 3372 0 
L 2619 2869 
L 1863 0 
L 1184 0 
L 269 3500 
z
" id="DejaVuSans-77" transform="scale(0.015625)"/>
     </defs>
     <use xlink:href="#DejaVuSans-55"/>
     <use x="73.193359" xlink:href="#DejaVuSans-53"/>
     <use x="136.669922" xlink:href="#DejaVuSans-2d"/>
     <use x="172.753906" xlink:href="#DejaVuSans-43"/>
     <use x="242.578125" xlink:href="#DejaVuSans-4e"/>
     <use x="317.382812" xlink:href="#DejaVuSans-20"/>
     <use x="349.169922" xlink:href="#DejaVuSans-74"/>
     <use x="388.378906" xlink:href="#DejaVuSans-72"/>
     <use x="429.492188" xlink:href="#DejaVuSans-61"/>
     <use x="490.771484" xlink:href="#DejaVuSans-64"/>
     <use x="554.248047" xlink:href="#DejaVuSans-65"/>
     <use x="615.771484" xlink:href="#DejaVuSans-20"/>
     <use x="647.558594" xlink:href="#DejaVuSans-77"/>
     <use x="729.345703" xlink:href="#DejaVuSans-61"/>
     <use x="790.625" xlink:href="#DejaVuSans-72"/>
    </g>
   </g>
   <g id="legend_1">
    <g id="patch_7">
     <path d="M 52.565625 43.923594 
L 164.604375 43.923594 
Q 166.204375 43.923594 166.204375 42.323594 
L 166.204375 19.638594 
Q 166.204375 18.038594 164.604375 18.038594 
L 52.565625 18.038594 
Q 50.965625 18.038594 50.965625 19.638594 
L 50.965625 42.323594 
Q 50.965625 43.923594 52.565625 43.923594 
z
" style="fill:#ffffff;opacity:0.8;stroke:#cccccc;stroke-linejoin:miter;"/>
    </g>
    <g id="line2d_57">
     <path d="M 54.165625 24.517344 
L 70.165625 24.517344 
" style="fill:none;stroke:#000080;stroke-linecap:square;stroke-width:3;"/>
    </g>
    <g id="line2d_58"/>
    <g id="text_19">
     <!-- US export to China -->
     <g transform="translate(76.565625 27.317344)scale(0.08 -0.08)">
      <defs>
       <path d="M 3513 3500 
L 2247 1797 
L 3578 0 
L 2900 0 
L 1881 1375 
L 863 0 
L 184 0 
L 1544 1831 
L 300 3500 
L 978 3500 
L 1906 2253 
L 2834 3500 
L 3513 3500 
z
" id="DejaVuSans-78" transform="scale(0.015625)"/>
       <path d="M 1159 525 
L 1159 -1331 
L 581 -1331 
L 581 3500 
L 1159 3500 
L 1159 2969 
Q 1341 3281 1617 3432 
Q 1894 3584 2278 3584 
Q 2916 3584 3314 3078 
Q 3713 2572 3713 1747 
Q 3713 922 3314 415 
Q 2916 -91 2278 -91 
Q 1894 -91 1617 61 
Q 1341 213 1159 525 
z
M 3116 1747 
Q 3116 2381 2855 2742 
Q 2594 3103 2138 3103 
Q 1681 3103 1420 2742 
Q 1159 2381 1159 1747 
Q 1159 1113 1420 752 
Q 1681 391 2138 391 
Q 2594 391 2855 752 
Q 3116 1113 3116 1747 
z
" id="DejaVuSans-70" transform="scale(0.015625)"/>
       <path d="M 3513 2113 
L 3513 0 
L 2938 0 
L 2938 2094 
Q 2938 2591 2744 2837 
Q 2550 3084 2163 3084 
Q 1697 3084 1428 2787 
Q 1159 2491 1159 1978 
L 1159 0 
L 581 0 
L 581 4863 
L 1159 4863 
L 1159 2956 
Q 1366 3272 1645 3428 
Q 1925 3584 2291 3584 
Q 2894 3584 3203 3211 
Q 3513 2838 3513 2113 
z
" id="DejaVuSans-68" transform="scale(0.015625)"/>
      </defs>
      <use xlink:href="#DejaVuSans-55"/>
      <use x="73.193359" xlink:href="#DejaVuSans-53"/>
      <use x="136.669922" xlink:href="#DejaVuSans-20"/>
      <use x="168.457031" xlink:href="#DejaVuSans-65"/>
      <use x="228.230469" xlink:href="#DejaVuSans-78"/>
      <use x="287.410156" xlink:href="#DejaVuSans-70"/>
      <use x="350.886719" xlink:href="#DejaVuSans-6f"/>
      <use x="412.068359" xlink:href="#DejaVuSans-72"/>
      <use x="453.181641" xlink:href="#DejaVuSans-74"/>
      <use x="492.390625" xlink:href="#DejaVuSans-20"/>
      <use x="524.177734" xlink:href="#DejaVuSans-74"/>
      <use x="563.386719" xlink:href="#DejaVuSans-6f"/>
      <use x="624.568359" xlink:href="#DejaVuSans-20"/>
      <use x="656.355469" xlink:href="#DejaVuSans-43"/>
      <use x="726.179688" xlink:href="#DejaVuSans-68"/>
      <use x="789.558594" xlink:href="#DejaVuSans-69"/>
      <use x="817.341797" xlink:href="#DejaVuSans-6e"/>
      <use x="880.720703" xlink:href="#DejaVuSans-61"/>
     </g>
    </g>
    <g id="line2d_59">
     <path d="M 54.165625 36.259844 
L 70.165625 36.259844 
" style="fill:none;stroke:#dc143c;stroke-linecap:square;stroke-width:3;"/>
    </g>
    <g id="line2d_60"/>
    <g id="text_20">
     <!-- US import from China -->
     <g transform="translate(76.565625 39.059844)scale(0.08 -0.08)">
      <defs>
       <path d="M 3328 2828 
Q 3544 3216 3844 3400 
Q 4144 3584 4550 3584 
Q 5097 3584 5394 3201 
Q 5691 2819 5691 2113 
L 5691 0 
L 5113 0 
L 5113 2094 
Q 5113 2597 4934 2840 
Q 4756 3084 4391 3084 
Q 3944 3084 3684 2787 
Q 3425 2491 3425 1978 
L 3425 0 
L 2847 0 
L 2847 2094 
Q 2847 2600 2669 2842 
Q 2491 3084 2119 3084 
Q 1678 3084 1418 2786 
Q 1159 2488 1159 1978 
L 1159 0 
L 581 0 
L 581 3500 
L 1159 3500 
L 1159 2956 
Q 1356 3278 1631 3431 
Q 1906 3584 2284 3584 
Q 2666 3584 2933 3390 
Q 3200 3197 3328 2828 
z
" id="DejaVuSans-6d" transform="scale(0.015625)"/>
       <path d="M 2375 4863 
L 2375 4384 
L 1825 4384 
Q 1516 4384 1395 4259 
Q 1275 4134 1275 3809 
L 1275 3500 
L 2222 3500 
L 2222 3053 
L 1275 3053 
L 1275 0 
L 697 0 
L 697 3053 
L 147 3053 
L 147 3500 
L 697 3500 
L 697 3744 
Q 697 4328 969 4595 
Q 1241 4863 1831 4863 
L 2375 4863 
z
" id="DejaVuSans-66" transform="scale(0.015625)"/>
      </defs>
      <use xlink:href="#DejaVuSans-55"/>
      <use x="73.193359" xlink:href="#DejaVuSans-53"/>
      <use x="136.669922" xlink:href="#DejaVuSans-20"/>
      <use x="168.457031" xlink:href="#DejaVuSans-69"/>
      <use x="196.240234" xlink:href="#DejaVuSans-6d"/>
      <use x="293.652344" xlink:href="#DejaVuSans-70"/>
      <use x="357.128906" xlink:href="#DejaVuSans-6f"/>
      <use x="418.310547" xlink:href="#DejaVuSans-72"/>
      <use x="459.423828" xlink:href="#DejaVuSans-74"/>
      <use x="498.632812" xlink:href="#DejaVuSans-20"/>
      <use x="530.419922" xlink:href="#DejaVuSans-66"/>
      <use x="565.625" xlink:href="#DejaVuSans-72"/>
      <use x="604.488281" xlink:href="#DejaVuSans-6f"/>
      <use x="665.669922" xlink:href="#DejaVuSans-6d"/>
      <use x="763.082031" xlink:href="#DejaVuSans-20"/>
      <use x="794.869141" xlink:href="#DejaVuSans-43"/>
      <use x="864.693359" xlink:href="#DejaVuSans-68"/>
      <use x="928.072266" xlink:href="#DejaVuSans-69"/>
      <use x="955.855469" xlink:href="#DejaVuSans-6e"/>
      <use x="1019.234375" xlink:href="#DejaVuSans-61"/>
     </g>
    </g>
   </g>
  </g>
  <g id="axes_2">
   <g id="patch_8">
    <path d="M 46.965625 557.638594 
L 716.565625 557.638594 
L 716.565625 310.547685 
L 46.965625 310.547685 
z
" style="fill:#ffffff;"/>
   </g>
   <g id="PolyCollection_2">
    <defs>
     <path d="M 77.401989 -38.512359 
L 77.401989 -129.216451 
L 93.299668 -144.596319 
L 108.684519 -158.519568 
L 124.582198 -165.176731 
L 140.479878 -183.766922 
L 154.839072 -183.291381 
L 170.736752 -180.830718 
L 186.121603 -162.978909 
L 202.019282 -163.602765 
L 217.404133 -155.619809 
L 233.301812 -148.87928 
L 249.199492 -157.646005 
L 264.584343 -157.073942 
L 280.482022 -178.090251 
L 295.866873 -202.866659 
L 311.764553 -194.256328 
L 327.662232 -227.368276 
L 342.021426 -227.090434 
L 357.919106 -228.305249 
L 373.303957 -208.005222 
L 389.201636 -208.241379 
L 404.586487 -209.915706 
L 420.484167 -205.812492 
L 436.381846 -209.606929 
L 451.766697 -205.703735 
L 467.664377 -206.061732 
L 483.049228 -216.593186 
L 498.946907 -214.811626 
L 514.844586 -239.935735 
L 529.203781 -259.737629 
L 545.10146 -237.361445 
L 560.486311 -240.106979 
L 576.383991 -224.734379 
L 591.768842 -218.910791 
L 607.666521 -217.651928 
L 623.5642 -209.255809 
L 638.949052 -197.463877 
L 654.846731 -202.165651 
L 670.231582 -225.732691 
L 686.129261 -219.520776 
L 686.129261 -91.765333 
L 686.129261 -91.765333 
L 670.231582 -90.026324 
L 654.846731 -84.570965 
L 638.949052 -88.911113 
L 623.5642 -87.890523 
L 607.666521 -90.241479 
L 591.768842 -95.827624 
L 576.383991 -88.759161 
L 560.486311 -99.146508 
L 545.10146 -94.05185 
L 529.203781 -98.192843 
L 514.844586 -97.035395 
L 498.946907 -99.000077 
L 483.049228 -86.761724 
L 467.664377 -96.441431 
L 451.766697 -105.228349 
L 436.381846 -99.691328 
L 420.484167 -95.721914 
L 404.586487 -96.095517 
L 389.201636 -99.679595 
L 373.303957 -107.541146 
L 357.919106 -99.451903 
L 342.021426 -90.624838 
L 327.662232 -86.516302 
L 311.764553 -78.28166 
L 295.866873 -77.945399 
L 280.482022 -70.656981 
L 264.584343 -61.447245 
L 249.199492 -63.458474 
L 233.301812 -58.870487 
L 217.404133 -60.099136 
L 202.019282 -61.105468 
L 186.121603 -55.164743 
L 170.736752 -57.018439 
L 154.839072 -58.722192 
L 140.479878 -59.419392 
L 124.582198 -59.429622 
L 108.684519 -50.529211 
L 93.299668 -35.10953 
L 77.401989 -38.512359 
z
" id="m8c28ba16a0" style="stroke:#e6e6fa;"/>
    </defs>
    <g clip-path="url(#pb59ef46aee)">
     <use style="fill:#e6e6fa;stroke:#e6e6fa;" x="0" xlink:href="#m8c28ba16a0" y="581.516719"/>
    </g>
   </g>
   <g id="patch_9">
    <path clip-path="url(#pb59ef46aee)" d="M 217.404133 412.649472 
Q 217.404133 465.551679 217.404133 518.453887 
" style="fill:none;stroke:#000000;stroke-linecap:round;"/>
    <path clip-path="url(#pb59ef46aee)" d="M 215.404133 416.649472 
L 217.404133 412.649472 
L 219.404133 416.649472 
L 215.404133 416.649472 
z
" style="stroke:#000000;stroke-linecap:round;"/>
    <path clip-path="url(#pb59ef46aee)" d="M 219.404133 514.453887 
L 217.404133 518.453887 
L 215.404133 514.453887 
L 219.404133 514.453887 
z
" style="stroke:#000000;stroke-linecap:round;"/>
   </g>
   <g id="patch_10">
    <path clip-path="url(#pb59ef46aee)" d="M 591.768842 358.645708 
Q 591.768842 423.119952 591.768842 487.594196 
" style="fill:none;stroke:#000000;stroke-linecap:round;"/>
    <path clip-path="url(#pb59ef46aee)" d="M 589.768842 362.645708 
L 591.768842 358.645708 
L 593.768842 362.645708 
L 589.768842 362.645708 
z
" style="stroke:#000000;stroke-linecap:round;"/>
    <path clip-path="url(#pb59ef46aee)" d="M 593.768842 483.594196 
L 591.768842 487.594196 
L 589.768842 483.594196 
L 593.768842 483.594196 
z
" style="stroke:#000000;stroke-linecap:round;"/>
   </g>
   <g id="matplotlib.axis_3">
    <g id="xtick_43">
     <g id="line2d_61">
      <g>
       <use style="stroke:#000000;stroke-width:0.8;" x="124.582198" xlink:href="#mce998c62dd" y="557.638594"/>
      </g>
     </g>
     <g id="text_21">
      <!-- 2017-01 -->
      <g transform="translate(103.690792 572.237031)scale(0.1 -0.1)">
       <use xlink:href="#DejaVuSans-32"/>
       <use x="63.623047" xlink:href="#DejaVuSans-30"/>
       <use x="127.246094" xlink:href="#DejaVuSans-31"/>
       <use x="190.869141" xlink:href="#DejaVuSans-37"/>
       <use x="254.492188" xlink:href="#DejaVuSans-2d"/>
       <use x="290.576172" xlink:href="#DejaVuSans-30"/>
       <use x="354.199219" xlink:href="#DejaVuSans-31"/>
      </g>
     </g>
    </g>
    <g id="xtick_44">
     <g id="line2d_62">
      <g>
       <use style="stroke:#000000;stroke-width:0.8;" x="217.404133" xlink:href="#mce998c62dd" y="557.638594"/>
      </g>
     </g>
     <g id="text_22">
      <!-- 2017-07 -->
      <g transform="translate(196.512727 572.237031)scale(0.1 -0.1)">
       <use xlink:href="#DejaVuSans-32"/>
       <use x="63.623047" xlink:href="#DejaVuSans-30"/>
       <use x="127.246094" xlink:href="#DejaVuSans-31"/>
       <use x="190.869141" xlink:href="#DejaVuSans-37"/>
       <use x="254.492188" xlink:href="#DejaVuSans-2d"/>
       <use x="290.576172" xlink:href="#DejaVuSans-30"/>
       <use x="354.199219" xlink:href="#DejaVuSans-37"/>
      </g>
     </g>
    </g>
    <g id="xtick_45">
     <g id="line2d_63">
      <g>
       <use style="stroke:#000000;stroke-width:0.8;" x="311.764553" xlink:href="#mce998c62dd" y="557.638594"/>
      </g>
     </g>
     <g id="text_23">
      <!-- 2018-01 -->
      <g transform="translate(290.873147 572.237031)scale(0.1 -0.1)">
       <use xlink:href="#DejaVuSans-32"/>
       <use x="63.623047" xlink:href="#DejaVuSans-30"/>
       <use x="127.246094" xlink:href="#DejaVuSans-31"/>
       <use x="190.869141" xlink:href="#DejaVuSans-38"/>
       <use x="254.492188" xlink:href="#DejaVuSans-2d"/>
       <use x="290.576172" xlink:href="#DejaVuSans-30"/>
       <use x="354.199219" xlink:href="#DejaVuSans-31"/>
      </g>
     </g>
    </g>
    <g id="xtick_46">
     <g id="line2d_64">
      <g>
       <use style="stroke:#000000;stroke-width:0.8;" x="404.586487" xlink:href="#mce998c62dd" y="557.638594"/>
      </g>
     </g>
     <g id="text_24">
      <!-- 2018-07 -->
      <g transform="translate(383.695081 572.237031)scale(0.1 -0.1)">
       <use xlink:href="#DejaVuSans-32"/>
       <use x="63.623047" xlink:href="#DejaVuSans-30"/>
       <use x="127.246094" xlink:href="#DejaVuSans-31"/>
       <use x="190.869141" xlink:href="#DejaVuSans-38"/>
       <use x="254.492188" xlink:href="#DejaVuSans-2d"/>
       <use x="290.576172" xlink:href="#DejaVuSans-30"/>
       <use x="354.199219" xlink:href="#DejaVuSans-37"/>
      </g>
     </g>
    </g>
    <g id="xtick_47">
     <g id="line2d_65">
      <g>
       <use style="stroke:#000000;stroke-width:0.8;" x="498.946907" xlink:href="#mce998c62dd" y="557.638594"/>
      </g>
     </g>
     <g id="text_25">
      <!-- 2019-01 -->
      <g transform="translate(478.055501 572.237031)scale(0.1 -0.1)">
       <use xlink:href="#DejaVuSans-32"/>
       <use x="63.623047" xlink:href="#DejaVuSans-30"/>
       <use x="127.246094" xlink:href="#DejaVuSans-31"/>
       <use x="190.869141" xlink:href="#DejaVuSans-39"/>
       <use x="254.492188" xlink:href="#DejaVuSans-2d"/>
       <use x="290.576172" xlink:href="#DejaVuSans-30"/>
       <use x="354.199219" xlink:href="#DejaVuSans-31"/>
      </g>
     </g>
    </g>
    <g id="xtick_48">
     <g id="line2d_66">
      <g>
       <use style="stroke:#000000;stroke-width:0.8;" x="591.768842" xlink:href="#mce998c62dd" y="557.638594"/>
      </g>
     </g>
     <g id="text_26">
      <!-- 2019-07 -->
      <g transform="translate(570.877435 572.237031)scale(0.1 -0.1)">
       <use xlink:href="#DejaVuSans-32"/>
       <use x="63.623047" xlink:href="#DejaVuSans-30"/>
       <use x="127.246094" xlink:href="#DejaVuSans-31"/>
       <use x="190.869141" xlink:href="#DejaVuSans-39"/>
       <use x="254.492188" xlink:href="#DejaVuSans-2d"/>
       <use x="290.576172" xlink:href="#DejaVuSans-30"/>
       <use x="354.199219" xlink:href="#DejaVuSans-37"/>
      </g>
     </g>
    </g>
    <g id="xtick_49">
     <g id="line2d_67">
      <g>
       <use style="stroke:#000000;stroke-width:0.8;" x="686.129261" xlink:href="#mce998c62dd" y="557.638594"/>
      </g>
     </g>
     <g id="text_27">
      <!-- 2020-01 -->
      <g transform="translate(665.237855 572.237031)scale(0.1 -0.1)">
       <use xlink:href="#DejaVuSans-32"/>
       <use x="63.623047" xlink:href="#DejaVuSans-30"/>
       <use x="127.246094" xlink:href="#DejaVuSans-32"/>
       <use x="190.869141" xlink:href="#DejaVuSans-30"/>
       <use x="254.492188" xlink:href="#DejaVuSans-2d"/>
       <use x="290.576172" xlink:href="#DejaVuSans-30"/>
       <use x="354.199219" xlink:href="#DejaVuSans-31"/>
      </g>
     </g>
    </g>
    <g id="xtick_50">
     <g id="line2d_68">
      <g>
       <use style="stroke:#000000;stroke-width:0.6;" x="62.017138" xlink:href="#m5153cb907c" y="557.638594"/>
      </g>
     </g>
    </g>
    <g id="xtick_51">
     <g id="line2d_69">
      <g>
       <use style="stroke:#000000;stroke-width:0.6;" x="77.401989" xlink:href="#m5153cb907c" y="557.638594"/>
      </g>
     </g>
    </g>
    <g id="xtick_52">
     <g id="line2d_70">
      <g>
       <use style="stroke:#000000;stroke-width:0.6;" x="93.299668" xlink:href="#m5153cb907c" y="557.638594"/>
      </g>
     </g>
    </g>
    <g id="xtick_53">
     <g id="line2d_71">
      <g>
       <use style="stroke:#000000;stroke-width:0.6;" x="108.684519" xlink:href="#m5153cb907c" y="557.638594"/>
      </g>
     </g>
    </g>
    <g id="xtick_54">
     <g id="line2d_72">
      <g>
       <use style="stroke:#000000;stroke-width:0.6;" x="140.479878" xlink:href="#m5153cb907c" y="557.638594"/>
      </g>
     </g>
    </g>
    <g id="xtick_55">
     <g id="line2d_73">
      <g>
       <use style="stroke:#000000;stroke-width:0.6;" x="154.839072" xlink:href="#m5153cb907c" y="557.638594"/>
      </g>
     </g>
    </g>
    <g id="xtick_56">
     <g id="line2d_74">
      <g>
       <use style="stroke:#000000;stroke-width:0.6;" x="170.736752" xlink:href="#m5153cb907c" y="557.638594"/>
      </g>
     </g>
    </g>
    <g id="xtick_57">
     <g id="line2d_75">
      <g>
       <use style="stroke:#000000;stroke-width:0.6;" x="186.121603" xlink:href="#m5153cb907c" y="557.638594"/>
      </g>
     </g>
    </g>
    <g id="xtick_58">
     <g id="line2d_76">
      <g>
       <use style="stroke:#000000;stroke-width:0.6;" x="202.019282" xlink:href="#m5153cb907c" y="557.638594"/>
      </g>
     </g>
    </g>
    <g id="xtick_59">
     <g id="line2d_77">
      <g>
       <use style="stroke:#000000;stroke-width:0.6;" x="233.301812" xlink:href="#m5153cb907c" y="557.638594"/>
      </g>
     </g>
    </g>
    <g id="xtick_60">
     <g id="line2d_78">
      <g>
       <use style="stroke:#000000;stroke-width:0.6;" x="249.199492" xlink:href="#m5153cb907c" y="557.638594"/>
      </g>
     </g>
    </g>
    <g id="xtick_61">
     <g id="line2d_79">
      <g>
       <use style="stroke:#000000;stroke-width:0.6;" x="264.584343" xlink:href="#m5153cb907c" y="557.638594"/>
      </g>
     </g>
    </g>
    <g id="xtick_62">
     <g id="line2d_80">
      <g>
       <use style="stroke:#000000;stroke-width:0.6;" x="280.482022" xlink:href="#m5153cb907c" y="557.638594"/>
      </g>
     </g>
    </g>
    <g id="xtick_63">
     <g id="line2d_81">
      <g>
       <use style="stroke:#000000;stroke-width:0.6;" x="295.866873" xlink:href="#m5153cb907c" y="557.638594"/>
      </g>
     </g>
    </g>
    <g id="xtick_64">
     <g id="line2d_82">
      <g>
       <use style="stroke:#000000;stroke-width:0.6;" x="327.662232" xlink:href="#m5153cb907c" y="557.638594"/>
      </g>
     </g>
    </g>
    <g id="xtick_65">
     <g id="line2d_83">
      <g>
       <use style="stroke:#000000;stroke-width:0.6;" x="342.021426" xlink:href="#m5153cb907c" y="557.638594"/>
      </g>
     </g>
    </g>
    <g id="xtick_66">
     <g id="line2d_84">
      <g>
       <use style="stroke:#000000;stroke-width:0.6;" x="357.919106" xlink:href="#m5153cb907c" y="557.638594"/>
      </g>
     </g>
    </g>
    <g id="xtick_67">
     <g id="line2d_85">
      <g>
       <use style="stroke:#000000;stroke-width:0.6;" x="373.303957" xlink:href="#m5153cb907c" y="557.638594"/>
      </g>
     </g>
    </g>
    <g id="xtick_68">
     <g id="line2d_86">
      <g>
       <use style="stroke:#000000;stroke-width:0.6;" x="389.201636" xlink:href="#m5153cb907c" y="557.638594"/>
      </g>
     </g>
    </g>
    <g id="xtick_69">
     <g id="line2d_87">
      <g>
       <use style="stroke:#000000;stroke-width:0.6;" x="420.484167" xlink:href="#m5153cb907c" y="557.638594"/>
      </g>
     </g>
    </g>
    <g id="xtick_70">
     <g id="line2d_88">
      <g>
       <use style="stroke:#000000;stroke-width:0.6;" x="436.381846" xlink:href="#m5153cb907c" y="557.638594"/>
      </g>
     </g>
    </g>
    <g id="xtick_71">
     <g id="line2d_89">
      <g>
       <use style="stroke:#000000;stroke-width:0.6;" x="451.766697" xlink:href="#m5153cb907c" y="557.638594"/>
      </g>
     </g>
    </g>
    <g id="xtick_72">
     <g id="line2d_90">
      <g>
       <use style="stroke:#000000;stroke-width:0.6;" x="467.664377" xlink:href="#m5153cb907c" y="557.638594"/>
      </g>
     </g>
    </g>
    <g id="xtick_73">
     <g id="line2d_91">
      <g>
       <use style="stroke:#000000;stroke-width:0.6;" x="483.049228" xlink:href="#m5153cb907c" y="557.638594"/>
      </g>
     </g>
    </g>
    <g id="xtick_74">
     <g id="line2d_92">
      <g>
       <use style="stroke:#000000;stroke-width:0.6;" x="514.844586" xlink:href="#m5153cb907c" y="557.638594"/>
      </g>
     </g>
    </g>
    <g id="xtick_75">
     <g id="line2d_93">
      <g>
       <use style="stroke:#000000;stroke-width:0.6;" x="529.203781" xlink:href="#m5153cb907c" y="557.638594"/>
      </g>
     </g>
    </g>
    <g id="xtick_76">
     <g id="line2d_94">
      <g>
       <use style="stroke:#000000;stroke-width:0.6;" x="545.10146" xlink:href="#m5153cb907c" y="557.638594"/>
      </g>
     </g>
    </g>
    <g id="xtick_77">
     <g id="line2d_95">
      <g>
       <use style="stroke:#000000;stroke-width:0.6;" x="560.486311" xlink:href="#m5153cb907c" y="557.638594"/>
      </g>
     </g>
    </g>
    <g id="xtick_78">
     <g id="line2d_96">
      <g>
       <use style="stroke:#000000;stroke-width:0.6;" x="576.383991" xlink:href="#m5153cb907c" y="557.638594"/>
      </g>
     </g>
    </g>
    <g id="xtick_79">
     <g id="line2d_97">
      <g>
       <use style="stroke:#000000;stroke-width:0.6;" x="607.666521" xlink:href="#m5153cb907c" y="557.638594"/>
      </g>
     </g>
    </g>
    <g id="xtick_80">
     <g id="line2d_98">
      <g>
       <use style="stroke:#000000;stroke-width:0.6;" x="623.5642" xlink:href="#m5153cb907c" y="557.638594"/>
      </g>
     </g>
    </g>
    <g id="xtick_81">
     <g id="line2d_99">
      <g>
       <use style="stroke:#000000;stroke-width:0.6;" x="638.949052" xlink:href="#m5153cb907c" y="557.638594"/>
      </g>
     </g>
    </g>
    <g id="xtick_82">
     <g id="line2d_100">
      <g>
       <use style="stroke:#000000;stroke-width:0.6;" x="654.846731" xlink:href="#m5153cb907c" y="557.638594"/>
      </g>
     </g>
    </g>
    <g id="xtick_83">
     <g id="line2d_101">
      <g>
       <use style="stroke:#000000;stroke-width:0.6;" x="670.231582" xlink:href="#m5153cb907c" y="557.638594"/>
      </g>
     </g>
    </g>
    <g id="xtick_84">
     <g id="line2d_102">
      <g>
       <use style="stroke:#000000;stroke-width:0.6;" x="702.026941" xlink:href="#m5153cb907c" y="557.638594"/>
      </g>
     </g>
    </g>
   </g>
   <g id="matplotlib.axis_4">
    <g id="ytick_8">
     <g id="line2d_103">
      <g>
       <use style="stroke:#000000;stroke-width:0.8;" x="46.965625" xlink:href="#meb0316d3cd" y="544.74137"/>
      </g>
     </g>
     <g id="text_28">
      <!-- 110 -->
      <g transform="translate(20.878125 548.540589)scale(0.1 -0.1)">
       <use xlink:href="#DejaVuSans-31"/>
       <use x="63.623047" xlink:href="#DejaVuSans-31"/>
       <use x="127.246094" xlink:href="#DejaVuSans-30"/>
      </g>
     </g>
    </g>
    <g id="ytick_9">
     <g id="line2d_104">
      <g>
       <use style="stroke:#000000;stroke-width:0.8;" x="46.965625" xlink:href="#meb0316d3cd" y="513.667583"/>
      </g>
     </g>
     <g id="text_29">
      <!-- 120 -->
      <g transform="translate(20.878125 517.466802)scale(0.1 -0.1)">
       <use xlink:href="#DejaVuSans-31"/>
       <use x="63.623047" xlink:href="#DejaVuSans-32"/>
       <use x="127.246094" xlink:href="#DejaVuSans-30"/>
      </g>
     </g>
    </g>
    <g id="ytick_10">
     <g id="line2d_105">
      <g>
       <use style="stroke:#000000;stroke-width:0.8;" x="46.965625" xlink:href="#meb0316d3cd" y="482.593796"/>
      </g>
     </g>
     <g id="text_30">
      <!-- 130 -->
      <g transform="translate(20.878125 486.393015)scale(0.1 -0.1)">
       <use xlink:href="#DejaVuSans-31"/>
       <use x="63.623047" xlink:href="#DejaVuSans-33"/>
       <use x="127.246094" xlink:href="#DejaVuSans-30"/>
      </g>
     </g>
    </g>
    <g id="ytick_11">
     <g id="line2d_106">
      <g>
       <use style="stroke:#000000;stroke-width:0.8;" x="46.965625" xlink:href="#meb0316d3cd" y="451.52001"/>
      </g>
     </g>
     <g id="text_31">
      <!-- 140 -->
      <g transform="translate(20.878125 455.319228)scale(0.1 -0.1)">
       <use xlink:href="#DejaVuSans-31"/>
       <use x="63.623047" xlink:href="#DejaVuSans-34"/>
       <use x="127.246094" xlink:href="#DejaVuSans-30"/>
      </g>
     </g>
    </g>
    <g id="ytick_12">
     <g id="line2d_107">
      <g>
       <use style="stroke:#000000;stroke-width:0.8;" x="46.965625" xlink:href="#meb0316d3cd" y="420.446223"/>
      </g>
     </g>
     <g id="text_32">
      <!-- 150 -->
      <g transform="translate(20.878125 424.245441)scale(0.1 -0.1)">
       <use xlink:href="#DejaVuSans-31"/>
       <use x="63.623047" xlink:href="#DejaVuSans-35"/>
       <use x="127.246094" xlink:href="#DejaVuSans-30"/>
      </g>
     </g>
    </g>
    <g id="ytick_13">
     <g id="line2d_108">
      <g>
       <use style="stroke:#000000;stroke-width:0.8;" x="46.965625" xlink:href="#meb0316d3cd" y="389.372436"/>
      </g>
     </g>
     <g id="text_33">
      <!-- 160 -->
      <g transform="translate(20.878125 393.171655)scale(0.1 -0.1)">
       <use xlink:href="#DejaVuSans-31"/>
       <use x="63.623047" xlink:href="#DejaVuSans-36"/>
       <use x="127.246094" xlink:href="#DejaVuSans-30"/>
      </g>
     </g>
    </g>
    <g id="ytick_14">
     <g id="line2d_109">
      <g>
       <use style="stroke:#000000;stroke-width:0.8;" x="46.965625" xlink:href="#meb0316d3cd" y="358.298649"/>
      </g>
     </g>
     <g id="text_34">
      <!-- 170 -->
      <g transform="translate(20.878125 362.097868)scale(0.1 -0.1)">
       <use xlink:href="#DejaVuSans-31"/>
       <use x="63.623047" xlink:href="#DejaVuSans-37"/>
       <use x="127.246094" xlink:href="#DejaVuSans-30"/>
      </g>
     </g>
    </g>
    <g id="ytick_15">
     <g id="line2d_110">
      <g>
       <use style="stroke:#000000;stroke-width:0.8;" x="46.965625" xlink:href="#meb0316d3cd" y="327.224862"/>
      </g>
     </g>
     <g id="text_35">
      <!-- 180 -->
      <g transform="translate(20.878125 331.024081)scale(0.1 -0.1)">
       <use xlink:href="#DejaVuSans-31"/>
       <use x="63.623047" xlink:href="#DejaVuSans-38"/>
       <use x="127.246094" xlink:href="#DejaVuSans-30"/>
      </g>
     </g>
    </g>
    <g id="text_36">
     <!-- Billion US Dollars -->
     <g transform="translate(14.798438 476.73142)rotate(-90)scale(0.1 -0.1)">
      <use xlink:href="#DejaVuSans-42"/>
      <use x="68.603516" xlink:href="#DejaVuSans-69"/>
      <use x="96.386719" xlink:href="#DejaVuSans-6c"/>
      <use x="124.169922" xlink:href="#DejaVuSans-6c"/>
      <use x="151.953125" xlink:href="#DejaVuSans-69"/>
      <use x="179.736328" xlink:href="#DejaVuSans-6f"/>
      <use x="240.917969" xlink:href="#DejaVuSans-6e"/>
      <use x="304.296875" xlink:href="#DejaVuSans-20"/>
      <use x="336.083984" xlink:href="#DejaVuSans-55"/>
      <use x="409.277344" xlink:href="#DejaVuSans-53"/>
      <use x="472.753906" xlink:href="#DejaVuSans-20"/>
      <use x="504.541016" xlink:href="#DejaVuSans-44"/>
      <use x="581.542969" xlink:href="#DejaVuSans-6f"/>
      <use x="642.724609" xlink:href="#DejaVuSans-6c"/>
      <use x="670.507812" xlink:href="#DejaVuSans-6c"/>
      <use x="698.291016" xlink:href="#DejaVuSans-61"/>
      <use x="759.570312" xlink:href="#DejaVuSans-72"/>
      <use x="800.683594" xlink:href="#DejaVuSans-73"/>
     </g>
    </g>
   </g>
   <g id="line2d_111">
    <path clip-path="url(#pb59ef46aee)" d="M 77.401989 452.300267 
L 93.299668 436.9204 
L 108.684519 422.997151 
L 124.582198 416.339988 
L 140.479878 397.749796 
L 154.839072 398.225338 
L 170.736752 400.686 
L 186.121603 418.53781 
L 202.019282 417.913953 
L 217.404133 425.896909 
L 233.301812 432.637439 
L 249.199492 423.870713 
L 264.584343 424.442777 
L 280.482022 403.426468 
L 295.866873 378.65006 
L 311.764553 387.26039 
L 327.662232 354.148443 
L 342.021426 354.426285 
L 357.919106 353.211469 
L 373.303957 373.511496 
L 389.201636 373.27534 
L 404.586487 371.601012 
L 420.484167 375.704227 
L 436.381846 371.90979 
L 451.766697 375.812984 
L 467.664377 375.454987 
L 483.049228 364.923533 
L 498.946907 366.705093 
L 514.844586 341.580984 
L 529.203781 321.77909 
L 545.10146 344.155273 
L 560.486311 341.40974 
L 576.383991 356.78234 
L 591.768842 362.605928 
L 607.666521 363.864791 
L 623.5642 372.26091 
L 638.949052 384.052842 
L 654.846731 379.351067 
L 670.231582 355.784028 
L 686.129261 361.995943 
" style="fill:none;stroke:#6b8e23;stroke-linecap:square;stroke-width:3;"/>
   </g>
   <g id="line2d_112">
    <path clip-path="url(#pb59ef46aee)" d="M 77.401989 543.00436 
L 93.299668 546.407189 
L 108.684519 530.987508 
L 124.582198 522.087097 
L 140.479878 522.097327 
L 154.839072 522.794527 
L 170.736752 524.49828 
L 186.121603 526.351976 
L 202.019282 520.411251 
L 217.404133 521.417583 
L 233.301812 522.646232 
L 249.199492 518.058245 
L 264.584343 520.069474 
L 280.482022 510.859738 
L 295.866873 503.57132 
L 311.764553 503.235059 
L 327.662232 495.000417 
L 342.021426 490.891881 
L 357.919106 482.064816 
L 373.303957 473.975573 
L 389.201636 481.837124 
L 404.586487 485.421202 
L 420.484167 485.794805 
L 436.381846 481.825391 
L 451.766697 476.288369 
L 467.664377 485.075288 
L 483.049228 494.754995 
L 498.946907 482.516642 
L 514.844586 484.481324 
L 529.203781 483.323876 
L 545.10146 487.464868 
L 560.486311 482.37021 
L 576.383991 492.757558 
L 591.768842 485.689095 
L 607.666521 491.27524 
L 623.5642 493.626196 
L 638.949052 492.605606 
L 654.846731 496.945754 
L 670.231582 491.490395 
L 686.129261 489.751386 
" style="fill:none;stroke:#000080;stroke-linecap:square;stroke-width:3;"/>
   </g>
   <g id="line2d_113">
    <path clip-path="url(#pb59ef46aee)" d="M 124.582198 411.531438 
L 140.479878 411.531438 
L 154.839072 411.531438 
L 170.736752 411.531438 
L 186.121603 411.531438 
L 202.019282 411.531438 
L 217.404133 411.531438 
L 233.301812 411.531438 
L 249.199492 411.531438 
L 264.584343 411.531438 
L 280.482022 411.531438 
L 295.866873 411.531438 
" style="fill:none;stroke:#6b8e23;stroke-dasharray:7.4,3.2;stroke-dashoffset:0;stroke-width:2;"/>
   </g>
   <g id="line2d_114">
    <path clip-path="url(#pb59ef46aee)" d="M 124.582198 519.571921 
L 140.479878 519.571921 
L 154.839072 519.571921 
L 170.736752 519.571921 
L 186.121603 519.571921 
L 202.019282 519.571921 
L 217.404133 519.571921 
L 233.301812 519.571921 
L 249.199492 519.571921 
L 264.584343 519.571921 
L 280.482022 519.571921 
L 295.866873 519.571921 
" style="fill:none;stroke:#000080;stroke-dasharray:7.4,3.2;stroke-dashoffset:0;stroke-width:2;"/>
   </g>
   <g id="line2d_115">
    <path clip-path="url(#pb59ef46aee)" d="M 498.946907 357.527674 
L 514.844586 357.527674 
L 529.203781 357.527674 
L 545.10146 357.527674 
L 560.486311 357.527674 
L 576.383991 357.527674 
L 591.768842 357.527674 
L 607.666521 357.527674 
L 623.5642 357.527674 
L 638.949052 357.527674 
L 654.846731 357.527674 
L 670.231582 357.527674 
" style="fill:none;stroke:#6b8e23;stroke-dasharray:7.4,3.2;stroke-dashoffset:0;stroke-width:2;"/>
   </g>
   <g id="line2d_116">
    <path clip-path="url(#pb59ef46aee)" d="M 498.946907 488.71223 
L 514.844586 488.71223 
L 529.203781 488.71223 
L 545.10146 488.71223 
L 560.486311 488.71223 
L 576.383991 488.71223 
L 591.768842 488.71223 
L 607.666521 488.71223 
L 623.5642 488.71223 
L 638.949052 488.71223 
L 654.846731 488.71223 
L 670.231582 488.71223 
" style="fill:none;stroke:#000080;stroke-dasharray:7.4,3.2;stroke-dashoffset:0;stroke-width:2;"/>
   </g>
   <g id="line2d_117">
    <path clip-path="url(#pb59ef46aee)" d="M 404.586487 557.638594 
L 404.586487 310.547685 
" style="fill:none;stroke:#000000;stroke-dasharray:2,3.3;stroke-dashoffset:0;stroke-width:2;"/>
   </g>
   <g id="patch_11">
    <path d="M 46.965625 557.638594 
L 46.965625 310.547685 
" style="fill:none;stroke:#000000;stroke-linecap:square;stroke-linejoin:miter;stroke-width:0.8;"/>
   </g>
   <g id="patch_12">
    <path d="M 46.965625 557.638594 
L 716.565625 557.638594 
" style="fill:none;stroke:#000000;stroke-linecap:square;stroke-linejoin:miter;stroke-width:0.8;"/>
   </g>
   <g id="text_37">
    <!-- 2017 balance: -->
    <g transform="translate(217.404133 463.193629)scale(0.09 -0.09)">
     <use xlink:href="#DejaVuSans-32"/>
     <use x="63.623047" xlink:href="#DejaVuSans-30"/>
     <use x="127.246094" xlink:href="#DejaVuSans-31"/>
     <use x="190.869141" xlink:href="#DejaVuSans-37"/>
     <use x="254.492188" xlink:href="#DejaVuSans-20"/>
     <use x="286.279297" xlink:href="#DejaVuSans-62"/>
     <use x="349.755859" xlink:href="#DejaVuSans-61"/>
     <use x="411.035156" xlink:href="#DejaVuSans-6c"/>
     <use x="438.818359" xlink:href="#DejaVuSans-61"/>
     <use x="500.097656" xlink:href="#DejaVuSans-6e"/>
     <use x="563.476562" xlink:href="#DejaVuSans-63"/>
     <use x="618.457031" xlink:href="#DejaVuSans-65"/>
     <use x="679.980469" xlink:href="#DejaVuSans-3a"/>
    </g>
    <!--  -417.23 -->
    <g transform="translate(217.404133 473.27166)scale(0.09 -0.09)">
     <use xlink:href="#DejaVuSans-20"/>
     <use x="31.787109" xlink:href="#DejaVuSans-2d"/>
     <use x="67.871094" xlink:href="#DejaVuSans-34"/>
     <use x="131.494141" xlink:href="#DejaVuSans-31"/>
     <use x="195.117188" xlink:href="#DejaVuSans-37"/>
     <use x="258.740234" xlink:href="#DejaVuSans-2e"/>
     <use x="290.527344" xlink:href="#DejaVuSans-32"/>
     <use x="354.150391" xlink:href="#DejaVuSans-33"/>
    </g>
   </g>
   <g id="text_38">
    <!-- 2019 balance: -->
    <g transform="translate(591.768842 432.119842)scale(0.09 -0.09)">
     <use xlink:href="#DejaVuSans-32"/>
     <use x="63.623047" xlink:href="#DejaVuSans-30"/>
     <use x="127.246094" xlink:href="#DejaVuSans-31"/>
     <use x="190.869141" xlink:href="#DejaVuSans-39"/>
     <use x="254.492188" xlink:href="#DejaVuSans-20"/>
     <use x="286.279297" xlink:href="#DejaVuSans-62"/>
     <use x="349.755859" xlink:href="#DejaVuSans-61"/>
     <use x="411.035156" xlink:href="#DejaVuSans-6c"/>
     <use x="438.818359" xlink:href="#DejaVuSans-61"/>
     <use x="500.097656" xlink:href="#DejaVuSans-6e"/>
     <use x="563.476562" xlink:href="#DejaVuSans-63"/>
     <use x="618.457031" xlink:href="#DejaVuSans-65"/>
     <use x="679.980469" xlink:href="#DejaVuSans-3a"/>
    </g>
    <!--  -506.61 -->
    <g transform="translate(591.768842 442.197874)scale(0.09 -0.09)">
     <use xlink:href="#DejaVuSans-20"/>
     <use x="31.787109" xlink:href="#DejaVuSans-2d"/>
     <use x="67.871094" xlink:href="#DejaVuSans-35"/>
     <use x="131.494141" xlink:href="#DejaVuSans-30"/>
     <use x="195.117188" xlink:href="#DejaVuSans-36"/>
     <use x="258.740234" xlink:href="#DejaVuSans-2e"/>
     <use x="290.527344" xlink:href="#DejaVuSans-36"/>
     <use x="354.150391" xlink:href="#DejaVuSans-31"/>
    </g>
   </g>
   <g id="text_39">
    <!-- US-CN trade war -->
    <g transform="translate(329.730394 311.687969)scale(0.09 -0.09)">
     <use xlink:href="#DejaVuSans-55"/>
     <use x="73.193359" xlink:href="#DejaVuSans-53"/>
     <use x="136.669922" xlink:href="#DejaVuSans-2d"/>
     <use x="172.753906" xlink:href="#DejaVuSans-43"/>
     <use x="242.578125" xlink:href="#DejaVuSans-4e"/>
     <use x="317.382812" xlink:href="#DejaVuSans-20"/>
     <use x="349.169922" xlink:href="#DejaVuSans-74"/>
     <use x="388.378906" xlink:href="#DejaVuSans-72"/>
     <use x="429.492188" xlink:href="#DejaVuSans-61"/>
     <use x="490.771484" xlink:href="#DejaVuSans-64"/>
     <use x="554.248047" xlink:href="#DejaVuSans-65"/>
     <use x="615.771484" xlink:href="#DejaVuSans-20"/>
     <use x="647.558594" xlink:href="#DejaVuSans-77"/>
     <use x="729.345703" xlink:href="#DejaVuSans-61"/>
     <use x="790.625" xlink:href="#DejaVuSans-72"/>
    </g>
   </g>
   <g id="legend_2">
    <g id="patch_13">
     <path d="M 52.565625 340.432685 
L 161.519375 340.432685 
Q 163.119375 340.432685 163.119375 338.832685 
L 163.119375 316.147685 
Q 163.119375 314.547685 161.519375 314.547685 
L 52.565625 314.547685 
Q 50.965625 314.547685 50.965625 316.147685 
L 50.965625 338.832685 
Q 50.965625 340.432685 52.565625 340.432685 
z
" style="fill:#ffffff;opacity:0.8;stroke:#cccccc;stroke-linejoin:miter;"/>
    </g>
    <g id="line2d_118">
     <path d="M 54.165625 321.026435 
L 70.165625 321.026435 
" style="fill:none;stroke:#000080;stroke-linecap:square;stroke-width:3;"/>
    </g>
    <g id="line2d_119"/>
    <g id="text_40">
     <!-- US export to ROW -->
     <g transform="translate(76.565625 323.826435)scale(0.08 -0.08)">
      <defs>
       <path d="M 2841 2188 
Q 3044 2119 3236 1894 
Q 3428 1669 3622 1275 
L 4263 0 
L 3584 0 
L 2988 1197 
Q 2756 1666 2539 1819 
Q 2322 1972 1947 1972 
L 1259 1972 
L 1259 0 
L 628 0 
L 628 4666 
L 2053 4666 
Q 2853 4666 3247 4331 
Q 3641 3997 3641 3322 
Q 3641 2881 3436 2590 
Q 3231 2300 2841 2188 
z
M 1259 4147 
L 1259 2491 
L 2053 2491 
Q 2509 2491 2742 2702 
Q 2975 2913 2975 3322 
Q 2975 3731 2742 3939 
Q 2509 4147 2053 4147 
L 1259 4147 
z
" id="DejaVuSans-52" transform="scale(0.015625)"/>
       <path d="M 2522 4238 
Q 1834 4238 1429 3725 
Q 1025 3213 1025 2328 
Q 1025 1447 1429 934 
Q 1834 422 2522 422 
Q 3209 422 3611 934 
Q 4013 1447 4013 2328 
Q 4013 3213 3611 3725 
Q 3209 4238 2522 4238 
z
M 2522 4750 
Q 3503 4750 4090 4092 
Q 4678 3434 4678 2328 
Q 4678 1225 4090 567 
Q 3503 -91 2522 -91 
Q 1538 -91 948 565 
Q 359 1222 359 2328 
Q 359 3434 948 4092 
Q 1538 4750 2522 4750 
z
" id="DejaVuSans-4f" transform="scale(0.015625)"/>
       <path d="M 213 4666 
L 850 4666 
L 1831 722 
L 2809 4666 
L 3519 4666 
L 4500 722 
L 5478 4666 
L 6119 4666 
L 4947 0 
L 4153 0 
L 3169 4050 
L 2175 0 
L 1381 0 
L 213 4666 
z
" id="DejaVuSans-57" transform="scale(0.015625)"/>
      </defs>
      <use xlink:href="#DejaVuSans-55"/>
      <use x="73.193359" xlink:href="#DejaVuSans-53"/>
      <use x="136.669922" xlink:href="#DejaVuSans-20"/>
      <use x="168.457031" xlink:href="#DejaVuSans-65"/>
      <use x="228.230469" xlink:href="#DejaVuSans-78"/>
      <use x="287.410156" xlink:href="#DejaVuSans-70"/>
      <use x="350.886719" xlink:href="#DejaVuSans-6f"/>
      <use x="412.068359" xlink:href="#DejaVuSans-72"/>
      <use x="453.181641" xlink:href="#DejaVuSans-74"/>
      <use x="492.390625" xlink:href="#DejaVuSans-20"/>
      <use x="524.177734" xlink:href="#DejaVuSans-74"/>
      <use x="563.386719" xlink:href="#DejaVuSans-6f"/>
      <use x="624.568359" xlink:href="#DejaVuSans-20"/>
      <use x="656.355469" xlink:href="#DejaVuSans-52"/>
      <use x="725.837891" xlink:href="#DejaVuSans-4f"/>
      <use x="804.548828" xlink:href="#DejaVuSans-57"/>
     </g>
    </g>
    <g id="line2d_120">
     <path d="M 54.165625 332.768935 
L 70.165625 332.768935 
" style="fill:none;stroke:#6b8e23;stroke-linecap:square;stroke-width:3;"/>
    </g>
    <g id="line2d_121"/>
    <g id="text_41">
     <!-- US import from ROW -->
     <g transform="translate(76.565625 335.568935)scale(0.08 -0.08)">
      <use xlink:href="#DejaVuSans-55"/>
      <use x="73.193359" xlink:href="#DejaVuSans-53"/>
      <use x="136.669922" xlink:href="#DejaVuSans-20"/>
      <use x="168.457031" xlink:href="#DejaVuSans-69"/>
      <use x="196.240234" xlink:href="#DejaVuSans-6d"/>
      <use x="293.652344" xlink:href="#DejaVuSans-70"/>
      <use x="357.128906" xlink:href="#DejaVuSans-6f"/>
      <use x="418.310547" xlink:href="#DejaVuSans-72"/>
      <use x="459.423828" xlink:href="#DejaVuSans-74"/>
      <use x="498.632812" xlink:href="#DejaVuSans-20"/>
      <use x="530.419922" xlink:href="#DejaVuSans-66"/>
      <use x="565.625" xlink:href="#DejaVuSans-72"/>
      <use x="604.488281" xlink:href="#DejaVuSans-6f"/>
      <use x="665.669922" xlink:href="#DejaVuSans-6d"/>
      <use x="763.082031" xlink:href="#DejaVuSans-20"/>
      <use x="794.869141" xlink:href="#DejaVuSans-52"/>
      <use x="864.351562" xlink:href="#DejaVuSans-4f"/>
      <use x="943.0625" xlink:href="#DejaVuSans-57"/>
     </g>
    </g>
   </g>
  </g>
 </g>
 <defs>
  <clipPath id="p22f7d5c910">
   <rect height="247.090909" width="669.6" x="46.965625" y="14.038594"/>
  </clipPath>
  <clipPath id="pb59ef46aee">
   <rect height="247.090909" width="669.6" x="46.965625" y="310.547685"/>
  </clipPath>
 </defs>
</svg>
