<?xml version="1.0" encoding="utf-8" standalone="no"?>
<!DOCTYPE svg PUBLIC "-//W3C//DTD SVG 1.1//EN"
  "http://www.w3.org/Graphics/SVG/1.1/DTD/svg11.dtd">
<svg height="690.236719pt" version="1.1" viewBox="0 0 723.765625 690.236719" width="723.765625pt" xmlns="http://www.w3.org/2000/svg" xmlns:xlink="http://www.w3.org/1999/xlink">
 <metadata>
  <rdf:RDF xmlns:cc="http://creativecommons.org/ns#" xmlns:dc="http://purl.org/dc/elements/1.1/" xmlns:rdf="http://www.w3.org/1999/02/22-rdf-syntax-ns#">
   <cc:Work>
    <dc:type rdf:resource="http://purl.org/dc/dcmitype/StillImage"/>
    <dc:date>2021-11-24T15:17:30.238238</dc:date>
    <dc:format>image/svg+xml</dc:format>
    <dc:creator>
     <cc:Agent>
      <dc:title>Matplotlib v3.4.3, https://matplotlib.org/</dc:title>
     </cc:Agent>
    </dc:creator>
   </cc:Work>
  </rdf:RDF>
 </metadata>
 <defs>
  <style type="text/css">*{stroke-linecap:butt;stroke-linejoin:round;}</style>
 </defs>
 <g id="figure_1">
  <g id="patch_1">
   <path d="M 0 690.236719 
L 723.765625 690.236719 
L 723.765625 -0 
L 0 -0 
z
" style="fill:none;"/>
  </g>
  <g id="axes_1">
   <g id="patch_2">
    <path d="M 46.965625 310.547685 
L 716.565625 310.547685 
L 716.565625 14.038594 
L 46.965625 14.038594 
z
" style="fill:#ffffff;"/>
   </g>
   <g id="PolyCollection_1">
    <defs>
     <path d="M 77.401989 -441.955966 
L 77.401989 -596.131273 
L 93.299668 -590.223494 
L 108.684519 -574.193691 
L 124.582198 -583.961823 
L 140.479878 -541.706333 
L 154.839072 -548.511395 
L 170.736752 -564.719952 
L 186.121603 -586.043769 
L 202.019282 -588.520775 
L 217.404133 -594.960124 
L 233.301812 -605.936896 
L 249.199492 -604.072542 
L 264.584343 -617.554308 
L 280.482022 -617.414177 
L 295.866873 -599.300381 
L 311.764553 -605.437764 
L 327.662232 -572.203363 
L 342.021426 -568.83134 
L 357.919106 -568.603711 
L 373.303957 -596.469688 
L 389.201636 -599.718572 
L 404.586487 -612.002671 
L 420.484167 -615.889135 
L 436.381846 -626.473797 
L 451.766697 -637.064215 
L 467.664377 -608.715478 
L 483.049228 -606.097735 
L 498.946907 -584.125081 
L 514.844586 -543.268587 
L 529.203781 -533.811496 
L 545.10146 -550.801275 
L 560.486311 -572.936154 
L 576.383991 -571.782256 
L 591.768842 -584.167315 
L 607.666521 -582.698017 
L 623.5642 -577.664266 
L 638.949052 -577.362524 
L 654.846731 -559.56146 
L 670.231582 -545.665795 
L 686.129261 -543.625496 
L 686.129261 -415.041354 
L 686.129261 -415.041354 
L 670.231582 -423.666417 
L 654.846731 -429.614279 
L 638.949052 -423.444746 
L 623.5642 -422.18838 
L 607.666521 -426.186561 
L 591.768842 -422.680112 
L 576.383991 -424.988245 
L 560.486311 -424.508903 
L 545.10146 -418.648657 
L 529.203781 -431.956507 
L 514.844586 -419.636107 
L 498.946907 -414.797993 
L 483.049228 -425.204364 
L 467.664377 -422.438048 
L 451.766697 -425.097797 
L 436.381846 -427.788255 
L 420.484167 -425.539921 
L 404.586487 -429.858158 
L 389.201636 -433.336095 
L 373.303957 -431.072843 
L 357.919106 -431.625405 
L 342.021426 -442.217891 
L 327.662232 -427.837767 
L 311.764553 -428.659755 
L 295.866873 -447.045395 
L 280.482022 -443.479971 
L 264.584343 -443.750921 
L 249.199492 -433.534983 
L 233.301812 -433.186493 
L 217.404133 -428.880205 
L 202.019282 -427.714666 
L 186.121603 -428.514314 
L 170.736752 -428.15086 
L 154.839072 -427.724417 
L 140.479878 -427.821429 
L 124.582198 -428.887418 
L 108.684519 -437.235546 
L 93.299668 -439.208711 
L 77.401989 -441.955966 
z
" id="ma1122a59a0" style="stroke:#d8bfd8;"/>
    </defs>
    <g clip-path="url(#pa5918ea07f)">
     <use style="fill:#d8bfd8;stroke:#d8bfd8;" x="0" xlink:href="#ma1122a59a0" y="690.236719"/>
    </g>
   </g>
   <g id="patch_3">
    <path clip-path="url(#pa5918ea07f)" d="M 217.404133 103.629546 
Q 217.404133 179.761988 217.404133 255.894429 
" style="fill:none;stroke:#000000;stroke-linecap:round;"/>
    <path clip-path="url(#pa5918ea07f)" d="M 215.404133 107.629546 
L 217.404133 103.629546 
L 219.404133 107.629546 
L 215.404133 107.629546 
z
" style="stroke:#000000;stroke-linecap:round;"/>
    <path clip-path="url(#pa5918ea07f)" d="M 219.404133 251.894429 
L 217.404133 255.894429 
L 215.404133 251.894429 
L 219.404133 251.894429 
z
" style="stroke:#000000;stroke-linecap:round;"/>
   </g>
   <g id="patch_4">
    <path clip-path="url(#pa5918ea07f)" d="M 591.768842 126.034401 
Q 591.768842 195.813338 591.768842 265.592276 
" style="fill:none;stroke:#000000;stroke-linecap:round;"/>
    <path clip-path="url(#pa5918ea07f)" d="M 589.768842 130.034401 
L 591.768842 126.034401 
L 593.768842 130.034401 
L 589.768842 130.034401 
z
" style="stroke:#000000;stroke-linecap:round;"/>
    <path clip-path="url(#pa5918ea07f)" d="M 593.768842 261.592276 
L 591.768842 265.592276 
L 589.768842 261.592276 
L 593.768842 261.592276 
z
" style="stroke:#000000;stroke-linecap:round;"/>
   </g>
   <g id="matplotlib.axis_1">
    <g id="xtick_1">
     <g id="line2d_1">
      <defs>
       <path d="M 0 0 
L 0 3.5 
" id="m0a1aa9ca59" style="stroke:#000000;stroke-width:0.8;"/>
      </defs>
      <g>
       <use style="stroke:#000000;stroke-width:0.8;" x="124.582198" xlink:href="#m0a1aa9ca59" y="310.547685"/>
      </g>
     </g>
     <g id="text_1">
      <!-- 2017-01 -->
      <g transform="translate(103.690792 325.146122)scale(0.1 -0.1)">
       <defs>
        <path d="M 1228 531 
L 3431 531 
L 3431 0 
L 469 0 
L 469 531 
Q 828 903 1448 1529 
Q 2069 2156 2228 2338 
Q 2531 2678 2651 2914 
Q 2772 3150 2772 3378 
Q 2772 3750 2511 3984 
Q 2250 4219 1831 4219 
Q 1534 4219 1204 4116 
Q 875 4013 500 3803 
L 500 4441 
Q 881 4594 1212 4672 
Q 1544 4750 1819 4750 
Q 2544 4750 2975 4387 
Q 3406 4025 3406 3419 
Q 3406 3131 3298 2873 
Q 3191 2616 2906 2266 
Q 2828 2175 2409 1742 
Q 1991 1309 1228 531 
z
" id="DejaVuSans-32" transform="scale(0.015625)"/>
        <path d="M 2034 4250 
Q 1547 4250 1301 3770 
Q 1056 3291 1056 2328 
Q 1056 1369 1301 889 
Q 1547 409 2034 409 
Q 2525 409 2770 889 
Q 3016 1369 3016 2328 
Q 3016 3291 2770 3770 
Q 2525 4250 2034 4250 
z
M 2034 4750 
Q 2819 4750 3233 4129 
Q 3647 3509 3647 2328 
Q 3647 1150 3233 529 
Q 2819 -91 2034 -91 
Q 1250 -91 836 529 
Q 422 1150 422 2328 
Q 422 3509 836 4129 
Q 1250 4750 2034 4750 
z
" id="DejaVuSans-30" transform="scale(0.015625)"/>
        <path d="M 794 531 
L 1825 531 
L 1825 4091 
L 703 3866 
L 703 4441 
L 1819 4666 
L 2450 4666 
L 2450 531 
L 3481 531 
L 3481 0 
L 794 0 
L 794 531 
z
" id="DejaVuSans-31" transform="scale(0.015625)"/>
        <path d="M 525 4666 
L 3525 4666 
L 3525 4397 
L 1831 0 
L 1172 0 
L 2766 4134 
L 525 4134 
L 525 4666 
z
" id="DejaVuSans-37" transform="scale(0.015625)"/>
        <path d="M 313 2009 
L 1997 2009 
L 1997 1497 
L 313 1497 
L 313 2009 
z
" id="DejaVuSans-2d" transform="scale(0.015625)"/>
       </defs>
       <use xlink:href="#DejaVuSans-32"/>
       <use x="63.623047" xlink:href="#DejaVuSans-30"/>
       <use x="127.246094" xlink:href="#DejaVuSans-31"/>
       <use x="190.869141" xlink:href="#DejaVuSans-37"/>
       <use x="254.492188" xlink:href="#DejaVuSans-2d"/>
       <use x="290.576172" xlink:href="#DejaVuSans-30"/>
       <use x="354.199219" xlink:href="#DejaVuSans-31"/>
      </g>
     </g>
    </g>
    <g id="xtick_2">
     <g id="line2d_2">
      <g>
       <use style="stroke:#000000;stroke-width:0.8;" x="217.404133" xlink:href="#m0a1aa9ca59" y="310.547685"/>
      </g>
     </g>
     <g id="text_2">
      <!-- 2017-07 -->
      <g transform="translate(196.512727 325.146122)scale(0.1 -0.1)">
       <use xlink:href="#DejaVuSans-32"/>
       <use x="63.623047" xlink:href="#DejaVuSans-30"/>
       <use x="127.246094" xlink:href="#DejaVuSans-31"/>
       <use x="190.869141" xlink:href="#DejaVuSans-37"/>
       <use x="254.492188" xlink:href="#DejaVuSans-2d"/>
       <use x="290.576172" xlink:href="#DejaVuSans-30"/>
       <use x="354.199219" xlink:href="#DejaVuSans-37"/>
      </g>
     </g>
    </g>
    <g id="xtick_3">
     <g id="line2d_3">
      <g>
       <use style="stroke:#000000;stroke-width:0.8;" x="311.764553" xlink:href="#m0a1aa9ca59" y="310.547685"/>
      </g>
     </g>
     <g id="text_3">
      <!-- 2018-01 -->
      <g transform="translate(290.873147 325.146122)scale(0.1 -0.1)">
       <defs>
        <path d="M 2034 2216 
Q 1584 2216 1326 1975 
Q 1069 1734 1069 1313 
Q 1069 891 1326 650 
Q 1584 409 2034 409 
Q 2484 409 2743 651 
Q 3003 894 3003 1313 
Q 3003 1734 2745 1975 
Q 2488 2216 2034 2216 
z
M 1403 2484 
Q 997 2584 770 2862 
Q 544 3141 544 3541 
Q 544 4100 942 4425 
Q 1341 4750 2034 4750 
Q 2731 4750 3128 4425 
Q 3525 4100 3525 3541 
Q 3525 3141 3298 2862 
Q 3072 2584 2669 2484 
Q 3125 2378 3379 2068 
Q 3634 1759 3634 1313 
Q 3634 634 3220 271 
Q 2806 -91 2034 -91 
Q 1263 -91 848 271 
Q 434 634 434 1313 
Q 434 1759 690 2068 
Q 947 2378 1403 2484 
z
M 1172 3481 
Q 1172 3119 1398 2916 
Q 1625 2713 2034 2713 
Q 2441 2713 2670 2916 
Q 2900 3119 2900 3481 
Q 2900 3844 2670 4047 
Q 2441 4250 2034 4250 
Q 1625 4250 1398 4047 
Q 1172 3844 1172 3481 
z
" id="DejaVuSans-38" transform="scale(0.015625)"/>
       </defs>
       <use xlink:href="#DejaVuSans-32"/>
       <use x="63.623047" xlink:href="#DejaVuSans-30"/>
       <use x="127.246094" xlink:href="#DejaVuSans-31"/>
       <use x="190.869141" xlink:href="#DejaVuSans-38"/>
       <use x="254.492188" xlink:href="#DejaVuSans-2d"/>
       <use x="290.576172" xlink:href="#DejaVuSans-30"/>
       <use x="354.199219" xlink:href="#DejaVuSans-31"/>
      </g>
     </g>
    </g>
    <g id="xtick_4">
     <g id="line2d_4">
      <g>
       <use style="stroke:#000000;stroke-width:0.8;" x="404.586487" xlink:href="#m0a1aa9ca59" y="310.547685"/>
      </g>
     </g>
     <g id="text_4">
      <!-- 2018-07 -->
      <g transform="translate(383.695081 325.146122)scale(0.1 -0.1)">
       <use xlink:href="#DejaVuSans-32"/>
       <use x="63.623047" xlink:href="#DejaVuSans-30"/>
       <use x="127.246094" xlink:href="#DejaVuSans-31"/>
       <use x="190.869141" xlink:href="#DejaVuSans-38"/>
       <use x="254.492188" xlink:href="#DejaVuSans-2d"/>
       <use x="290.576172" xlink:href="#DejaVuSans-30"/>
       <use x="354.199219" xlink:href="#DejaVuSans-37"/>
      </g>
     </g>
    </g>
    <g id="xtick_5">
     <g id="line2d_5">
      <g>
       <use style="stroke:#000000;stroke-width:0.8;" x="498.946907" xlink:href="#m0a1aa9ca59" y="310.547685"/>
      </g>
     </g>
     <g id="text_5">
      <!-- 2019-01 -->
      <g transform="translate(478.055501 325.146122)scale(0.1 -0.1)">
       <defs>
        <path d="M 703 97 
L 703 672 
Q 941 559 1184 500 
Q 1428 441 1663 441 
Q 2288 441 2617 861 
Q 2947 1281 2994 2138 
Q 2813 1869 2534 1725 
Q 2256 1581 1919 1581 
Q 1219 1581 811 2004 
Q 403 2428 403 3163 
Q 403 3881 828 4315 
Q 1253 4750 1959 4750 
Q 2769 4750 3195 4129 
Q 3622 3509 3622 2328 
Q 3622 1225 3098 567 
Q 2575 -91 1691 -91 
Q 1453 -91 1209 -44 
Q 966 3 703 97 
z
M 1959 2075 
Q 2384 2075 2632 2365 
Q 2881 2656 2881 3163 
Q 2881 3666 2632 3958 
Q 2384 4250 1959 4250 
Q 1534 4250 1286 3958 
Q 1038 3666 1038 3163 
Q 1038 2656 1286 2365 
Q 1534 2075 1959 2075 
z
" id="DejaVuSans-39" transform="scale(0.015625)"/>
       </defs>
       <use xlink:href="#DejaVuSans-32"/>
       <use x="63.623047" xlink:href="#DejaVuSans-30"/>
       <use x="127.246094" xlink:href="#DejaVuSans-31"/>
       <use x="190.869141" xlink:href="#DejaVuSans-39"/>
       <use x="254.492188" xlink:href="#DejaVuSans-2d"/>
       <use x="290.576172" xlink:href="#DejaVuSans-30"/>
       <use x="354.199219" xlink:href="#DejaVuSans-31"/>
      </g>
     </g>
    </g>
    <g id="xtick_6">
     <g id="line2d_6">
      <g>
       <use style="stroke:#000000;stroke-width:0.8;" x="591.768842" xlink:href="#m0a1aa9ca59" y="310.547685"/>
      </g>
     </g>
     <g id="text_6">
      <!-- 2019-07 -->
      <g transform="translate(570.877435 325.146122)scale(0.1 -0.1)">
       <use xlink:href="#DejaVuSans-32"/>
       <use x="63.623047" xlink:href="#DejaVuSans-30"/>
       <use x="127.246094" xlink:href="#DejaVuSans-31"/>
       <use x="190.869141" xlink:href="#DejaVuSans-39"/>
       <use x="254.492188" xlink:href="#DejaVuSans-2d"/>
       <use x="290.576172" xlink:href="#DejaVuSans-30"/>
       <use x="354.199219" xlink:href="#DejaVuSans-37"/>
      </g>
     </g>
    </g>
    <g id="xtick_7">
     <g id="line2d_7">
      <g>
       <use style="stroke:#000000;stroke-width:0.8;" x="686.129261" xlink:href="#m0a1aa9ca59" y="310.547685"/>
      </g>
     </g>
     <g id="text_7">
      <!-- 2020-01 -->
      <g transform="translate(665.237855 325.146122)scale(0.1 -0.1)">
       <use xlink:href="#DejaVuSans-32"/>
       <use x="63.623047" xlink:href="#DejaVuSans-30"/>
       <use x="127.246094" xlink:href="#DejaVuSans-32"/>
       <use x="190.869141" xlink:href="#DejaVuSans-30"/>
       <use x="254.492188" xlink:href="#DejaVuSans-2d"/>
       <use x="290.576172" xlink:href="#DejaVuSans-30"/>
       <use x="354.199219" xlink:href="#DejaVuSans-31"/>
      </g>
     </g>
    </g>
    <g id="xtick_8">
     <g id="line2d_8">
      <defs>
       <path d="M 0 0 
L 0 2 
" id="m21bbdfea38" style="stroke:#000000;stroke-width:0.6;"/>
      </defs>
      <g>
       <use style="stroke:#000000;stroke-width:0.6;" x="62.017138" xlink:href="#m21bbdfea38" y="310.547685"/>
      </g>
     </g>
    </g>
    <g id="xtick_9">
     <g id="line2d_9">
      <g>
       <use style="stroke:#000000;stroke-width:0.6;" x="77.401989" xlink:href="#m21bbdfea38" y="310.547685"/>
      </g>
     </g>
    </g>
    <g id="xtick_10">
     <g id="line2d_10">
      <g>
       <use style="stroke:#000000;stroke-width:0.6;" x="93.299668" xlink:href="#m21bbdfea38" y="310.547685"/>
      </g>
     </g>
    </g>
    <g id="xtick_11">
     <g id="line2d_11">
      <g>
       <use style="stroke:#000000;stroke-width:0.6;" x="108.684519" xlink:href="#m21bbdfea38" y="310.547685"/>
      </g>
     </g>
    </g>
    <g id="xtick_12">
     <g id="line2d_12">
      <g>
       <use style="stroke:#000000;stroke-width:0.6;" x="140.479878" xlink:href="#m21bbdfea38" y="310.547685"/>
      </g>
     </g>
    </g>
    <g id="xtick_13">
     <g id="line2d_13">
      <g>
       <use style="stroke:#000000;stroke-width:0.6;" x="154.839072" xlink:href="#m21bbdfea38" y="310.547685"/>
      </g>
     </g>
    </g>
    <g id="xtick_14">
     <g id="line2d_14">
      <g>
       <use style="stroke:#000000;stroke-width:0.6;" x="170.736752" xlink:href="#m21bbdfea38" y="310.547685"/>
      </g>
     </g>
    </g>
    <g id="xtick_15">
     <g id="line2d_15">
      <g>
       <use style="stroke:#000000;stroke-width:0.6;" x="186.121603" xlink:href="#m21bbdfea38" y="310.547685"/>
      </g>
     </g>
    </g>
    <g id="xtick_16">
     <g id="line2d_16">
      <g>
       <use style="stroke:#000000;stroke-width:0.6;" x="202.019282" xlink:href="#m21bbdfea38" y="310.547685"/>
      </g>
     </g>
    </g>
    <g id="xtick_17">
     <g id="line2d_17">
      <g>
       <use style="stroke:#000000;stroke-width:0.6;" x="233.301812" xlink:href="#m21bbdfea38" y="310.547685"/>
      </g>
     </g>
    </g>
    <g id="xtick_18">
     <g id="line2d_18">
      <g>
       <use style="stroke:#000000;stroke-width:0.6;" x="249.199492" xlink:href="#m21bbdfea38" y="310.547685"/>
      </g>
     </g>
    </g>
    <g id="xtick_19">
     <g id="line2d_19">
      <g>
       <use style="stroke:#000000;stroke-width:0.6;" x="264.584343" xlink:href="#m21bbdfea38" y="310.547685"/>
      </g>
     </g>
    </g>
    <g id="xtick_20">
     <g id="line2d_20">
      <g>
       <use style="stroke:#000000;stroke-width:0.6;" x="280.482022" xlink:href="#m21bbdfea38" y="310.547685"/>
      </g>
     </g>
    </g>
    <g id="xtick_21">
     <g id="line2d_21">
      <g>
       <use style="stroke:#000000;stroke-width:0.6;" x="295.866873" xlink:href="#m21bbdfea38" y="310.547685"/>
      </g>
     </g>
    </g>
    <g id="xtick_22">
     <g id="line2d_22">
      <g>
       <use style="stroke:#000000;stroke-width:0.6;" x="327.662232" xlink:href="#m21bbdfea38" y="310.547685"/>
      </g>
     </g>
    </g>
    <g id="xtick_23">
     <g id="line2d_23">
      <g>
       <use style="stroke:#000000;stroke-width:0.6;" x="342.021426" xlink:href="#m21bbdfea38" y="310.547685"/>
      </g>
     </g>
    </g>
    <g id="xtick_24">
     <g id="line2d_24">
      <g>
       <use style="stroke:#000000;stroke-width:0.6;" x="357.919106" xlink:href="#m21bbdfea38" y="310.547685"/>
      </g>
     </g>
    </g>
    <g id="xtick_25">
     <g id="line2d_25">
      <g>
       <use style="stroke:#000000;stroke-width:0.6;" x="373.303957" xlink:href="#m21bbdfea38" y="310.547685"/>
      </g>
     </g>
    </g>
    <g id="xtick_26">
     <g id="line2d_26">
      <g>
       <use style="stroke:#000000;stroke-width:0.6;" x="389.201636" xlink:href="#m21bbdfea38" y="310.547685"/>
      </g>
     </g>
    </g>
    <g id="xtick_27">
     <g id="line2d_27">
      <g>
       <use style="stroke:#000000;stroke-width:0.6;" x="420.484167" xlink:href="#m21bbdfea38" y="310.547685"/>
      </g>
     </g>
    </g>
    <g id="xtick_28">
     <g id="line2d_28">
      <g>
       <use style="stroke:#000000;stroke-width:0.6;" x="436.381846" xlink:href="#m21bbdfea38" y="310.547685"/>
      </g>
     </g>
    </g>
    <g id="xtick_29">
     <g id="line2d_29">
      <g>
       <use style="stroke:#000000;stroke-width:0.6;" x="451.766697" xlink:href="#m21bbdfea38" y="310.547685"/>
      </g>
     </g>
    </g>
    <g id="xtick_30">
     <g id="line2d_30">
      <g>
       <use style="stroke:#000000;stroke-width:0.6;" x="467.664377" xlink:href="#m21bbdfea38" y="310.547685"/>
      </g>
     </g>
    </g>
    <g id="xtick_31">
     <g id="line2d_31">
      <g>
       <use style="stroke:#000000;stroke-width:0.6;" x="483.049228" xlink:href="#m21bbdfea38" y="310.547685"/>
      </g>
     </g>
    </g>
    <g id="xtick_32">
     <g id="line2d_32">
      <g>
       <use style="stroke:#000000;stroke-width:0.6;" x="514.844586" xlink:href="#m21bbdfea38" y="310.547685"/>
      </g>
     </g>
    </g>
    <g id="xtick_33">
     <g id="line2d_33">
      <g>
       <use style="stroke:#000000;stroke-width:0.6;" x="529.203781" xlink:href="#m21bbdfea38" y="310.547685"/>
      </g>
     </g>
    </g>
    <g id="xtick_34">
     <g id="line2d_34">
      <g>
       <use style="stroke:#000000;stroke-width:0.6;" x="545.10146" xlink:href="#m21bbdfea38" y="310.547685"/>
      </g>
     </g>
    </g>
    <g id="xtick_35">
     <g id="line2d_35">
      <g>
       <use style="stroke:#000000;stroke-width:0.6;" x="560.486311" xlink:href="#m21bbdfea38" y="310.547685"/>
      </g>
     </g>
    </g>
    <g id="xtick_36">
     <g id="line2d_36">
      <g>
       <use style="stroke:#000000;stroke-width:0.6;" x="576.383991" xlink:href="#m21bbdfea38" y="310.547685"/>
      </g>
     </g>
    </g>
    <g id="xtick_37">
     <g id="line2d_37">
      <g>
       <use style="stroke:#000000;stroke-width:0.6;" x="607.666521" xlink:href="#m21bbdfea38" y="310.547685"/>
      </g>
     </g>
    </g>
    <g id="xtick_38">
     <g id="line2d_38">
      <g>
       <use style="stroke:#000000;stroke-width:0.6;" x="623.5642" xlink:href="#m21bbdfea38" y="310.547685"/>
      </g>
     </g>
    </g>
    <g id="xtick_39">
     <g id="line2d_39">
      <g>
       <use style="stroke:#000000;stroke-width:0.6;" x="638.949052" xlink:href="#m21bbdfea38" y="310.547685"/>
      </g>
     </g>
    </g>
    <g id="xtick_40">
     <g id="line2d_40">
      <g>
       <use style="stroke:#000000;stroke-width:0.6;" x="654.846731" xlink:href="#m21bbdfea38" y="310.547685"/>
      </g>
     </g>
    </g>
    <g id="xtick_41">
     <g id="line2d_41">
      <g>
       <use style="stroke:#000000;stroke-width:0.6;" x="670.231582" xlink:href="#m21bbdfea38" y="310.547685"/>
      </g>
     </g>
    </g>
    <g id="xtick_42">
     <g id="line2d_42">
      <g>
       <use style="stroke:#000000;stroke-width:0.6;" x="702.026941" xlink:href="#m21bbdfea38" y="310.547685"/>
      </g>
     </g>
    </g>
   </g>
   <g id="matplotlib.axis_2">
    <g id="ytick_1">
     <g id="line2d_43">
      <defs>
       <path d="M 0 0 
L -3.5 0 
" id="ma15908cacb" style="stroke:#000000;stroke-width:0.8;"/>
      </defs>
      <g>
       <use style="stroke:#000000;stroke-width:0.8;" x="46.965625" xlink:href="#ma15908cacb" y="310.547685"/>
      </g>
     </g>
     <g id="text_8">
      <!-- 0 -->
      <g transform="translate(33.603125 314.346903)scale(0.1 -0.1)">
       <use xlink:href="#DejaVuSans-30"/>
      </g>
     </g>
    </g>
    <g id="ytick_2">
     <g id="line2d_44">
      <g>
       <use style="stroke:#000000;stroke-width:0.8;" x="46.965625" xlink:href="#ma15908cacb" y="261.129503"/>
      </g>
     </g>
     <g id="text_9">
      <!-- 10 -->
      <g transform="translate(27.240625 264.928722)scale(0.1 -0.1)">
       <use xlink:href="#DejaVuSans-31"/>
       <use x="63.623047" xlink:href="#DejaVuSans-30"/>
      </g>
     </g>
    </g>
    <g id="ytick_3">
     <g id="line2d_45">
      <g>
       <use style="stroke:#000000;stroke-width:0.8;" x="46.965625" xlink:href="#ma15908cacb" y="211.711321"/>
      </g>
     </g>
     <g id="text_10">
      <!-- 20 -->
      <g transform="translate(27.240625 215.51054)scale(0.1 -0.1)">
       <use xlink:href="#DejaVuSans-32"/>
       <use x="63.623047" xlink:href="#DejaVuSans-30"/>
      </g>
     </g>
    </g>
    <g id="ytick_4">
     <g id="line2d_46">
      <g>
       <use style="stroke:#000000;stroke-width:0.8;" x="46.965625" xlink:href="#ma15908cacb" y="162.293139"/>
      </g>
     </g>
     <g id="text_11">
      <!-- 30 -->
      <g transform="translate(27.240625 166.092358)scale(0.1 -0.1)">
       <defs>
        <path d="M 2597 2516 
Q 3050 2419 3304 2112 
Q 3559 1806 3559 1356 
Q 3559 666 3084 287 
Q 2609 -91 1734 -91 
Q 1441 -91 1130 -33 
Q 819 25 488 141 
L 488 750 
Q 750 597 1062 519 
Q 1375 441 1716 441 
Q 2309 441 2620 675 
Q 2931 909 2931 1356 
Q 2931 1769 2642 2001 
Q 2353 2234 1838 2234 
L 1294 2234 
L 1294 2753 
L 1863 2753 
Q 2328 2753 2575 2939 
Q 2822 3125 2822 3475 
Q 2822 3834 2567 4026 
Q 2313 4219 1838 4219 
Q 1578 4219 1281 4162 
Q 984 4106 628 3988 
L 628 4550 
Q 988 4650 1302 4700 
Q 1616 4750 1894 4750 
Q 2613 4750 3031 4423 
Q 3450 4097 3450 3541 
Q 3450 3153 3228 2886 
Q 3006 2619 2597 2516 
z
" id="DejaVuSans-33" transform="scale(0.015625)"/>
       </defs>
       <use xlink:href="#DejaVuSans-33"/>
       <use x="63.623047" xlink:href="#DejaVuSans-30"/>
      </g>
     </g>
    </g>
    <g id="ytick_5">
     <g id="line2d_47">
      <g>
       <use style="stroke:#000000;stroke-width:0.8;" x="46.965625" xlink:href="#ma15908cacb" y="112.874957"/>
      </g>
     </g>
     <g id="text_12">
      <!-- 40 -->
      <g transform="translate(27.240625 116.674176)scale(0.1 -0.1)">
       <defs>
        <path d="M 2419 4116 
L 825 1625 
L 2419 1625 
L 2419 4116 
z
M 2253 4666 
L 3047 4666 
L 3047 1625 
L 3713 1625 
L 3713 1100 
L 3047 1100 
L 3047 0 
L 2419 0 
L 2419 1100 
L 313 1100 
L 313 1709 
L 2253 4666 
z
" id="DejaVuSans-34" transform="scale(0.015625)"/>
       </defs>
       <use xlink:href="#DejaVuSans-34"/>
       <use x="63.623047" xlink:href="#DejaVuSans-30"/>
      </g>
     </g>
    </g>
    <g id="ytick_6">
     <g id="line2d_48">
      <g>
       <use style="stroke:#000000;stroke-width:0.8;" x="46.965625" xlink:href="#ma15908cacb" y="63.456776"/>
      </g>
     </g>
     <g id="text_13">
      <!-- 50 -->
      <g transform="translate(27.240625 67.255994)scale(0.1 -0.1)">
       <defs>
        <path d="M 691 4666 
L 3169 4666 
L 3169 4134 
L 1269 4134 
L 1269 2991 
Q 1406 3038 1543 3061 
Q 1681 3084 1819 3084 
Q 2600 3084 3056 2656 
Q 3513 2228 3513 1497 
Q 3513 744 3044 326 
Q 2575 -91 1722 -91 
Q 1428 -91 1123 -41 
Q 819 9 494 109 
L 494 744 
Q 775 591 1075 516 
Q 1375 441 1709 441 
Q 2250 441 2565 725 
Q 2881 1009 2881 1497 
Q 2881 1984 2565 2268 
Q 2250 2553 1709 2553 
Q 1456 2553 1204 2497 
Q 953 2441 691 2322 
L 691 4666 
z
" id="DejaVuSans-35" transform="scale(0.015625)"/>
       </defs>
       <use xlink:href="#DejaVuSans-35"/>
       <use x="63.623047" xlink:href="#DejaVuSans-30"/>
      </g>
     </g>
    </g>
    <g id="ytick_7">
     <g id="line2d_49">
      <g>
       <use style="stroke:#000000;stroke-width:0.8;" x="46.965625" xlink:href="#ma15908cacb" y="14.038594"/>
      </g>
     </g>
     <g id="text_14">
      <!-- 60 -->
      <g transform="translate(27.240625 17.837812)scale(0.1 -0.1)">
       <defs>
        <path d="M 2113 2584 
Q 1688 2584 1439 2293 
Q 1191 2003 1191 1497 
Q 1191 994 1439 701 
Q 1688 409 2113 409 
Q 2538 409 2786 701 
Q 3034 994 3034 1497 
Q 3034 2003 2786 2293 
Q 2538 2584 2113 2584 
z
M 3366 4563 
L 3366 3988 
Q 3128 4100 2886 4159 
Q 2644 4219 2406 4219 
Q 1781 4219 1451 3797 
Q 1122 3375 1075 2522 
Q 1259 2794 1537 2939 
Q 1816 3084 2150 3084 
Q 2853 3084 3261 2657 
Q 3669 2231 3669 1497 
Q 3669 778 3244 343 
Q 2819 -91 2113 -91 
Q 1303 -91 875 529 
Q 447 1150 447 2328 
Q 447 3434 972 4092 
Q 1497 4750 2381 4750 
Q 2619 4750 2861 4703 
Q 3103 4656 3366 4563 
z
" id="DejaVuSans-36" transform="scale(0.015625)"/>
       </defs>
       <use xlink:href="#DejaVuSans-36"/>
       <use x="63.623047" xlink:href="#DejaVuSans-30"/>
      </g>
     </g>
    </g>
    <g id="text_15">
     <!-- Billion US Dollars -->
     <g transform="translate(21.160938 204.93142)rotate(-90)scale(0.1 -0.1)">
      <defs>
       <path d="M 1259 2228 
L 1259 519 
L 2272 519 
Q 2781 519 3026 730 
Q 3272 941 3272 1375 
Q 3272 1813 3026 2020 
Q 2781 2228 2272 2228 
L 1259 2228 
z
M 1259 4147 
L 1259 2741 
L 2194 2741 
Q 2656 2741 2882 2914 
Q 3109 3088 3109 3444 
Q 3109 3797 2882 3972 
Q 2656 4147 2194 4147 
L 1259 4147 
z
M 628 4666 
L 2241 4666 
Q 2963 4666 3353 4366 
Q 3744 4066 3744 3513 
Q 3744 3084 3544 2831 
Q 3344 2578 2956 2516 
Q 3422 2416 3680 2098 
Q 3938 1781 3938 1306 
Q 3938 681 3513 340 
Q 3088 0 2303 0 
L 628 0 
L 628 4666 
z
" id="DejaVuSans-42" transform="scale(0.015625)"/>
       <path d="M 603 3500 
L 1178 3500 
L 1178 0 
L 603 0 
L 603 3500 
z
M 603 4863 
L 1178 4863 
L 1178 4134 
L 603 4134 
L 603 4863 
z
" id="DejaVuSans-69" transform="scale(0.015625)"/>
       <path d="M 603 4863 
L 1178 4863 
L 1178 0 
L 603 0 
L 603 4863 
z
" id="DejaVuSans-6c" transform="scale(0.015625)"/>
       <path d="M 1959 3097 
Q 1497 3097 1228 2736 
Q 959 2375 959 1747 
Q 959 1119 1226 758 
Q 1494 397 1959 397 
Q 2419 397 2687 759 
Q 2956 1122 2956 1747 
Q 2956 2369 2687 2733 
Q 2419 3097 1959 3097 
z
M 1959 3584 
Q 2709 3584 3137 3096 
Q 3566 2609 3566 1747 
Q 3566 888 3137 398 
Q 2709 -91 1959 -91 
Q 1206 -91 779 398 
Q 353 888 353 1747 
Q 353 2609 779 3096 
Q 1206 3584 1959 3584 
z
" id="DejaVuSans-6f" transform="scale(0.015625)"/>
       <path d="M 3513 2113 
L 3513 0 
L 2938 0 
L 2938 2094 
Q 2938 2591 2744 2837 
Q 2550 3084 2163 3084 
Q 1697 3084 1428 2787 
Q 1159 2491 1159 1978 
L 1159 0 
L 581 0 
L 581 3500 
L 1159 3500 
L 1159 2956 
Q 1366 3272 1645 3428 
Q 1925 3584 2291 3584 
Q 2894 3584 3203 3211 
Q 3513 2838 3513 2113 
z
" id="DejaVuSans-6e" transform="scale(0.015625)"/>
       <path id="DejaVuSans-20" transform="scale(0.015625)"/>
       <path d="M 556 4666 
L 1191 4666 
L 1191 1831 
Q 1191 1081 1462 751 
Q 1734 422 2344 422 
Q 2950 422 3222 751 
Q 3494 1081 3494 1831 
L 3494 4666 
L 4128 4666 
L 4128 1753 
Q 4128 841 3676 375 
Q 3225 -91 2344 -91 
Q 1459 -91 1007 375 
Q 556 841 556 1753 
L 556 4666 
z
" id="DejaVuSans-55" transform="scale(0.015625)"/>
       <path d="M 3425 4513 
L 3425 3897 
Q 3066 4069 2747 4153 
Q 2428 4238 2131 4238 
Q 1616 4238 1336 4038 
Q 1056 3838 1056 3469 
Q 1056 3159 1242 3001 
Q 1428 2844 1947 2747 
L 2328 2669 
Q 3034 2534 3370 2195 
Q 3706 1856 3706 1288 
Q 3706 609 3251 259 
Q 2797 -91 1919 -91 
Q 1588 -91 1214 -16 
Q 841 59 441 206 
L 441 856 
Q 825 641 1194 531 
Q 1563 422 1919 422 
Q 2459 422 2753 634 
Q 3047 847 3047 1241 
Q 3047 1584 2836 1778 
Q 2625 1972 2144 2069 
L 1759 2144 
Q 1053 2284 737 2584 
Q 422 2884 422 3419 
Q 422 4038 858 4394 
Q 1294 4750 2059 4750 
Q 2388 4750 2728 4690 
Q 3069 4631 3425 4513 
z
" id="DejaVuSans-53" transform="scale(0.015625)"/>
       <path d="M 1259 4147 
L 1259 519 
L 2022 519 
Q 2988 519 3436 956 
Q 3884 1394 3884 2338 
Q 3884 3275 3436 3711 
Q 2988 4147 2022 4147 
L 1259 4147 
z
M 628 4666 
L 1925 4666 
Q 3281 4666 3915 4102 
Q 4550 3538 4550 2338 
Q 4550 1131 3912 565 
Q 3275 0 1925 0 
L 628 0 
L 628 4666 
z
" id="DejaVuSans-44" transform="scale(0.015625)"/>
       <path d="M 2194 1759 
Q 1497 1759 1228 1600 
Q 959 1441 959 1056 
Q 959 750 1161 570 
Q 1363 391 1709 391 
Q 2188 391 2477 730 
Q 2766 1069 2766 1631 
L 2766 1759 
L 2194 1759 
z
M 3341 1997 
L 3341 0 
L 2766 0 
L 2766 531 
Q 2569 213 2275 61 
Q 1981 -91 1556 -91 
Q 1019 -91 701 211 
Q 384 513 384 1019 
Q 384 1609 779 1909 
Q 1175 2209 1959 2209 
L 2766 2209 
L 2766 2266 
Q 2766 2663 2505 2880 
Q 2244 3097 1772 3097 
Q 1472 3097 1187 3025 
Q 903 2953 641 2809 
L 641 3341 
Q 956 3463 1253 3523 
Q 1550 3584 1831 3584 
Q 2591 3584 2966 3190 
Q 3341 2797 3341 1997 
z
" id="DejaVuSans-61" transform="scale(0.015625)"/>
       <path d="M 2631 2963 
Q 2534 3019 2420 3045 
Q 2306 3072 2169 3072 
Q 1681 3072 1420 2755 
Q 1159 2438 1159 1844 
L 1159 0 
L 581 0 
L 581 3500 
L 1159 3500 
L 1159 2956 
Q 1341 3275 1631 3429 
Q 1922 3584 2338 3584 
Q 2397 3584 2469 3576 
Q 2541 3569 2628 3553 
L 2631 2963 
z
" id="DejaVuSans-72" transform="scale(0.015625)"/>
       <path d="M 2834 3397 
L 2834 2853 
Q 2591 2978 2328 3040 
Q 2066 3103 1784 3103 
Q 1356 3103 1142 2972 
Q 928 2841 928 2578 
Q 928 2378 1081 2264 
Q 1234 2150 1697 2047 
L 1894 2003 
Q 2506 1872 2764 1633 
Q 3022 1394 3022 966 
Q 3022 478 2636 193 
Q 2250 -91 1575 -91 
Q 1294 -91 989 -36 
Q 684 19 347 128 
L 347 722 
Q 666 556 975 473 
Q 1284 391 1588 391 
Q 1994 391 2212 530 
Q 2431 669 2431 922 
Q 2431 1156 2273 1281 
Q 2116 1406 1581 1522 
L 1381 1569 
Q 847 1681 609 1914 
Q 372 2147 372 2553 
Q 372 3047 722 3315 
Q 1072 3584 1716 3584 
Q 2034 3584 2315 3537 
Q 2597 3491 2834 3397 
z
" id="DejaVuSans-73" transform="scale(0.015625)"/>
      </defs>
      <use xlink:href="#DejaVuSans-42"/>
      <use x="68.603516" xlink:href="#DejaVuSans-69"/>
      <use x="96.386719" xlink:href="#DejaVuSans-6c"/>
      <use x="124.169922" xlink:href="#DejaVuSans-6c"/>
      <use x="151.953125" xlink:href="#DejaVuSans-69"/>
      <use x="179.736328" xlink:href="#DejaVuSans-6f"/>
      <use x="240.917969" xlink:href="#DejaVuSans-6e"/>
      <use x="304.296875" xlink:href="#DejaVuSans-20"/>
      <use x="336.083984" xlink:href="#DejaVuSans-55"/>
      <use x="409.277344" xlink:href="#DejaVuSans-53"/>
      <use x="472.753906" xlink:href="#DejaVuSans-20"/>
      <use x="504.541016" xlink:href="#DejaVuSans-44"/>
      <use x="581.542969" xlink:href="#DejaVuSans-6f"/>
      <use x="642.724609" xlink:href="#DejaVuSans-6c"/>
      <use x="670.507812" xlink:href="#DejaVuSans-6c"/>
      <use x="698.291016" xlink:href="#DejaVuSans-61"/>
      <use x="759.570312" xlink:href="#DejaVuSans-72"/>
      <use x="800.683594" xlink:href="#DejaVuSans-73"/>
     </g>
    </g>
   </g>
   <g id="line2d_50">
    <path clip-path="url(#pa5918ea07f)" d="M 77.401989 94.105446 
L 93.299668 100.013225 
L 108.684519 116.043028 
L 124.582198 106.274895 
L 140.479878 148.530386 
L 154.839072 141.725323 
L 170.736752 125.516766 
L 186.121603 104.19295 
L 202.019282 101.715943 
L 217.404133 95.276595 
L 233.301812 84.299823 
L 249.199492 86.164177 
L 264.584343 72.682411 
L 280.482022 72.822542 
L 295.866873 90.936338 
L 311.764553 84.798955 
L 327.662232 118.033356 
L 342.021426 121.405379 
L 357.919106 121.633008 
L 373.303957 93.76703 
L 389.201636 90.518147 
L 404.586487 78.234047 
L 420.484167 74.347584 
L 436.381846 63.762922 
L 451.766697 53.172504 
L 467.664377 81.521241 
L 483.049228 84.138984 
L 498.946907 106.111638 
L 514.844586 146.968132 
L 529.203781 156.425223 
L 545.10146 139.435444 
L 560.486311 117.300564 
L 576.383991 118.454463 
L 591.768842 106.069403 
L 607.666521 107.538702 
L 623.5642 112.572453 
L 638.949052 112.874195 
L 654.846731 130.675258 
L 670.231582 144.570924 
L 686.129261 146.611222 
" style="fill:none;stroke:#dc143c;stroke-linecap:square;stroke-width:3;"/>
   </g>
   <g id="line2d_51">
    <path clip-path="url(#pa5918ea07f)" d="M 77.401989 248.280752 
L 93.299668 251.028007 
L 108.684519 253.001173 
L 124.582198 261.349301 
L 140.479878 262.41529 
L 154.839072 262.512302 
L 170.736752 262.085859 
L 186.121603 261.722405 
L 202.019282 262.522053 
L 217.404133 261.356514 
L 233.301812 257.050226 
L 249.199492 256.701736 
L 264.584343 246.485798 
L 280.482022 246.756747 
L 295.866873 243.191324 
L 311.764553 261.576963 
L 327.662232 262.398951 
L 342.021426 248.018828 
L 357.919106 258.611314 
L 373.303957 259.163876 
L 389.201636 256.900624 
L 404.586487 260.378561 
L 420.484167 264.696798 
L 436.381846 262.448464 
L 451.766697 265.138922 
L 467.664377 267.798671 
L 483.049228 265.032355 
L 498.946907 275.438726 
L 514.844586 270.600612 
L 529.203781 258.280211 
L 545.10146 271.588062 
L 560.486311 265.727816 
L 576.383991 265.248473 
L 591.768842 267.556607 
L 607.666521 264.050158 
L 623.5642 268.048338 
L 638.949052 266.791972 
L 654.846731 260.62244 
L 670.231582 266.570302 
L 686.129261 275.195365 
" style="fill:none;stroke:#000080;stroke-linecap:square;stroke-width:3;"/>
   </g>
   <g id="line2d_52">
    <path clip-path="url(#pa5918ea07f)" d="M 124.582198 102.511512 
L 140.479878 102.511512 
L 154.839072 102.511512 
L 170.736752 102.511512 
L 186.121603 102.511512 
L 202.019282 102.511512 
L 217.404133 102.511512 
L 233.301812 102.511512 
L 249.199492 102.511512 
L 264.584343 102.511512 
L 280.482022 102.511512 
L 295.866873 102.511512 
" style="fill:none;stroke:#dc143c;stroke-dasharray:7.4,3.2;stroke-dashoffset:0;stroke-width:2;"/>
   </g>
   <g id="line2d_53">
    <path clip-path="url(#pa5918ea07f)" d="M 124.582198 257.012463 
L 140.479878 257.012463 
L 154.839072 257.012463 
L 170.736752 257.012463 
L 186.121603 257.012463 
L 202.019282 257.012463 
L 217.404133 257.012463 
L 233.301812 257.012463 
L 249.199492 257.012463 
L 264.584343 257.012463 
L 280.482022 257.012463 
L 295.866873 257.012463 
" style="fill:none;stroke:#000080;stroke-dasharray:7.4,3.2;stroke-dashoffset:0;stroke-width:2;"/>
   </g>
   <g id="line2d_54">
    <path clip-path="url(#pa5918ea07f)" d="M 498.946907 124.916367 
L 514.844586 124.916367 
L 529.203781 124.916367 
L 545.10146 124.916367 
L 560.486311 124.916367 
L 576.383991 124.916367 
L 591.768842 124.916367 
L 607.666521 124.916367 
L 623.5642 124.916367 
L 638.949052 124.916367 
L 654.846731 124.916367 
L 670.231582 124.916367 
" style="fill:none;stroke:#dc143c;stroke-dasharray:7.4,3.2;stroke-dashoffset:0;stroke-width:2;"/>
   </g>
   <g id="line2d_55">
    <path clip-path="url(#pa5918ea07f)" d="M 498.946907 266.71031 
L 514.844586 266.71031 
L 529.203781 266.71031 
L 545.10146 266.71031 
L 560.486311 266.71031 
L 576.383991 266.71031 
L 591.768842 266.71031 
L 607.666521 266.71031 
L 623.5642 266.71031 
L 638.949052 266.71031 
L 654.846731 266.71031 
L 670.231582 266.71031 
" style="fill:none;stroke:#000080;stroke-dasharray:7.4,3.2;stroke-dashoffset:0;stroke-width:2;"/>
   </g>
   <g id="line2d_56">
    <path clip-path="url(#pa5918ea07f)" d="M 404.586487 310.547685 
L 404.586487 14.038594 
" style="fill:none;stroke:#000000;stroke-dasharray:2,3.3;stroke-dashoffset:0;stroke-width:2;"/>
   </g>
   <g id="patch_5">
    <path d="M 46.965625 310.547685 
L 46.965625 14.038594 
" style="fill:none;stroke:#000000;stroke-linecap:square;stroke-linejoin:miter;stroke-width:0.8;"/>
   </g>
   <g id="patch_6">
    <path d="M 46.965625 310.547685 
L 716.565625 310.547685 
" style="fill:none;stroke:#000000;stroke-linecap:square;stroke-linejoin:miter;stroke-width:0.8;"/>
   </g>
   <g id="text_16">
    <!-- 2017 balance: -->
    <g transform="translate(217.404133 176.924199)scale(0.09 -0.09)">
     <defs>
      <path d="M 3116 1747 
Q 3116 2381 2855 2742 
Q 2594 3103 2138 3103 
Q 1681 3103 1420 2742 
Q 1159 2381 1159 1747 
Q 1159 1113 1420 752 
Q 1681 391 2138 391 
Q 2594 391 2855 752 
Q 3116 1113 3116 1747 
z
M 1159 2969 
Q 1341 3281 1617 3432 
Q 1894 3584 2278 3584 
Q 2916 3584 3314 3078 
Q 3713 2572 3713 1747 
Q 3713 922 3314 415 
Q 2916 -91 2278 -91 
Q 1894 -91 1617 61 
Q 1341 213 1159 525 
L 1159 0 
L 581 0 
L 581 4863 
L 1159 4863 
L 1159 2969 
z
" id="DejaVuSans-62" transform="scale(0.015625)"/>
      <path d="M 3122 3366 
L 3122 2828 
Q 2878 2963 2633 3030 
Q 2388 3097 2138 3097 
Q 1578 3097 1268 2742 
Q 959 2388 959 1747 
Q 959 1106 1268 751 
Q 1578 397 2138 397 
Q 2388 397 2633 464 
Q 2878 531 3122 666 
L 3122 134 
Q 2881 22 2623 -34 
Q 2366 -91 2075 -91 
Q 1284 -91 818 406 
Q 353 903 353 1747 
Q 353 2603 823 3093 
Q 1294 3584 2113 3584 
Q 2378 3584 2631 3529 
Q 2884 3475 3122 3366 
z
" id="DejaVuSans-63" transform="scale(0.015625)"/>
      <path d="M 3597 1894 
L 3597 1613 
L 953 1613 
Q 991 1019 1311 708 
Q 1631 397 2203 397 
Q 2534 397 2845 478 
Q 3156 559 3463 722 
L 3463 178 
Q 3153 47 2828 -22 
Q 2503 -91 2169 -91 
Q 1331 -91 842 396 
Q 353 884 353 1716 
Q 353 2575 817 3079 
Q 1281 3584 2069 3584 
Q 2775 3584 3186 3129 
Q 3597 2675 3597 1894 
z
M 3022 2063 
Q 3016 2534 2758 2815 
Q 2500 3097 2075 3097 
Q 1594 3097 1305 2825 
Q 1016 2553 972 2059 
L 3022 2063 
z
" id="DejaVuSans-65" transform="scale(0.015625)"/>
      <path d="M 750 794 
L 1409 794 
L 1409 0 
L 750 0 
L 750 794 
z
M 750 3309 
L 1409 3309 
L 1409 2516 
L 750 2516 
L 750 3309 
z
" id="DejaVuSans-3a" transform="scale(0.015625)"/>
     </defs>
     <use xlink:href="#DejaVuSans-32"/>
     <use x="63.623047" xlink:href="#DejaVuSans-30"/>
     <use x="127.246094" xlink:href="#DejaVuSans-31"/>
     <use x="190.869141" xlink:href="#DejaVuSans-37"/>
     <use x="254.492188" xlink:href="#DejaVuSans-20"/>
     <use x="286.279297" xlink:href="#DejaVuSans-62"/>
     <use x="349.755859" xlink:href="#DejaVuSans-61"/>
     <use x="411.035156" xlink:href="#DejaVuSans-6c"/>
     <use x="438.818359" xlink:href="#DejaVuSans-61"/>
     <use x="500.097656" xlink:href="#DejaVuSans-6e"/>
     <use x="563.476562" xlink:href="#DejaVuSans-63"/>
     <use x="618.457031" xlink:href="#DejaVuSans-65"/>
     <use x="679.980469" xlink:href="#DejaVuSans-3a"/>
    </g>
    <!--  -375.17 -->
    <g transform="translate(217.404133 187.00223)scale(0.09 -0.09)">
     <defs>
      <path d="M 684 794 
L 1344 794 
L 1344 0 
L 684 0 
L 684 794 
z
" id="DejaVuSans-2e" transform="scale(0.015625)"/>
     </defs>
     <use xlink:href="#DejaVuSans-20"/>
     <use x="31.787109" xlink:href="#DejaVuSans-2d"/>
     <use x="67.871094" xlink:href="#DejaVuSans-33"/>
     <use x="131.494141" xlink:href="#DejaVuSans-37"/>
     <use x="195.117188" xlink:href="#DejaVuSans-35"/>
     <use x="258.740234" xlink:href="#DejaVuSans-2e"/>
     <use x="290.527344" xlink:href="#DejaVuSans-31"/>
     <use x="354.150391" xlink:href="#DejaVuSans-37"/>
    </g>
   </g>
   <g id="text_17">
    <!-- 2019 balance: -->
    <g transform="translate(591.768842 191.749653)scale(0.09 -0.09)">
     <use xlink:href="#DejaVuSans-32"/>
     <use x="63.623047" xlink:href="#DejaVuSans-30"/>
     <use x="127.246094" xlink:href="#DejaVuSans-31"/>
     <use x="190.869141" xlink:href="#DejaVuSans-39"/>
     <use x="254.492188" xlink:href="#DejaVuSans-20"/>
     <use x="286.279297" xlink:href="#DejaVuSans-62"/>
     <use x="349.755859" xlink:href="#DejaVuSans-61"/>
     <use x="411.035156" xlink:href="#DejaVuSans-6c"/>
     <use x="438.818359" xlink:href="#DejaVuSans-61"/>
     <use x="500.097656" xlink:href="#DejaVuSans-6e"/>
     <use x="563.476562" xlink:href="#DejaVuSans-63"/>
     <use x="618.457031" xlink:href="#DejaVuSans-65"/>
     <use x="679.980469" xlink:href="#DejaVuSans-3a"/>
    </g>
    <!--  -344.31 -->
    <g transform="translate(591.768842 201.827685)scale(0.09 -0.09)">
     <use xlink:href="#DejaVuSans-20"/>
     <use x="31.787109" xlink:href="#DejaVuSans-2d"/>
     <use x="67.871094" xlink:href="#DejaVuSans-33"/>
     <use x="131.494141" xlink:href="#DejaVuSans-34"/>
     <use x="195.117188" xlink:href="#DejaVuSans-34"/>
     <use x="258.740234" xlink:href="#DejaVuSans-2e"/>
     <use x="290.527344" xlink:href="#DejaVuSans-33"/>
     <use x="354.150391" xlink:href="#DejaVuSans-31"/>
    </g>
   </g>
   <g id="text_18">
    <!-- US-CN trade war -->
    <g transform="translate(329.730394 14.038594)scale(0.09 -0.09)">
     <defs>
      <path d="M 4122 4306 
L 4122 3641 
Q 3803 3938 3442 4084 
Q 3081 4231 2675 4231 
Q 1875 4231 1450 3742 
Q 1025 3253 1025 2328 
Q 1025 1406 1450 917 
Q 1875 428 2675 428 
Q 3081 428 3442 575 
Q 3803 722 4122 1019 
L 4122 359 
Q 3791 134 3420 21 
Q 3050 -91 2638 -91 
Q 1578 -91 968 557 
Q 359 1206 359 2328 
Q 359 3453 968 4101 
Q 1578 4750 2638 4750 
Q 3056 4750 3426 4639 
Q 3797 4528 4122 4306 
z
" id="DejaVuSans-43" transform="scale(0.015625)"/>
      <path d="M 628 4666 
L 1478 4666 
L 3547 763 
L 3547 4666 
L 4159 4666 
L 4159 0 
L 3309 0 
L 1241 3903 
L 1241 0 
L 628 0 
L 628 4666 
z
" id="DejaVuSans-4e" transform="scale(0.015625)"/>
      <path d="M 1172 4494 
L 1172 3500 
L 2356 3500 
L 2356 3053 
L 1172 3053 
L 1172 1153 
Q 1172 725 1289 603 
Q 1406 481 1766 481 
L 2356 481 
L 2356 0 
L 1766 0 
Q 1100 0 847 248 
Q 594 497 594 1153 
L 594 3053 
L 172 3053 
L 172 3500 
L 594 3500 
L 594 4494 
L 1172 4494 
z
" id="DejaVuSans-74" transform="scale(0.015625)"/>
      <path d="M 2906 2969 
L 2906 4863 
L 3481 4863 
L 3481 0 
L 2906 0 
L 2906 525 
Q 2725 213 2448 61 
Q 2172 -91 1784 -91 
Q 1150 -91 751 415 
Q 353 922 353 1747 
Q 353 2572 751 3078 
Q 1150 3584 1784 3584 
Q 2172 3584 2448 3432 
Q 2725 3281 2906 2969 
z
M 947 1747 
Q 947 1113 1208 752 
Q 1469 391 1925 391 
Q 2381 391 2643 752 
Q 2906 1113 2906 1747 
Q 2906 2381 2643 2742 
Q 2381 3103 1925 3103 
Q 1469 3103 1208 2742 
Q 947 2381 947 1747 
z
" id="DejaVuSans-64" transform="scale(0.015625)"/>
      <path d="M 269 3500 
L 844 3500 
L 1563 769 
L 2278 3500 
L 2956 3500 
L 3675 769 
L 4391 3500 
L 4966 3500 
L 4050 0 
L 3372 0 
L 2619 2869 
L 1863 0 
L 1184 0 
L 269 3500 
z
" id="DejaVuSans-77" transform="scale(0.015625)"/>
     </defs>
     <use xlink:href="#DejaVuSans-55"/>
     <use x="73.193359" xlink:href="#DejaVuSans-53"/>
     <use x="136.669922" xlink:href="#DejaVuSans-2d"/>
     <use x="172.753906" xlink:href="#DejaVuSans-43"/>
     <use x="242.578125" xlink:href="#DejaVuSans-4e"/>
     <use x="317.382812" xlink:href="#DejaVuSans-20"/>
     <use x="349.169922" xlink:href="#DejaVuSans-74"/>
     <use x="388.378906" xlink:href="#DejaVuSans-72"/>
     <use x="429.492188" xlink:href="#DejaVuSans-61"/>
     <use x="490.771484" xlink:href="#DejaVuSans-64"/>
     <use x="554.248047" xlink:href="#DejaVuSans-65"/>
     <use x="615.771484" xlink:href="#DejaVuSans-20"/>
     <use x="647.558594" xlink:href="#DejaVuSans-77"/>
     <use x="729.345703" xlink:href="#DejaVuSans-61"/>
     <use x="790.625" xlink:href="#DejaVuSans-72"/>
    </g>
   </g>
   <g id="legend_1">
    <g id="patch_7">
     <path d="M 52.565625 43.923594 
L 164.604375 43.923594 
Q 166.204375 43.923594 166.204375 42.323594 
L 166.204375 19.638594 
Q 166.204375 18.038594 164.604375 18.038594 
L 52.565625 18.038594 
Q 50.965625 18.038594 50.965625 19.638594 
L 50.965625 42.323594 
Q 50.965625 43.923594 52.565625 43.923594 
z
" style="fill:#ffffff;opacity:0.8;stroke:#cccccc;stroke-linejoin:miter;"/>
    </g>
    <g id="line2d_57">
     <path d="M 54.165625 24.517344 
L 70.165625 24.517344 
" style="fill:none;stroke:#000080;stroke-linecap:square;stroke-width:3;"/>
    </g>
    <g id="line2d_58"/>
    <g id="text_19">
     <!-- US export to China -->
     <g transform="translate(76.565625 27.317344)scale(0.08 -0.08)">
      <defs>
       <path d="M 3513 3500 
L 2247 1797 
L 3578 0 
L 2900 0 
L 1881 1375 
L 863 0 
L 184 0 
L 1544 1831 
L 300 3500 
L 978 3500 
L 1906 2253 
L 2834 3500 
L 3513 3500 
z
" id="DejaVuSans-78" transform="scale(0.015625)"/>
       <path d="M 1159 525 
L 1159 -1331 
L 581 -1331 
L 581 3500 
L 1159 3500 
L 1159 2969 
Q 1341 3281 1617 3432 
Q 1894 3584 2278 3584 
Q 2916 3584 3314 3078 
Q 3713 2572 3713 1747 
Q 3713 922 3314 415 
Q 2916 -91 2278 -91 
Q 1894 -91 1617 61 
Q 1341 213 1159 525 
z
M 3116 1747 
Q 3116 2381 2855 2742 
Q 2594 3103 2138 3103 
Q 1681 3103 1420 2742 
Q 1159 2381 1159 1747 
Q 1159 1113 1420 752 
Q 1681 391 2138 391 
Q 2594 391 2855 752 
Q 3116 1113 3116 1747 
z
" id="DejaVuSans-70" transform="scale(0.015625)"/>
       <path d="M 3513 2113 
L 3513 0 
L 2938 0 
L 2938 2094 
Q 2938 2591 2744 2837 
Q 2550 3084 2163 3084 
Q 1697 3084 1428 2787 
Q 1159 2491 1159 1978 
L 1159 0 
L 581 0 
L 581 4863 
L 1159 4863 
L 1159 2956 
Q 1366 3272 1645 3428 
Q 1925 3584 2291 3584 
Q 2894 3584 3203 3211 
Q 3513 2838 3513 2113 
z
" id="DejaVuSans-68" transform="scale(0.015625)"/>
      </defs>
      <use xlink:href="#DejaVuSans-55"/>
      <use x="73.193359" xlink:href="#DejaVuSans-53"/>
      <use x="136.669922" xlink:href="#DejaVuSans-20"/>
      <use x="168.457031" xlink:href="#DejaVuSans-65"/>
      <use x="228.230469" xlink:href="#DejaVuSans-78"/>
      <use x="287.410156" xlink:href="#DejaVuSans-70"/>
      <use x="350.886719" xlink:href="#DejaVuSans-6f"/>
      <use x="412.068359" xlink:href="#DejaVuSans-72"/>
      <use x="453.181641" xlink:href="#DejaVuSans-74"/>
      <use x="492.390625" xlink:href="#DejaVuSans-20"/>
      <use x="524.177734" xlink:href="#DejaVuSans-74"/>
      <use x="563.386719" xlink:href="#DejaVuSans-6f"/>
      <use x="624.568359" xlink:href="#DejaVuSans-20"/>
      <use x="656.355469" xlink:href="#DejaVuSans-43"/>
      <use x="726.179688" xlink:href="#DejaVuSans-68"/>
      <use x="789.558594" xlink:href="#DejaVuSans-69"/>
      <use x="817.341797" xlink:href="#DejaVuSans-6e"/>
      <use x="880.720703" xlink:href="#DejaVuSans-61"/>
     </g>
    </g>
    <g id="line2d_59">
     <path d="M 54.165625 36.259844 
L 70.165625 36.259844 
" style="fill:none;stroke:#dc143c;stroke-linecap:square;stroke-width:3;"/>
    </g>
    <g id="line2d_60"/>
    <g id="text_20">
     <!-- US import from China -->
     <g transform="translate(76.565625 39.059844)scale(0.08 -0.08)">
      <defs>
       <path d="M 3328 2828 
Q 3544 3216 3844 3400 
Q 4144 3584 4550 3584 
Q 5097 3584 5394 3201 
Q 5691 2819 5691 2113 
L 5691 0 
L 5113 0 
L 5113 2094 
Q 5113 2597 4934 2840 
Q 4756 3084 4391 3084 
Q 3944 3084 3684 2787 
Q 3425 2491 3425 1978 
L 3425 0 
L 2847 0 
L 2847 2094 
Q 2847 2600 2669 2842 
Q 2491 3084 2119 3084 
Q 1678 3084 1418 2786 
Q 1159 2488 1159 1978 
L 1159 0 
L 581 0 
L 581 3500 
L 1159 3500 
L 1159 2956 
Q 1356 3278 1631 3431 
Q 1906 3584 2284 3584 
Q 2666 3584 2933 3390 
Q 3200 3197 3328 2828 
z
" id="DejaVuSans-6d" transform="scale(0.015625)"/>
       <path d="M 2375 4863 
L 2375 4384 
L 1825 4384 
Q 1516 4384 1395 4259 
Q 1275 4134 1275 3809 
L 1275 3500 
L 2222 3500 
L 2222 3053 
L 1275 3053 
L 1275 0 
L 697 0 
L 697 3053 
L 147 3053 
L 147 3500 
L 697 3500 
L 697 3744 
Q 697 4328 969 4595 
Q 1241 4863 1831 4863 
L 2375 4863 
z
" id="DejaVuSans-66" transform="scale(0.015625)"/>
      </defs>
      <use xlink:href="#DejaVuSans-55"/>
      <use x="73.193359" xlink:href="#DejaVuSans-53"/>
      <use x="136.669922" xlink:href="#DejaVuSans-20"/>
      <use x="168.457031" xlink:href="#DejaVuSans-69"/>
      <use x="196.240234" xlink:href="#DejaVuSans-6d"/>
      <use x="293.652344" xlink:href="#DejaVuSans-70"/>
      <use x="357.128906" xlink:href="#DejaVuSans-6f"/>
      <use x="418.310547" xlink:href="#DejaVuSans-72"/>
      <use x="459.423828" xlink:href="#DejaVuSans-74"/>
      <use x="498.632812" xlink:href="#DejaVuSans-20"/>
      <use x="530.419922" xlink:href="#DejaVuSans-66"/>
      <use x="565.625" xlink:href="#DejaVuSans-72"/>
      <use x="604.488281" xlink:href="#DejaVuSans-6f"/>
      <use x="665.669922" xlink:href="#DejaVuSans-6d"/>
      <use x="763.082031" xlink:href="#DejaVuSans-20"/>
      <use x="794.869141" xlink:href="#DejaVuSans-43"/>
      <use x="864.693359" xlink:href="#DejaVuSans-68"/>
      <use x="928.072266" xlink:href="#DejaVuSans-69"/>
      <use x="955.855469" xlink:href="#DejaVuSans-6e"/>
      <use x="1019.234375" xlink:href="#DejaVuSans-61"/>
     </g>
    </g>
   </g>
  </g>
  <g id="axes_2">
   <g id="patch_8">
    <path d="M 46.965625 666.358594 
L 716.565625 666.358594 
L 716.565625 369.849503 
L 46.965625 369.849503 
z
" style="fill:#ffffff;"/>
   </g>
   <g id="PolyCollection_2">
    <defs>
     <path d="M 77.401989 -41.439205 
L 77.401989 -150.284117 
L 93.299668 -168.739957 
L 108.684519 -185.447856 
L 124.582198 -193.436452 
L 140.479878 -215.744682 
L 154.839072 -215.174032 
L 170.736752 -212.221237 
L 186.121603 -190.799066 
L 202.019282 -191.547693 
L 217.404133 -181.968146 
L 233.301812 -173.879511 
L 249.199492 -184.399581 
L 264.584343 -183.713106 
L 280.482022 -208.932676 
L 295.866873 -238.664366 
L 311.764553 -228.331969 
L 327.662232 -268.066306 
L 342.021426 -267.732896 
L 357.919106 -269.190674 
L 373.303957 -244.830642 
L 389.201636 -245.114029 
L 404.586487 -247.123223 
L 420.484167 -242.199365 
L 436.381846 -246.75269 
L 451.766697 -242.068857 
L 467.664377 -242.498453 
L 483.049228 -255.136198 
L 498.946907 -252.998326 
L 514.844586 -283.147257 
L 529.203781 -306.90953 
L 545.10146 -280.058109 
L 560.486311 -283.35275 
L 576.383991 -264.90563 
L 591.768842 -257.917324 
L 607.666521 -256.406688 
L 623.5642 -246.331346 
L 638.949052 -232.181027 
L 654.846731 -237.823157 
L 670.231582 -266.103604 
L 686.129261 -258.649306 
L 686.129261 -105.342775 
L 686.129261 -105.342775 
L 670.231582 -103.255963 
L 654.846731 -96.709533 
L 638.949052 -101.917711 
L 623.5642 -100.693002 
L 607.666521 -103.51415 
L 591.768842 -110.217524 
L 576.383991 -101.735368 
L 560.486311 -114.200185 
L 545.10146 -108.086595 
L 529.203781 -113.055786 
L 514.844586 -111.666849 
L 498.946907 -114.024467 
L 483.049228 -99.338444 
L 467.664377 -110.954092 
L 451.766697 -121.498394 
L 436.381846 -114.853969 
L 420.484167 -110.090671 
L 404.586487 -110.538995 
L 389.201636 -114.839889 
L 373.303957 -124.27375 
L 357.919106 -114.566659 
L 342.021426 -103.97418 
L 327.662232 -99.043937 
L 311.764553 -89.162367 
L 295.866873 -88.758854 
L 280.482022 -80.012752 
L 264.584343 -68.961069 
L 249.199492 -71.374543 
L 233.301812 -65.868959 
L 217.404133 -67.343338 
L 202.019282 -68.550937 
L 186.121603 -61.422066 
L 170.736752 -63.646502 
L 154.839072 -65.691006 
L 140.479878 -66.527646 
L 124.582198 -66.539921 
L 108.684519 -55.859428 
L 93.299668 -37.355811 
L 77.401989 -41.439205 
z
" id="m2bf0b25055" style="stroke:#e6e6fa;"/>
    </defs>
    <g clip-path="url(#pbf86c40801)">
     <use style="fill:#e6e6fa;stroke:#e6e6fa;" x="0" xlink:href="#m2bf0b25055" y="690.236719"/>
    </g>
   </g>
   <g id="patch_9">
    <path clip-path="url(#pbf86c40801)" d="M 217.404133 492.14804 
Q 217.404133 555.854296 217.404133 619.560552 
" style="fill:none;stroke:#000000;stroke-linecap:round;"/>
    <path clip-path="url(#pbf86c40801)" d="M 215.404133 496.14804 
L 217.404133 492.14804 
L 219.404133 496.14804 
L 215.404133 496.14804 
z
" style="stroke:#000000;stroke-linecap:round;"/>
    <path clip-path="url(#pbf86c40801)" d="M 219.404133 615.560552 
L 217.404133 619.560552 
L 215.404133 615.560552 
L 219.404133 615.560552 
z
" style="stroke:#000000;stroke-linecap:round;"/>
   </g>
   <g id="patch_10">
    <path clip-path="url(#pbf86c40801)" d="M 591.768842 427.343524 
Q 591.768842 504.936224 591.768842 582.528924 
" style="fill:none;stroke:#000000;stroke-linecap:round;"/>
    <path clip-path="url(#pbf86c40801)" d="M 589.768842 431.343524 
L 591.768842 427.343524 
L 593.768842 431.343524 
L 589.768842 431.343524 
z
" style="stroke:#000000;stroke-linecap:round;"/>
    <path clip-path="url(#pbf86c40801)" d="M 593.768842 578.528924 
L 591.768842 582.528924 
L 589.768842 578.528924 
L 593.768842 578.528924 
z
" style="stroke:#000000;stroke-linecap:round;"/>
   </g>
   <g id="matplotlib.axis_3">
    <g id="xtick_43">
     <g id="line2d_61">
      <g>
       <use style="stroke:#000000;stroke-width:0.8;" x="124.582198" xlink:href="#m0a1aa9ca59" y="666.358594"/>
      </g>
     </g>
     <g id="text_21">
      <!-- 2017-01 -->
      <g transform="translate(103.690792 680.957031)scale(0.1 -0.1)">
       <use xlink:href="#DejaVuSans-32"/>
       <use x="63.623047" xlink:href="#DejaVuSans-30"/>
       <use x="127.246094" xlink:href="#DejaVuSans-31"/>
       <use x="190.869141" xlink:href="#DejaVuSans-37"/>
       <use x="254.492188" xlink:href="#DejaVuSans-2d"/>
       <use x="290.576172" xlink:href="#DejaVuSans-30"/>
       <use x="354.199219" xlink:href="#DejaVuSans-31"/>
      </g>
     </g>
    </g>
    <g id="xtick_44">
     <g id="line2d_62">
      <g>
       <use style="stroke:#000000;stroke-width:0.8;" x="217.404133" xlink:href="#m0a1aa9ca59" y="666.358594"/>
      </g>
     </g>
     <g id="text_22">
      <!-- 2017-07 -->
      <g transform="translate(196.512727 680.957031)scale(0.1 -0.1)">
       <use xlink:href="#DejaVuSans-32"/>
       <use x="63.623047" xlink:href="#DejaVuSans-30"/>
       <use x="127.246094" xlink:href="#DejaVuSans-31"/>
       <use x="190.869141" xlink:href="#DejaVuSans-37"/>
       <use x="254.492188" xlink:href="#DejaVuSans-2d"/>
       <use x="290.576172" xlink:href="#DejaVuSans-30"/>
       <use x="354.199219" xlink:href="#DejaVuSans-37"/>
      </g>
     </g>
    </g>
    <g id="xtick_45">
     <g id="line2d_63">
      <g>
       <use style="stroke:#000000;stroke-width:0.8;" x="311.764553" xlink:href="#m0a1aa9ca59" y="666.358594"/>
      </g>
     </g>
     <g id="text_23">
      <!-- 2018-01 -->
      <g transform="translate(290.873147 680.957031)scale(0.1 -0.1)">
       <use xlink:href="#DejaVuSans-32"/>
       <use x="63.623047" xlink:href="#DejaVuSans-30"/>
       <use x="127.246094" xlink:href="#DejaVuSans-31"/>
       <use x="190.869141" xlink:href="#DejaVuSans-38"/>
       <use x="254.492188" xlink:href="#DejaVuSans-2d"/>
       <use x="290.576172" xlink:href="#DejaVuSans-30"/>
       <use x="354.199219" xlink:href="#DejaVuSans-31"/>
      </g>
     </g>
    </g>
    <g id="xtick_46">
     <g id="line2d_64">
      <g>
       <use style="stroke:#000000;stroke-width:0.8;" x="404.586487" xlink:href="#m0a1aa9ca59" y="666.358594"/>
      </g>
     </g>
     <g id="text_24">
      <!-- 2018-07 -->
      <g transform="translate(383.695081 680.957031)scale(0.1 -0.1)">
       <use xlink:href="#DejaVuSans-32"/>
       <use x="63.623047" xlink:href="#DejaVuSans-30"/>
       <use x="127.246094" xlink:href="#DejaVuSans-31"/>
       <use x="190.869141" xlink:href="#DejaVuSans-38"/>
       <use x="254.492188" xlink:href="#DejaVuSans-2d"/>
       <use x="290.576172" xlink:href="#DejaVuSans-30"/>
       <use x="354.199219" xlink:href="#DejaVuSans-37"/>
      </g>
     </g>
    </g>
    <g id="xtick_47">
     <g id="line2d_65">
      <g>
       <use style="stroke:#000000;stroke-width:0.8;" x="498.946907" xlink:href="#m0a1aa9ca59" y="666.358594"/>
      </g>
     </g>
     <g id="text_25">
      <!-- 2019-01 -->
      <g transform="translate(478.055501 680.957031)scale(0.1 -0.1)">
       <use xlink:href="#DejaVuSans-32"/>
       <use x="63.623047" xlink:href="#DejaVuSans-30"/>
       <use x="127.246094" xlink:href="#DejaVuSans-31"/>
       <use x="190.869141" xlink:href="#DejaVuSans-39"/>
       <use x="254.492188" xlink:href="#DejaVuSans-2d"/>
       <use x="290.576172" xlink:href="#DejaVuSans-30"/>
       <use x="354.199219" xlink:href="#DejaVuSans-31"/>
      </g>
     </g>
    </g>
    <g id="xtick_48">
     <g id="line2d_66">
      <g>
       <use style="stroke:#000000;stroke-width:0.8;" x="591.768842" xlink:href="#m0a1aa9ca59" y="666.358594"/>
      </g>
     </g>
     <g id="text_26">
      <!-- 2019-07 -->
      <g transform="translate(570.877435 680.957031)scale(0.1 -0.1)">
       <use xlink:href="#DejaVuSans-32"/>
       <use x="63.623047" xlink:href="#DejaVuSans-30"/>
       <use x="127.246094" xlink:href="#DejaVuSans-31"/>
       <use x="190.869141" xlink:href="#DejaVuSans-39"/>
       <use x="254.492188" xlink:href="#DejaVuSans-2d"/>
       <use x="290.576172" xlink:href="#DejaVuSans-30"/>
       <use x="354.199219" xlink:href="#DejaVuSans-37"/>
      </g>
     </g>
    </g>
    <g id="xtick_49">
     <g id="line2d_67">
      <g>
       <use style="stroke:#000000;stroke-width:0.8;" x="686.129261" xlink:href="#m0a1aa9ca59" y="666.358594"/>
      </g>
     </g>
     <g id="text_27">
      <!-- 2020-01 -->
      <g transform="translate(665.237855 680.957031)scale(0.1 -0.1)">
       <use xlink:href="#DejaVuSans-32"/>
       <use x="63.623047" xlink:href="#DejaVuSans-30"/>
       <use x="127.246094" xlink:href="#DejaVuSans-32"/>
       <use x="190.869141" xlink:href="#DejaVuSans-30"/>
       <use x="254.492188" xlink:href="#DejaVuSans-2d"/>
       <use x="290.576172" xlink:href="#DejaVuSans-30"/>
       <use x="354.199219" xlink:href="#DejaVuSans-31"/>
      </g>
     </g>
    </g>
    <g id="xtick_50">
     <g id="line2d_68">
      <g>
       <use style="stroke:#000000;stroke-width:0.6;" x="62.017138" xlink:href="#m21bbdfea38" y="666.358594"/>
      </g>
     </g>
    </g>
    <g id="xtick_51">
     <g id="line2d_69">
      <g>
       <use style="stroke:#000000;stroke-width:0.6;" x="77.401989" xlink:href="#m21bbdfea38" y="666.358594"/>
      </g>
     </g>
    </g>
    <g id="xtick_52">
     <g id="line2d_70">
      <g>
       <use style="stroke:#000000;stroke-width:0.6;" x="93.299668" xlink:href="#m21bbdfea38" y="666.358594"/>
      </g>
     </g>
    </g>
    <g id="xtick_53">
     <g id="line2d_71">
      <g>
       <use style="stroke:#000000;stroke-width:0.6;" x="108.684519" xlink:href="#m21bbdfea38" y="666.358594"/>
      </g>
     </g>
    </g>
    <g id="xtick_54">
     <g id="line2d_72">
      <g>
       <use style="stroke:#000000;stroke-width:0.6;" x="140.479878" xlink:href="#m21bbdfea38" y="666.358594"/>
      </g>
     </g>
    </g>
    <g id="xtick_55">
     <g id="line2d_73">
      <g>
       <use style="stroke:#000000;stroke-width:0.6;" x="154.839072" xlink:href="#m21bbdfea38" y="666.358594"/>
      </g>
     </g>
    </g>
    <g id="xtick_56">
     <g id="line2d_74">
      <g>
       <use style="stroke:#000000;stroke-width:0.6;" x="170.736752" xlink:href="#m21bbdfea38" y="666.358594"/>
      </g>
     </g>
    </g>
    <g id="xtick_57">
     <g id="line2d_75">
      <g>
       <use style="stroke:#000000;stroke-width:0.6;" x="186.121603" xlink:href="#m21bbdfea38" y="666.358594"/>
      </g>
     </g>
    </g>
    <g id="xtick_58">
     <g id="line2d_76">
      <g>
       <use style="stroke:#000000;stroke-width:0.6;" x="202.019282" xlink:href="#m21bbdfea38" y="666.358594"/>
      </g>
     </g>
    </g>
    <g id="xtick_59">
     <g id="line2d_77">
      <g>
       <use style="stroke:#000000;stroke-width:0.6;" x="233.301812" xlink:href="#m21bbdfea38" y="666.358594"/>
      </g>
     </g>
    </g>
    <g id="xtick_60">
     <g id="line2d_78">
      <g>
       <use style="stroke:#000000;stroke-width:0.6;" x="249.199492" xlink:href="#m21bbdfea38" y="666.358594"/>
      </g>
     </g>
    </g>
    <g id="xtick_61">
     <g id="line2d_79">
      <g>
       <use style="stroke:#000000;stroke-width:0.6;" x="264.584343" xlink:href="#m21bbdfea38" y="666.358594"/>
      </g>
     </g>
    </g>
    <g id="xtick_62">
     <g id="line2d_80">
      <g>
       <use style="stroke:#000000;stroke-width:0.6;" x="280.482022" xlink:href="#m21bbdfea38" y="666.358594"/>
      </g>
     </g>
    </g>
    <g id="xtick_63">
     <g id="line2d_81">
      <g>
       <use style="stroke:#000000;stroke-width:0.6;" x="295.866873" xlink:href="#m21bbdfea38" y="666.358594"/>
      </g>
     </g>
    </g>
    <g id="xtick_64">
     <g id="line2d_82">
      <g>
       <use style="stroke:#000000;stroke-width:0.6;" x="327.662232" xlink:href="#m21bbdfea38" y="666.358594"/>
      </g>
     </g>
    </g>
    <g id="xtick_65">
     <g id="line2d_83">
      <g>
       <use style="stroke:#000000;stroke-width:0.6;" x="342.021426" xlink:href="#m21bbdfea38" y="666.358594"/>
      </g>
     </g>
    </g>
    <g id="xtick_66">
     <g id="line2d_84">
      <g>
       <use style="stroke:#000000;stroke-width:0.6;" x="357.919106" xlink:href="#m21bbdfea38" y="666.358594"/>
      </g>
     </g>
    </g>
    <g id="xtick_67">
     <g id="line2d_85">
      <g>
       <use style="stroke:#000000;stroke-width:0.6;" x="373.303957" xlink:href="#m21bbdfea38" y="666.358594"/>
      </g>
     </g>
    </g>
    <g id="xtick_68">
     <g id="line2d_86">
      <g>
       <use style="stroke:#000000;stroke-width:0.6;" x="389.201636" xlink:href="#m21bbdfea38" y="666.358594"/>
      </g>
     </g>
    </g>
    <g id="xtick_69">
     <g id="line2d_87">
      <g>
       <use style="stroke:#000000;stroke-width:0.6;" x="420.484167" xlink:href="#m21bbdfea38" y="666.358594"/>
      </g>
     </g>
    </g>
    <g id="xtick_70">
     <g id="line2d_88">
      <g>
       <use style="stroke:#000000;stroke-width:0.6;" x="436.381846" xlink:href="#m21bbdfea38" y="666.358594"/>
      </g>
     </g>
    </g>
    <g id="xtick_71">
     <g id="line2d_89">
      <g>
       <use style="stroke:#000000;stroke-width:0.6;" x="451.766697" xlink:href="#m21bbdfea38" y="666.358594"/>
      </g>
     </g>
    </g>
    <g id="xtick_72">
     <g id="line2d_90">
      <g>
       <use style="stroke:#000000;stroke-width:0.6;" x="467.664377" xlink:href="#m21bbdfea38" y="666.358594"/>
      </g>
     </g>
    </g>
    <g id="xtick_73">
     <g id="line2d_91">
      <g>
       <use style="stroke:#000000;stroke-width:0.6;" x="483.049228" xlink:href="#m21bbdfea38" y="666.358594"/>
      </g>
     </g>
    </g>
    <g id="xtick_74">
     <g id="line2d_92">
      <g>
       <use style="stroke:#000000;stroke-width:0.6;" x="514.844586" xlink:href="#m21bbdfea38" y="666.358594"/>
      </g>
     </g>
    </g>
    <g id="xtick_75">
     <g id="line2d_93">
      <g>
       <use style="stroke:#000000;stroke-width:0.6;" x="529.203781" xlink:href="#m21bbdfea38" y="666.358594"/>
      </g>
     </g>
    </g>
    <g id="xtick_76">
     <g id="line2d_94">
      <g>
       <use style="stroke:#000000;stroke-width:0.6;" x="545.10146" xlink:href="#m21bbdfea38" y="666.358594"/>
      </g>
     </g>
    </g>
    <g id="xtick_77">
     <g id="line2d_95">
      <g>
       <use style="stroke:#000000;stroke-width:0.6;" x="560.486311" xlink:href="#m21bbdfea38" y="666.358594"/>
      </g>
     </g>
    </g>
    <g id="xtick_78">
     <g id="line2d_96">
      <g>
       <use style="stroke:#000000;stroke-width:0.6;" x="576.383991" xlink:href="#m21bbdfea38" y="666.358594"/>
      </g>
     </g>
    </g>
    <g id="xtick_79">
     <g id="line2d_97">
      <g>
       <use style="stroke:#000000;stroke-width:0.6;" x="607.666521" xlink:href="#m21bbdfea38" y="666.358594"/>
      </g>
     </g>
    </g>
    <g id="xtick_80">
     <g id="line2d_98">
      <g>
       <use style="stroke:#000000;stroke-width:0.6;" x="623.5642" xlink:href="#m21bbdfea38" y="666.358594"/>
      </g>
     </g>
    </g>
    <g id="xtick_81">
     <g id="line2d_99">
      <g>
       <use style="stroke:#000000;stroke-width:0.6;" x="638.949052" xlink:href="#m21bbdfea38" y="666.358594"/>
      </g>
     </g>
    </g>
    <g id="xtick_82">
     <g id="line2d_100">
      <g>
       <use style="stroke:#000000;stroke-width:0.6;" x="654.846731" xlink:href="#m21bbdfea38" y="666.358594"/>
      </g>
     </g>
    </g>
    <g id="xtick_83">
     <g id="line2d_101">
      <g>
       <use style="stroke:#000000;stroke-width:0.6;" x="670.231582" xlink:href="#m21bbdfea38" y="666.358594"/>
      </g>
     </g>
    </g>
    <g id="xtick_84">
     <g id="line2d_102">
      <g>
       <use style="stroke:#000000;stroke-width:0.6;" x="702.026941" xlink:href="#m21bbdfea38" y="666.358594"/>
      </g>
     </g>
    </g>
   </g>
   <g id="matplotlib.axis_4">
    <g id="ytick_8">
     <g id="line2d_103">
      <g>
       <use style="stroke:#000000;stroke-width:0.8;" x="46.965625" xlink:href="#ma15908cacb" y="650.881926"/>
      </g>
     </g>
     <g id="text_28">
      <!-- 110 -->
      <g transform="translate(20.878125 654.681144)scale(0.1 -0.1)">
       <use xlink:href="#DejaVuSans-31"/>
       <use x="63.623047" xlink:href="#DejaVuSans-31"/>
       <use x="127.246094" xlink:href="#DejaVuSans-30"/>
      </g>
     </g>
    </g>
    <g id="ytick_9">
     <g id="line2d_104">
      <g>
       <use style="stroke:#000000;stroke-width:0.8;" x="46.965625" xlink:href="#ma15908cacb" y="613.593381"/>
      </g>
     </g>
     <g id="text_29">
      <!-- 120 -->
      <g transform="translate(20.878125 617.3926)scale(0.1 -0.1)">
       <use xlink:href="#DejaVuSans-31"/>
       <use x="63.623047" xlink:href="#DejaVuSans-32"/>
       <use x="127.246094" xlink:href="#DejaVuSans-30"/>
      </g>
     </g>
    </g>
    <g id="ytick_10">
     <g id="line2d_105">
      <g>
       <use style="stroke:#000000;stroke-width:0.8;" x="46.965625" xlink:href="#ma15908cacb" y="576.304837"/>
      </g>
     </g>
     <g id="text_30">
      <!-- 130 -->
      <g transform="translate(20.878125 580.104056)scale(0.1 -0.1)">
       <use xlink:href="#DejaVuSans-31"/>
       <use x="63.623047" xlink:href="#DejaVuSans-33"/>
       <use x="127.246094" xlink:href="#DejaVuSans-30"/>
      </g>
     </g>
    </g>
    <g id="ytick_11">
     <g id="line2d_106">
      <g>
       <use style="stroke:#000000;stroke-width:0.8;" x="46.965625" xlink:href="#ma15908cacb" y="539.016293"/>
      </g>
     </g>
     <g id="text_31">
      <!-- 140 -->
      <g transform="translate(20.878125 542.815511)scale(0.1 -0.1)">
       <use xlink:href="#DejaVuSans-31"/>
       <use x="63.623047" xlink:href="#DejaVuSans-34"/>
       <use x="127.246094" xlink:href="#DejaVuSans-30"/>
      </g>
     </g>
    </g>
    <g id="ytick_12">
     <g id="line2d_107">
      <g>
       <use style="stroke:#000000;stroke-width:0.8;" x="46.965625" xlink:href="#ma15908cacb" y="501.727748"/>
      </g>
     </g>
     <g id="text_32">
      <!-- 150 -->
      <g transform="translate(20.878125 505.526967)scale(0.1 -0.1)">
       <use xlink:href="#DejaVuSans-31"/>
       <use x="63.623047" xlink:href="#DejaVuSans-35"/>
       <use x="127.246094" xlink:href="#DejaVuSans-30"/>
      </g>
     </g>
    </g>
    <g id="ytick_13">
     <g id="line2d_108">
      <g>
       <use style="stroke:#000000;stroke-width:0.8;" x="46.965625" xlink:href="#ma15908cacb" y="464.439204"/>
      </g>
     </g>
     <g id="text_33">
      <!-- 160 -->
      <g transform="translate(20.878125 468.238423)scale(0.1 -0.1)">
       <use xlink:href="#DejaVuSans-31"/>
       <use x="63.623047" xlink:href="#DejaVuSans-36"/>
       <use x="127.246094" xlink:href="#DejaVuSans-30"/>
      </g>
     </g>
    </g>
    <g id="ytick_14">
     <g id="line2d_109">
      <g>
       <use style="stroke:#000000;stroke-width:0.8;" x="46.965625" xlink:href="#ma15908cacb" y="427.15066"/>
      </g>
     </g>
     <g id="text_34">
      <!-- 170 -->
      <g transform="translate(20.878125 430.949879)scale(0.1 -0.1)">
       <use xlink:href="#DejaVuSans-31"/>
       <use x="63.623047" xlink:href="#DejaVuSans-37"/>
       <use x="127.246094" xlink:href="#DejaVuSans-30"/>
      </g>
     </g>
    </g>
    <g id="ytick_15">
     <g id="line2d_110">
      <g>
       <use style="stroke:#000000;stroke-width:0.8;" x="46.965625" xlink:href="#ma15908cacb" y="389.862116"/>
      </g>
     </g>
     <g id="text_35">
      <!-- 180 -->
      <g transform="translate(20.878125 393.661334)scale(0.1 -0.1)">
       <use xlink:href="#DejaVuSans-31"/>
       <use x="63.623047" xlink:href="#DejaVuSans-38"/>
       <use x="127.246094" xlink:href="#DejaVuSans-30"/>
      </g>
     </g>
    </g>
    <g id="text_36">
     <!-- Billion US Dollars -->
     <g transform="translate(14.798438 560.74233)rotate(-90)scale(0.1 -0.1)">
      <use xlink:href="#DejaVuSans-42"/>
      <use x="68.603516" xlink:href="#DejaVuSans-69"/>
      <use x="96.386719" xlink:href="#DejaVuSans-6c"/>
      <use x="124.169922" xlink:href="#DejaVuSans-6c"/>
      <use x="151.953125" xlink:href="#DejaVuSans-69"/>
      <use x="179.736328" xlink:href="#DejaVuSans-6f"/>
      <use x="240.917969" xlink:href="#DejaVuSans-6e"/>
      <use x="304.296875" xlink:href="#DejaVuSans-20"/>
      <use x="336.083984" xlink:href="#DejaVuSans-55"/>
      <use x="409.277344" xlink:href="#DejaVuSans-53"/>
      <use x="472.753906" xlink:href="#DejaVuSans-20"/>
      <use x="504.541016" xlink:href="#DejaVuSans-44"/>
      <use x="581.542969" xlink:href="#DejaVuSans-6f"/>
      <use x="642.724609" xlink:href="#DejaVuSans-6c"/>
      <use x="670.507812" xlink:href="#DejaVuSans-6c"/>
      <use x="698.291016" xlink:href="#DejaVuSans-61"/>
      <use x="759.570312" xlink:href="#DejaVuSans-72"/>
      <use x="800.683594" xlink:href="#DejaVuSans-73"/>
     </g>
    </g>
   </g>
   <g id="line2d_111">
    <path clip-path="url(#pbf86c40801)" d="M 77.401989 539.952602 
L 93.299668 521.496761 
L 108.684519 504.788862 
L 124.582198 496.800266 
L 140.479878 474.492037 
L 154.839072 475.062687 
L 170.736752 478.015482 
L 186.121603 499.437653 
L 202.019282 498.689025 
L 217.404133 508.268573 
L 233.301812 516.357208 
L 249.199492 505.837137 
L 264.584343 506.523613 
L 280.482022 481.304042 
L 295.866873 451.572353 
L 311.764553 461.90475 
L 327.662232 422.170413 
L 342.021426 422.503823 
L 357.919106 421.046044 
L 373.303957 445.406077 
L 389.201636 445.122689 
L 404.586487 443.113496 
L 420.484167 448.037354 
L 436.381846 443.484029 
L 451.766697 448.167862 
L 467.664377 447.738266 
L 483.049228 435.100521 
L 498.946907 437.238393 
L 514.844586 407.089462 
L 529.203781 383.327189 
L 545.10146 410.178609 
L 560.486311 406.883969 
L 576.383991 425.331089 
L 591.768842 432.319394 
L 607.666521 433.83003 
L 623.5642 443.905373 
L 638.949052 458.055692 
L 654.846731 452.413562 
L 670.231582 424.133115 
L 686.129261 431.587412 
" style="fill:none;stroke:#6b8e23;stroke-linecap:square;stroke-width:3;"/>
   </g>
   <g id="line2d_112">
    <path clip-path="url(#pbf86c40801)" d="M 77.401989 648.797513 
L 93.299668 652.880908 
L 108.684519 634.377291 
L 124.582198 623.696797 
L 140.479878 623.709073 
L 154.839072 624.545713 
L 170.736752 626.590217 
L 186.121603 628.814653 
L 202.019282 621.685782 
L 217.404133 622.89338 
L 233.301812 624.36776 
L 249.199492 618.862175 
L 264.584343 621.27565 
L 280.482022 610.223967 
L 295.866873 601.477865 
L 311.764553 601.074352 
L 327.662232 591.192782 
L 342.021426 586.262539 
L 357.919106 575.67006 
L 373.303957 565.962969 
L 389.201636 575.39683 
L 404.586487 579.697724 
L 420.484167 580.146047 
L 436.381846 575.38275 
L 451.766697 568.738325 
L 467.664377 579.282627 
L 483.049228 590.898275 
L 498.946907 576.212252 
L 514.844586 578.56987 
L 529.203781 577.180932 
L 545.10146 582.150123 
L 560.486311 576.036534 
L 576.383991 588.50135 
L 591.768842 580.019195 
L 607.666521 586.722569 
L 623.5642 589.543717 
L 638.949052 588.319008 
L 654.846731 593.527186 
L 670.231582 586.980755 
L 686.129261 584.893944 
" style="fill:none;stroke:#000080;stroke-linecap:square;stroke-width:3;"/>
   </g>
   <g id="line2d_113">
    <path clip-path="url(#pbf86c40801)" d="M 124.582198 491.030006 
L 140.479878 491.030006 
L 154.839072 491.030006 
L 170.736752 491.030006 
L 186.121603 491.030006 
L 202.019282 491.030006 
L 217.404133 491.030006 
L 233.301812 491.030006 
L 249.199492 491.030006 
L 264.584343 491.030006 
L 280.482022 491.030006 
L 295.866873 491.030006 
" style="fill:none;stroke:#6b8e23;stroke-dasharray:7.4,3.2;stroke-dashoffset:0;stroke-width:2;"/>
   </g>
   <g id="line2d_114">
    <path clip-path="url(#pbf86c40801)" d="M 124.582198 620.678586 
L 140.479878 620.678586 
L 154.839072 620.678586 
L 170.736752 620.678586 
L 186.121603 620.678586 
L 202.019282 620.678586 
L 217.404133 620.678586 
L 233.301812 620.678586 
L 249.199492 620.678586 
L 264.584343 620.678586 
L 280.482022 620.678586 
L 295.866873 620.678586 
" style="fill:none;stroke:#000080;stroke-dasharray:7.4,3.2;stroke-dashoffset:0;stroke-width:2;"/>
   </g>
   <g id="line2d_115">
    <path clip-path="url(#pbf86c40801)" d="M 498.946907 426.22549 
L 514.844586 426.22549 
L 529.203781 426.22549 
L 545.10146 426.22549 
L 560.486311 426.22549 
L 576.383991 426.22549 
L 591.768842 426.22549 
L 607.666521 426.22549 
L 623.5642 426.22549 
L 638.949052 426.22549 
L 654.846731 426.22549 
L 670.231582 426.22549 
" style="fill:none;stroke:#6b8e23;stroke-dasharray:7.4,3.2;stroke-dashoffset:0;stroke-width:2;"/>
   </g>
   <g id="line2d_116">
    <path clip-path="url(#pbf86c40801)" d="M 498.946907 583.646958 
L 514.844586 583.646958 
L 529.203781 583.646958 
L 545.10146 583.646958 
L 560.486311 583.646958 
L 576.383991 583.646958 
L 591.768842 583.646958 
L 607.666521 583.646958 
L 623.5642 583.646958 
L 638.949052 583.646958 
L 654.846731 583.646958 
L 670.231582 583.646958 
" style="fill:none;stroke:#000080;stroke-dasharray:7.4,3.2;stroke-dashoffset:0;stroke-width:2;"/>
   </g>
   <g id="line2d_117">
    <path clip-path="url(#pbf86c40801)" d="M 404.586487 666.358594 
L 404.586487 369.849503 
" style="fill:none;stroke:#000000;stroke-dasharray:2,3.3;stroke-dashoffset:0;stroke-width:2;"/>
   </g>
   <g id="patch_11">
    <path d="M 46.965625 666.358594 
L 46.965625 369.849503 
" style="fill:none;stroke:#000000;stroke-linecap:square;stroke-linejoin:miter;stroke-width:0.8;"/>
   </g>
   <g id="patch_12">
    <path d="M 46.965625 666.358594 
L 716.565625 666.358594 
" style="fill:none;stroke:#000000;stroke-linecap:square;stroke-linejoin:miter;stroke-width:0.8;"/>
   </g>
   <g id="text_37">
    <!-- 2017 balance: -->
    <g transform="translate(217.404133 555.040242)scale(0.09 -0.09)">
     <use xlink:href="#DejaVuSans-32"/>
     <use x="63.623047" xlink:href="#DejaVuSans-30"/>
     <use x="127.246094" xlink:href="#DejaVuSans-31"/>
     <use x="190.869141" xlink:href="#DejaVuSans-37"/>
     <use x="254.492188" xlink:href="#DejaVuSans-20"/>
     <use x="286.279297" xlink:href="#DejaVuSans-62"/>
     <use x="349.755859" xlink:href="#DejaVuSans-61"/>
     <use x="411.035156" xlink:href="#DejaVuSans-6c"/>
     <use x="438.818359" xlink:href="#DejaVuSans-61"/>
     <use x="500.097656" xlink:href="#DejaVuSans-6e"/>
     <use x="563.476562" xlink:href="#DejaVuSans-63"/>
     <use x="618.457031" xlink:href="#DejaVuSans-65"/>
     <use x="679.980469" xlink:href="#DejaVuSans-3a"/>
    </g>
    <!--  -417.23 -->
    <g transform="translate(217.404133 565.118274)scale(0.09 -0.09)">
     <use xlink:href="#DejaVuSans-20"/>
     <use x="31.787109" xlink:href="#DejaVuSans-2d"/>
     <use x="67.871094" xlink:href="#DejaVuSans-34"/>
     <use x="131.494141" xlink:href="#DejaVuSans-31"/>
     <use x="195.117188" xlink:href="#DejaVuSans-37"/>
     <use x="258.740234" xlink:href="#DejaVuSans-2e"/>
     <use x="290.527344" xlink:href="#DejaVuSans-32"/>
     <use x="354.150391" xlink:href="#DejaVuSans-33"/>
    </g>
   </g>
   <g id="text_38">
    <!-- 2019 balance: -->
    <g transform="translate(591.768842 517.751698)scale(0.09 -0.09)">
     <use xlink:href="#DejaVuSans-32"/>
     <use x="63.623047" xlink:href="#DejaVuSans-30"/>
     <use x="127.246094" xlink:href="#DejaVuSans-31"/>
     <use x="190.869141" xlink:href="#DejaVuSans-39"/>
     <use x="254.492188" xlink:href="#DejaVuSans-20"/>
     <use x="286.279297" xlink:href="#DejaVuSans-62"/>
     <use x="349.755859" xlink:href="#DejaVuSans-61"/>
     <use x="411.035156" xlink:href="#DejaVuSans-6c"/>
     <use x="438.818359" xlink:href="#DejaVuSans-61"/>
     <use x="500.097656" xlink:href="#DejaVuSans-6e"/>
     <use x="563.476562" xlink:href="#DejaVuSans-63"/>
     <use x="618.457031" xlink:href="#DejaVuSans-65"/>
     <use x="679.980469" xlink:href="#DejaVuSans-3a"/>
    </g>
    <!--  -506.61 -->
    <g transform="translate(591.768842 527.829729)scale(0.09 -0.09)">
     <use xlink:href="#DejaVuSans-20"/>
     <use x="31.787109" xlink:href="#DejaVuSans-2d"/>
     <use x="67.871094" xlink:href="#DejaVuSans-35"/>
     <use x="131.494141" xlink:href="#DejaVuSans-30"/>
     <use x="195.117188" xlink:href="#DejaVuSans-36"/>
     <use x="258.740234" xlink:href="#DejaVuSans-2e"/>
     <use x="290.527344" xlink:href="#DejaVuSans-36"/>
     <use x="354.150391" xlink:href="#DejaVuSans-31"/>
    </g>
   </g>
   <g id="text_39">
    <!-- US-CN trade war -->
    <g transform="translate(329.730394 371.217844)scale(0.09 -0.09)">
     <use xlink:href="#DejaVuSans-55"/>
     <use x="73.193359" xlink:href="#DejaVuSans-53"/>
     <use x="136.669922" xlink:href="#DejaVuSans-2d"/>
     <use x="172.753906" xlink:href="#DejaVuSans-43"/>
     <use x="242.578125" xlink:href="#DejaVuSans-4e"/>
     <use x="317.382812" xlink:href="#DejaVuSans-20"/>
     <use x="349.169922" xlink:href="#DejaVuSans-74"/>
     <use x="388.378906" xlink:href="#DejaVuSans-72"/>
     <use x="429.492188" xlink:href="#DejaVuSans-61"/>
     <use x="490.771484" xlink:href="#DejaVuSans-64"/>
     <use x="554.248047" xlink:href="#DejaVuSans-65"/>
     <use x="615.771484" xlink:href="#DejaVuSans-20"/>
     <use x="647.558594" xlink:href="#DejaVuSans-77"/>
     <use x="729.345703" xlink:href="#DejaVuSans-61"/>
     <use x="790.625" xlink:href="#DejaVuSans-72"/>
    </g>
   </g>
   <g id="legend_2">
    <g id="patch_13">
     <path d="M 52.565625 399.734503 
L 161.519375 399.734503 
Q 163.119375 399.734503 163.119375 398.134503 
L 163.119375 375.449503 
Q 163.119375 373.849503 161.519375 373.849503 
L 52.565625 373.849503 
Q 50.965625 373.849503 50.965625 375.449503 
L 50.965625 398.134503 
Q 50.965625 399.734503 52.565625 399.734503 
z
" style="fill:#ffffff;opacity:0.8;stroke:#cccccc;stroke-linejoin:miter;"/>
    </g>
    <g id="line2d_118">
     <path d="M 54.165625 380.328253 
L 70.165625 380.328253 
" style="fill:none;stroke:#000080;stroke-linecap:square;stroke-width:3;"/>
    </g>
    <g id="line2d_119"/>
    <g id="text_40">
     <!-- US export to ROW -->
     <g transform="translate(76.565625 383.128253)scale(0.08 -0.08)">
      <defs>
       <path d="M 2841 2188 
Q 3044 2119 3236 1894 
Q 3428 1669 3622 1275 
L 4263 0 
L 3584 0 
L 2988 1197 
Q 2756 1666 2539 1819 
Q 2322 1972 1947 1972 
L 1259 1972 
L 1259 0 
L 628 0 
L 628 4666 
L 2053 4666 
Q 2853 4666 3247 4331 
Q 3641 3997 3641 3322 
Q 3641 2881 3436 2590 
Q 3231 2300 2841 2188 
z
M 1259 4147 
L 1259 2491 
L 2053 2491 
Q 2509 2491 2742 2702 
Q 2975 2913 2975 3322 
Q 2975 3731 2742 3939 
Q 2509 4147 2053 4147 
L 1259 4147 
z
" id="DejaVuSans-52" transform="scale(0.015625)"/>
       <path d="M 2522 4238 
Q 1834 4238 1429 3725 
Q 1025 3213 1025 2328 
Q 1025 1447 1429 934 
Q 1834 422 2522 422 
Q 3209 422 3611 934 
Q 4013 1447 4013 2328 
Q 4013 3213 3611 3725 
Q 3209 4238 2522 4238 
z
M 2522 4750 
Q 3503 4750 4090 4092 
Q 4678 3434 4678 2328 
Q 4678 1225 4090 567 
Q 3503 -91 2522 -91 
Q 1538 -91 948 565 
Q 359 1222 359 2328 
Q 359 3434 948 4092 
Q 1538 4750 2522 4750 
z
" id="DejaVuSans-4f" transform="scale(0.015625)"/>
       <path d="M 213 4666 
L 850 4666 
L 1831 722 
L 2809 4666 
L 3519 4666 
L 4500 722 
L 5478 4666 
L 6119 4666 
L 4947 0 
L 4153 0 
L 3169 4050 
L 2175 0 
L 1381 0 
L 213 4666 
z
" id="DejaVuSans-57" transform="scale(0.015625)"/>
      </defs>
      <use xlink:href="#DejaVuSans-55"/>
      <use x="73.193359" xlink:href="#DejaVuSans-53"/>
      <use x="136.669922" xlink:href="#DejaVuSans-20"/>
      <use x="168.457031" xlink:href="#DejaVuSans-65"/>
      <use x="228.230469" xlink:href="#DejaVuSans-78"/>
      <use x="287.410156" xlink:href="#DejaVuSans-70"/>
      <use x="350.886719" xlink:href="#DejaVuSans-6f"/>
      <use x="412.068359" xlink:href="#DejaVuSans-72"/>
      <use x="453.181641" xlink:href="#DejaVuSans-74"/>
      <use x="492.390625" xlink:href="#DejaVuSans-20"/>
      <use x="524.177734" xlink:href="#DejaVuSans-74"/>
      <use x="563.386719" xlink:href="#DejaVuSans-6f"/>
      <use x="624.568359" xlink:href="#DejaVuSans-20"/>
      <use x="656.355469" xlink:href="#DejaVuSans-52"/>
      <use x="725.837891" xlink:href="#DejaVuSans-4f"/>
      <use x="804.548828" xlink:href="#DejaVuSans-57"/>
     </g>
    </g>
    <g id="line2d_120">
     <path d="M 54.165625 392.070753 
L 70.165625 392.070753 
" style="fill:none;stroke:#6b8e23;stroke-linecap:square;stroke-width:3;"/>
    </g>
    <g id="line2d_121"/>
    <g id="text_41">
     <!-- US import from ROW -->
     <g transform="translate(76.565625 394.870753)scale(0.08 -0.08)">
      <use xlink:href="#DejaVuSans-55"/>
      <use x="73.193359" xlink:href="#DejaVuSans-53"/>
      <use x="136.669922" xlink:href="#DejaVuSans-20"/>
      <use x="168.457031" xlink:href="#DejaVuSans-69"/>
      <use x="196.240234" xlink:href="#DejaVuSans-6d"/>
      <use x="293.652344" xlink:href="#DejaVuSans-70"/>
      <use x="357.128906" xlink:href="#DejaVuSans-6f"/>
      <use x="418.310547" xlink:href="#DejaVuSans-72"/>
      <use x="459.423828" xlink:href="#DejaVuSans-74"/>
      <use x="498.632812" xlink:href="#DejaVuSans-20"/>
      <use x="530.419922" xlink:href="#DejaVuSans-66"/>
      <use x="565.625" xlink:href="#DejaVuSans-72"/>
      <use x="604.488281" xlink:href="#DejaVuSans-6f"/>
      <use x="665.669922" xlink:href="#DejaVuSans-6d"/>
      <use x="763.082031" xlink:href="#DejaVuSans-20"/>
      <use x="794.869141" xlink:href="#DejaVuSans-52"/>
      <use x="864.351562" xlink:href="#DejaVuSans-4f"/>
      <use x="943.0625" xlink:href="#DejaVuSans-57"/>
     </g>
    </g>
   </g>
  </g>
 </g>
 <defs>
  <clipPath id="pa5918ea07f">
   <rect height="296.509091" width="669.6" x="46.965625" y="14.038594"/>
  </clipPath>
  <clipPath id="pbf86c40801">
   <rect height="296.509091" width="669.6" x="46.965625" y="369.849503"/>
  </clipPath>
 </defs>
</svg>
