<?xml version="1.0" encoding="utf-8" standalone="no"?>
<!DOCTYPE svg PUBLIC "-//W3C//DTD SVG 1.1//EN"
  "http://www.w3.org/Graphics/SVG/1.1/DTD/svg11.dtd">
<svg height="472.796719pt" version="1.1" viewBox="0 0 501.166122 472.796719" width="501.166122pt" xmlns="http://www.w3.org/2000/svg" xmlns:xlink="http://www.w3.org/1999/xlink">
 <metadata>
  <rdf:RDF xmlns:cc="http://creativecommons.org/ns#" xmlns:dc="http://purl.org/dc/elements/1.1/" xmlns:rdf="http://www.w3.org/1999/02/22-rdf-syntax-ns#">
   <cc:Work>
    <dc:type rdf:resource="http://purl.org/dc/dcmitype/StillImage"/>
    <dc:date>2021-11-24T14:57:36.901664</dc:date>
    <dc:format>image/svg+xml</dc:format>
    <dc:creator>
     <cc:Agent>
      <dc:title>Matplotlib v3.4.3, https://matplotlib.org/</dc:title>
     </cc:Agent>
    </dc:creator>
   </cc:Work>
  </rdf:RDF>
 </metadata>
 <defs>
  <style type="text/css">*{stroke-linecap:butt;stroke-linejoin:round;}</style>
 </defs>
 <g id="figure_1">
  <g id="patch_1">
   <path d="M 0 472.796719 
L 501.166122 472.796719 
L 501.166122 0 
L 0 0 
z
" style="fill:none;"/>
  </g>
  <g id="axes_1">
   <g id="patch_2">
    <path d="M 46.965625 211.711321 
L 493.365625 211.711321 
L 493.365625 14.038594 
L 46.965625 14.038594 
z
" style="fill:#ffffff;"/>
   </g>
   <g id="PolyCollection_1">
    <defs>
     <path d="M 67.256534 -302.596686 
L 67.256534 -405.380224 
L 77.854987 -401.441704 
L 88.111554 -390.755169 
L 98.710007 -397.267257 
L 109.30846 -369.09693 
L 118.881256 -373.633639 
L 129.479709 -384.439343 
L 139.736277 -398.655221 
L 150.33473 -400.306559 
L 160.591297 -404.599457 
L 171.18975 -411.917305 
L 181.788203 -410.674403 
L 192.04477 -419.662247 
L 202.643223 -419.568826 
L 212.899791 -407.492962 
L 223.498244 -411.584551 
L 234.096696 -389.428284 
L 243.669493 -387.180268 
L 254.267946 -387.028516 
L 264.524513 -405.605834 
L 275.122966 -407.771756 
L 285.379533 -415.961156 
L 295.977986 -418.552132 
L 306.576439 -425.608573 
L 316.833006 -432.668852 
L 327.431459 -413.769693 
L 337.688027 -412.024532 
L 348.28648 -397.376095 
L 358.884933 -370.138433 
L 368.457729 -363.833706 
L 379.056182 -375.160225 
L 389.312749 -389.916811 
L 399.911202 -389.147546 
L 410.167769 -397.404252 
L 420.766222 -396.424719 
L 431.364675 -393.068886 
L 441.621243 -392.867724 
L 452.219696 -381.000349 
L 462.476263 -371.736571 
L 473.074716 -370.376373 
L 473.074716 -284.653611 
L 473.074716 -284.653611 
L 462.476263 -290.403653 
L 452.219696 -294.368894 
L 441.621243 -290.255873 
L 431.364675 -289.418295 
L 420.766222 -292.083749 
L 410.167769 -289.746116 
L 399.911202 -291.284872 
L 389.312749 -290.96531 
L 379.056182 -287.058479 
L 368.457729 -295.93038 
L 358.884933 -287.71678 
L 348.28648 -284.49137 
L 337.688027 -291.428951 
L 327.431459 -289.58474 
L 316.833006 -291.357906 
L 306.576439 -293.151545 
L 295.977986 -291.652656 
L 285.379533 -294.53148 
L 275.122966 -296.850105 
L 264.524513 -295.34127 
L 254.267946 -295.709645 
L 243.669493 -302.771302 
L 234.096696 -293.184553 
L 223.498244 -293.732545 
L 212.899791 -305.989638 
L 202.643223 -303.612689 
L 192.04477 -303.793322 
L 181.788203 -296.982697 
L 171.18975 -296.75037 
L 160.591297 -293.879512 
L 150.33473 -293.102485 
L 139.736277 -293.635584 
L 129.479709 -293.393281 
L 118.881256 -293.108986 
L 109.30846 -293.173661 
L 98.710007 -293.88432 
L 88.111554 -299.449739 
L 77.854987 -300.765183 
L 67.256534 -302.596686 
z
" id="mc41a69ed7b" style="stroke:#d8bfd8;"/>
    </defs>
    <g clip-path="url(#pa90e401dc3)">
     <use style="fill:#d8bfd8;stroke:#d8bfd8;" x="0" xlink:href="#mc41a69ed7b" y="472.796719"/>
    </g>
   </g>
   <g id="patch_3">
    <path clip-path="url(#pa90e401dc3)" d="M 160.591297 74.138574 
Q 160.591297 124.520856 160.591297 174.903139 
" style="fill:none;stroke:#000000;stroke-linecap:round;"/>
    <path clip-path="url(#pa90e401dc3)" d="M 158.591297 78.138574 
L 160.591297 74.138574 
L 162.591297 78.138574 
L 158.591297 78.138574 
z
" style="stroke:#000000;stroke-linecap:round;"/>
    <path clip-path="url(#pa90e401dc3)" d="M 162.591297 170.903139 
L 160.591297 174.903139 
L 158.591297 170.903139 
L 162.591297 170.903139 
z
" style="stroke:#000000;stroke-linecap:round;"/>
   </g>
   <g id="patch_4">
    <path clip-path="url(#pa90e401dc3)" d="M 410.167769 89.075143 
Q 410.167769 135.221757 410.167769 181.36837 
" style="fill:none;stroke:#000000;stroke-linecap:round;"/>
    <path clip-path="url(#pa90e401dc3)" d="M 408.167769 93.075143 
L 410.167769 89.075143 
L 412.167769 93.075143 
L 408.167769 93.075143 
z
" style="stroke:#000000;stroke-linecap:round;"/>
    <path clip-path="url(#pa90e401dc3)" d="M 412.167769 177.36837 
L 410.167769 181.36837 
L 408.167769 177.36837 
L 412.167769 177.36837 
z
" style="stroke:#000000;stroke-linecap:round;"/>
   </g>
   <g id="matplotlib.axis_1">
    <g id="xtick_1">
     <g id="line2d_1">
      <defs>
       <path d="M 0 0 
L 0 3.5 
" id="mf390a1e71b" style="stroke:#000000;stroke-width:0.8;"/>
      </defs>
      <g>
       <use style="stroke:#000000;stroke-width:0.8;" x="98.710007" xlink:href="#mf390a1e71b" y="211.711321"/>
      </g>
     </g>
     <g id="text_1">
      <!-- 2017-01 -->
      <g transform="translate(77.818601 226.309759)scale(0.1 -0.1)">
       <defs>
        <path d="M 1228 531 
L 3431 531 
L 3431 0 
L 469 0 
L 469 531 
Q 828 903 1448 1529 
Q 2069 2156 2228 2338 
Q 2531 2678 2651 2914 
Q 2772 3150 2772 3378 
Q 2772 3750 2511 3984 
Q 2250 4219 1831 4219 
Q 1534 4219 1204 4116 
Q 875 4013 500 3803 
L 500 4441 
Q 881 4594 1212 4672 
Q 1544 4750 1819 4750 
Q 2544 4750 2975 4387 
Q 3406 4025 3406 3419 
Q 3406 3131 3298 2873 
Q 3191 2616 2906 2266 
Q 2828 2175 2409 1742 
Q 1991 1309 1228 531 
z
" id="DejaVuSans-32" transform="scale(0.015625)"/>
        <path d="M 2034 4250 
Q 1547 4250 1301 3770 
Q 1056 3291 1056 2328 
Q 1056 1369 1301 889 
Q 1547 409 2034 409 
Q 2525 409 2770 889 
Q 3016 1369 3016 2328 
Q 3016 3291 2770 3770 
Q 2525 4250 2034 4250 
z
M 2034 4750 
Q 2819 4750 3233 4129 
Q 3647 3509 3647 2328 
Q 3647 1150 3233 529 
Q 2819 -91 2034 -91 
Q 1250 -91 836 529 
Q 422 1150 422 2328 
Q 422 3509 836 4129 
Q 1250 4750 2034 4750 
z
" id="DejaVuSans-30" transform="scale(0.015625)"/>
        <path d="M 794 531 
L 1825 531 
L 1825 4091 
L 703 3866 
L 703 4441 
L 1819 4666 
L 2450 4666 
L 2450 531 
L 3481 531 
L 3481 0 
L 794 0 
L 794 531 
z
" id="DejaVuSans-31" transform="scale(0.015625)"/>
        <path d="M 525 4666 
L 3525 4666 
L 3525 4397 
L 1831 0 
L 1172 0 
L 2766 4134 
L 525 4134 
L 525 4666 
z
" id="DejaVuSans-37" transform="scale(0.015625)"/>
        <path d="M 313 2009 
L 1997 2009 
L 1997 1497 
L 313 1497 
L 313 2009 
z
" id="DejaVuSans-2d" transform="scale(0.015625)"/>
       </defs>
       <use xlink:href="#DejaVuSans-32"/>
       <use x="63.623047" xlink:href="#DejaVuSans-30"/>
       <use x="127.246094" xlink:href="#DejaVuSans-31"/>
       <use x="190.869141" xlink:href="#DejaVuSans-37"/>
       <use x="254.492188" xlink:href="#DejaVuSans-2d"/>
       <use x="290.576172" xlink:href="#DejaVuSans-30"/>
       <use x="354.199219" xlink:href="#DejaVuSans-31"/>
      </g>
     </g>
    </g>
    <g id="xtick_2">
     <g id="line2d_2">
      <g>
       <use style="stroke:#000000;stroke-width:0.8;" x="160.591297" xlink:href="#mf390a1e71b" y="211.711321"/>
      </g>
     </g>
     <g id="text_2">
      <!-- 2017-07 -->
      <g transform="translate(139.699891 226.309759)scale(0.1 -0.1)">
       <use xlink:href="#DejaVuSans-32"/>
       <use x="63.623047" xlink:href="#DejaVuSans-30"/>
       <use x="127.246094" xlink:href="#DejaVuSans-31"/>
       <use x="190.869141" xlink:href="#DejaVuSans-37"/>
       <use x="254.492188" xlink:href="#DejaVuSans-2d"/>
       <use x="290.576172" xlink:href="#DejaVuSans-30"/>
       <use x="354.199219" xlink:href="#DejaVuSans-37"/>
      </g>
     </g>
    </g>
    <g id="xtick_3">
     <g id="line2d_3">
      <g>
       <use style="stroke:#000000;stroke-width:0.8;" x="223.498244" xlink:href="#mf390a1e71b" y="211.711321"/>
      </g>
     </g>
     <g id="text_3">
      <!-- 2018-01 -->
      <g transform="translate(202.606837 226.309759)scale(0.1 -0.1)">
       <defs>
        <path d="M 2034 2216 
Q 1584 2216 1326 1975 
Q 1069 1734 1069 1313 
Q 1069 891 1326 650 
Q 1584 409 2034 409 
Q 2484 409 2743 651 
Q 3003 894 3003 1313 
Q 3003 1734 2745 1975 
Q 2488 2216 2034 2216 
z
M 1403 2484 
Q 997 2584 770 2862 
Q 544 3141 544 3541 
Q 544 4100 942 4425 
Q 1341 4750 2034 4750 
Q 2731 4750 3128 4425 
Q 3525 4100 3525 3541 
Q 3525 3141 3298 2862 
Q 3072 2584 2669 2484 
Q 3125 2378 3379 2068 
Q 3634 1759 3634 1313 
Q 3634 634 3220 271 
Q 2806 -91 2034 -91 
Q 1263 -91 848 271 
Q 434 634 434 1313 
Q 434 1759 690 2068 
Q 947 2378 1403 2484 
z
M 1172 3481 
Q 1172 3119 1398 2916 
Q 1625 2713 2034 2713 
Q 2441 2713 2670 2916 
Q 2900 3119 2900 3481 
Q 2900 3844 2670 4047 
Q 2441 4250 2034 4250 
Q 1625 4250 1398 4047 
Q 1172 3844 1172 3481 
z
" id="DejaVuSans-38" transform="scale(0.015625)"/>
       </defs>
       <use xlink:href="#DejaVuSans-32"/>
       <use x="63.623047" xlink:href="#DejaVuSans-30"/>
       <use x="127.246094" xlink:href="#DejaVuSans-31"/>
       <use x="190.869141" xlink:href="#DejaVuSans-38"/>
       <use x="254.492188" xlink:href="#DejaVuSans-2d"/>
       <use x="290.576172" xlink:href="#DejaVuSans-30"/>
       <use x="354.199219" xlink:href="#DejaVuSans-31"/>
      </g>
     </g>
    </g>
    <g id="xtick_4">
     <g id="line2d_4">
      <g>
       <use style="stroke:#000000;stroke-width:0.8;" x="285.379533" xlink:href="#mf390a1e71b" y="211.711321"/>
      </g>
     </g>
     <g id="text_4">
      <!-- 2018-07 -->
      <g transform="translate(264.488127 226.309759)scale(0.1 -0.1)">
       <use xlink:href="#DejaVuSans-32"/>
       <use x="63.623047" xlink:href="#DejaVuSans-30"/>
       <use x="127.246094" xlink:href="#DejaVuSans-31"/>
       <use x="190.869141" xlink:href="#DejaVuSans-38"/>
       <use x="254.492188" xlink:href="#DejaVuSans-2d"/>
       <use x="290.576172" xlink:href="#DejaVuSans-30"/>
       <use x="354.199219" xlink:href="#DejaVuSans-37"/>
      </g>
     </g>
    </g>
    <g id="xtick_5">
     <g id="line2d_5">
      <g>
       <use style="stroke:#000000;stroke-width:0.8;" x="348.28648" xlink:href="#mf390a1e71b" y="211.711321"/>
      </g>
     </g>
     <g id="text_5">
      <!-- 2019-01 -->
      <g transform="translate(327.395073 226.309759)scale(0.1 -0.1)">
       <defs>
        <path d="M 703 97 
L 703 672 
Q 941 559 1184 500 
Q 1428 441 1663 441 
Q 2288 441 2617 861 
Q 2947 1281 2994 2138 
Q 2813 1869 2534 1725 
Q 2256 1581 1919 1581 
Q 1219 1581 811 2004 
Q 403 2428 403 3163 
Q 403 3881 828 4315 
Q 1253 4750 1959 4750 
Q 2769 4750 3195 4129 
Q 3622 3509 3622 2328 
Q 3622 1225 3098 567 
Q 2575 -91 1691 -91 
Q 1453 -91 1209 -44 
Q 966 3 703 97 
z
M 1959 2075 
Q 2384 2075 2632 2365 
Q 2881 2656 2881 3163 
Q 2881 3666 2632 3958 
Q 2384 4250 1959 4250 
Q 1534 4250 1286 3958 
Q 1038 3666 1038 3163 
Q 1038 2656 1286 2365 
Q 1534 2075 1959 2075 
z
" id="DejaVuSans-39" transform="scale(0.015625)"/>
       </defs>
       <use xlink:href="#DejaVuSans-32"/>
       <use x="63.623047" xlink:href="#DejaVuSans-30"/>
       <use x="127.246094" xlink:href="#DejaVuSans-31"/>
       <use x="190.869141" xlink:href="#DejaVuSans-39"/>
       <use x="254.492188" xlink:href="#DejaVuSans-2d"/>
       <use x="290.576172" xlink:href="#DejaVuSans-30"/>
       <use x="354.199219" xlink:href="#DejaVuSans-31"/>
      </g>
     </g>
    </g>
    <g id="xtick_6">
     <g id="line2d_6">
      <g>
       <use style="stroke:#000000;stroke-width:0.8;" x="410.167769" xlink:href="#mf390a1e71b" y="211.711321"/>
      </g>
     </g>
     <g id="text_6">
      <!-- 2019-07 -->
      <g transform="translate(389.276363 226.309759)scale(0.1 -0.1)">
       <use xlink:href="#DejaVuSans-32"/>
       <use x="63.623047" xlink:href="#DejaVuSans-30"/>
       <use x="127.246094" xlink:href="#DejaVuSans-31"/>
       <use x="190.869141" xlink:href="#DejaVuSans-39"/>
       <use x="254.492188" xlink:href="#DejaVuSans-2d"/>
       <use x="290.576172" xlink:href="#DejaVuSans-30"/>
       <use x="354.199219" xlink:href="#DejaVuSans-37"/>
      </g>
     </g>
    </g>
    <g id="xtick_7">
     <g id="line2d_7">
      <g>
       <use style="stroke:#000000;stroke-width:0.8;" x="473.074716" xlink:href="#mf390a1e71b" y="211.711321"/>
      </g>
     </g>
     <g id="text_7">
      <!-- 2020-01 -->
      <g transform="translate(452.18331 226.309759)scale(0.1 -0.1)">
       <use xlink:href="#DejaVuSans-32"/>
       <use x="63.623047" xlink:href="#DejaVuSans-30"/>
       <use x="127.246094" xlink:href="#DejaVuSans-32"/>
       <use x="190.869141" xlink:href="#DejaVuSans-30"/>
       <use x="254.492188" xlink:href="#DejaVuSans-2d"/>
       <use x="290.576172" xlink:href="#DejaVuSans-30"/>
       <use x="354.199219" xlink:href="#DejaVuSans-31"/>
      </g>
     </g>
    </g>
    <g id="xtick_8">
     <g id="line2d_8">
      <defs>
       <path d="M 0 0 
L 0 2 
" id="m6b1dc78921" style="stroke:#000000;stroke-width:0.6;"/>
      </defs>
      <g>
       <use style="stroke:#000000;stroke-width:0.6;" x="56.999967" xlink:href="#m6b1dc78921" y="211.711321"/>
      </g>
     </g>
    </g>
    <g id="xtick_9">
     <g id="line2d_9">
      <g>
       <use style="stroke:#000000;stroke-width:0.6;" x="67.256534" xlink:href="#m6b1dc78921" y="211.711321"/>
      </g>
     </g>
    </g>
    <g id="xtick_10">
     <g id="line2d_10">
      <g>
       <use style="stroke:#000000;stroke-width:0.6;" x="77.854987" xlink:href="#m6b1dc78921" y="211.711321"/>
      </g>
     </g>
    </g>
    <g id="xtick_11">
     <g id="line2d_11">
      <g>
       <use style="stroke:#000000;stroke-width:0.6;" x="88.111554" xlink:href="#m6b1dc78921" y="211.711321"/>
      </g>
     </g>
    </g>
    <g id="xtick_12">
     <g id="line2d_12">
      <g>
       <use style="stroke:#000000;stroke-width:0.6;" x="109.30846" xlink:href="#m6b1dc78921" y="211.711321"/>
      </g>
     </g>
    </g>
    <g id="xtick_13">
     <g id="line2d_13">
      <g>
       <use style="stroke:#000000;stroke-width:0.6;" x="118.881256" xlink:href="#m6b1dc78921" y="211.711321"/>
      </g>
     </g>
    </g>
    <g id="xtick_14">
     <g id="line2d_14">
      <g>
       <use style="stroke:#000000;stroke-width:0.6;" x="129.479709" xlink:href="#m6b1dc78921" y="211.711321"/>
      </g>
     </g>
    </g>
    <g id="xtick_15">
     <g id="line2d_15">
      <g>
       <use style="stroke:#000000;stroke-width:0.6;" x="139.736277" xlink:href="#m6b1dc78921" y="211.711321"/>
      </g>
     </g>
    </g>
    <g id="xtick_16">
     <g id="line2d_16">
      <g>
       <use style="stroke:#000000;stroke-width:0.6;" x="150.33473" xlink:href="#m6b1dc78921" y="211.711321"/>
      </g>
     </g>
    </g>
    <g id="xtick_17">
     <g id="line2d_17">
      <g>
       <use style="stroke:#000000;stroke-width:0.6;" x="171.18975" xlink:href="#m6b1dc78921" y="211.711321"/>
      </g>
     </g>
    </g>
    <g id="xtick_18">
     <g id="line2d_18">
      <g>
       <use style="stroke:#000000;stroke-width:0.6;" x="181.788203" xlink:href="#m6b1dc78921" y="211.711321"/>
      </g>
     </g>
    </g>
    <g id="xtick_19">
     <g id="line2d_19">
      <g>
       <use style="stroke:#000000;stroke-width:0.6;" x="192.04477" xlink:href="#m6b1dc78921" y="211.711321"/>
      </g>
     </g>
    </g>
    <g id="xtick_20">
     <g id="line2d_20">
      <g>
       <use style="stroke:#000000;stroke-width:0.6;" x="202.643223" xlink:href="#m6b1dc78921" y="211.711321"/>
      </g>
     </g>
    </g>
    <g id="xtick_21">
     <g id="line2d_21">
      <g>
       <use style="stroke:#000000;stroke-width:0.6;" x="212.899791" xlink:href="#m6b1dc78921" y="211.711321"/>
      </g>
     </g>
    </g>
    <g id="xtick_22">
     <g id="line2d_22">
      <g>
       <use style="stroke:#000000;stroke-width:0.6;" x="234.096696" xlink:href="#m6b1dc78921" y="211.711321"/>
      </g>
     </g>
    </g>
    <g id="xtick_23">
     <g id="line2d_23">
      <g>
       <use style="stroke:#000000;stroke-width:0.6;" x="243.669493" xlink:href="#m6b1dc78921" y="211.711321"/>
      </g>
     </g>
    </g>
    <g id="xtick_24">
     <g id="line2d_24">
      <g>
       <use style="stroke:#000000;stroke-width:0.6;" x="254.267946" xlink:href="#m6b1dc78921" y="211.711321"/>
      </g>
     </g>
    </g>
    <g id="xtick_25">
     <g id="line2d_25">
      <g>
       <use style="stroke:#000000;stroke-width:0.6;" x="264.524513" xlink:href="#m6b1dc78921" y="211.711321"/>
      </g>
     </g>
    </g>
    <g id="xtick_26">
     <g id="line2d_26">
      <g>
       <use style="stroke:#000000;stroke-width:0.6;" x="275.122966" xlink:href="#m6b1dc78921" y="211.711321"/>
      </g>
     </g>
    </g>
    <g id="xtick_27">
     <g id="line2d_27">
      <g>
       <use style="stroke:#000000;stroke-width:0.6;" x="295.977986" xlink:href="#m6b1dc78921" y="211.711321"/>
      </g>
     </g>
    </g>
    <g id="xtick_28">
     <g id="line2d_28">
      <g>
       <use style="stroke:#000000;stroke-width:0.6;" x="306.576439" xlink:href="#m6b1dc78921" y="211.711321"/>
      </g>
     </g>
    </g>
    <g id="xtick_29">
     <g id="line2d_29">
      <g>
       <use style="stroke:#000000;stroke-width:0.6;" x="316.833006" xlink:href="#m6b1dc78921" y="211.711321"/>
      </g>
     </g>
    </g>
    <g id="xtick_30">
     <g id="line2d_30">
      <g>
       <use style="stroke:#000000;stroke-width:0.6;" x="327.431459" xlink:href="#m6b1dc78921" y="211.711321"/>
      </g>
     </g>
    </g>
    <g id="xtick_31">
     <g id="line2d_31">
      <g>
       <use style="stroke:#000000;stroke-width:0.6;" x="337.688027" xlink:href="#m6b1dc78921" y="211.711321"/>
      </g>
     </g>
    </g>
    <g id="xtick_32">
     <g id="line2d_32">
      <g>
       <use style="stroke:#000000;stroke-width:0.6;" x="358.884933" xlink:href="#m6b1dc78921" y="211.711321"/>
      </g>
     </g>
    </g>
    <g id="xtick_33">
     <g id="line2d_33">
      <g>
       <use style="stroke:#000000;stroke-width:0.6;" x="368.457729" xlink:href="#m6b1dc78921" y="211.711321"/>
      </g>
     </g>
    </g>
    <g id="xtick_34">
     <g id="line2d_34">
      <g>
       <use style="stroke:#000000;stroke-width:0.6;" x="379.056182" xlink:href="#m6b1dc78921" y="211.711321"/>
      </g>
     </g>
    </g>
    <g id="xtick_35">
     <g id="line2d_35">
      <g>
       <use style="stroke:#000000;stroke-width:0.6;" x="389.312749" xlink:href="#m6b1dc78921" y="211.711321"/>
      </g>
     </g>
    </g>
    <g id="xtick_36">
     <g id="line2d_36">
      <g>
       <use style="stroke:#000000;stroke-width:0.6;" x="399.911202" xlink:href="#m6b1dc78921" y="211.711321"/>
      </g>
     </g>
    </g>
    <g id="xtick_37">
     <g id="line2d_37">
      <g>
       <use style="stroke:#000000;stroke-width:0.6;" x="420.766222" xlink:href="#m6b1dc78921" y="211.711321"/>
      </g>
     </g>
    </g>
    <g id="xtick_38">
     <g id="line2d_38">
      <g>
       <use style="stroke:#000000;stroke-width:0.6;" x="431.364675" xlink:href="#m6b1dc78921" y="211.711321"/>
      </g>
     </g>
    </g>
    <g id="xtick_39">
     <g id="line2d_39">
      <g>
       <use style="stroke:#000000;stroke-width:0.6;" x="441.621243" xlink:href="#m6b1dc78921" y="211.711321"/>
      </g>
     </g>
    </g>
    <g id="xtick_40">
     <g id="line2d_40">
      <g>
       <use style="stroke:#000000;stroke-width:0.6;" x="452.219696" xlink:href="#m6b1dc78921" y="211.711321"/>
      </g>
     </g>
    </g>
    <g id="xtick_41">
     <g id="line2d_41">
      <g>
       <use style="stroke:#000000;stroke-width:0.6;" x="462.476263" xlink:href="#m6b1dc78921" y="211.711321"/>
      </g>
     </g>
    </g>
    <g id="xtick_42">
     <g id="line2d_42">
      <g>
       <use style="stroke:#000000;stroke-width:0.6;" x="483.673169" xlink:href="#m6b1dc78921" y="211.711321"/>
      </g>
     </g>
    </g>
   </g>
   <g id="matplotlib.axis_2">
    <g id="ytick_1">
     <g id="line2d_43">
      <defs>
       <path d="M 0 0 
L -3.5 0 
" id="m396fb0260b" style="stroke:#000000;stroke-width:0.8;"/>
      </defs>
      <g>
       <use style="stroke:#000000;stroke-width:0.8;" x="46.965625" xlink:href="#m396fb0260b" y="211.711321"/>
      </g>
     </g>
     <g id="text_8">
      <!-- 0 -->
      <g transform="translate(33.603125 215.51054)scale(0.1 -0.1)">
       <use xlink:href="#DejaVuSans-30"/>
      </g>
     </g>
    </g>
    <g id="ytick_2">
     <g id="line2d_44">
      <g>
       <use style="stroke:#000000;stroke-width:0.8;" x="46.965625" xlink:href="#m396fb0260b" y="178.765866"/>
      </g>
     </g>
     <g id="text_9">
      <!-- 10 -->
      <g transform="translate(27.240625 182.565085)scale(0.1 -0.1)">
       <use xlink:href="#DejaVuSans-31"/>
       <use x="63.623047" xlink:href="#DejaVuSans-30"/>
      </g>
     </g>
    </g>
    <g id="ytick_3">
     <g id="line2d_45">
      <g>
       <use style="stroke:#000000;stroke-width:0.8;" x="46.965625" xlink:href="#m396fb0260b" y="145.820412"/>
      </g>
     </g>
     <g id="text_10">
      <!-- 20 -->
      <g transform="translate(27.240625 149.619631)scale(0.1 -0.1)">
       <use xlink:href="#DejaVuSans-32"/>
       <use x="63.623047" xlink:href="#DejaVuSans-30"/>
      </g>
     </g>
    </g>
    <g id="ytick_4">
     <g id="line2d_46">
      <g>
       <use style="stroke:#000000;stroke-width:0.8;" x="46.965625" xlink:href="#m396fb0260b" y="112.874957"/>
      </g>
     </g>
     <g id="text_11">
      <!-- 30 -->
      <g transform="translate(27.240625 116.674176)scale(0.1 -0.1)">
       <defs>
        <path d="M 2597 2516 
Q 3050 2419 3304 2112 
Q 3559 1806 3559 1356 
Q 3559 666 3084 287 
Q 2609 -91 1734 -91 
Q 1441 -91 1130 -33 
Q 819 25 488 141 
L 488 750 
Q 750 597 1062 519 
Q 1375 441 1716 441 
Q 2309 441 2620 675 
Q 2931 909 2931 1356 
Q 2931 1769 2642 2001 
Q 2353 2234 1838 2234 
L 1294 2234 
L 1294 2753 
L 1863 2753 
Q 2328 2753 2575 2939 
Q 2822 3125 2822 3475 
Q 2822 3834 2567 4026 
Q 2313 4219 1838 4219 
Q 1578 4219 1281 4162 
Q 984 4106 628 3988 
L 628 4550 
Q 988 4650 1302 4700 
Q 1616 4750 1894 4750 
Q 2613 4750 3031 4423 
Q 3450 4097 3450 3541 
Q 3450 3153 3228 2886 
Q 3006 2619 2597 2516 
z
" id="DejaVuSans-33" transform="scale(0.015625)"/>
       </defs>
       <use xlink:href="#DejaVuSans-33"/>
       <use x="63.623047" xlink:href="#DejaVuSans-30"/>
      </g>
     </g>
    </g>
    <g id="ytick_5">
     <g id="line2d_47">
      <g>
       <use style="stroke:#000000;stroke-width:0.8;" x="46.965625" xlink:href="#m396fb0260b" y="79.929503"/>
      </g>
     </g>
     <g id="text_12">
      <!-- 40 -->
      <g transform="translate(27.240625 83.728722)scale(0.1 -0.1)">
       <defs>
        <path d="M 2419 4116 
L 825 1625 
L 2419 1625 
L 2419 4116 
z
M 2253 4666 
L 3047 4666 
L 3047 1625 
L 3713 1625 
L 3713 1100 
L 3047 1100 
L 3047 0 
L 2419 0 
L 2419 1100 
L 313 1100 
L 313 1709 
L 2253 4666 
z
" id="DejaVuSans-34" transform="scale(0.015625)"/>
       </defs>
       <use xlink:href="#DejaVuSans-34"/>
       <use x="63.623047" xlink:href="#DejaVuSans-30"/>
      </g>
     </g>
    </g>
    <g id="ytick_6">
     <g id="line2d_48">
      <g>
       <use style="stroke:#000000;stroke-width:0.8;" x="46.965625" xlink:href="#m396fb0260b" y="46.984048"/>
      </g>
     </g>
     <g id="text_13">
      <!-- 50 -->
      <g transform="translate(27.240625 50.783267)scale(0.1 -0.1)">
       <defs>
        <path d="M 691 4666 
L 3169 4666 
L 3169 4134 
L 1269 4134 
L 1269 2991 
Q 1406 3038 1543 3061 
Q 1681 3084 1819 3084 
Q 2600 3084 3056 2656 
Q 3513 2228 3513 1497 
Q 3513 744 3044 326 
Q 2575 -91 1722 -91 
Q 1428 -91 1123 -41 
Q 819 9 494 109 
L 494 744 
Q 775 591 1075 516 
Q 1375 441 1709 441 
Q 2250 441 2565 725 
Q 2881 1009 2881 1497 
Q 2881 1984 2565 2268 
Q 2250 2553 1709 2553 
Q 1456 2553 1204 2497 
Q 953 2441 691 2322 
L 691 4666 
z
" id="DejaVuSans-35" transform="scale(0.015625)"/>
       </defs>
       <use xlink:href="#DejaVuSans-35"/>
       <use x="63.623047" xlink:href="#DejaVuSans-30"/>
      </g>
     </g>
    </g>
    <g id="ytick_7">
     <g id="line2d_49">
      <g>
       <use style="stroke:#000000;stroke-width:0.8;" x="46.965625" xlink:href="#m396fb0260b" y="14.038594"/>
      </g>
     </g>
     <g id="text_14">
      <!-- 60 -->
      <g transform="translate(27.240625 17.837812)scale(0.1 -0.1)">
       <defs>
        <path d="M 2113 2584 
Q 1688 2584 1439 2293 
Q 1191 2003 1191 1497 
Q 1191 994 1439 701 
Q 1688 409 2113 409 
Q 2538 409 2786 701 
Q 3034 994 3034 1497 
Q 3034 2003 2786 2293 
Q 2538 2584 2113 2584 
z
M 3366 4563 
L 3366 3988 
Q 3128 4100 2886 4159 
Q 2644 4219 2406 4219 
Q 1781 4219 1451 3797 
Q 1122 3375 1075 2522 
Q 1259 2794 1537 2939 
Q 1816 3084 2150 3084 
Q 2853 3084 3261 2657 
Q 3669 2231 3669 1497 
Q 3669 778 3244 343 
Q 2819 -91 2113 -91 
Q 1303 -91 875 529 
Q 447 1150 447 2328 
Q 447 3434 972 4092 
Q 1497 4750 2381 4750 
Q 2619 4750 2861 4703 
Q 3103 4656 3366 4563 
z
" id="DejaVuSans-36" transform="scale(0.015625)"/>
       </defs>
       <use xlink:href="#DejaVuSans-36"/>
       <use x="63.623047" xlink:href="#DejaVuSans-30"/>
      </g>
     </g>
    </g>
    <g id="text_15">
     <!-- Billion US Dollars -->
     <g transform="translate(21.160937 155.513239)rotate(-90)scale(0.1 -0.1)">
      <defs>
       <path d="M 1259 2228 
L 1259 519 
L 2272 519 
Q 2781 519 3026 730 
Q 3272 941 3272 1375 
Q 3272 1813 3026 2020 
Q 2781 2228 2272 2228 
L 1259 2228 
z
M 1259 4147 
L 1259 2741 
L 2194 2741 
Q 2656 2741 2882 2914 
Q 3109 3088 3109 3444 
Q 3109 3797 2882 3972 
Q 2656 4147 2194 4147 
L 1259 4147 
z
M 628 4666 
L 2241 4666 
Q 2963 4666 3353 4366 
Q 3744 4066 3744 3513 
Q 3744 3084 3544 2831 
Q 3344 2578 2956 2516 
Q 3422 2416 3680 2098 
Q 3938 1781 3938 1306 
Q 3938 681 3513 340 
Q 3088 0 2303 0 
L 628 0 
L 628 4666 
z
" id="DejaVuSans-42" transform="scale(0.015625)"/>
       <path d="M 603 3500 
L 1178 3500 
L 1178 0 
L 603 0 
L 603 3500 
z
M 603 4863 
L 1178 4863 
L 1178 4134 
L 603 4134 
L 603 4863 
z
" id="DejaVuSans-69" transform="scale(0.015625)"/>
       <path d="M 603 4863 
L 1178 4863 
L 1178 0 
L 603 0 
L 603 4863 
z
" id="DejaVuSans-6c" transform="scale(0.015625)"/>
       <path d="M 1959 3097 
Q 1497 3097 1228 2736 
Q 959 2375 959 1747 
Q 959 1119 1226 758 
Q 1494 397 1959 397 
Q 2419 397 2687 759 
Q 2956 1122 2956 1747 
Q 2956 2369 2687 2733 
Q 2419 3097 1959 3097 
z
M 1959 3584 
Q 2709 3584 3137 3096 
Q 3566 2609 3566 1747 
Q 3566 888 3137 398 
Q 2709 -91 1959 -91 
Q 1206 -91 779 398 
Q 353 888 353 1747 
Q 353 2609 779 3096 
Q 1206 3584 1959 3584 
z
" id="DejaVuSans-6f" transform="scale(0.015625)"/>
       <path d="M 3513 2113 
L 3513 0 
L 2938 0 
L 2938 2094 
Q 2938 2591 2744 2837 
Q 2550 3084 2163 3084 
Q 1697 3084 1428 2787 
Q 1159 2491 1159 1978 
L 1159 0 
L 581 0 
L 581 3500 
L 1159 3500 
L 1159 2956 
Q 1366 3272 1645 3428 
Q 1925 3584 2291 3584 
Q 2894 3584 3203 3211 
Q 3513 2838 3513 2113 
z
" id="DejaVuSans-6e" transform="scale(0.015625)"/>
       <path id="DejaVuSans-20" transform="scale(0.015625)"/>
       <path d="M 556 4666 
L 1191 4666 
L 1191 1831 
Q 1191 1081 1462 751 
Q 1734 422 2344 422 
Q 2950 422 3222 751 
Q 3494 1081 3494 1831 
L 3494 4666 
L 4128 4666 
L 4128 1753 
Q 4128 841 3676 375 
Q 3225 -91 2344 -91 
Q 1459 -91 1007 375 
Q 556 841 556 1753 
L 556 4666 
z
" id="DejaVuSans-55" transform="scale(0.015625)"/>
       <path d="M 3425 4513 
L 3425 3897 
Q 3066 4069 2747 4153 
Q 2428 4238 2131 4238 
Q 1616 4238 1336 4038 
Q 1056 3838 1056 3469 
Q 1056 3159 1242 3001 
Q 1428 2844 1947 2747 
L 2328 2669 
Q 3034 2534 3370 2195 
Q 3706 1856 3706 1288 
Q 3706 609 3251 259 
Q 2797 -91 1919 -91 
Q 1588 -91 1214 -16 
Q 841 59 441 206 
L 441 856 
Q 825 641 1194 531 
Q 1563 422 1919 422 
Q 2459 422 2753 634 
Q 3047 847 3047 1241 
Q 3047 1584 2836 1778 
Q 2625 1972 2144 2069 
L 1759 2144 
Q 1053 2284 737 2584 
Q 422 2884 422 3419 
Q 422 4038 858 4394 
Q 1294 4750 2059 4750 
Q 2388 4750 2728 4690 
Q 3069 4631 3425 4513 
z
" id="DejaVuSans-53" transform="scale(0.015625)"/>
       <path d="M 1259 4147 
L 1259 519 
L 2022 519 
Q 2988 519 3436 956 
Q 3884 1394 3884 2338 
Q 3884 3275 3436 3711 
Q 2988 4147 2022 4147 
L 1259 4147 
z
M 628 4666 
L 1925 4666 
Q 3281 4666 3915 4102 
Q 4550 3538 4550 2338 
Q 4550 1131 3912 565 
Q 3275 0 1925 0 
L 628 0 
L 628 4666 
z
" id="DejaVuSans-44" transform="scale(0.015625)"/>
       <path d="M 2194 1759 
Q 1497 1759 1228 1600 
Q 959 1441 959 1056 
Q 959 750 1161 570 
Q 1363 391 1709 391 
Q 2188 391 2477 730 
Q 2766 1069 2766 1631 
L 2766 1759 
L 2194 1759 
z
M 3341 1997 
L 3341 0 
L 2766 0 
L 2766 531 
Q 2569 213 2275 61 
Q 1981 -91 1556 -91 
Q 1019 -91 701 211 
Q 384 513 384 1019 
Q 384 1609 779 1909 
Q 1175 2209 1959 2209 
L 2766 2209 
L 2766 2266 
Q 2766 2663 2505 2880 
Q 2244 3097 1772 3097 
Q 1472 3097 1187 3025 
Q 903 2953 641 2809 
L 641 3341 
Q 956 3463 1253 3523 
Q 1550 3584 1831 3584 
Q 2591 3584 2966 3190 
Q 3341 2797 3341 1997 
z
" id="DejaVuSans-61" transform="scale(0.015625)"/>
       <path d="M 2631 2963 
Q 2534 3019 2420 3045 
Q 2306 3072 2169 3072 
Q 1681 3072 1420 2755 
Q 1159 2438 1159 1844 
L 1159 0 
L 581 0 
L 581 3500 
L 1159 3500 
L 1159 2956 
Q 1341 3275 1631 3429 
Q 1922 3584 2338 3584 
Q 2397 3584 2469 3576 
Q 2541 3569 2628 3553 
L 2631 2963 
z
" id="DejaVuSans-72" transform="scale(0.015625)"/>
       <path d="M 2834 3397 
L 2834 2853 
Q 2591 2978 2328 3040 
Q 2066 3103 1784 3103 
Q 1356 3103 1142 2972 
Q 928 2841 928 2578 
Q 928 2378 1081 2264 
Q 1234 2150 1697 2047 
L 1894 2003 
Q 2506 1872 2764 1633 
Q 3022 1394 3022 966 
Q 3022 478 2636 193 
Q 2250 -91 1575 -91 
Q 1294 -91 989 -36 
Q 684 19 347 128 
L 347 722 
Q 666 556 975 473 
Q 1284 391 1588 391 
Q 1994 391 2212 530 
Q 2431 669 2431 922 
Q 2431 1156 2273 1281 
Q 2116 1406 1581 1522 
L 1381 1569 
Q 847 1681 609 1914 
Q 372 2147 372 2553 
Q 372 3047 722 3315 
Q 1072 3584 1716 3584 
Q 2034 3584 2315 3537 
Q 2597 3491 2834 3397 
z
" id="DejaVuSans-73" transform="scale(0.015625)"/>
      </defs>
      <use xlink:href="#DejaVuSans-42"/>
      <use x="68.603516" xlink:href="#DejaVuSans-69"/>
      <use x="96.386719" xlink:href="#DejaVuSans-6c"/>
      <use x="124.169922" xlink:href="#DejaVuSans-6c"/>
      <use x="151.953125" xlink:href="#DejaVuSans-69"/>
      <use x="179.736328" xlink:href="#DejaVuSans-6f"/>
      <use x="240.917969" xlink:href="#DejaVuSans-6e"/>
      <use x="304.296875" xlink:href="#DejaVuSans-20"/>
      <use x="336.083984" xlink:href="#DejaVuSans-55"/>
      <use x="409.277344" xlink:href="#DejaVuSans-53"/>
      <use x="472.753906" xlink:href="#DejaVuSans-20"/>
      <use x="504.541016" xlink:href="#DejaVuSans-44"/>
      <use x="581.542969" xlink:href="#DejaVuSans-6f"/>
      <use x="642.724609" xlink:href="#DejaVuSans-6c"/>
      <use x="670.507812" xlink:href="#DejaVuSans-6c"/>
      <use x="698.291016" xlink:href="#DejaVuSans-61"/>
      <use x="759.570312" xlink:href="#DejaVuSans-72"/>
      <use x="800.683594" xlink:href="#DejaVuSans-73"/>
     </g>
    </g>
   </g>
   <g id="line2d_50">
    <path clip-path="url(#pa90e401dc3)" d="M 67.256534 67.416495 
L 77.854987 71.355014 
L 88.111554 82.04155 
L 98.710007 75.529461 
L 109.30846 103.699789 
L 118.881256 99.16308 
L 129.479709 88.357376 
L 139.736277 74.141498 
L 150.33473 72.49016 
L 160.591297 68.197261 
L 171.18975 60.879413 
L 181.788203 62.122316 
L 192.04477 53.134472 
L 202.643223 53.227893 
L 212.899791 65.303756 
L 223.498244 61.212168 
L 234.096696 83.368435 
L 243.669493 85.616451 
L 254.267946 85.768203 
L 264.524513 67.190885 
L 275.122966 65.024963 
L 285.379533 56.835563 
L 295.977986 54.244587 
L 306.576439 47.188146 
L 316.833006 40.127867 
L 327.431459 59.027025 
L 337.688027 60.772187 
L 348.28648 75.420623 
L 358.884933 102.658286 
L 368.457729 108.963013 
L 379.056182 97.636494 
L 389.312749 82.879907 
L 399.911202 83.649173 
L 410.167769 75.392467 
L 420.766222 76.371999 
L 431.364675 79.727833 
L 441.621243 79.928994 
L 452.219696 91.79637 
L 462.476263 101.060147 
L 473.074716 102.420346 
" style="fill:none;stroke:#dc143c;stroke-linecap:square;stroke-width:3;"/>
   </g>
   <g id="line2d_51">
    <path clip-path="url(#pa90e401dc3)" d="M 67.256534 170.200033 
L 77.854987 172.031536 
L 88.111554 173.34698 
L 98.710007 178.912399 
L 109.30846 179.623058 
L 118.881256 179.687733 
L 129.479709 179.403437 
L 139.736277 179.161134 
L 150.33473 179.694233 
L 160.591297 178.917207 
L 171.18975 176.046348 
L 181.788203 175.814022 
L 192.04477 169.003396 
L 202.643223 169.184029 
L 212.899791 166.80708 
L 223.498244 179.064173 
L 234.096696 179.612166 
L 243.669493 170.025417 
L 254.267946 177.087074 
L 264.524513 177.455448 
L 275.122966 175.946614 
L 285.379533 178.265239 
L 295.977986 181.144063 
L 306.576439 179.645174 
L 316.833006 181.438812 
L 327.431459 183.211979 
L 337.688027 181.367768 
L 348.28648 188.305349 
L 358.884933 185.079939 
L 368.457729 176.866339 
L 379.056182 185.738239 
L 389.312749 181.831408 
L 399.911202 181.511847 
L 410.167769 183.050603 
L 420.766222 180.71297 
L 431.364675 183.378424 
L 441.621243 182.540846 
L 452.219696 178.427824 
L 462.476263 182.393066 
L 473.074716 188.143108 
" style="fill:none;stroke:#000080;stroke-linecap:square;stroke-width:3;"/>
   </g>
   <g id="line2d_52">
    <path clip-path="url(#pa90e401dc3)" d="M 98.710007 73.02054 
L 109.30846 73.02054 
L 118.881256 73.02054 
L 129.479709 73.02054 
L 139.736277 73.02054 
L 150.33473 73.02054 
L 160.591297 73.02054 
L 171.18975 73.02054 
L 181.788203 73.02054 
L 192.04477 73.02054 
L 202.643223 73.02054 
L 212.899791 73.02054 
" style="fill:none;stroke:#dc143c;stroke-dasharray:7.4,3.2;stroke-dashoffset:0;stroke-width:2;"/>
   </g>
   <g id="line2d_53">
    <path clip-path="url(#pa90e401dc3)" d="M 98.710007 176.021173 
L 109.30846 176.021173 
L 118.881256 176.021173 
L 129.479709 176.021173 
L 139.736277 176.021173 
L 150.33473 176.021173 
L 160.591297 176.021173 
L 171.18975 176.021173 
L 181.788203 176.021173 
L 192.04477 176.021173 
L 202.643223 176.021173 
L 212.899791 176.021173 
" style="fill:none;stroke:#000080;stroke-dasharray:7.4,3.2;stroke-dashoffset:0;stroke-width:2;"/>
   </g>
   <g id="line2d_54">
    <path clip-path="url(#pa90e401dc3)" d="M 348.28648 87.957109 
L 358.884933 87.957109 
L 368.457729 87.957109 
L 379.056182 87.957109 
L 389.312749 87.957109 
L 399.911202 87.957109 
L 410.167769 87.957109 
L 420.766222 87.957109 
L 431.364675 87.957109 
L 441.621243 87.957109 
L 452.219696 87.957109 
L 462.476263 87.957109 
" style="fill:none;stroke:#dc143c;stroke-dasharray:7.4,3.2;stroke-dashoffset:0;stroke-width:2;"/>
   </g>
   <g id="line2d_55">
    <path clip-path="url(#pa90e401dc3)" d="M 348.28648 182.486404 
L 358.884933 182.486404 
L 368.457729 182.486404 
L 379.056182 182.486404 
L 389.312749 182.486404 
L 399.911202 182.486404 
L 410.167769 182.486404 
L 420.766222 182.486404 
L 431.364675 182.486404 
L 441.621243 182.486404 
L 452.219696 182.486404 
L 462.476263 182.486404 
" style="fill:none;stroke:#000080;stroke-dasharray:7.4,3.2;stroke-dashoffset:0;stroke-width:2;"/>
   </g>
   <g id="line2d_56">
    <path clip-path="url(#pa90e401dc3)" d="M 285.379533 211.711321 
L 285.379533 14.038594 
" style="fill:none;stroke:#000000;stroke-dasharray:2,3.3;stroke-dashoffset:0;stroke-width:2;"/>
   </g>
   <g id="patch_5">
    <path d="M 46.965625 211.711321 
L 46.965625 14.038594 
" style="fill:none;stroke:#000000;stroke-linecap:square;stroke-linejoin:miter;stroke-width:0.8;"/>
   </g>
   <g id="patch_6">
    <path d="M 46.965625 211.711321 
L 493.365625 211.711321 
" style="fill:none;stroke:#000000;stroke-linecap:square;stroke-linejoin:miter;stroke-width:0.8;"/>
   </g>
   <g id="text_16">
    <!-- 2017 balance: -->
    <g transform="translate(160.591297 119.269653)scale(0.09 -0.09)">
     <defs>
      <path d="M 3116 1747 
Q 3116 2381 2855 2742 
Q 2594 3103 2138 3103 
Q 1681 3103 1420 2742 
Q 1159 2381 1159 1747 
Q 1159 1113 1420 752 
Q 1681 391 2138 391 
Q 2594 391 2855 752 
Q 3116 1113 3116 1747 
z
M 1159 2969 
Q 1341 3281 1617 3432 
Q 1894 3584 2278 3584 
Q 2916 3584 3314 3078 
Q 3713 2572 3713 1747 
Q 3713 922 3314 415 
Q 2916 -91 2278 -91 
Q 1894 -91 1617 61 
Q 1341 213 1159 525 
L 1159 0 
L 581 0 
L 581 4863 
L 1159 4863 
L 1159 2969 
z
" id="DejaVuSans-62" transform="scale(0.015625)"/>
      <path d="M 3122 3366 
L 3122 2828 
Q 2878 2963 2633 3030 
Q 2388 3097 2138 3097 
Q 1578 3097 1268 2742 
Q 959 2388 959 1747 
Q 959 1106 1268 751 
Q 1578 397 2138 397 
Q 2388 397 2633 464 
Q 2878 531 3122 666 
L 3122 134 
Q 2881 22 2623 -34 
Q 2366 -91 2075 -91 
Q 1284 -91 818 406 
Q 353 903 353 1747 
Q 353 2603 823 3093 
Q 1294 3584 2113 3584 
Q 2378 3584 2631 3529 
Q 2884 3475 3122 3366 
z
" id="DejaVuSans-63" transform="scale(0.015625)"/>
      <path d="M 3597 1894 
L 3597 1613 
L 953 1613 
Q 991 1019 1311 708 
Q 1631 397 2203 397 
Q 2534 397 2845 478 
Q 3156 559 3463 722 
L 3463 178 
Q 3153 47 2828 -22 
Q 2503 -91 2169 -91 
Q 1331 -91 842 396 
Q 353 884 353 1716 
Q 353 2575 817 3079 
Q 1281 3584 2069 3584 
Q 2775 3584 3186 3129 
Q 3597 2675 3597 1894 
z
M 3022 2063 
Q 3016 2534 2758 2815 
Q 2500 3097 2075 3097 
Q 1594 3097 1305 2825 
Q 1016 2553 972 2059 
L 3022 2063 
z
" id="DejaVuSans-65" transform="scale(0.015625)"/>
      <path d="M 750 794 
L 1409 794 
L 1409 0 
L 750 0 
L 750 794 
z
M 750 3309 
L 1409 3309 
L 1409 2516 
L 750 2516 
L 750 3309 
z
" id="DejaVuSans-3a" transform="scale(0.015625)"/>
     </defs>
     <use xlink:href="#DejaVuSans-32"/>
     <use x="63.623047" xlink:href="#DejaVuSans-30"/>
     <use x="127.246094" xlink:href="#DejaVuSans-31"/>
     <use x="190.869141" xlink:href="#DejaVuSans-37"/>
     <use x="254.492188" xlink:href="#DejaVuSans-20"/>
     <use x="286.279297" xlink:href="#DejaVuSans-62"/>
     <use x="349.755859" xlink:href="#DejaVuSans-61"/>
     <use x="411.035156" xlink:href="#DejaVuSans-6c"/>
     <use x="438.818359" xlink:href="#DejaVuSans-61"/>
     <use x="500.097656" xlink:href="#DejaVuSans-6e"/>
     <use x="563.476562" xlink:href="#DejaVuSans-63"/>
     <use x="618.457031" xlink:href="#DejaVuSans-65"/>
     <use x="679.980469" xlink:href="#DejaVuSans-3a"/>
    </g>
    <!--  -375.17 -->
    <g transform="translate(160.591297 129.347685)scale(0.09 -0.09)">
     <defs>
      <path d="M 684 794 
L 1344 794 
L 1344 0 
L 684 0 
L 684 794 
z
" id="DejaVuSans-2e" transform="scale(0.015625)"/>
     </defs>
     <use xlink:href="#DejaVuSans-20"/>
     <use x="31.787109" xlink:href="#DejaVuSans-2d"/>
     <use x="67.871094" xlink:href="#DejaVuSans-33"/>
     <use x="131.494141" xlink:href="#DejaVuSans-37"/>
     <use x="195.117188" xlink:href="#DejaVuSans-35"/>
     <use x="258.740234" xlink:href="#DejaVuSans-2e"/>
     <use x="290.527344" xlink:href="#DejaVuSans-31"/>
     <use x="354.150391" xlink:href="#DejaVuSans-37"/>
    </g>
   </g>
   <g id="text_17">
    <!-- 2019 balance: -->
    <g transform="translate(410.167769 129.15329)scale(0.09 -0.09)">
     <use xlink:href="#DejaVuSans-32"/>
     <use x="63.623047" xlink:href="#DejaVuSans-30"/>
     <use x="127.246094" xlink:href="#DejaVuSans-31"/>
     <use x="190.869141" xlink:href="#DejaVuSans-39"/>
     <use x="254.492188" xlink:href="#DejaVuSans-20"/>
     <use x="286.279297" xlink:href="#DejaVuSans-62"/>
     <use x="349.755859" xlink:href="#DejaVuSans-61"/>
     <use x="411.035156" xlink:href="#DejaVuSans-6c"/>
     <use x="438.818359" xlink:href="#DejaVuSans-61"/>
     <use x="500.097656" xlink:href="#DejaVuSans-6e"/>
     <use x="563.476562" xlink:href="#DejaVuSans-63"/>
     <use x="618.457031" xlink:href="#DejaVuSans-65"/>
     <use x="679.980469" xlink:href="#DejaVuSans-3a"/>
    </g>
    <!--  -344.31 -->
    <g transform="translate(410.167769 139.231321)scale(0.09 -0.09)">
     <use xlink:href="#DejaVuSans-20"/>
     <use x="31.787109" xlink:href="#DejaVuSans-2d"/>
     <use x="67.871094" xlink:href="#DejaVuSans-33"/>
     <use x="131.494141" xlink:href="#DejaVuSans-34"/>
     <use x="195.117188" xlink:href="#DejaVuSans-34"/>
     <use x="258.740234" xlink:href="#DejaVuSans-2e"/>
     <use x="290.527344" xlink:href="#DejaVuSans-33"/>
     <use x="354.150391" xlink:href="#DejaVuSans-31"/>
    </g>
   </g>
   <g id="text_18">
    <!-- US-CN trade war -->
    <g transform="translate(210.523439 14.038594)scale(0.09 -0.09)">
     <defs>
      <path d="M 4122 4306 
L 4122 3641 
Q 3803 3938 3442 4084 
Q 3081 4231 2675 4231 
Q 1875 4231 1450 3742 
Q 1025 3253 1025 2328 
Q 1025 1406 1450 917 
Q 1875 428 2675 428 
Q 3081 428 3442 575 
Q 3803 722 4122 1019 
L 4122 359 
Q 3791 134 3420 21 
Q 3050 -91 2638 -91 
Q 1578 -91 968 557 
Q 359 1206 359 2328 
Q 359 3453 968 4101 
Q 1578 4750 2638 4750 
Q 3056 4750 3426 4639 
Q 3797 4528 4122 4306 
z
" id="DejaVuSans-43" transform="scale(0.015625)"/>
      <path d="M 628 4666 
L 1478 4666 
L 3547 763 
L 3547 4666 
L 4159 4666 
L 4159 0 
L 3309 0 
L 1241 3903 
L 1241 0 
L 628 0 
L 628 4666 
z
" id="DejaVuSans-4e" transform="scale(0.015625)"/>
      <path d="M 1172 4494 
L 1172 3500 
L 2356 3500 
L 2356 3053 
L 1172 3053 
L 1172 1153 
Q 1172 725 1289 603 
Q 1406 481 1766 481 
L 2356 481 
L 2356 0 
L 1766 0 
Q 1100 0 847 248 
Q 594 497 594 1153 
L 594 3053 
L 172 3053 
L 172 3500 
L 594 3500 
L 594 4494 
L 1172 4494 
z
" id="DejaVuSans-74" transform="scale(0.015625)"/>
      <path d="M 2906 2969 
L 2906 4863 
L 3481 4863 
L 3481 0 
L 2906 0 
L 2906 525 
Q 2725 213 2448 61 
Q 2172 -91 1784 -91 
Q 1150 -91 751 415 
Q 353 922 353 1747 
Q 353 2572 751 3078 
Q 1150 3584 1784 3584 
Q 2172 3584 2448 3432 
Q 2725 3281 2906 2969 
z
M 947 1747 
Q 947 1113 1208 752 
Q 1469 391 1925 391 
Q 2381 391 2643 752 
Q 2906 1113 2906 1747 
Q 2906 2381 2643 2742 
Q 2381 3103 1925 3103 
Q 1469 3103 1208 2742 
Q 947 2381 947 1747 
z
" id="DejaVuSans-64" transform="scale(0.015625)"/>
      <path d="M 269 3500 
L 844 3500 
L 1563 769 
L 2278 3500 
L 2956 3500 
L 3675 769 
L 4391 3500 
L 4966 3500 
L 4050 0 
L 3372 0 
L 2619 2869 
L 1863 0 
L 1184 0 
L 269 3500 
z
" id="DejaVuSans-77" transform="scale(0.015625)"/>
     </defs>
     <use xlink:href="#DejaVuSans-55"/>
     <use x="73.193359" xlink:href="#DejaVuSans-53"/>
     <use x="136.669922" xlink:href="#DejaVuSans-2d"/>
     <use x="172.753906" xlink:href="#DejaVuSans-43"/>
     <use x="242.578125" xlink:href="#DejaVuSans-4e"/>
     <use x="317.382812" xlink:href="#DejaVuSans-20"/>
     <use x="349.169922" xlink:href="#DejaVuSans-74"/>
     <use x="388.378906" xlink:href="#DejaVuSans-72"/>
     <use x="429.492188" xlink:href="#DejaVuSans-61"/>
     <use x="490.771484" xlink:href="#DejaVuSans-64"/>
     <use x="554.248047" xlink:href="#DejaVuSans-65"/>
     <use x="615.771484" xlink:href="#DejaVuSans-20"/>
     <use x="647.558594" xlink:href="#DejaVuSans-77"/>
     <use x="729.345703" xlink:href="#DejaVuSans-61"/>
     <use x="790.625" xlink:href="#DejaVuSans-72"/>
    </g>
   </g>
   <g id="legend_1">
    <g id="patch_7">
     <path d="M 52.565625 43.923594 
L 164.604375 43.923594 
Q 166.204375 43.923594 166.204375 42.323594 
L 166.204375 19.638594 
Q 166.204375 18.038594 164.604375 18.038594 
L 52.565625 18.038594 
Q 50.965625 18.038594 50.965625 19.638594 
L 50.965625 42.323594 
Q 50.965625 43.923594 52.565625 43.923594 
z
" style="fill:#ffffff;opacity:0.8;stroke:#cccccc;stroke-linejoin:miter;"/>
    </g>
    <g id="line2d_57">
     <path d="M 54.165625 24.517344 
L 70.165625 24.517344 
" style="fill:none;stroke:#000080;stroke-linecap:square;stroke-width:3;"/>
    </g>
    <g id="line2d_58"/>
    <g id="text_19">
     <!-- US export to China -->
     <g transform="translate(76.565625 27.317344)scale(0.08 -0.08)">
      <defs>
       <path d="M 3513 3500 
L 2247 1797 
L 3578 0 
L 2900 0 
L 1881 1375 
L 863 0 
L 184 0 
L 1544 1831 
L 300 3500 
L 978 3500 
L 1906 2253 
L 2834 3500 
L 3513 3500 
z
" id="DejaVuSans-78" transform="scale(0.015625)"/>
       <path d="M 1159 525 
L 1159 -1331 
L 581 -1331 
L 581 3500 
L 1159 3500 
L 1159 2969 
Q 1341 3281 1617 3432 
Q 1894 3584 2278 3584 
Q 2916 3584 3314 3078 
Q 3713 2572 3713 1747 
Q 3713 922 3314 415 
Q 2916 -91 2278 -91 
Q 1894 -91 1617 61 
Q 1341 213 1159 525 
z
M 3116 1747 
Q 3116 2381 2855 2742 
Q 2594 3103 2138 3103 
Q 1681 3103 1420 2742 
Q 1159 2381 1159 1747 
Q 1159 1113 1420 752 
Q 1681 391 2138 391 
Q 2594 391 2855 752 
Q 3116 1113 3116 1747 
z
" id="DejaVuSans-70" transform="scale(0.015625)"/>
       <path d="M 3513 2113 
L 3513 0 
L 2938 0 
L 2938 2094 
Q 2938 2591 2744 2837 
Q 2550 3084 2163 3084 
Q 1697 3084 1428 2787 
Q 1159 2491 1159 1978 
L 1159 0 
L 581 0 
L 581 4863 
L 1159 4863 
L 1159 2956 
Q 1366 3272 1645 3428 
Q 1925 3584 2291 3584 
Q 2894 3584 3203 3211 
Q 3513 2838 3513 2113 
z
" id="DejaVuSans-68" transform="scale(0.015625)"/>
      </defs>
      <use xlink:href="#DejaVuSans-55"/>
      <use x="73.193359" xlink:href="#DejaVuSans-53"/>
      <use x="136.669922" xlink:href="#DejaVuSans-20"/>
      <use x="168.457031" xlink:href="#DejaVuSans-65"/>
      <use x="228.230469" xlink:href="#DejaVuSans-78"/>
      <use x="287.410156" xlink:href="#DejaVuSans-70"/>
      <use x="350.886719" xlink:href="#DejaVuSans-6f"/>
      <use x="412.068359" xlink:href="#DejaVuSans-72"/>
      <use x="453.181641" xlink:href="#DejaVuSans-74"/>
      <use x="492.390625" xlink:href="#DejaVuSans-20"/>
      <use x="524.177734" xlink:href="#DejaVuSans-74"/>
      <use x="563.386719" xlink:href="#DejaVuSans-6f"/>
      <use x="624.568359" xlink:href="#DejaVuSans-20"/>
      <use x="656.355469" xlink:href="#DejaVuSans-43"/>
      <use x="726.179688" xlink:href="#DejaVuSans-68"/>
      <use x="789.558594" xlink:href="#DejaVuSans-69"/>
      <use x="817.341797" xlink:href="#DejaVuSans-6e"/>
      <use x="880.720703" xlink:href="#DejaVuSans-61"/>
     </g>
    </g>
    <g id="line2d_59">
     <path d="M 54.165625 36.259844 
L 70.165625 36.259844 
" style="fill:none;stroke:#dc143c;stroke-linecap:square;stroke-width:3;"/>
    </g>
    <g id="line2d_60"/>
    <g id="text_20">
     <!-- US import from China -->
     <g transform="translate(76.565625 39.059844)scale(0.08 -0.08)">
      <defs>
       <path d="M 3328 2828 
Q 3544 3216 3844 3400 
Q 4144 3584 4550 3584 
Q 5097 3584 5394 3201 
Q 5691 2819 5691 2113 
L 5691 0 
L 5113 0 
L 5113 2094 
Q 5113 2597 4934 2840 
Q 4756 3084 4391 3084 
Q 3944 3084 3684 2787 
Q 3425 2491 3425 1978 
L 3425 0 
L 2847 0 
L 2847 2094 
Q 2847 2600 2669 2842 
Q 2491 3084 2119 3084 
Q 1678 3084 1418 2786 
Q 1159 2488 1159 1978 
L 1159 0 
L 581 0 
L 581 3500 
L 1159 3500 
L 1159 2956 
Q 1356 3278 1631 3431 
Q 1906 3584 2284 3584 
Q 2666 3584 2933 3390 
Q 3200 3197 3328 2828 
z
" id="DejaVuSans-6d" transform="scale(0.015625)"/>
       <path d="M 2375 4863 
L 2375 4384 
L 1825 4384 
Q 1516 4384 1395 4259 
Q 1275 4134 1275 3809 
L 1275 3500 
L 2222 3500 
L 2222 3053 
L 1275 3053 
L 1275 0 
L 697 0 
L 697 3053 
L 147 3053 
L 147 3500 
L 697 3500 
L 697 3744 
Q 697 4328 969 4595 
Q 1241 4863 1831 4863 
L 2375 4863 
z
" id="DejaVuSans-66" transform="scale(0.015625)"/>
      </defs>
      <use xlink:href="#DejaVuSans-55"/>
      <use x="73.193359" xlink:href="#DejaVuSans-53"/>
      <use x="136.669922" xlink:href="#DejaVuSans-20"/>
      <use x="168.457031" xlink:href="#DejaVuSans-69"/>
      <use x="196.240234" xlink:href="#DejaVuSans-6d"/>
      <use x="293.652344" xlink:href="#DejaVuSans-70"/>
      <use x="357.128906" xlink:href="#DejaVuSans-6f"/>
      <use x="418.310547" xlink:href="#DejaVuSans-72"/>
      <use x="459.423828" xlink:href="#DejaVuSans-74"/>
      <use x="498.632812" xlink:href="#DejaVuSans-20"/>
      <use x="530.419922" xlink:href="#DejaVuSans-66"/>
      <use x="565.625" xlink:href="#DejaVuSans-72"/>
      <use x="604.488281" xlink:href="#DejaVuSans-6f"/>
      <use x="665.669922" xlink:href="#DejaVuSans-6d"/>
      <use x="763.082031" xlink:href="#DejaVuSans-20"/>
      <use x="794.869141" xlink:href="#DejaVuSans-43"/>
      <use x="864.693359" xlink:href="#DejaVuSans-68"/>
      <use x="928.072266" xlink:href="#DejaVuSans-69"/>
      <use x="955.855469" xlink:href="#DejaVuSans-6e"/>
      <use x="1019.234375" xlink:href="#DejaVuSans-61"/>
     </g>
    </g>
   </g>
  </g>
  <g id="axes_2">
   <g id="patch_8">
    <path d="M 46.965625 448.918594 
L 493.365625 448.918594 
L 493.365625 251.245866 
L 46.965625 251.245866 
z
" style="fill:#ffffff;"/>
   </g>
   <g id="PolyCollection_2">
    <defs>
     <path d="M 67.256534 -35.585512 
L 67.256534 -108.148786 
L 77.854987 -120.45268 
L 88.111554 -131.591279 
L 98.710007 -136.91701 
L 109.30846 -151.789163 
L 118.881256 -151.40873 
L 129.479709 -149.4402 
L 139.736277 -135.158752 
L 150.33473 -135.657837 
L 160.591297 -129.271472 
L 171.18975 -123.879049 
L 181.788203 -130.892429 
L 192.04477 -130.434779 
L 202.643223 -147.247826 
L 212.899791 -167.068952 
L 223.498244 -160.180688 
L 234.096696 -186.670246 
L 243.669493 -186.447972 
L 254.267946 -187.419825 
L 264.524513 -171.179803 
L 275.122966 -171.368728 
L 285.379533 -172.70819 
L 295.977986 -169.425618 
L 306.576439 -172.461168 
L 316.833006 -169.338613 
L 327.431459 -169.62501 
L 337.688027 -178.050174 
L 348.28648 -176.624926 
L 358.884933 -196.724213 
L 368.457729 -212.565728 
L 379.056182 -194.664781 
L 389.312749 -196.861208 
L 399.911202 -184.563128 
L 410.167769 -179.904258 
L 420.766222 -178.897167 
L 431.364675 -172.180272 
L 441.621243 -162.746726 
L 452.219696 -166.508146 
L 462.476263 -185.361778 
L 473.074716 -180.392246 
L 473.074716 -78.187891 
L 473.074716 -78.187891 
L 462.476263 -76.796684 
L 452.219696 -72.432397 
L 441.621243 -75.904515 
L 431.364675 -75.088043 
L 420.766222 -76.968808 
L 410.167769 -81.437724 
L 399.911202 -75.782954 
L 389.312749 -84.092832 
L 379.056182 -80.017105 
L 368.457729 -83.329899 
L 358.884933 -82.403941 
L 348.28648 -83.975686 
L 337.688027 -74.185004 
L 327.431459 -81.92877 
L 316.833006 -88.958304 
L 306.576439 -84.528687 
L 295.977986 -81.353156 
L 285.379533 -81.652038 
L 275.122966 -84.519301 
L 264.524513 -90.808541 
L 254.267946 -84.337147 
L 243.669493 -77.275495 
L 234.096696 -73.988666 
L 223.498244 -67.400953 
L 212.899791 -67.131944 
L 202.643223 -61.30121 
L 192.04477 -53.933421 
L 181.788203 -55.542404 
L 171.18975 -51.872014 
L 160.591297 -52.854934 
L 150.33473 -53.66 
L 139.736277 -48.907419 
L 129.479709 -50.390376 
L 118.881256 -51.753379 
L 109.30846 -52.311139 
L 98.710007 -52.319323 
L 88.111554 -45.198994 
L 77.854987 -32.863249 
L 67.256534 -35.585512 
z
" id="m046e637eed" style="stroke:#e6e6fa;"/>
    </defs>
    <g clip-path="url(#pe3b82f0dc7)">
     <use style="fill:#e6e6fa;stroke:#e6e6fa;" x="0" xlink:href="#m046e637eed" y="472.796719"/>
    </g>
   </g>
   <g id="patch_9">
    <path clip-path="url(#pe3b82f0dc7)" d="M 160.591297 333.150903 
Q 160.591297 375.249062 160.591297 417.347221 
" style="fill:none;stroke:#000000;stroke-linecap:round;"/>
    <path clip-path="url(#pe3b82f0dc7)" d="M 158.591297 337.150903 
L 160.591297 333.150903 
L 162.591297 337.150903 
L 158.591297 337.150903 
z
" style="stroke:#000000;stroke-linecap:round;"/>
    <path clip-path="url(#pe3b82f0dc7)" d="M 162.591297 413.347221 
L 160.591297 417.347221 
L 158.591297 413.347221 
L 162.591297 413.347221 
z
" style="stroke:#000000;stroke-linecap:round;"/>
   </g>
   <g id="patch_10">
    <path clip-path="url(#pe3b82f0dc7)" d="M 410.167769 289.947892 
Q 410.167769 341.30368 410.167769 392.659469 
" style="fill:none;stroke:#000000;stroke-linecap:round;"/>
    <path clip-path="url(#pe3b82f0dc7)" d="M 408.167769 293.947892 
L 410.167769 289.947892 
L 412.167769 293.947892 
L 408.167769 293.947892 
z
" style="stroke:#000000;stroke-linecap:round;"/>
    <path clip-path="url(#pe3b82f0dc7)" d="M 412.167769 388.659469 
L 410.167769 392.659469 
L 408.167769 388.659469 
L 412.167769 388.659469 
z
" style="stroke:#000000;stroke-linecap:round;"/>
   </g>
   <g id="matplotlib.axis_3">
    <g id="xtick_43">
     <g id="line2d_61">
      <g>
       <use style="stroke:#000000;stroke-width:0.8;" x="98.710007" xlink:href="#mf390a1e71b" y="448.918594"/>
      </g>
     </g>
     <g id="text_21">
      <!-- 2017-01 -->
      <g transform="translate(77.818601 463.517031)scale(0.1 -0.1)">
       <use xlink:href="#DejaVuSans-32"/>
       <use x="63.623047" xlink:href="#DejaVuSans-30"/>
       <use x="127.246094" xlink:href="#DejaVuSans-31"/>
       <use x="190.869141" xlink:href="#DejaVuSans-37"/>
       <use x="254.492188" xlink:href="#DejaVuSans-2d"/>
       <use x="290.576172" xlink:href="#DejaVuSans-30"/>
       <use x="354.199219" xlink:href="#DejaVuSans-31"/>
      </g>
     </g>
    </g>
    <g id="xtick_44">
     <g id="line2d_62">
      <g>
       <use style="stroke:#000000;stroke-width:0.8;" x="160.591297" xlink:href="#mf390a1e71b" y="448.918594"/>
      </g>
     </g>
     <g id="text_22">
      <!-- 2017-07 -->
      <g transform="translate(139.699891 463.517031)scale(0.1 -0.1)">
       <use xlink:href="#DejaVuSans-32"/>
       <use x="63.623047" xlink:href="#DejaVuSans-30"/>
       <use x="127.246094" xlink:href="#DejaVuSans-31"/>
       <use x="190.869141" xlink:href="#DejaVuSans-37"/>
       <use x="254.492188" xlink:href="#DejaVuSans-2d"/>
       <use x="290.576172" xlink:href="#DejaVuSans-30"/>
       <use x="354.199219" xlink:href="#DejaVuSans-37"/>
      </g>
     </g>
    </g>
    <g id="xtick_45">
     <g id="line2d_63">
      <g>
       <use style="stroke:#000000;stroke-width:0.8;" x="223.498244" xlink:href="#mf390a1e71b" y="448.918594"/>
      </g>
     </g>
     <g id="text_23">
      <!-- 2018-01 -->
      <g transform="translate(202.606837 463.517031)scale(0.1 -0.1)">
       <use xlink:href="#DejaVuSans-32"/>
       <use x="63.623047" xlink:href="#DejaVuSans-30"/>
       <use x="127.246094" xlink:href="#DejaVuSans-31"/>
       <use x="190.869141" xlink:href="#DejaVuSans-38"/>
       <use x="254.492188" xlink:href="#DejaVuSans-2d"/>
       <use x="290.576172" xlink:href="#DejaVuSans-30"/>
       <use x="354.199219" xlink:href="#DejaVuSans-31"/>
      </g>
     </g>
    </g>
    <g id="xtick_46">
     <g id="line2d_64">
      <g>
       <use style="stroke:#000000;stroke-width:0.8;" x="285.379533" xlink:href="#mf390a1e71b" y="448.918594"/>
      </g>
     </g>
     <g id="text_24">
      <!-- 2018-07 -->
      <g transform="translate(264.488127 463.517031)scale(0.1 -0.1)">
       <use xlink:href="#DejaVuSans-32"/>
       <use x="63.623047" xlink:href="#DejaVuSans-30"/>
       <use x="127.246094" xlink:href="#DejaVuSans-31"/>
       <use x="190.869141" xlink:href="#DejaVuSans-38"/>
       <use x="254.492188" xlink:href="#DejaVuSans-2d"/>
       <use x="290.576172" xlink:href="#DejaVuSans-30"/>
       <use x="354.199219" xlink:href="#DejaVuSans-37"/>
      </g>
     </g>
    </g>
    <g id="xtick_47">
     <g id="line2d_65">
      <g>
       <use style="stroke:#000000;stroke-width:0.8;" x="348.28648" xlink:href="#mf390a1e71b" y="448.918594"/>
      </g>
     </g>
     <g id="text_25">
      <!-- 2019-01 -->
      <g transform="translate(327.395073 463.517031)scale(0.1 -0.1)">
       <use xlink:href="#DejaVuSans-32"/>
       <use x="63.623047" xlink:href="#DejaVuSans-30"/>
       <use x="127.246094" xlink:href="#DejaVuSans-31"/>
       <use x="190.869141" xlink:href="#DejaVuSans-39"/>
       <use x="254.492188" xlink:href="#DejaVuSans-2d"/>
       <use x="290.576172" xlink:href="#DejaVuSans-30"/>
       <use x="354.199219" xlink:href="#DejaVuSans-31"/>
      </g>
     </g>
    </g>
    <g id="xtick_48">
     <g id="line2d_66">
      <g>
       <use style="stroke:#000000;stroke-width:0.8;" x="410.167769" xlink:href="#mf390a1e71b" y="448.918594"/>
      </g>
     </g>
     <g id="text_26">
      <!-- 2019-07 -->
      <g transform="translate(389.276363 463.517031)scale(0.1 -0.1)">
       <use xlink:href="#DejaVuSans-32"/>
       <use x="63.623047" xlink:href="#DejaVuSans-30"/>
       <use x="127.246094" xlink:href="#DejaVuSans-31"/>
       <use x="190.869141" xlink:href="#DejaVuSans-39"/>
       <use x="254.492188" xlink:href="#DejaVuSans-2d"/>
       <use x="290.576172" xlink:href="#DejaVuSans-30"/>
       <use x="354.199219" xlink:href="#DejaVuSans-37"/>
      </g>
     </g>
    </g>
    <g id="xtick_49">
     <g id="line2d_67">
      <g>
       <use style="stroke:#000000;stroke-width:0.8;" x="473.074716" xlink:href="#mf390a1e71b" y="448.918594"/>
      </g>
     </g>
     <g id="text_27">
      <!-- 2020-01 -->
      <g transform="translate(452.18331 463.517031)scale(0.1 -0.1)">
       <use xlink:href="#DejaVuSans-32"/>
       <use x="63.623047" xlink:href="#DejaVuSans-30"/>
       <use x="127.246094" xlink:href="#DejaVuSans-32"/>
       <use x="190.869141" xlink:href="#DejaVuSans-30"/>
       <use x="254.492188" xlink:href="#DejaVuSans-2d"/>
       <use x="290.576172" xlink:href="#DejaVuSans-30"/>
       <use x="354.199219" xlink:href="#DejaVuSans-31"/>
      </g>
     </g>
    </g>
    <g id="xtick_50">
     <g id="line2d_68">
      <g>
       <use style="stroke:#000000;stroke-width:0.6;" x="56.999967" xlink:href="#m6b1dc78921" y="448.918594"/>
      </g>
     </g>
    </g>
    <g id="xtick_51">
     <g id="line2d_69">
      <g>
       <use style="stroke:#000000;stroke-width:0.6;" x="67.256534" xlink:href="#m6b1dc78921" y="448.918594"/>
      </g>
     </g>
    </g>
    <g id="xtick_52">
     <g id="line2d_70">
      <g>
       <use style="stroke:#000000;stroke-width:0.6;" x="77.854987" xlink:href="#m6b1dc78921" y="448.918594"/>
      </g>
     </g>
    </g>
    <g id="xtick_53">
     <g id="line2d_71">
      <g>
       <use style="stroke:#000000;stroke-width:0.6;" x="88.111554" xlink:href="#m6b1dc78921" y="448.918594"/>
      </g>
     </g>
    </g>
    <g id="xtick_54">
     <g id="line2d_72">
      <g>
       <use style="stroke:#000000;stroke-width:0.6;" x="109.30846" xlink:href="#m6b1dc78921" y="448.918594"/>
      </g>
     </g>
    </g>
    <g id="xtick_55">
     <g id="line2d_73">
      <g>
       <use style="stroke:#000000;stroke-width:0.6;" x="118.881256" xlink:href="#m6b1dc78921" y="448.918594"/>
      </g>
     </g>
    </g>
    <g id="xtick_56">
     <g id="line2d_74">
      <g>
       <use style="stroke:#000000;stroke-width:0.6;" x="129.479709" xlink:href="#m6b1dc78921" y="448.918594"/>
      </g>
     </g>
    </g>
    <g id="xtick_57">
     <g id="line2d_75">
      <g>
       <use style="stroke:#000000;stroke-width:0.6;" x="139.736277" xlink:href="#m6b1dc78921" y="448.918594"/>
      </g>
     </g>
    </g>
    <g id="xtick_58">
     <g id="line2d_76">
      <g>
       <use style="stroke:#000000;stroke-width:0.6;" x="150.33473" xlink:href="#m6b1dc78921" y="448.918594"/>
      </g>
     </g>
    </g>
    <g id="xtick_59">
     <g id="line2d_77">
      <g>
       <use style="stroke:#000000;stroke-width:0.6;" x="171.18975" xlink:href="#m6b1dc78921" y="448.918594"/>
      </g>
     </g>
    </g>
    <g id="xtick_60">
     <g id="line2d_78">
      <g>
       <use style="stroke:#000000;stroke-width:0.6;" x="181.788203" xlink:href="#m6b1dc78921" y="448.918594"/>
      </g>
     </g>
    </g>
    <g id="xtick_61">
     <g id="line2d_79">
      <g>
       <use style="stroke:#000000;stroke-width:0.6;" x="192.04477" xlink:href="#m6b1dc78921" y="448.918594"/>
      </g>
     </g>
    </g>
    <g id="xtick_62">
     <g id="line2d_80">
      <g>
       <use style="stroke:#000000;stroke-width:0.6;" x="202.643223" xlink:href="#m6b1dc78921" y="448.918594"/>
      </g>
     </g>
    </g>
    <g id="xtick_63">
     <g id="line2d_81">
      <g>
       <use style="stroke:#000000;stroke-width:0.6;" x="212.899791" xlink:href="#m6b1dc78921" y="448.918594"/>
      </g>
     </g>
    </g>
    <g id="xtick_64">
     <g id="line2d_82">
      <g>
       <use style="stroke:#000000;stroke-width:0.6;" x="234.096696" xlink:href="#m6b1dc78921" y="448.918594"/>
      </g>
     </g>
    </g>
    <g id="xtick_65">
     <g id="line2d_83">
      <g>
       <use style="stroke:#000000;stroke-width:0.6;" x="243.669493" xlink:href="#m6b1dc78921" y="448.918594"/>
      </g>
     </g>
    </g>
    <g id="xtick_66">
     <g id="line2d_84">
      <g>
       <use style="stroke:#000000;stroke-width:0.6;" x="254.267946" xlink:href="#m6b1dc78921" y="448.918594"/>
      </g>
     </g>
    </g>
    <g id="xtick_67">
     <g id="line2d_85">
      <g>
       <use style="stroke:#000000;stroke-width:0.6;" x="264.524513" xlink:href="#m6b1dc78921" y="448.918594"/>
      </g>
     </g>
    </g>
    <g id="xtick_68">
     <g id="line2d_86">
      <g>
       <use style="stroke:#000000;stroke-width:0.6;" x="275.122966" xlink:href="#m6b1dc78921" y="448.918594"/>
      </g>
     </g>
    </g>
    <g id="xtick_69">
     <g id="line2d_87">
      <g>
       <use style="stroke:#000000;stroke-width:0.6;" x="295.977986" xlink:href="#m6b1dc78921" y="448.918594"/>
      </g>
     </g>
    </g>
    <g id="xtick_70">
     <g id="line2d_88">
      <g>
       <use style="stroke:#000000;stroke-width:0.6;" x="306.576439" xlink:href="#m6b1dc78921" y="448.918594"/>
      </g>
     </g>
    </g>
    <g id="xtick_71">
     <g id="line2d_89">
      <g>
       <use style="stroke:#000000;stroke-width:0.6;" x="316.833006" xlink:href="#m6b1dc78921" y="448.918594"/>
      </g>
     </g>
    </g>
    <g id="xtick_72">
     <g id="line2d_90">
      <g>
       <use style="stroke:#000000;stroke-width:0.6;" x="327.431459" xlink:href="#m6b1dc78921" y="448.918594"/>
      </g>
     </g>
    </g>
    <g id="xtick_73">
     <g id="line2d_91">
      <g>
       <use style="stroke:#000000;stroke-width:0.6;" x="337.688027" xlink:href="#m6b1dc78921" y="448.918594"/>
      </g>
     </g>
    </g>
    <g id="xtick_74">
     <g id="line2d_92">
      <g>
       <use style="stroke:#000000;stroke-width:0.6;" x="358.884933" xlink:href="#m6b1dc78921" y="448.918594"/>
      </g>
     </g>
    </g>
    <g id="xtick_75">
     <g id="line2d_93">
      <g>
       <use style="stroke:#000000;stroke-width:0.6;" x="368.457729" xlink:href="#m6b1dc78921" y="448.918594"/>
      </g>
     </g>
    </g>
    <g id="xtick_76">
     <g id="line2d_94">
      <g>
       <use style="stroke:#000000;stroke-width:0.6;" x="379.056182" xlink:href="#m6b1dc78921" y="448.918594"/>
      </g>
     </g>
    </g>
    <g id="xtick_77">
     <g id="line2d_95">
      <g>
       <use style="stroke:#000000;stroke-width:0.6;" x="389.312749" xlink:href="#m6b1dc78921" y="448.918594"/>
      </g>
     </g>
    </g>
    <g id="xtick_78">
     <g id="line2d_96">
      <g>
       <use style="stroke:#000000;stroke-width:0.6;" x="399.911202" xlink:href="#m6b1dc78921" y="448.918594"/>
      </g>
     </g>
    </g>
    <g id="xtick_79">
     <g id="line2d_97">
      <g>
       <use style="stroke:#000000;stroke-width:0.6;" x="420.766222" xlink:href="#m6b1dc78921" y="448.918594"/>
      </g>
     </g>
    </g>
    <g id="xtick_80">
     <g id="line2d_98">
      <g>
       <use style="stroke:#000000;stroke-width:0.6;" x="431.364675" xlink:href="#m6b1dc78921" y="448.918594"/>
      </g>
     </g>
    </g>
    <g id="xtick_81">
     <g id="line2d_99">
      <g>
       <use style="stroke:#000000;stroke-width:0.6;" x="441.621243" xlink:href="#m6b1dc78921" y="448.918594"/>
      </g>
     </g>
    </g>
    <g id="xtick_82">
     <g id="line2d_100">
      <g>
       <use style="stroke:#000000;stroke-width:0.6;" x="452.219696" xlink:href="#m6b1dc78921" y="448.918594"/>
      </g>
     </g>
    </g>
    <g id="xtick_83">
     <g id="line2d_101">
      <g>
       <use style="stroke:#000000;stroke-width:0.6;" x="462.476263" xlink:href="#m6b1dc78921" y="448.918594"/>
      </g>
     </g>
    </g>
    <g id="xtick_84">
     <g id="line2d_102">
      <g>
       <use style="stroke:#000000;stroke-width:0.6;" x="483.673169" xlink:href="#m6b1dc78921" y="448.918594"/>
      </g>
     </g>
    </g>
   </g>
   <g id="matplotlib.axis_4">
    <g id="ytick_8">
     <g id="line2d_103">
      <g>
       <use style="stroke:#000000;stroke-width:0.8;" x="46.965625" xlink:href="#m396fb0260b" y="438.600815"/>
      </g>
     </g>
     <g id="text_28">
      <!-- 110 -->
      <g transform="translate(20.878125 442.400034)scale(0.1 -0.1)">
       <use xlink:href="#DejaVuSans-31"/>
       <use x="63.623047" xlink:href="#DejaVuSans-31"/>
       <use x="127.246094" xlink:href="#DejaVuSans-30"/>
      </g>
     </g>
    </g>
    <g id="ytick_9">
     <g id="line2d_104">
      <g>
       <use style="stroke:#000000;stroke-width:0.8;" x="46.965625" xlink:href="#m396fb0260b" y="413.741785"/>
      </g>
     </g>
     <g id="text_29">
      <!-- 120 -->
      <g transform="translate(20.878125 417.541004)scale(0.1 -0.1)">
       <use xlink:href="#DejaVuSans-31"/>
       <use x="63.623047" xlink:href="#DejaVuSans-32"/>
       <use x="127.246094" xlink:href="#DejaVuSans-30"/>
      </g>
     </g>
    </g>
    <g id="ytick_10">
     <g id="line2d_105">
      <g>
       <use style="stroke:#000000;stroke-width:0.8;" x="46.965625" xlink:href="#m396fb0260b" y="388.882756"/>
      </g>
     </g>
     <g id="text_30">
      <!-- 130 -->
      <g transform="translate(20.878125 392.681975)scale(0.1 -0.1)">
       <use xlink:href="#DejaVuSans-31"/>
       <use x="63.623047" xlink:href="#DejaVuSans-33"/>
       <use x="127.246094" xlink:href="#DejaVuSans-30"/>
      </g>
     </g>
    </g>
    <g id="ytick_11">
     <g id="line2d_106">
      <g>
       <use style="stroke:#000000;stroke-width:0.8;" x="46.965625" xlink:href="#m396fb0260b" y="364.023726"/>
      </g>
     </g>
     <g id="text_31">
      <!-- 140 -->
      <g transform="translate(20.878125 367.822945)scale(0.1 -0.1)">
       <use xlink:href="#DejaVuSans-31"/>
       <use x="63.623047" xlink:href="#DejaVuSans-34"/>
       <use x="127.246094" xlink:href="#DejaVuSans-30"/>
      </g>
     </g>
    </g>
    <g id="ytick_12">
     <g id="line2d_107">
      <g>
       <use style="stroke:#000000;stroke-width:0.8;" x="46.965625" xlink:href="#m396fb0260b" y="339.164697"/>
      </g>
     </g>
     <g id="text_32">
      <!-- 150 -->
      <g transform="translate(20.878125 342.963916)scale(0.1 -0.1)">
       <use xlink:href="#DejaVuSans-31"/>
       <use x="63.623047" xlink:href="#DejaVuSans-35"/>
       <use x="127.246094" xlink:href="#DejaVuSans-30"/>
      </g>
     </g>
    </g>
    <g id="ytick_13">
     <g id="line2d_108">
      <g>
       <use style="stroke:#000000;stroke-width:0.8;" x="46.965625" xlink:href="#m396fb0260b" y="314.305667"/>
      </g>
     </g>
     <g id="text_33">
      <!-- 160 -->
      <g transform="translate(20.878125 318.104886)scale(0.1 -0.1)">
       <use xlink:href="#DejaVuSans-31"/>
       <use x="63.623047" xlink:href="#DejaVuSans-36"/>
       <use x="127.246094" xlink:href="#DejaVuSans-30"/>
      </g>
     </g>
    </g>
    <g id="ytick_14">
     <g id="line2d_109">
      <g>
       <use style="stroke:#000000;stroke-width:0.8;" x="46.965625" xlink:href="#m396fb0260b" y="289.446638"/>
      </g>
     </g>
     <g id="text_34">
      <!-- 170 -->
      <g transform="translate(20.878125 293.245857)scale(0.1 -0.1)">
       <use xlink:href="#DejaVuSans-31"/>
       <use x="63.623047" xlink:href="#DejaVuSans-37"/>
       <use x="127.246094" xlink:href="#DejaVuSans-30"/>
      </g>
     </g>
    </g>
    <g id="ytick_15">
     <g id="line2d_110">
      <g>
       <use style="stroke:#000000;stroke-width:0.8;" x="46.965625" xlink:href="#m396fb0260b" y="264.587608"/>
      </g>
     </g>
     <g id="text_35">
      <!-- 180 -->
      <g transform="translate(20.878125 268.386827)scale(0.1 -0.1)">
       <use xlink:href="#DejaVuSans-31"/>
       <use x="63.623047" xlink:href="#DejaVuSans-38"/>
       <use x="127.246094" xlink:href="#DejaVuSans-30"/>
      </g>
     </g>
    </g>
    <g id="text_36">
     <!-- Billion US Dollars -->
     <g transform="translate(14.798437 392.720511)rotate(-90)scale(0.1 -0.1)">
      <use xlink:href="#DejaVuSans-42"/>
      <use x="68.603516" xlink:href="#DejaVuSans-69"/>
      <use x="96.386719" xlink:href="#DejaVuSans-6c"/>
      <use x="124.169922" xlink:href="#DejaVuSans-6c"/>
      <use x="151.953125" xlink:href="#DejaVuSans-69"/>
      <use x="179.736328" xlink:href="#DejaVuSans-6f"/>
      <use x="240.917969" xlink:href="#DejaVuSans-6e"/>
      <use x="304.296875" xlink:href="#DejaVuSans-20"/>
      <use x="336.083984" xlink:href="#DejaVuSans-55"/>
      <use x="409.277344" xlink:href="#DejaVuSans-53"/>
      <use x="472.753906" xlink:href="#DejaVuSans-20"/>
      <use x="504.541016" xlink:href="#DejaVuSans-44"/>
      <use x="581.542969" xlink:href="#DejaVuSans-6f"/>
      <use x="642.724609" xlink:href="#DejaVuSans-6c"/>
      <use x="670.507812" xlink:href="#DejaVuSans-6c"/>
      <use x="698.291016" xlink:href="#DejaVuSans-61"/>
      <use x="759.570312" xlink:href="#DejaVuSans-72"/>
      <use x="800.683594" xlink:href="#DejaVuSans-73"/>
     </g>
    </g>
   </g>
   <g id="line2d_111">
    <path clip-path="url(#pe3b82f0dc7)" d="M 67.256534 364.647933 
L 77.854987 352.344039 
L 88.111554 341.205439 
L 98.710007 335.879709 
L 109.30846 321.007556 
L 118.881256 321.387989 
L 129.479709 323.356519 
L 139.736277 337.637966 
L 150.33473 337.138881 
L 160.591297 343.525246 
L 171.18975 348.91767 
L 181.788203 341.904289 
L 192.04477 342.36194 
L 202.643223 325.548893 
L 212.899791 305.727767 
L 223.498244 312.616031 
L 234.096696 286.126473 
L 243.669493 286.348747 
L 254.267946 285.376894 
L 264.524513 301.616916 
L 275.122966 301.427991 
L 285.379533 300.088529 
L 295.977986 303.3711 
L 306.576439 300.33555 
L 316.833006 303.458106 
L 327.431459 303.171708 
L 337.688027 294.746545 
L 348.28648 296.171793 
L 358.884933 276.072506 
L 368.457729 260.23099 
L 379.056182 278.131937 
L 389.312749 275.93551 
L 399.911202 288.23359 
L 410.167769 292.892461 
L 420.766222 293.899552 
L 431.364675 300.616446 
L 441.621243 310.049992 
L 452.219696 306.288573 
L 462.476263 287.434941 
L 473.074716 292.404473 
" style="fill:none;stroke:#6b8e23;stroke-linecap:square;stroke-width:3;"/>
   </g>
   <g id="line2d_112">
    <path clip-path="url(#pe3b82f0dc7)" d="M 67.256534 437.211207 
L 77.854987 439.93347 
L 88.111554 427.597725 
L 98.710007 420.477396 
L 109.30846 420.48558 
L 118.881256 421.04334 
L 129.479709 422.406343 
L 139.736277 423.8893 
L 150.33473 419.136719 
L 160.591297 419.941785 
L 171.18975 420.924704 
L 181.788203 417.254315 
L 192.04477 418.863298 
L 202.643223 411.495509 
L 212.899791 405.664774 
L 223.498244 405.395766 
L 234.096696 398.808052 
L 243.669493 395.521224 
L 254.267946 388.459571 
L 264.524513 381.988177 
L 275.122966 388.277418 
L 285.379533 391.14468 
L 295.977986 391.443563 
L 306.576439 388.268031 
L 316.833006 383.838414 
L 327.431459 390.867949 
L 337.688027 398.611715 
L 348.28648 388.821033 
L 358.884933 390.392778 
L 368.457729 389.46682 
L 379.056182 392.779613 
L 389.312749 388.703887 
L 399.911202 397.013765 
L 410.167769 391.358994 
L 420.766222 395.827911 
L 431.364675 397.708676 
L 441.621243 396.892203 
L 452.219696 400.364322 
L 462.476263 396.000035 
L 473.074716 394.608827 
" style="fill:none;stroke:#000080;stroke-linecap:square;stroke-width:3;"/>
   </g>
   <g id="line2d_113">
    <path clip-path="url(#pe3b82f0dc7)" d="M 98.710007 332.032869 
L 109.30846 332.032869 
L 118.881256 332.032869 
L 129.479709 332.032869 
L 139.736277 332.032869 
L 150.33473 332.032869 
L 160.591297 332.032869 
L 171.18975 332.032869 
L 181.788203 332.032869 
L 192.04477 332.032869 
L 202.643223 332.032869 
L 212.899791 332.032869 
" style="fill:none;stroke:#6b8e23;stroke-dasharray:7.4,3.2;stroke-dashoffset:0;stroke-width:2;"/>
   </g>
   <g id="line2d_114">
    <path clip-path="url(#pe3b82f0dc7)" d="M 98.710007 418.465255 
L 109.30846 418.465255 
L 118.881256 418.465255 
L 129.479709 418.465255 
L 139.736277 418.465255 
L 150.33473 418.465255 
L 160.591297 418.465255 
L 171.18975 418.465255 
L 181.788203 418.465255 
L 192.04477 418.465255 
L 202.643223 418.465255 
L 212.899791 418.465255 
" style="fill:none;stroke:#000080;stroke-dasharray:7.4,3.2;stroke-dashoffset:0;stroke-width:2;"/>
   </g>
   <g id="line2d_115">
    <path clip-path="url(#pe3b82f0dc7)" d="M 348.28648 288.829858 
L 358.884933 288.829858 
L 368.457729 288.829858 
L 379.056182 288.829858 
L 389.312749 288.829858 
L 399.911202 288.829858 
L 410.167769 288.829858 
L 420.766222 288.829858 
L 431.364675 288.829858 
L 441.621243 288.829858 
L 452.219696 288.829858 
L 462.476263 288.829858 
" style="fill:none;stroke:#6b8e23;stroke-dasharray:7.4,3.2;stroke-dashoffset:0;stroke-width:2;"/>
   </g>
   <g id="line2d_116">
    <path clip-path="url(#pe3b82f0dc7)" d="M 348.28648 393.777503 
L 358.884933 393.777503 
L 368.457729 393.777503 
L 379.056182 393.777503 
L 389.312749 393.777503 
L 399.911202 393.777503 
L 410.167769 393.777503 
L 420.766222 393.777503 
L 431.364675 393.777503 
L 441.621243 393.777503 
L 452.219696 393.777503 
L 462.476263 393.777503 
" style="fill:none;stroke:#000080;stroke-dasharray:7.4,3.2;stroke-dashoffset:0;stroke-width:2;"/>
   </g>
   <g id="line2d_117">
    <path clip-path="url(#pe3b82f0dc7)" d="M 285.379533 448.918594 
L 285.379533 251.245866 
" style="fill:none;stroke:#000000;stroke-dasharray:2,3.3;stroke-dashoffset:0;stroke-width:2;"/>
   </g>
   <g id="patch_11">
    <path d="M 46.965625 448.918594 
L 46.965625 251.245866 
" style="fill:none;stroke:#000000;stroke-linecap:square;stroke-linejoin:miter;stroke-width:0.8;"/>
   </g>
   <g id="patch_12">
    <path d="M 46.965625 448.918594 
L 493.365625 448.918594 
" style="fill:none;stroke:#000000;stroke-linecap:square;stroke-linejoin:miter;stroke-width:0.8;"/>
   </g>
   <g id="text_37">
    <!-- 2017 balance: -->
    <g transform="translate(160.591297 371.347016)scale(0.09 -0.09)">
     <use xlink:href="#DejaVuSans-32"/>
     <use x="63.623047" xlink:href="#DejaVuSans-30"/>
     <use x="127.246094" xlink:href="#DejaVuSans-31"/>
     <use x="190.869141" xlink:href="#DejaVuSans-37"/>
     <use x="254.492188" xlink:href="#DejaVuSans-20"/>
     <use x="286.279297" xlink:href="#DejaVuSans-62"/>
     <use x="349.755859" xlink:href="#DejaVuSans-61"/>
     <use x="411.035156" xlink:href="#DejaVuSans-6c"/>
     <use x="438.818359" xlink:href="#DejaVuSans-61"/>
     <use x="500.097656" xlink:href="#DejaVuSans-6e"/>
     <use x="563.476562" xlink:href="#DejaVuSans-63"/>
     <use x="618.457031" xlink:href="#DejaVuSans-65"/>
     <use x="679.980469" xlink:href="#DejaVuSans-3a"/>
    </g>
    <!--  -417.23 -->
    <g transform="translate(160.591297 381.425047)scale(0.09 -0.09)">
     <use xlink:href="#DejaVuSans-20"/>
     <use x="31.787109" xlink:href="#DejaVuSans-2d"/>
     <use x="67.871094" xlink:href="#DejaVuSans-34"/>
     <use x="131.494141" xlink:href="#DejaVuSans-31"/>
     <use x="195.117188" xlink:href="#DejaVuSans-37"/>
     <use x="258.740234" xlink:href="#DejaVuSans-2e"/>
     <use x="290.527344" xlink:href="#DejaVuSans-32"/>
     <use x="354.150391" xlink:href="#DejaVuSans-33"/>
    </g>
   </g>
   <g id="text_38">
    <!-- 2019 balance: -->
    <g transform="translate(410.167769 346.487986)scale(0.09 -0.09)">
     <use xlink:href="#DejaVuSans-32"/>
     <use x="63.623047" xlink:href="#DejaVuSans-30"/>
     <use x="127.246094" xlink:href="#DejaVuSans-31"/>
     <use x="190.869141" xlink:href="#DejaVuSans-39"/>
     <use x="254.492188" xlink:href="#DejaVuSans-20"/>
     <use x="286.279297" xlink:href="#DejaVuSans-62"/>
     <use x="349.755859" xlink:href="#DejaVuSans-61"/>
     <use x="411.035156" xlink:href="#DejaVuSans-6c"/>
     <use x="438.818359" xlink:href="#DejaVuSans-61"/>
     <use x="500.097656" xlink:href="#DejaVuSans-6e"/>
     <use x="563.476562" xlink:href="#DejaVuSans-63"/>
     <use x="618.457031" xlink:href="#DejaVuSans-65"/>
     <use x="679.980469" xlink:href="#DejaVuSans-3a"/>
    </g>
    <!--  -506.61 -->
    <g transform="translate(410.167769 356.566018)scale(0.09 -0.09)">
     <use xlink:href="#DejaVuSans-20"/>
     <use x="31.787109" xlink:href="#DejaVuSans-2d"/>
     <use x="67.871094" xlink:href="#DejaVuSans-35"/>
     <use x="131.494141" xlink:href="#DejaVuSans-30"/>
     <use x="195.117188" xlink:href="#DejaVuSans-36"/>
     <use x="258.740234" xlink:href="#DejaVuSans-2e"/>
     <use x="290.527344" xlink:href="#DejaVuSans-36"/>
     <use x="354.150391" xlink:href="#DejaVuSans-31"/>
    </g>
   </g>
   <g id="text_39">
    <!-- US-CN trade war -->
    <g transform="translate(210.523439 252.158094)scale(0.09 -0.09)">
     <use xlink:href="#DejaVuSans-55"/>
     <use x="73.193359" xlink:href="#DejaVuSans-53"/>
     <use x="136.669922" xlink:href="#DejaVuSans-2d"/>
     <use x="172.753906" xlink:href="#DejaVuSans-43"/>
     <use x="242.578125" xlink:href="#DejaVuSans-4e"/>
     <use x="317.382812" xlink:href="#DejaVuSans-20"/>
     <use x="349.169922" xlink:href="#DejaVuSans-74"/>
     <use x="388.378906" xlink:href="#DejaVuSans-72"/>
     <use x="429.492188" xlink:href="#DejaVuSans-61"/>
     <use x="490.771484" xlink:href="#DejaVuSans-64"/>
     <use x="554.248047" xlink:href="#DejaVuSans-65"/>
     <use x="615.771484" xlink:href="#DejaVuSans-20"/>
     <use x="647.558594" xlink:href="#DejaVuSans-77"/>
     <use x="729.345703" xlink:href="#DejaVuSans-61"/>
     <use x="790.625" xlink:href="#DejaVuSans-72"/>
    </g>
   </g>
   <g id="legend_2">
    <g id="patch_13">
     <path d="M 52.565625 281.130866 
L 161.519375 281.130866 
Q 163.119375 281.130866 163.119375 279.530866 
L 163.119375 256.845866 
Q 163.119375 255.245866 161.519375 255.245866 
L 52.565625 255.245866 
Q 50.965625 255.245866 50.965625 256.845866 
L 50.965625 279.530866 
Q 50.965625 281.130866 52.565625 281.130866 
z
" style="fill:#ffffff;opacity:0.8;stroke:#cccccc;stroke-linejoin:miter;"/>
    </g>
    <g id="line2d_118">
     <path d="M 54.165625 261.724616 
L 70.165625 261.724616 
" style="fill:none;stroke:#000080;stroke-linecap:square;stroke-width:3;"/>
    </g>
    <g id="line2d_119"/>
    <g id="text_40">
     <!-- US export to ROW -->
     <g transform="translate(76.565625 264.524616)scale(0.08 -0.08)">
      <defs>
       <path d="M 2841 2188 
Q 3044 2119 3236 1894 
Q 3428 1669 3622 1275 
L 4263 0 
L 3584 0 
L 2988 1197 
Q 2756 1666 2539 1819 
Q 2322 1972 1947 1972 
L 1259 1972 
L 1259 0 
L 628 0 
L 628 4666 
L 2053 4666 
Q 2853 4666 3247 4331 
Q 3641 3997 3641 3322 
Q 3641 2881 3436 2590 
Q 3231 2300 2841 2188 
z
M 1259 4147 
L 1259 2491 
L 2053 2491 
Q 2509 2491 2742 2702 
Q 2975 2913 2975 3322 
Q 2975 3731 2742 3939 
Q 2509 4147 2053 4147 
L 1259 4147 
z
" id="DejaVuSans-52" transform="scale(0.015625)"/>
       <path d="M 2522 4238 
Q 1834 4238 1429 3725 
Q 1025 3213 1025 2328 
Q 1025 1447 1429 934 
Q 1834 422 2522 422 
Q 3209 422 3611 934 
Q 4013 1447 4013 2328 
Q 4013 3213 3611 3725 
Q 3209 4238 2522 4238 
z
M 2522 4750 
Q 3503 4750 4090 4092 
Q 4678 3434 4678 2328 
Q 4678 1225 4090 567 
Q 3503 -91 2522 -91 
Q 1538 -91 948 565 
Q 359 1222 359 2328 
Q 359 3434 948 4092 
Q 1538 4750 2522 4750 
z
" id="DejaVuSans-4f" transform="scale(0.015625)"/>
       <path d="M 213 4666 
L 850 4666 
L 1831 722 
L 2809 4666 
L 3519 4666 
L 4500 722 
L 5478 4666 
L 6119 4666 
L 4947 0 
L 4153 0 
L 3169 4050 
L 2175 0 
L 1381 0 
L 213 4666 
z
" id="DejaVuSans-57" transform="scale(0.015625)"/>
      </defs>
      <use xlink:href="#DejaVuSans-55"/>
      <use x="73.193359" xlink:href="#DejaVuSans-53"/>
      <use x="136.669922" xlink:href="#DejaVuSans-20"/>
      <use x="168.457031" xlink:href="#DejaVuSans-65"/>
      <use x="228.230469" xlink:href="#DejaVuSans-78"/>
      <use x="287.410156" xlink:href="#DejaVuSans-70"/>
      <use x="350.886719" xlink:href="#DejaVuSans-6f"/>
      <use x="412.068359" xlink:href="#DejaVuSans-72"/>
      <use x="453.181641" xlink:href="#DejaVuSans-74"/>
      <use x="492.390625" xlink:href="#DejaVuSans-20"/>
      <use x="524.177734" xlink:href="#DejaVuSans-74"/>
      <use x="563.386719" xlink:href="#DejaVuSans-6f"/>
      <use x="624.568359" xlink:href="#DejaVuSans-20"/>
      <use x="656.355469" xlink:href="#DejaVuSans-52"/>
      <use x="725.837891" xlink:href="#DejaVuSans-4f"/>
      <use x="804.548828" xlink:href="#DejaVuSans-57"/>
     </g>
    </g>
    <g id="line2d_120">
     <path d="M 54.165625 273.467116 
L 70.165625 273.467116 
" style="fill:none;stroke:#6b8e23;stroke-linecap:square;stroke-width:3;"/>
    </g>
    <g id="line2d_121"/>
    <g id="text_41">
     <!-- US import from ROW -->
     <g transform="translate(76.565625 276.267116)scale(0.08 -0.08)">
      <use xlink:href="#DejaVuSans-55"/>
      <use x="73.193359" xlink:href="#DejaVuSans-53"/>
      <use x="136.669922" xlink:href="#DejaVuSans-20"/>
      <use x="168.457031" xlink:href="#DejaVuSans-69"/>
      <use x="196.240234" xlink:href="#DejaVuSans-6d"/>
      <use x="293.652344" xlink:href="#DejaVuSans-70"/>
      <use x="357.128906" xlink:href="#DejaVuSans-6f"/>
      <use x="418.310547" xlink:href="#DejaVuSans-72"/>
      <use x="459.423828" xlink:href="#DejaVuSans-74"/>
      <use x="498.632812" xlink:href="#DejaVuSans-20"/>
      <use x="530.419922" xlink:href="#DejaVuSans-66"/>
      <use x="565.625" xlink:href="#DejaVuSans-72"/>
      <use x="604.488281" xlink:href="#DejaVuSans-6f"/>
      <use x="665.669922" xlink:href="#DejaVuSans-6d"/>
      <use x="763.082031" xlink:href="#DejaVuSans-20"/>
      <use x="794.869141" xlink:href="#DejaVuSans-52"/>
      <use x="864.351562" xlink:href="#DejaVuSans-4f"/>
      <use x="943.0625" xlink:href="#DejaVuSans-57"/>
     </g>
    </g>
   </g>
  </g>
 </g>
 <defs>
  <clipPath id="pa90e401dc3">
   <rect height="197.672727" width="446.4" x="46.965625" y="14.038594"/>
  </clipPath>
  <clipPath id="pe3b82f0dc7">
   <rect height="197.672727" width="446.4" x="46.965625" y="251.245866"/>
  </clipPath>
 </defs>
</svg>
